<?xml version="1.0" encoding="utf-8" standalone="yes"?>
<!DOCTYPE svg PUBLIC "-//W3C//DTD SVG 1.1//EN" "http://www.w3.org/Graphics/SVG/1.1/DTD/svg11.dtd">
<svg width="762" height="506" viewBox="0 0 762 506" style="fill:none;stroke:none;fill-rule:evenodd;clip-rule:evenodd;stroke-linecap:round;stroke-linejoin:round;stroke-miterlimit:1.5;" version="1.1" xmlns="http://www.w3.org/2000/svg" xmlns:xlink="http://www.w3.org/1999/xlink"><style class="text-font-style fontImports" data-font-family="Roboto">@import url('https://fonts.googleapis.com/css2?family=Roboto:wght@400;700&amp;display=block');</style><g id="items" style="isolation: isolate"><g id="blend" style="mix-blend-mode: normal"><g id="g-root-0.g-0_fr_1uu9pmpfledjg-fill" data-item-order="-290486" transform="translate(105.26998901367188, 147.81591796875)"><g id="0.g-0_fr_1uu9pmpfledjg-fill" stroke="none" fill="url(#gradient-8a8a8a-330675446)"><g><path d="M 67.4251 80.7868L 82.4105 106.9928L 52.0142 107.4793L 10 180.25L 90.1797 180.25L 106.6466 152L 123.565 180.25L 206.588 180.25L 165.243 108.6389L 133.506 108.5072L 149.041 80.5762L 108.2939 10L 67.4251 80.7868Z"></path></g></g></g><g id="g-root-3.g-3_fr_1qf2oldfleb5y-fill" data-item-order="-290482" transform="translate(27, 114.3509521484375)"><g id="3.g-3_fr_1qf2oldfleb5y-fill" stroke="none" fill="url(#gradient-87aa3f-469929121)"><g><path d="M 160.68 140.458L 86.0805 10L 10 142.869L 160.68 140.458Z"></path></g></g></g><g id="g-root-2.g-2_fr_1lz96gxfleby8-fill" data-item-order="-290478" transform="translate(126.23599243164062, 289.81591796875)"><g id="2.g-2_fr_1lz96gxfleby8-fill" stroke="none" fill="url(#gradient-40ae79-389135447)"><g><path d="M 85.6799 10L 10 139.834L 163.108 139.287L 85.6799 10Z"></path></g></g></g><g id="g-root-1.g-1_fr_1d3m681flecqy-fill" data-item-order="-290474" transform="translate(228.77499389648438, 114.6239013671875)"><g id="1.g-1_fr_1d3m681flecqy-fill" stroke="none" fill="url(#gradient-2898bd-56937253)"><g><path d="M 10 141.699L 160.279 142.322L 83.2513 10L 10 141.699Z"></path></g></g></g><g id="g-root-1.g-1_1_fr_18nso3lfledj8-fill" data-item-order="-290454" transform="translate(439.05194091796875, 110.9990234375)"><g id="1.g-1_1_fr_18nso3lfledj8-fill" stroke="none" fill="url(#gradient-2898bd-56937253)"><g><path d="M 10 10L 10 39L 34 24.1778L 10 10Z"></path></g></g></g><g id="g-root-2.g-2_1_fr_zisjk1flfpqm-fill" data-item-order="-290438" transform="translate(439.05194091796875, 254.9990234375)"><g id="2.g-2_1_fr_zisjk1flfpqm-fill" stroke="none" fill="url(#gradient-40ae79-389135447)"><g><path d="M 10 10L 10 39L 34 24.1778L 10 10Z"></path></g></g></g><g id="g-root-3.g-3_1_fr_v2z1flflfqiw-fill" data-item-order="-290424" transform="translate(439.053955078125, 350.9990234375)"><defs><linearGradient id="gradient-8a8a8a-330675446" x2="0" y2="1"><stop offset="0" stop-color="#959595"></stop><stop offset="1" stop-color="#7f7f7f"></stop></linearGradient><linearGradient id="gradient-87aa3f-469929121" x2="0" y2="1"><stop offset="0" stop-color="#91bb39"></stop><stop offset="1" stop-color="#7d9844"></stop></linearGradient><linearGradient id="gradient-40ae79-389135447" x2="0" y2="1"><stop offset="0" stop-color="#3bc482"></stop><stop offset="1" stop-color="#449870"></stop></linearGradient><linearGradient id="gradient-2898bd-56937253" x2="0" y2="1"><stop offset="0" stop-color="#1fa9d7"></stop><stop offset="1" stop-color="#3187a3"></stop></linearGradient></defs><g id="3.g-3_1_fr_v2z1flflfqiw-fill" stroke="none" fill="url(#gradient-87aa3f-469929121)"><g><path d="M 10 10L 10 39L 34 24.1778L 10 10Z"></path></g></g></g><g id="g-root-tx_yutdnnki_qn5jb5flfrb6-fill" data-item-order="0" transform="translate(191, 39)"><g id="tx_yutdnnki_qn5jb5flfrb6-fill" stroke="none" fill="#f4f4f4"><g><text style="font: 15px Roboto, sans-serif; white-space: pre;" font-size="15px" font-family="Roboto, sans-serif"><tspan x="16.13" y="31" dominant-baseline="ideographic">Vai trò của tư bản tài chính tong tập đoàn độc quyền</tspan></text></g></g></g><g id="g-root-tx_ngnhcngn_1q9getdflijuo-fill" data-item-order="0" transform="translate(475.053955078125, 111)"><g id="tx_ngnhcngn_1q9getdflijuo-fill" stroke="none" fill="#1ac3fb"><g><text style="font: bold 20px Roboto, sans-serif; white-space: pre;" font-weight="bold" font-size="20px" font-family="Roboto, sans-serif"><tspan x="12" y="34" dominant-baseline="ideographic">Ngành công nghiệp phần </tspan><tspan x="12" y="58" dominant-baseline="ideographic">mềm</tspan></text></g></g></g><g id="g-root-tx_sphttrin_1cxzwg1flilfl-fill" data-item-order="0" transform="translate(475.053955078125, 171)"><g id="tx_sphttrin_1cxzwg1flilfl-fill" stroke="none" fill="#f4f4f4"><g><text style="font: 15px Roboto, sans-serif; white-space: pre;" font-size="15px" font-family="Roboto, sans-serif"><tspan x="12" y="31" dominant-baseline="ideographic">Sự phát triển của các dịch vụ kỹ </tspan><tspan x="12" y="49" dominant-baseline="ideographic">thuật số thúc đẩy sự tích hợp kinh </tspan><tspan x="12" y="67" dominant-baseline="ideographic">tế</tspan></text></g></g></g><g id="g-root-inte_dcbi0xflfpqb-fill" data-item-order="0" transform="translate(79.5260009765625, 183.3509521484375)"></g><g id="g-root-1_v97sapflh5hj-fill" data-item-order="0" transform="translate(277.5260009765625, 183.3509521484375)"></g><g id="g-root-tx_cchcphiu_142zda9flij2i-fill" data-item-order="0" transform="translate(475.053955078125, 255)"><g id="tx_cchcphiu_142zda9flij2i-fill" stroke="none" fill="#43dd93"><g><text style="font: bold 20px Roboto, sans-serif; white-space: pre;" font-weight="bold" font-size="20px" font-family="Roboto, sans-serif"><tspan x="12" y="34" dominant-baseline="ideographic">Cơ chế cổ phiếu</tspan></text></g></g></g><g id="g-root-tx_cchthngc_qriuwxfliknf-fill" data-item-order="0" transform="translate(469.053955078125, 291)"><g id="tx_cchthngc_qriuwxfliknf-fill" stroke="none" fill="#f4f4f4"><g><text style="font: 15px Roboto, sans-serif; white-space: pre;" font-size="15px" font-family="Roboto, sans-serif"><tspan x="12" y="28" dominant-baseline="ideographic">Các hệ thống cho phép cổ đông lớn </tspan><tspan x="12" y="46" dominant-baseline="ideographic">kiểm soát công ty</tspan></text></g></g></g><g id="g-root-1_1uu9pmpflfrpi-fill" data-item-order="0" transform="translate(178.97601318359375, 349.3509521484375)"></g><g id="g-root-tx_ngnhngaq_dgotmpflij2k-fill" data-item-order="0" transform="translate(475.053955078125, 351)"><g id="tx_ngnhngaq_dgotmpflij2k-fill" stroke="none" fill="#a6da37"><g><text style="font: bold 20px Roboto, sans-serif; white-space: pre;" font-weight="bold" font-size="20px" font-family="Roboto, sans-serif"><tspan x="12" y="34" dominant-baseline="ideographic">Ngân hàng đa quốc gia</tspan></text></g></g></g><g id="g-root-tx_cctchcti_58b9dfliknh-fill" data-item-order="0" transform="translate(475.053955078125, 387)"><g id="tx_cctchcti_58b9dfliknh-fill" stroke="none" fill="#f4f4f4"><g><text style="font: 15px Roboto, sans-serif; white-space: pre;" font-size="15px" font-family="Roboto, sans-serif"><tspan x="12" y="28" dominant-baseline="ideographic">Các tổ chức tài chính điều tiết các </tspan><tspan x="12" y="46" dominant-baseline="ideographic">nền kinh tế trên quy mô toàn cầu</tspan></text></g></g></g><g id="g-root-0.g-0_fr_1uu9pmpfledjg-stroke" data-item-order="-290486" transform="translate(105.26998901367188, 147.81591796875)"><g id="0.g-0_fr_1uu9pmpfledjg-stroke" fill="none" stroke-linecap="round" stroke-linejoin="round" stroke-miterlimit="4" stroke="#f4f4f4" stroke-width="2"><g><path d="M 67.4251 80.7868L 82.4105 106.9928L 52.0142 107.4793L 10 180.25L 90.1797 180.25L 106.6466 152L 123.5653 180.25L 206.5878 180.25L 165.2431 108.6389L 133.5057 108.5072L 149.0411 80.5762L 108.2939 10L 67.4251 80.7868Z"></path></g></g></g><g id="g-root-3.g-3_fr_1qf2oldfleb5y-stroke" data-item-order="-290482" transform="translate(27, 114.3509521484375)"><g id="3.g-3_fr_1qf2oldfleb5y-stroke" fill="none" stroke-linecap="round" stroke-linejoin="round" stroke-miterlimit="4" stroke="#f4f4f4" stroke-width="2"><g><path d="M 160.6799 140.4576L 86.0805 10L 10 142.8693L 160.6799 140.4576Z"></path></g></g></g><g id="g-root-2.g-2_fr_1lz96gxfleby8-stroke" data-item-order="-290478" transform="translate(126.23599243164062, 289.81591796875)"><g id="2.g-2_fr_1lz96gxfleby8-stroke" fill="none" stroke-linecap="round" stroke-linejoin="round" stroke-miterlimit="4" stroke="#f4f4f4" stroke-width="2"><g><path d="M 85.6799 10L 10 139.8338L 163.1085 139.2867L 85.6799 10Z"></path></g></g></g><g id="g-root-1.g-1_fr_1d3m681flecqy-stroke" data-item-order="-290474" transform="translate(228.77499389648438, 114.6239013671875)"><g id="1.g-1_fr_1d3m681flecqy-stroke" fill="none" stroke-linecap="round" stroke-linejoin="round" stroke-miterlimit="4" stroke="#f4f4f4" stroke-width="2"><g><path d="M 10 141.6985L 160.2793 142.3223L 83.2513 10L 10 141.6985Z"></path></g></g></g><g id="g-root-1.g-1_1_fr_18nso3lfledj8-stroke" data-item-order="-290454" transform="translate(439.05194091796875, 110.9990234375)"><g id="1.g-1_1_fr_18nso3lfledj8-stroke" fill="none" stroke-linecap="round" stroke-linejoin="round" stroke-miterlimit="4" stroke="#f4f4f4" stroke-width="2"><g><path d="M 10 10L 10 39L 34 24.1778L 10 10Z"></path></g></g></g><g id="g-root-2.g-2_1_fr_zisjk1flfpqm-stroke" data-item-order="-290438" transform="translate(439.05194091796875, 254.9990234375)"><g id="2.g-2_1_fr_zisjk1flfpqm-stroke" fill="none" stroke-linecap="round" stroke-linejoin="round" stroke-miterlimit="4" stroke="#f4f4f4" stroke-width="2"><g><path d="M 10 10L 10 39L 34 24.1778L 10 10Z"></path></g></g></g><g id="g-root-3.g-3_1_fr_v2z1flflfqiw-stroke" data-item-order="-290424" transform="translate(439.053955078125, 350.9990234375)"><g id="3.g-3_1_fr_v2z1flflfqiw-stroke" fill="none" stroke-linecap="round" stroke-linejoin="round" stroke-miterlimit="4" stroke="#f4f4f4" stroke-width="2"><g><path d="M 10 10L 10 39L 34 24.1778L 10 10Z"></path></g></g></g><g id="g-root-tx_yutdnnki_qn5jb5flfrb6-stroke" data-item-order="0" transform="translate(191, 39)"></g><g id="g-root-tx_ngnhcngn_1q9getdflijuo-stroke" data-item-order="0" transform="translate(475.053955078125, 111)"></g><g id="g-root-tx_sphttrin_1cxzwg1flilfl-stroke" data-item-order="0" transform="translate(475.053955078125, 171)"></g><g id="g-root-inte_dcbi0xflfpqb-stroke" data-item-order="0" transform="translate(79.5260009765625, 183.3509521484375)"><g id="inte_dcbi0xflfpqb-stroke" fill="none" stroke-linecap="round" stroke-linejoin="round" stroke-miterlimit="4" stroke="#f4f4f4" stroke-width="2"><g><path d="M 13.804 45L 26.028 45.001999M 15.032 21L 53 21M 27.722 33.001999L 11.03 33M 23.736 54.585999C 13.941952 49.682316 8.964682 38.552299 11.839409 27.983221C 14.714136 17.414141 24.643219 10.338566 35.571743 11.071298C 46.500267 11.804029 55.395924 20.141758 56.834 31M 32.545998 11.052C 22.526001 21.908001 21.024 35.493999 27.799999 49M 35.468002 11.052C 39.69672 15.471807 42.591751 20.995657 43.82 26.987999M 33.007999 41L 37.007999 41L 37.007999 53L 33.007999 53ZM 41.007999 41L 45.007999 41L 45.007999 53L 41.007999 53ZM 49.007999 41L 53.007999 41L 53.007999 53L 49.007999 53ZM 31 37L 55 37L 55 37L 55 40C 55 40.552284 54.552284 41 54 41L 32 41C 31.447716 41 31 40.552284 31 40L 31 37L 31 37ZM 55 57L 31 57L 31 54C 31 53.447716 31.447716 53 32 53L 54 53C 54.552284 53 55 53.447716 55 54ZM 29.007999 57L 57.007999 57M 31 37L 42.551998 31.224001C 42.833958 31.082712 43.166042 31.082712 43.448002 31.224001L 55 37"></path></g></g></g><g id="g-root-1_v97sapflh5hj-stroke" data-item-order="0" transform="translate(277.5260009765625, 183.3509521484375)"><g id="1_v97sapflh5hj-stroke" fill="none" stroke-linecap="round" stroke-linejoin="round" stroke-miterlimit="4" stroke="#f4f4f4" stroke-width="2"><g><path d="M 13.428572 16.857143L 54.57143 16.857143C 54.57143 16.857143 56.285713 16.857143 56.285713 18.571428L 56.285713 46C 56.285713 46 56.285713 47.714287 54.57143 47.714287L 13.428572 47.714287C 13.428572 47.714287 11.714286 47.714287 11.714286 46L 11.714286 18.571428C 11.714286 18.571428 11.714286 16.857143 13.428572 16.857143M 30.571428 47.714287L 27.142857 56.285713M 37.428574 47.714287L 40.857143 56.285713M 23.714287 56.285713L 44.285713 56.285713M 25.428572 28L 19.428572 33.142857L 24.571428 37.428574M 43.428574 28.857143L 48.57143 33.142857L 42.57143 38.285713M 31.428572 40L 36.57143 24.571428"></path></g></g></g><g id="g-root-tx_cchcphiu_142zda9flij2i-stroke" data-item-order="0" transform="translate(475.053955078125, 255)"></g><g id="g-root-tx_cchthngc_qriuwxfliknf-stroke" data-item-order="0" transform="translate(469.053955078125, 291)"></g><g id="g-root-1_1uu9pmpflfrpi-stroke" data-item-order="0" transform="translate(178.97601318359375, 349.3509521484375)"><g id="1_1uu9pmpflfrpi-stroke" fill="none" stroke-linecap="round" stroke-linejoin="round" stroke-miterlimit="4" stroke="#f4f4f4" stroke-width="2"><g><path d="M 27.402 12.396L 54.478001 12.396C 54.478001 12.396 56.478001 12.396 56.478001 14.396L 56.478001 30.878C 56.478001 30.878 56.478001 32.877998 54.478001 32.877998L 27.402 32.877998C 27.402 32.877998 25.402 32.877998 25.402 30.878L 25.402 14.396C 25.402 14.396 25.402 12.396 27.402 12.396M 34.085999 27.282L 49.066002 27.282M 38.223999 19.922001C 38.223618 21.422277 39.43972 22.638697 40.940002 22.638697C 42.440277 22.638697 43.656384 21.422277 43.655998 19.922001C 43.656384 18.421722 42.440277 17.205303 40.940002 17.205303C 39.43972 17.205303 38.223618 18.421722 38.223999 19.922001M 42.551998 38.321999L 42.551998 46.07C 42.550896 51.333595 38.283596 55.599998 33.019997 55.599998L 26.66 55.599998C 23.393938 55.601219 20.353756 53.93327 18.6 51.178001C 16.764 48.273998 13.25 37.514 11.66 32.486C 11.194022 31.003466 11.953877 29.413012 13.4 28.844L 13.4 28.844C 14.7094 28.320024 16.206707 28.789865 16.982 29.968C 18.104 31.667999 18.48 32.723999 19.529999 34.542L 19.681999 21.284C 19.681999 19.704464 20.962465 18.424 22.542 18.424C 24.121534 18.424 25.402 19.704464 25.402 21.284L 25.402 30.632M 18.924 33.466L 21.324001 37.489998C 26.098 38.706001 26 42.116001 26 45.116001"></path></g></g></g><g id="g-root-tx_ngnhngaq_dgotmpflij2k-stroke" data-item-order="0" transform="translate(475.053955078125, 351)"></g><g id="g-root-tx_cctchcti_58b9dfliknh-stroke" data-item-order="0" transform="translate(475.053955078125, 387)"></g></g></g></svg>