<?xml version="1.0" encoding="utf-8" standalone="yes"?>
<!DOCTYPE svg PUBLIC "-//W3C//DTD SVG 1.1//EN" "http://www.w3.org/Graphics/SVG/1.1/DTD/svg11.dtd">
<svg width="758" height="650" viewBox="0 0 758 650" style="fill:none;stroke:none;fill-rule:evenodd;clip-rule:evenodd;stroke-linecap:round;stroke-linejoin:round;stroke-miterlimit:1.5;" version="1.1" xmlns="http://www.w3.org/2000/svg" xmlns:xlink="http://www.w3.org/1999/xlink"><style class="text-font-style fontImports" data-font-family="Roboto">@import url('https://fonts.googleapis.com/css2?family=Roboto:wght@400;700&amp;display=block');</style><g id="items" style="isolation: isolate"><g id="blend" style="mix-blend-mode: normal"><g id="g-root-0b.g-0b_fr_4havrle7lyj2-fill" data-item-order="-390804" transform="translate(63.83702087402344, 349.7578125)"><g id="0b.g-0b_fr_4havrle7lyj2-fill" stroke="none" fill="#ababab"><g><path d="M 72.782085 101.640563L 39.062685 92.605763C 35.846985 91.785363 32.569385 93.672163 31.718185 96.848963C 30.866585 100.027063 32.763585 103.301163 35.960885 104.197063L 10.204485 200.321062C 9.792585 201.858063 10.008185 203.496063 10.803885 204.874062L 15.217185 212.518062L 41.357585 114.961263C 42.215185 111.760463 45.505185 109.860963 48.705985 110.718563C 51.906785 111.576263 53.806285 114.866263 52.948685 118.067062L 23.702485 227.215063L 24.531785 228.651063C 25.636385 230.565063 28.082685 231.220063 29.995885 230.116063L 31.428985 229.288063L 61.451985 117.240663C 62.309585 114.039863 65.599685 112.140363 68.800485 112.997963L 70.733685 113.516163L 70.735285 113.515263L 75.609285 114.821263C 75.582685 114.492562 75.583185 114.157463 75.612885 113.818163C 75.821285 111.435963 77.411385 109.502563 79.535785 108.720663C 76.785585 107.574963 74.514685 105.425663 73.238185 102.636863L 72.782085 101.640563Z"></path></g></g><g id="0b.g-0b_fr_4havrle7lyj2-fill" stroke="none" fill="#ababab"><g><path d="M 48.706958 110.721525C 45.506158 109.863925 42.216158 111.763425 41.358458 114.964225L 15.218158 212.521625L 15.217758 212.522625L 23.703058 227.219625L 23.703458 227.218625L 52.949558 118.070025C 53.807258 114.869225 51.907758 111.579225 48.706958 110.721525Z"></path></g></g><g id="0b.g-0b_fr_4havrle7lyj2-fill" stroke="none" fill="#ababab"><g><path d="M 68.801173 113.002775C 65.600373 112.145175 62.310373 114.044675 61.452672 117.245475L 31.429673 229.292875L 50.308173 218.392875C 50.767473 218.127875 51.102673 217.690875 51.239973 217.178875L 52.881773 211.051975C 53.018973 210.539575 52.947173 209.993675 52.681973 209.534275L 47.439273 200.453775L 54.070273 196.625375C 54.529673 196.360075 54.864873 195.923275 55.002173 195.410875L 56.126273 191.215775C 56.263573 190.703375 56.191673 190.157475 55.926473 189.698175L 52.098073 183.067075L 57.714473 179.824475C 58.671073 179.272175 58.998773 178.048975 58.446473 177.092375L 55.203873 171.475975L 64.494473 166.112075C 65.451073 165.559775 65.778873 164.336575 65.226573 163.379975L 59.862573 154.089375L 65.478973 150.846675C 66.435573 150.294375 66.763373 149.071175 66.211073 148.114675L 62.968472 142.498175L 69.599473 138.669775C 70.058873 138.404575 70.393973 137.967775 70.531273 137.455375L 71.655373 133.260275C 71.792673 132.747875 71.720773 132.201975 71.455573 131.742575L 67.627173 125.111575L 74.258172 121.283175C 74.717573 121.017875 75.052772 120.581075 75.190073 120.068675L 76.528573 115.073375L 68.801173 113.002775Z"></path></g></g><g id="0b.g-0b_fr_4havrle7lyj2-fill" stroke="none" fill="#ababab"><g><path d="M 55.362843 49.523006C 52.963143 53.002306 52.570443 57.486906 54.329543 61.330106L 66.982543 88.973006L 50.002543 84.423206C 46.928443 83.599506 44.310343 81.589106 42.719043 78.832906L 27.374843 52.256006C 25.165743 48.429606 26.476743 43.536906 30.303043 41.327806L 79.405843 12.978306C 79.942343 12.668606 80.499743 12.428006 81.067843 12.253906L 55.362843 49.523006Z"></path></g></g><g id="0b.g-0b_fr_4havrle7lyj2-fill" stroke="none" fill="#ababab"><g><path d="M 122.889087 123.972606C 122.895187 123.979006 122.901187 123.985406 122.907287 123.991806L 121.412187 141.080606C 121.365987 141.609006 121.111687 142.097406 120.705387 142.438306L 114.839887 147.360106L 119.008587 152.328106C 119.718587 153.174306 119.608187 154.435806 118.762087 155.145806L 113.793987 159.314406L 118.715787 165.179906C 119.056687 165.586306 119.222287 166.111406 119.176087 166.639806L 118.797587 170.966406C 118.751287 171.494806 118.497087 171.983206 118.090687 172.324206L 112.225187 177.245906L 117.146987 183.111406C 117.487887 183.517806 117.653487 184.042906 117.607287 184.571306L 117.228687 188.897906C 117.182487 189.426306 116.928287 189.914806 116.521887 190.255706L 110.656387 195.177406L 117.396287 203.209606C 117.737187 203.616006 117.902787 204.141106 117.856587 204.669506L 117.303687 210.988506C 117.257487 211.516906 117.003187 212.005306 116.596887 212.346306L 108.564687 219.086106L 115.460487 227.303906C 116.170487 228.149906 116.060087 229.411906 115.213987 230.121906L 98.329087 244.289906L 108.439187 128.731306C 108.727987 125.430206 111.638187 122.988306 114.939287 123.277106L 122.889087 123.972606Z"></path></g></g><g id="0b.g-0b_fr_4havrle7lyj2-fill" stroke="none" fill="#ababab"><g><path d="M 94.754933 124.5232C 91.453833 124.2344 88.543633 126.6763 88.254833 129.9774L 79.452133 230.593L 90.360633 243.593L 100.209233 131.0233C 100.498033 127.7222 98.056033 124.812 94.754933 124.5232ZM 100.209233 131.0233L 90.360633 243.593L 79.452133 230.593L 88.254833 129.9774C 88.543633 126.6763 91.453833 124.2344 94.754933 124.5232C 98.056033 124.812 100.498033 127.7222 100.209233 131.0233ZM 90.360633 243.593L 100.209233 131.0233C 100.498033 127.7222 98.056033 124.812 94.754933 124.5232C 91.453833 124.2344 88.543633 126.6763 88.254833 129.9774L 79.452133 230.593L 90.360633 243.593Z"></path></g></g><g id="0b.g-0b_fr_4havrle7lyj2-fill" stroke="none" fill="#ababab"><g><path d="M 121.884155 112.09165L 79.539155 108.71875C 77.413655 109.50015 75.822555 111.43395 75.614055 113.81705C 75.327255 117.09465 77.763955 119.98965 81.068255 120.31675L 72.394855 219.45275C 72.256255 221.03875 72.752955 222.61375 73.775855 223.83275L 79.452355 230.59675L 88.255055 129.98085C 88.543855 126.67975 91.454055 124.23785 94.755155 124.52665C 98.056255 124.81545 100.498155 127.72565 100.209355 131.02675L 90.360755 243.59675L 91.424055 244.86475C 92.844055 246.55775 95.367155 246.77775 97.059455 245.35775L 98.330055 244.29275L 108.440155 128.73425C 108.728955 125.43315 111.639155 122.99115 114.940255 123.27995L 122.889355 123.97575C 121.997755 123.03155 121.407455 121.79615 121.286055 120.40855C 121.019255 117.35855 123.110655 114.63985 126.064955 114.01345C 124.641355 113.43135 123.246655 112.78975 121.884155 112.09165Z"></path></g></g><g id="0b.g-0b_fr_4havrle7lyj2-fill" stroke="none" fill="#ababab"><g><path d="M 116.558441 19.023556C 100.661441 29.615356 90.889041 48.332556 92.671241 68.703856C 93.194441 74.684056 94.673541 80.350956 96.944841 85.567256L 90.184041 84.975756C 86.882941 84.686956 83.972741 87.128956 83.683941 90.430056C 83.514341 92.368356 80.885941 92.827556 80.069141 91.061556L 65.089341 58.672256C 64.195241 56.738856 64.393141 54.476356 65.609441 52.727556L 88.644541 19.609256C 89.872441 17.843856 91.951041 16.870656 94.093141 17.058056L 116.558441 19.023556Z"></path></g></g><g id="0b.g-0b_fr_4havrle7lyj2-fill" stroke="none" fill="#ababab"><g><path d="M 156.202873 129.400525C 155.914073 126.099425 158.355973 123.189125 161.657073 122.900325L 169.626673 122.203125L 170.077373 127.355025C 170.123572 127.883425 169.958073 128.408525 169.617073 128.814925L 164.695373 134.680425L 169.663373 138.849025C 170.509473 139.559025 170.619873 140.820525 169.909873 141.666725L 165.741273 146.634725L 171.606673 151.556425C 172.013073 151.897425 172.267273 152.385825 172.313573 152.914225L 172.692073 157.240825C 172.738273 157.769225 172.572673 158.294425 172.231773 158.700725L 167.310073 164.566225L 172.278073 168.734925C 173.124173 169.444925 173.234573 170.706425 172.524573 171.552525L 168.355873 176.520525L 176.388073 183.260425C 176.794373 183.601325 177.048673 184.089725 177.094873 184.618125L 177.647773 190.937125C 177.693973 191.465625 177.528373 191.990725 177.187473 192.397025L 170.447673 200.429225L 176.313173 205.351025C 176.719473 205.691925 176.973673 206.180325 177.019973 206.708725L 177.398473 211.035325C 177.444673 211.563725 177.279173 212.088925 176.938173 212.495225L 172.016473 218.360725L 180.234473 225.256125C 181.080673 225.966125 181.191073 227.228125 180.480973 228.074125L 166.312973 244.959125L 166.312773 244.957125L 156.202873 129.400525Z"></path></g></g><g id="0b.g-0b_fr_4havrle7lyj2-fill" stroke="none" fill="#ababab"><g><path d="M 141.994963 127.632575C 138.693863 127.921375 136.251963 130.831575 136.540763 134.132675L 145.343363 234.747375L 145.343463 234.748375L 158.343563 245.655375L 148.495063 133.086775C 148.206263 129.785675 145.296063 127.343775 141.994963 127.632575Z"></path></g></g><g id="0b.g-0b_fr_4havrle7lyj2-fill" stroke="none" fill="#ababab"><g><path d="M 149.71688 111.921744L 126.07038 114.012144C 123.11298 114.636244 121.01858 117.356544 121.28558 120.408544C 121.57238 123.686144 124.47478 126.114044 127.78558 125.862344L 136.45888 224.998844C 136.59758 226.583844 137.36038 228.048844 138.57938 229.071844L 145.34288 234.746844L 136.54018 134.132944C 136.25138 130.831844 138.69338 127.921644 141.99448 127.632844C 145.29558 127.344044 148.20578 129.785944 148.49458 133.087044L 158.34308 245.655844L 159.61178 246.719844C 161.30408 248.139844 163.82708 247.919844 165.24708 246.226844L 166.31228 244.957844L 156.20228 129.400644C 155.91348 126.099544 158.35548 123.189344 161.65658 122.900544L 171.47978 122.040444C 169.33968 121.579644 167.53368 119.981144 166.93358 117.741544C 166.15508 114.836044 167.67378 111.850244 170.38328 110.674944L 170.39058 110.671744L 170.31558 110.630644L 170.30678 110.633044L 165.38038 111.953044C 160.05368 113.380344 154.67758 113.280444 149.71688 111.921744Z"></path></g></g><g id="0b.g-0b_fr_4havrle7lyj2-fill" stroke="none" fill="#ababab"><g><path d="M 151.399176 20.3984C 143.643076 29.144 140.288676 41.4939 143.540576 53.63L 144.213576 56.1415C 131.903276 62.2723 125.100676 76.2812 128.470776 90.0879C 126.330676 91.1561 124.951376 93.4542 125.172476 95.9814C 125.424676 98.8644 122.402676 100.8066 120.090576 99.066C 110.495776 91.8433 103.887576 80.7334 102.758476 67.8278C 100.646476 43.6885 118.503276 22.4077 142.642476 20.2957C 145.614876 20.0357 148.543976 20.0784 151.399176 20.3984Z"></path></g></g><g id="0b.g-0b_fr_4havrle7lyj2-fill" stroke="none" fill="#ababab"><g><path d="M 218.438154 97.730231L 218.410354 97.737731L 170.307454 110.626831L 170.391054 110.672531C 167.677054 111.845631 166.154854 114.834331 166.934054 117.742431C 167.785654 120.920431 171.065554 122.807531 174.282354 121.984631L 200.038754 218.108531C 200.450654 219.645531 201.456254 220.956531 202.834354 221.752531L 210.480454 226.166531L 184.339754 128.608231C 183.482054 125.407431 185.381554 122.117431 188.582354 121.259831C 191.783154 120.402131 195.073254 122.301631 195.930854 125.502431L 225.177454 234.652531L 226.611754 235.479531C 228.524954 236.584531 230.971254 235.928531 232.075854 234.015531L 232.904354 232.580531L 202.881354 120.533631C 202.023754 117.332831 203.923154 114.042831 207.123954 113.185131L 221.543954 109.321431C 224.782754 108.453531 226.713154 105.155231 225.855454 101.954431C 224.997854 98.753631 221.676954 96.862431 218.438154 97.730231Z"></path></g></g><g id="0b.g-0b_fr_4havrle7lyj2-fill" stroke="none" fill="#ababab"><g><path d="M 207.124366 113.187788C 203.923566 114.045388 202.024066 117.335388 202.881666 120.536188L 232.904766 232.583188L 241.804166 217.169188C 242.356466 216.212188 242.028766 214.989188 241.072166 214.437188L 235.455766 211.194188L 239.284166 204.563488C 239.549366 204.104088 239.621266 203.558188 239.483966 203.045888L 238.359866 198.850688C 238.222566 198.338388 237.887366 197.901488 237.428066 197.636287L 230.796966 193.807888L 229.244066 188.012288L 233.072466 181.381287C 233.337766 180.921888 233.409566 180.375988 233.272266 179.863688L 232.148266 175.668488C 232.010966 175.156088 231.675766 174.719288 231.216366 174.454088L 224.585366 170.625688L 229.949266 161.334988C 230.501566 160.378388 230.173866 159.155188 229.217266 158.602987L 219.926566 153.238988L 223.169266 147.622588C 223.721566 146.665988 223.393766 145.442788 222.437166 144.890488L 220.494966 143.769187L 223.616366 138.362888C 223.881566 137.903588 223.953366 137.357588 223.816166 136.845288L 222.174366 130.718288C 222.037066 130.205888 221.701866 129.769088 221.242566 129.503888L 212.162066 124.261188L 215.990466 117.630188C 216.255666 117.170788 216.327566 116.624888 216.190266 116.112588L 214.851766 111.117188L 207.124366 113.187788Z"></path></g></g><g id="0b.g-0b_fr_4havrle7lyj2-fill" stroke="none" fill="#ababab"><g><path d="M 188.582374 121.260588C 185.381574 122.118288 183.482074 125.408288 184.339674 128.609088L 210.480474 226.167688L 225.177374 234.652688L 195.930774 125.503288C 195.073174 122.302488 191.783174 120.402988 188.582374 121.260588Z"></path></g></g><g id="0b.g-0b_fr_4havrle7lyj2-fill" stroke="none" fill="#ababab"><g><path d="M 193.902821 23.035516C 187.614521 18.702016 179.537321 17.049116 171.582521 19.180616C 157.178921 23.040016 148.631221 37.845116 152.490621 52.248716L 154.561221 59.976116C 154.990021 61.576516 154.040321 63.221516 152.439921 63.650416C 141.770621 66.509216 135.438921 77.475916 138.297721 88.145216C 141.156621 98.814616 152.123321 105.146216 162.792621 102.287416L 220.748221 86.758216C 231.417521 83.899416 237.749321 72.932716 234.890321 62.263316C 232.031521 51.594016 221.064821 45.262416 210.395421 48.121216C 208.795021 48.550016 207.150021 47.600316 206.721221 45.999916L 204.650621 38.272516C 203.973621 35.745916 202.959821 33.399416 201.670521 31.268616C 196.865821 34.074116 191.884021 36.609416 186.746021 38.853516C 186.201621 42.704716 183.423421 46.047216 179.429421 47.117416C 176.043621 48.024616 172.597921 47.080816 170.166721 44.906216L 170.162621 44.907516C 168.765421 43.656216 167.703821 41.998316 167.182121 40.051416C 166.979821 39.296416 166.869621 38.538316 166.844521 37.789216C 166.689921 33.243816 169.671721 29.026416 174.253021 27.798916C 176.995321 27.064116 179.776821 27.543616 182.026821 28.907716C 186.095021 27.143716 190.057621 25.182316 193.902821 23.035516Z"></path></g></g></g><g id="g-root-1.g-1_fr_1q6yfdde7m0p3-fill" data-item-order="-390794" transform="translate(67.59188842773438, 338.65234375)"><g id="1.g-1_fr_1q6yfdde7m0p3-fill" stroke="none" fill="#1ac3fb"><g><path d="M 63.2279 100.0822L 46.248 95.5325C 43.1739 94.7088 40.5563 92.6985 38.965 89.9423L 23.6208 63.3654C 21.4116 59.539 22.7226 54.6463 26.549 52.4372L 75.6517 24.0877C 76.1886 23.7777 76.7465 23.537 77.315 23.3629L 77.4003 23.2393C 79.8516 19.6851 84.0238 17.7218 88.3249 18.0981L 93.9384 18.5892L 92.4446 16.002C 89.1309 10.2625 81.7919 8.296 76.0523 11.6097L 16.002 46.2798C 10.2625 49.5935 8.296 56.9326 11.6097 62.6721L 35.3075 103.718L 69.0276 112.753L 63.2279 100.0822Z"></path></g></g></g><g id="g-root-2.g-2_fr_1lrrec1e7lybl-fill" data-item-order="-390790" transform="translate(107.08102416992188, 346.69921875)"><g id="2.g-2_fr_1lrrec1e7lybl-fill" stroke="none" fill="#43dd93"><g><path d="M 93.420669 13.9484C 93.346769 13.9405 93.272669 13.9334 93.198369 13.9269L 48.837669 10.0458C 44.536569 9.6695 40.364869 11.6328 37.913469 15.1869L 12.121769 52.5813C 9.722069 56.0606 9.329669 60.5458 11.088769 64.3889L 29.995169 105.6939C 31.271969 108.4833 33.543469 110.633 36.294469 111.778L 78.656569 115.152C 67.640369 109.5128 58.730069 100.1745 53.701669 88.6275L 46.939869 88.036C 43.638769 87.7471 40.728569 90.1891 40.439769 93.4902C 40.270169 95.4285 37.641669 95.8877 36.824969 94.1217L 21.845169 61.7324C 20.951069 59.799 21.148969 57.5365 22.365269 55.7878L 45.400369 22.6694C 46.628169 20.9041 48.706869 19.9308 50.848969 20.1182L 73.311169 22.0834C 79.253069 18.1238 86.050769 15.2995 93.420669 13.9484Z"></path></g></g></g><g id="g-root-3.g-3_fr_1cw4e35e7lz4b-fill" data-item-order="-390786" transform="translate(146.29995727539062, 349.7578125)"><g id="3.g-3_fr_1cw4e35e7lz4b-fill" stroke="none" fill="#a6da37"><g><path d="M 79.464531 12.249C 73.113131 10.3495 66.302831 9.5958 59.296831 10.2087C 29.587031 12.808 7.609531 38.9998 10.208731 68.7097C 12.033131 89.5626 25.480231 106.6062 43.608631 114.016L 67.236931 111.927C 57.302031 109.199 49.036531 101.4209 46.177431 90.7506C 46.118231 90.5298 46.061731 90.3089 46.007831 90.088C 43.867831 91.1562 42.488531 93.4542 42.709631 95.9814C 42.961831 98.8644 39.939831 100.8066 37.627731 99.066C 28.032931 91.8433 21.424731 80.7334 20.295631 67.8278C 18.183631 43.6885 36.040431 22.4077 60.179631 20.2957C 63.151731 20.0357 66.080531 20.0784 68.935531 20.3983C 71.859131 17.1016 75.408131 14.317 79.464531 12.249Z"></path></g></g></g><g id="g-root-4.g-4_fr_18gavype7lzwl-fill" data-item-order="-390782" transform="translate(181.44500732421875, 348.05078125)"><g id="4.g-4_fr_18gavype7lzwl-fill" stroke="none" fill="#ffe711"><g><path d="M 84.997 19.436C 76.2313 11.4372 63.6984 7.9364 51.3855 11.2356C 32.1807 16.3815 20.7838 36.1216 25.9297 55.3264L 26.6026 57.8379C 14.0952 64.067 7.2732 78.4285 11.0297 92.4477C 15.3179 108.4517 31.768 117.949 47.772 113.661L 52.6984 112.341L 100.8012 99.4518L 105.7276 98.1318C 121.732 93.8435 131.229 77.3934 126.941 61.3894C 123.184 47.3702 110.096 38.3437 96.1493 39.203L 95.4763 36.6914C 94.6465 33.5945 93.4372 30.7005 91.9117 28.0463C 89.3512 29.7713 86.7322 31.4163 84.0584 32.9775C 85.3493 35.1098 86.3643 37.458 87.0418 39.9867L 89.1124 47.7142C 89.5412 49.3145 91.1862 50.2643 92.7866 49.8355C 103.4559 46.9766 114.423 53.3083 117.282 63.9776C 120.14 74.6469 113.809 85.6137 103.1394 88.4725L 45.1838 104.0016C 34.5145 106.8605 23.5478 100.5288 20.6889 89.8595C 17.8301 79.1902 24.1617 68.2234 34.8311 65.3646C 36.4315 64.9358 37.3812 63.2908 36.9524 61.6904L 34.8818 53.963C 31.0224 39.5594 39.5701 24.7543 53.9737 20.8949C 61.926 18.764 70.0007 20.4152 76.2882 24.7458C 79.2634 23.0849 82.1682 21.3131 84.997 19.436Z"></path></g></g></g><g id="g-root-0a.g-0a_fr_zknvpte7m0pb-fill" data-item-order="-390778" transform="translate(39, 102.5859375)"><g id="0a.g-0a_fr_zknvpte7m0pb-fill" stroke="none" fill="#ababab"><g><path d="M 67.4869 269.126C 32.5752 242.849 10 201.061 10 154C 10 74.471 74.471 10 154 10C 233.529 10 298 74.471 298 154C 298 219.285 254.555 274.423 195 292.079C 193.602 290.828 192.541 289.17 192.019 287.223C 191.488 285.241 191.591 283.239 192.204 281.431C 247.038 265.016 287 214.175 287 154C 287 80.5461 227.454 21 154 21C 80.5461 21 21 80.5461 21 154C 21 199.16 43.5078 239.063 77.9176 263.103L 67.4869 269.126Z"></path></g></g></g><g id="g-root-dc_4j6b0xe7lybv-fill" data-item-order="-9216" transform="translate(135.09600830078125, 160.52734375)"><g id="dc_4j6b0xe7lybv-fill" stroke="none" fill="#b7b7b7"><g><path d="M 10 10M 41.799999 91.400002L 38.440002 98.120003L 79.760002 98.120003L 76.400002 91.400002L 41.799999 91.400002ZM 106 85.040001C 106.010674 83.87674 105.55603 82.757454 104.737213 81.931122C 103.918396 81.104797 102.803307 80.639954 101.639999 80.639999L 75.519997 80.639999L 84.239998 98L 106 98ZM 14.360001 80.639999C 13.196692 80.639954 12.081604 81.104797 11.262786 81.931122C 10.443968 82.757454 9.989327 83.87674 10 85.040001L 10 98L 34 98L 42.720001 80.519997ZM 10 10M 74.400002 87.400002L 71.040001 80.639999L 47.16 80.639999L 43.799999 87.400002L 74.400002 87.400002ZM 88.519997 17.16C 88.530685 16.166483 88.143478 15.209978 87.444687 14.503667C 86.745888 13.797356 85.793579 13.399942 84.800003 13.4L 31.200001 13.4C 30.206427 13.399942 29.254116 13.797356 28.555321 14.503667C 27.856524 15.209978 27.469316 16.166483 27.480001 17.16L 27.48 25.16L 88.519997 25.16ZM 10 10M 19.32 75.720001L 29.24 75.720001L 29.24 45.32L 41.799999 45.32L 41.799999 75.720001L 51.720001 75.720001L 51.720001 45.32L 64.279999 45.32L 64.279999 75.720001L 74.199997 75.720001L 74.199997 45.32L 86.760002 45.32L 86.760002 75.720001L 96.68 75.720001L 96.68 45.32L 102.199997 45.32L 102.199997 31.040001L 13.8 31.040001L 13.8 45.32L 19.32 45.32L 19.32 75.720001Z"></path></g></g></g><g id="g-root-uneq_ddkd3le7q8so-fill" data-item-order="-1296" transform="translate(351.22601318359375, 129)"><g id="uneq_ddkd3le7q8so-fill" stroke="none" fill="#1ac3fb"><g><path d="M 46 25.539999C 45.999996 25.337278 45.953831 25.13722 45.864998 24.954998L 41.244999 14.5C 41.207493 14.408702 41.207493 14.306298 41.244999 14.215C 41.298214 14.119355 41.392052 14.053116 41.499996 14.035L 42.489998 13.645C 43.260437 13.321914 43.623089 12.435437 43.300003 11.665C 42.976913 10.894563 42.090439 10.531914 41.32 10.855L 30.01 15.355C 29.902487 15.413692 29.772511 15.413692 29.664999 15.355C 29.53484 15.271464 29.469313 15.116587 29.5 14.965L 29.5 13C 29.5 12.171573 28.828428 11.5 28 11.5C 27.171572 11.5 26.5 12.171573 26.5 13L 26.5 16.450001C 26.498011 16.603237 26.402981 16.739843 26.26 16.795L 12.76 22.105C 12.076874 22.372807 11.687748 23.09549 11.840219 23.813217C 11.992689 24.530945 12.641999 25.033031 13.375 25C 13.505119 24.998793 13.627894 25.060181 13.705 25.165001C 13.756985 25.279369 13.756985 25.410629 13.705 25.525L 10.135 33.760002C 10.047613 33.94273 10.001523 34.142456 10 34.345001C 10 38.072922 13.022079 41.095001 16.75 41.095001C 20.477922 41.095001 23.5 38.072922 23.5 34.345001C 23.48871 34.13245 23.43784 33.923878 23.349998 33.73L 18.76 23.41C 18.714247 23.315233 18.714247 23.204767 18.76 23.110001C 18.813728 23.014694 18.898405 22.940601 19 22.9L 26.02 20.139999C 26.12751 20.081306 26.257488 20.081306 26.364998 20.139999C 26.470133 20.22794 26.521385 20.364614 26.499998 20.5L 26.5 41.875C 26.5 42.082108 26.332108 42.25 26.125 42.25L 21.369999 42.25C 20.541573 42.25 19.869999 42.921574 19.869999 43.75C 19.869999 44.578426 20.541573 45.25 21.369999 45.25L 34.584999 45.25C 35.413429 45.25 36.084999 44.578426 36.084999 43.75C 36.084999 42.921574 35.413429 42.25 34.584999 42.25L 29.875 42.25C 29.667892 42.25 29.5 42.082108 29.5 41.875L 29.5 19C 29.501989 18.846764 29.597019 18.710157 29.74 18.655001L 35.739998 16.255001C 35.881283 16.208326 36.036781 16.242882 36.145 16.344999C 36.247692 16.459417 36.276745 16.622112 36.220001 16.764999L 32.650002 25C 32.561577 25.188385 32.510632 25.392168 32.5 25.6C 32.5 29.327923 35.522079 32.349998 39.25 32.349998C 42.977921 32.349998 46 29.327923 46 25.599998ZM 14.215 33.25C 14.089576 33.248852 13.972358 33.187454 13.9 33.084999C 13.848015 32.970631 13.848015 32.839371 13.9 32.724998L 16.434999 27.039999C 16.493908 26.901718 16.629694 26.81197 16.780001 26.81197C 16.930307 26.81197 17.066092 26.901718 17.125 27.039999L 19.645 32.724998C 19.696985 32.839371 19.696985 32.970631 19.645 33.084999C 19.572641 33.187454 19.455423 33.248852 19.33 33.25ZM 36.715 24.43C 36.589577 24.428852 36.472355 24.367455 36.399998 24.264999C 36.348015 24.150629 36.348015 24.019369 36.399998 23.904999L 38.920002 18.219999C 38.978909 18.081718 39.114693 17.99197 39.264999 17.99197C 39.415306 17.99197 39.55109 18.081718 39.610001 18.219999L 42.145 23.905001C 42.196983 24.019369 42.196983 24.150629 42.144997 24.264999C 42.072639 24.367455 41.955421 24.428852 41.829998 24.429998Z"></path></g></g></g><g id="g-root-buil_1q9gbpte7ue4r-fill" data-item-order="-1296" transform="translate(351.22601318359375, 261)"><g id="buil_1q9gbpte7ue4r-fill" stroke="none" fill="#43dd93"><g><path d="M 29.68 11.934999C 26.89666 10.89359 23.951717 10.350299 20.98 10.33C 18.027653 10.348858 15.102157 10.892309 12.34 11.935C 11.741952 12.197193 11.350014 12.782175 11.335 13.434999L 11.335 19C 11.335 23.5 14.95 27.610001 19.18 29.215L 20.08 29.559999C 20.659008 29.784456 21.300991 29.784456 21.880001 29.559999L 22.764999 29.215C 27.01 27.565001 30.684999 23.5 30.684999 19L 30.684999 13.48C 30.687614 12.810802 30.292814 12.203872 29.68 11.934999ZM 26.68 16.285L 21.040001 23.094999C 20.71187 23.494417 20.221916 23.72563 19.705 23.724998C 19.332109 23.722878 18.969585 23.602036 18.67 23.380001L 16.705 21.880001C 16.207945 21.507208 16.107208 20.802057 16.48 20.305C 16.852793 19.807945 17.557945 19.707209 18.055 20.08L 19.555 21.25L 25 14.845C 25.400576 14.370082 26.107674 14.303374 26.59 14.695C 26.817348 14.889563 26.957817 15.166683 26.980335 15.465069C 27.002855 15.763455 26.905571 16.058519 26.710001 16.285ZM 30.325001 42.189999L 28.27 42.189999C 27.648682 42.190002 27.145 41.686321 27.145 41.065002C 27.145 40.44368 27.648682 39.940002 28.27 39.940002L 30.325001 39.939999L 30.325001 37.285L 28.27 37.285C 27.648682 37.285 27.145 36.781319 27.145 36.16C 27.145 35.538681 27.648682 35.035 28.27 35.035L 30.325001 35.035L 30.325001 31L 26.110001 31C 24.925348 31 23.965 31.960348 23.965 33.145L 23.965 46L 30.325001 46ZM 43 24.219999L 34.18 24.219999C 33.751717 24.219982 33.34119 24.391136 33.039757 24.695385C 32.738327 24.999632 32.570999 25.411736 32.575001 25.84L 32.575001 46L 44.665001 46L 44.665001 25.84C 44.669411 25.401129 44.493904 24.979595 44.179337 24.673531C 43.864769 24.367466 43.438591 24.203571 43 24.220001ZM 40 41.5L 37.314999 41.5C 36.69368 41.5 36.190002 40.996323 36.190002 40.375C 36.190002 39.753681 36.69368 39.25 37.315002 39.25L 40 39.25C 40.621323 39.25 41.125 39.753681 41.125 40.375C 41.125 40.996323 40.621323 41.5 40 41.5ZM 40 35.845001L 37.314999 35.845001C 36.69368 35.845001 36.190002 35.341324 36.190002 34.720001C 36.190002 34.098679 36.69368 33.595001 37.315002 33.595001L 40 33.595001C 40.621323 33.595001 41.125 34.098679 41.125 34.720001C 41.125 35.341324 40.621323 35.845001 40 35.845001ZM 40 30.205L 37.314999 30.205C 36.69368 30.205 36.190002 29.701321 36.190002 29.08C 36.190002 28.458681 36.69368 27.955 37.315002 27.955L 40 27.955C 40.621323 27.955 41.125 28.458681 41.125 29.08C 41.125 29.701321 40.621323 30.205 40 30.205Z"></path></g></g></g><g id="g-root-seed_v5guohe7vtam-fill" data-item-order="-1296" transform="translate(351.22601318359375, 369)"><g id="seed_v5guohe7vtam-fill" stroke="none" fill="#a6da37"><g><path d="M 45.535 21.744999L 40.915001 15.85C 40.608421 15.460931 40.16135 15.207771 39.670002 15.145C 39.177292 15.096511 38.684441 15.235795 38.289997 15.535L 30.01 22C 29.890224 22.072918 29.739775 22.072918 29.619999 22C 29.491133 21.940939 29.408922 21.81175 29.41 21.67L 29.41 12.34C 29.41 11.511573 28.738426 10.84 27.91 10.84C 27.081573 10.84 26.41 11.511573 26.41 12.34L 26.41 15.1C 26.410362 15.232621 26.340649 15.355572 26.226654 15.423351C 26.112661 15.491131 25.971344 15.493659 25.855 15.43L 16.885 10.255C 16.45767 10.004942 15.948277 9.935579 15.469646 10.062276C 14.991015 10.188972 14.58265 10.50127 14.335 10.93L 10.225 18.055C 10.07445 18.313244 10.031357 18.620289 10.105 18.91C 10.184332 19.195332 10.372975 19.437874 10.63 19.585001L 22 26.125C 22.283102 26.286375 22.60416 26.369228 22.93 26.365C 23.089176 26.387976 23.250824 26.387976 23.41 26.365C 23.891769 26.240587 24.30286 25.926857 24.549999 25.494999L 25.780001 23.365C 25.867542 23.222496 26.03887 23.15519 26.200001 23.200001C 26.360001 23.246666 26.469999 23.393333 26.469999 23.559999L 26.469999 29.559999C 26.46804 29.681782 26.413309 29.796717 26.32 29.875C 26.215912 29.926001 26.094088 29.926001 25.99 29.875L 19.719999 28C 19.224945 27.830648 18.681835 27.874098 18.219999 28.119999C 17.782681 28.357445 17.454632 28.755405 17.305 29.23L 16.15 33.130001C 15.990829 33.607277 16.031797 34.128681 16.263557 34.575241C 16.495317 35.021805 16.898098 35.355431 17.380001 35.5L 24.880001 37.855C 25.061359 37.901989 25.247677 37.927166 25.435001 37.93C 25.584146 37.952629 25.735853 37.952629 25.885 37.93C 25.988522 37.87661 26.111477 37.87661 26.215 37.93C 26.313517 37.99733 26.370245 38.11079 26.365 38.23L 26.365 39.73C 26.365 39.937107 26.197105 40.105 25.99 40.105L 22.99 40.105C 22.509918 40.103756 22.058247 40.332378 21.775 40.720001C 21.492233 41.110153 21.414106 41.612389 21.565001 42.07L 22.735001 45.579998C 22.877302 45.865986 23.18232 46.033447 23.5 46L 32.5 46C 32.818214 45.993214 33.098976 45.790108 33.204998 45.489998L 34.375 41.98C 34.525894 41.522392 34.447769 41.020153 34.165001 40.630001C 33.881752 40.242378 33.43008 40.013756 32.950001 40.014999L 29.799999 40.014999C 29.592894 40.014999 29.424999 39.847107 29.424999 39.639999L 29.424999 28.914999C 29.422606 28.760391 29.519209 28.621523 29.664999 28.57C 29.815722 28.504995 29.991371 28.555182 30.085001 28.690001L 32.605 31.900002C 32.968357 32.355228 33.522636 32.615742 34.105 32.605C 34.523071 32.609623 34.930309 32.472111 35.260002 32.215L 45.264999 24.369999C 45.668736 24.065277 45.933479 23.611433 46 23.110001C 46.026661 22.612082 45.860085 22.123091 45.535 21.744999ZM 38.380001 23.934999C 38.347115 24.96208 37.493652 25.771328 36.466278 25.74958C 35.4389 25.727831 34.620449 24.883188 34.631062 23.855637C 34.641674 22.828087 35.477394 22.000526 36.505001 22C 37.012856 21.999741 37.499092 22.205498 37.852501 22.570217C 38.205906 22.934933 38.396252 23.427406 38.380001 23.934999ZM 21.174999 17.950001C 21.181065 18.711063 20.726473 19.400288 20.024487 19.694342C 19.3225 19.988398 18.512405 19.828936 17.974236 19.290766C 17.436066 18.752596 17.276604 17.942499 17.570658 17.240513C 17.864712 16.538527 18.553938 16.083935 19.315001 16.09C 20.338852 16.09816 21.166842 16.926149 21.175001 17.950001ZM 22.299999 34.239998C 21.471573 34.239998 20.799999 33.568428 20.799999 32.739998C 20.799999 31.911573 21.471573 31.24 22.299999 31.24C 23.128428 31.24 23.799999 31.911573 23.799999 32.739998C 23.799999 33.568428 23.128428 34.239998 22.299999 34.239998Z"></path></g></g></g><g id="g-root-hand_9lmxde7ary9-fill" data-item-order="-1296" transform="translate(351.22601318359375, 477)"><g id="hand_9lmxde7ary9-fill" stroke="none" fill="#ffe711"><g><path d="M 23.575001 30.264999C 23.919617 30.064558 24.170263 29.735174 24.271584 29.349594C 24.372902 28.964016 24.316561 28.553963 24.115 28.210001C 22.375776 25.245459 22.256693 21.601692 23.798639 18.529917C 25.340586 15.458139 28.333628 13.376575 31.750002 13C 31.933361 12.978134 32.117676 13.032345 32.260002 13.150001C 32.411083 13.263313 32.5 13.441146 32.5 13.63C 32.5 14.065001 32.98 14.095 33.130001 14.184999C 33.921429 14.5087 34.437561 15.279936 34.435001 16.135L 34.435001 17.32C 34.439056 17.45784 34.387119 17.591448 34.291031 17.690361C 34.194946 17.789274 34.062901 17.845058 33.924999 17.844999L 30.325001 17.844999C 30.235001 17.844999 28.945 17.575001 28.825001 17.559999C 28.084324 17.414764 27.322678 17.678192 26.83 18.25L 25 20.5C 24.885075 20.637377 24.845741 20.822798 24.895 20.994999L 25.585001 23.275002C 25.844217 24.161783 26.656113 24.77223 27.58 24.775002L 29.5 24.775002C 29.699398 24.778564 29.879562 24.894798 29.965 25.075001L 30.775002 26.695C 30.820183 26.810747 30.820183 26.939255 30.775002 27.055L 30.549999 27.924999C 30.426952 28.547947 30.592381 29.193119 31 29.68L 32.5 31.599998C 32.707203 31.792459 33.027794 31.792459 33.235001 31.599998L 35.215 29.950001C 35.689476 29.551796 35.963947 28.96443 35.965 28.345001L 35.965 25.795C 35.949638 25.720787 35.949638 25.644215 35.965004 25.57L 37.630001 22.255001C 37.712734 22.095066 37.712734 21.904934 37.630001 21.745001C 37.5364 21.595009 37.371799 21.504192 37.195 21.505001L 36.849998 21.505001C 36.6506 21.501436 36.47044 21.385202 36.385002 21.205L 35.814999 20.065001C 35.740227 19.919018 35.740227 19.745983 35.814999 19.6C 35.899521 19.448254 36.048626 19.343328 36.220001 19.315001L 38.5 19.105C 39.252983 19.012653 39.896381 18.518612 40.18 17.815001C 40.27541 17.558596 40.507896 17.37842 40.779999 17.349998C 41.053024 17.325645 41.317585 17.452175 41.470001 17.68C 44.220619 22.042336 43.258823 27.774368 39.235001 31.000002C 38.596397 31.519632 38.495979 32.456871 39.010002 33.099998C 39.292629 33.448414 39.716377 33.652035 40.165001 33.654999C 40.508492 33.656445 40.842075 33.539955 41.110001 33.325001C 46.531151 28.931828 47.561249 21.062155 43.453445 15.421694C 39.345642 9.781233 31.539553 8.346729 25.694788 12.158235C 19.850025 15.96974 18.014933 23.691481 21.519999 29.724998C 21.720442 30.069616 22.049826 30.320263 22.435406 30.421583C 22.820984 30.522903 23.231037 30.46656 23.575001 30.264999ZM 11.5 31.09L 14.5 31.09C 14.5 31.09 16 31.09 16 32.59L 16 43.09C 16 43.09 16 44.59 14.5 44.59L 11.5 44.59C 11.5 44.59 10 44.59 10 43.09L 10 32.59C 10 32.59 10 31.09 11.5 31.09M 10 10M 40.540001 35.709999L 37.540001 36.670002C 37.226517 36.778439 37.015907 37.073288 37.014999 37.404999C 37.031639 39.285561 35.520561 40.823502 33.639999 40.84L 25.75 40.84C 25.335787 40.84 25 40.504211 25 40.09C 25 39.675785 25.335787 39.34 25.75 39.34L 33.625 39.34C 34.660534 39.34 35.5 38.500534 35.5 37.465C 35.5 36.429466 34.660534 35.59 33.625 35.59L 28.09 35.59C 27.792103 35.420097 27.506411 35.229637 27.235001 35.02C 25.55076 33.581886 23.445309 32.729179 21.235001 32.59L 18.235001 32.59C 17.820786 32.59 17.485001 32.925785 17.485001 33.34L 17.485001 42.189999C 17.491787 42.508213 17.694893 42.788979 17.994999 42.895L 20.875 43.885002C 24.82 45.25 27.01 46 29.005001 46C 31.450001 46 33.580002 44.889999 38.215 42.415001C 40.135002 41.395 42.535 40.119999 45.579998 38.605C 45.807926 38.506817 45.967445 38.296028 46 38.050003C 46.047806 37.813061 45.968147 37.568375 45.790001 37.404999C 44.563934 35.801556 42.472225 35.126232 40.540001 35.709999Z"></path></g></g></g><g id="g-root-tx_scmnhcqu_qpnck1e7lz41-fill" data-item-order="0" transform="translate(177, 63)"><g id="tx_scmnhcqu_qpnck1e7lz41-fill" stroke="none" fill="#f4f4f4"><g><text style="font: bold 15px Roboto, sans-serif; white-space: pre;" font-weight="bold" font-size="15px" font-family="Roboto, sans-serif"><tspan x="13.1" y="31" dominant-baseline="ideographic">Sức Mạnh Độc Quyền Nhà Nước Trong Thời Đại Hiện Đại</tspan></text></g></g></g><g id="g-root-tx_cchphnch_13zuwr5e7q8sm-fill" data-item-order="0" transform="translate(399, 135)"><g id="tx_cchphnch_13zuwr5e7q8sm-fill" stroke="none" fill="#e5f8ff"><g><text style="font: bold 20px Roboto, sans-serif; white-space: pre;" font-weight="bold" font-size="20px" font-family="Roboto, sans-serif"><tspan x="12" y="34" dominant-baseline="ideographic">Cơ chế phân chia quyền lực</tspan></text></g></g></g><g id="g-root-tx_idinchos_qp0vgxe7q77r-fill" data-item-order="0" transform="translate(399, 171)"><g id="tx_idinchos_qp0vgxe7q77r-fill" stroke="none" fill="#e5f8ff"><g><text style="font: 15px Roboto, sans-serif; white-space: pre;" font-size="15px" font-family="Roboto, sans-serif"><tspan x="12" y="31" dominant-baseline="ideographic">Đại diện cho sự cân bằng giữa các thực thể </tspan><tspan x="12" y="49" dominant-baseline="ideographic">nhà nước và tư nhân trong việc ra quyết </tspan><tspan x="12" y="67" dominant-baseline="ideographic">định.</tspan></text></g></g></g><g id="g-root-tx_cquynnhn_de6u6pe7m0oy-fill" data-item-order="0" transform="translate(111.09600830078125, 268.52734375)"><g id="tx_cquynnhn_de6u6pe7m0oy-fill" stroke="none" fill="#f4f4f4"><g><text style="font: bold 20px Roboto, sans-serif; white-space: pre;" font-weight="bold" font-size="20px" font-family="Roboto, sans-serif"><tspan x="13.2" y="34" dominant-baseline="ideographic">Độc quyền nhà </tspan><tspan x="18.29" y="58" dominant-baseline="ideographic">nước hiện đại</tspan></text></g></g></g><g id="g-root-tx_kimsotng_humte9e7uebt-fill" data-item-order="0" transform="translate(399, 267)"><g id="tx_kimsotng_humte9e7uebt-fill" stroke="none" fill="#dffff0"><g><text style="font: bold 20px Roboto, sans-serif; white-space: pre;" font-weight="bold" font-size="20px" font-family="Roboto, sans-serif"><tspan x="12" y="34" dominant-baseline="ideographic">Kiểm soát ngân sách</tspan></text></g></g></g><g id="g-root-tx_nhnmnhtm_4j6b0xe7ufwq-fill" data-item-order="0" transform="translate(399, 303)"><g id="tx_nhnmnhtm_4j6b0xe7ufwq-fill" stroke="none" fill="#dffff0"><g><text style="font: 15px Roboto, sans-serif; white-space: pre;" font-size="15px" font-family="Roboto, sans-serif"><tspan x="12" y="28" dominant-baseline="ideographic">Nhấn mạnh tầm quan trọng của quản lý tài </tspan><tspan x="12" y="46" dominant-baseline="ideographic">chính nhà nước trong việc duy trì quyền lực.</tspan></text></g></g></g><g id="g-root-tx_utcng_1lrrec1e7vtak-fill" data-item-order="0" transform="translate(399, 375)"><g id="tx_utcng_1lrrec1e7vtak-fill" stroke="none" fill="#f2ffd7"><g><text style="font: bold 20px Roboto, sans-serif; white-space: pre;" font-weight="bold" font-size="20px" font-family="Roboto, sans-serif"><tspan x="12" y="34" dominant-baseline="ideographic">Đầu tư công</tspan></text></g></g></g><g id="g-root-tx_nubtvait_18gavype7vuvh-fill" data-item-order="0" transform="translate(399, 411)"><g id="tx_nubtvait_18gavype7vuvh-fill" stroke="none" fill="#f2ffd7"><g><text style="font: 15px Roboto, sans-serif; white-space: pre;" font-size="15px" font-family="Roboto, sans-serif"><tspan x="12" y="28" dominant-baseline="ideographic">Nêu bật vai trò của các khoản đầu tư này </tspan><tspan x="12" y="46" dominant-baseline="ideographic">trong việc bảo vệ và mở rộng lợi ích tư bản.</tspan></text></g></g></g><g id="g-root-tx_vintrquc_mg2oghe7aryn-fill" data-item-order="0" transform="translate(399, 483)"><g id="tx_vintrquc_mg2oghe7aryn-fill" stroke="none" fill="#fffbd5"><g><text style="font: bold 20px Roboto, sans-serif; white-space: pre;" font-weight="bold" font-size="20px" font-family="Roboto, sans-serif"><tspan x="12" y="34" dominant-baseline="ideographic">Viện trợ quốc tế</tspan></text></g></g></g><g id="g-root-tx_nhnmnhvi_dl25ape7aqdc-fill" data-item-order="0" transform="translate(399, 519)"><g id="tx_nhnmnhvi_dl25ape7aqdc-fill" stroke="none" fill="#fffbd5"><g><text style="font: 15px Roboto, sans-serif; white-space: pre;" font-size="15px" font-family="Roboto, sans-serif"><tspan x="12" y="28" dominant-baseline="ideographic">Nhấn mạnh việc sử dụng viện trợ để thúc </tspan><tspan x="12" y="46" dominant-baseline="ideographic">đẩy các mục tiêu kinh tế trong nước.</tspan></text></g></g></g><g id="g-root-0b.g-0b_fr_4havrle7lyj2-stroke" data-item-order="-390804" transform="translate(63.83702087402344, 349.7578125)"><g id="0b.g-0b_fr_4havrle7lyj2-stroke" fill="none" stroke-linecap="round" stroke-linejoin="round" stroke-miterlimit="4" stroke="#2c2c2c" stroke-width="2"><g><path d="M 72.782085 101.640563L 39.062685 92.605763C 35.846985 91.785363 32.569385 93.672163 31.718185 96.848963C 30.866585 100.027063 32.763585 103.301163 35.960885 104.197063L 10.204485 200.321263C 9.792585 201.858263 10.008185 203.496063 10.803885 204.874163L 15.217185 212.518263L 41.357585 114.961263C 42.215185 111.760463 45.505185 109.860963 48.705985 110.718563C 51.906785 111.576263 53.806285 114.866263 52.948685 118.067062L 23.702485 227.215163L 24.531785 228.651563C 25.636385 230.564663 28.082685 231.220163 29.995885 230.115663L 31.428985 229.288063L 61.451985 117.240663C 62.309585 114.039863 65.599685 112.140363 68.800485 112.997963L 70.733685 113.516163L 70.735285 113.515263L 75.609285 114.821263C 75.582685 114.492562 75.583185 114.157463 75.612885 113.818163C 75.821285 111.435963 77.411385 109.502563 79.535785 108.720663C 76.785585 107.574963 74.514685 105.425663 73.238185 102.636863L 72.782085 101.640563ZM 15.217185 212.518263L 15.216785 212.519763M 23.702485 227.215163L 23.702085 227.216663M 68.800485 112.997963L 75.609385 114.822463"></path></g></g><g id="0b.g-0b_fr_4havrle7lyj2-stroke" fill="none" stroke-linecap="round" stroke-linejoin="round" stroke-miterlimit="4" stroke="#2c2c2c" stroke-width="2"><g><path d="M 48.706958 110.721525C 45.506158 109.863925 42.216158 111.763425 41.358458 114.964225L 15.218158 212.521225L 15.217758 212.522725L 23.703058 227.219625L 23.703458 227.218125L 52.949558 118.070025C 53.807258 114.869225 51.907758 111.579225 48.706958 110.721525ZM 15.218158 212.521225L 23.703458 227.218125"></path></g></g><g id="0b.g-0b_fr_4havrle7lyj2-stroke" fill="none" stroke-linecap="round" stroke-linejoin="round" stroke-miterlimit="4" stroke="#2c2c2c" stroke-width="2"><g><path d="M 68.801173 113.002775C 65.600373 112.145175 62.310373 114.044675 61.452672 117.245475L 31.429673 229.292875L 50.308173 218.393375C 50.767473 218.128175 51.102673 217.691275 51.239973 217.178975L 52.881773 211.051975C 53.018973 210.539575 52.947173 209.993675 52.681973 209.534275L 47.439273 200.453775L 54.070273 196.625375C 54.529673 196.360075 54.864873 195.923275 55.002173 195.410875L 56.126273 191.215775C 56.263573 190.703375 56.191673 190.157475 55.926473 189.698175L 52.098073 183.067075L 57.714473 179.824475C 58.671073 179.272175 58.998773 178.048975 58.446473 177.092375L 55.203873 171.475975L 64.494473 166.112075C 65.451073 165.559775 65.778873 164.336575 65.226573 163.379975L 59.862573 154.089375L 65.478973 150.846675C 66.435573 150.294375 66.763373 149.071175 66.211073 148.114675L 62.968472 142.498175L 69.599473 138.669775C 70.058873 138.404575 70.393973 137.967775 70.531273 137.455375L 71.655373 133.260275C 71.792673 132.747875 71.720773 132.201975 71.455573 131.742575L 67.627173 125.111575L 74.258172 121.283175C 74.717573 121.017875 75.052772 120.581075 75.190073 120.068675L 76.528573 115.073375L 68.801173 113.002775ZM 70.735973 113.520075L 70.734473 113.520975L 68.801173 113.002775"></path></g></g><g id="0b.g-0b_fr_4havrle7lyj2-stroke" fill="none" stroke-linecap="round" stroke-linejoin="round" stroke-miterlimit="4" stroke="#2c2c2c" stroke-width="2"><g><path d="M 55.362843 49.523006C 52.963143 53.002306 52.570443 57.486906 54.329543 61.330106L 66.982543 88.973006L 50.002543 84.423206C 46.928443 83.599506 44.310343 81.589106 42.719043 78.832906L 27.374843 52.256006C 25.165743 48.429606 26.476743 43.536906 30.303043 41.327806L 79.405843 12.978306C 79.942343 12.668606 80.499743 12.428006 81.067843 12.253906L 55.362843 49.523006Z"></path></g></g><g id="0b.g-0b_fr_4havrle7lyj2-stroke" fill="none" stroke-linecap="round" stroke-linejoin="round" stroke-miterlimit="4" stroke="#2c2c2c" stroke-width="2"><g><path d="M 122.889087 123.972606C 122.895187 123.979006 122.901187 123.985406 122.907287 123.991806L 121.412187 141.080606C 121.365987 141.609006 121.111687 142.097406 120.705387 142.438306L 114.839887 147.360106L 119.008587 152.328106C 119.718587 153.174306 119.608187 154.435806 118.762087 155.145806L 113.793987 159.314406L 118.715787 165.179906C 119.056687 165.586306 119.222287 166.111406 119.176087 166.639806L 118.797587 170.966406C 118.751287 171.494806 118.497087 171.983206 118.090687 172.324206L 112.225187 177.245906L 117.146987 183.111406C 117.487887 183.517806 117.653487 184.042906 117.607287 184.571306L 117.228687 188.897906C 117.182487 189.426306 116.928287 189.914706 116.521887 190.255706L 110.656387 195.177406L 117.396287 203.209606C 117.737187 203.616006 117.902787 204.141106 117.856587 204.669506L 117.303687 210.988506C 117.257487 211.516906 117.003187 212.005306 116.596887 212.346306L 108.564687 219.086106L 115.460487 227.304206C 116.170487 228.150306 116.060087 229.411806 115.213987 230.121806L 98.329087 244.289906L 108.439187 128.731306C 108.727987 125.430206 111.638187 122.988306 114.939287 123.277106L 122.889087 123.972606Z"></path></g></g><g id="0b.g-0b_fr_4havrle7lyj2-stroke" fill="none" stroke-linecap="round" stroke-linejoin="round" stroke-miterlimit="4" stroke="#2c2c2c" stroke-width="2"><g><path d="M 94.754933 124.5232C 91.453833 124.2344 88.543633 126.6763 88.254833 129.9774L 79.452133 230.5931L 90.360633 243.5933L 100.209233 131.0233C 100.498033 127.7222 98.056033 124.812 94.754933 124.5232ZM 100.209233 131.0233L 90.360633 243.5933L 79.452133 230.5931L 88.254833 129.9774C 88.543633 126.6763 91.453833 124.2344 94.754933 124.5232C 98.056033 124.812 100.498033 127.7222 100.209233 131.0233ZM 90.360633 243.5933L 100.209233 131.0233C 100.498033 127.7222 98.056033 124.812 94.754933 124.5232C 91.453833 124.2344 88.543633 126.6763 88.254833 129.9774L 79.452133 230.5931L 90.360633 243.5933Z"></path></g></g><g id="0b.g-0b_fr_4havrle7lyj2-stroke" fill="none" stroke-linecap="round" stroke-linejoin="round" stroke-miterlimit="4" stroke="#2c2c2c" stroke-width="2"><g><path d="M 121.884155 112.09165L 79.539155 108.71875C 77.413655 109.50015 75.822555 111.43395 75.614055 113.81705C 75.327255 117.09465 77.763955 119.98965 81.068255 120.31675L 72.394855 219.45315C 72.256255 221.03835 72.752955 222.61375 73.775855 223.83285L 79.452355 230.59655L 88.255055 129.98085C 88.543855 126.67975 91.454055 124.23785 94.755155 124.52665C 98.056255 124.81545 100.498155 127.72565 100.209355 131.02675L 90.360755 243.59675L 91.424055 244.86505C 92.844055 246.55735 95.367155 246.77815 97.059455 245.35815L 98.330055 244.29285L 108.440155 128.73425C 108.728955 125.43315 111.639155 122.99115 114.940255 123.27995L 122.889355 123.97575C 121.997755 123.03155 121.407455 121.79615 121.286055 120.40855C 121.019255 117.35855 123.110655 114.63985 126.064955 114.01345C 124.641355 113.43135 123.246655 112.78975 121.884155 112.09165ZM 122.889355 123.97575L 116.931155 123.45475"></path></g></g><g id="0b.g-0b_fr_4havrle7lyj2-stroke" fill="none" stroke-linecap="round" stroke-linejoin="round" stroke-miterlimit="4" stroke="#2c2c2c" stroke-width="2"><g><path d="M 116.558441 19.023556C 100.661441 29.615356 90.889041 48.332556 92.671241 68.703856C 93.194441 74.684056 94.673541 80.351056 96.944841 85.567256L 90.184041 84.975756C 86.882941 84.686956 83.972741 87.128956 83.683941 90.430056C 83.514341 92.368356 80.885941 92.827556 80.069141 91.061556L 65.089341 58.672256C 64.195241 56.738856 64.393141 54.476356 65.609441 52.727556L 88.644541 19.609256C 89.872441 17.843856 91.951041 16.870656 94.093141 17.058056L 116.558441 19.023556Z"></path></g></g><g id="0b.g-0b_fr_4havrle7lyj2-stroke" fill="none" stroke-linecap="round" stroke-linejoin="round" stroke-miterlimit="4" stroke="#2c2c2c" stroke-width="2"><g><path d="M 156.202873 129.400425C 155.914073 126.099325 158.355973 123.189125 161.657073 122.900325L 169.626673 122.203125L 170.077373 127.355025C 170.123572 127.883425 169.958073 128.408525 169.617073 128.814925L 164.695373 134.680425L 169.663373 138.849025C 170.509473 139.559025 170.619873 140.820525 169.909873 141.666725L 165.741173 146.634725L 171.606673 151.556425C 172.013073 151.897425 172.267273 152.385825 172.313573 152.914225L 172.692073 157.240825C 172.738273 157.769225 172.572673 158.294425 172.231773 158.700725L 167.310073 164.566225L 172.278073 168.734925C 173.124173 169.444925 173.234573 170.706425 172.524573 171.552525L 168.355873 176.520525L 176.388073 183.260425C 176.794373 183.601325 177.048673 184.089725 177.094873 184.618125L 177.647773 190.937125C 177.693973 191.465625 177.528373 191.990725 177.187473 192.397025L 170.447673 200.429225L 176.313173 205.351025C 176.719473 205.691925 176.973673 206.180325 177.019973 206.708725L 177.398473 211.035325C 177.444673 211.563825 177.279173 212.088925 176.938173 212.495225L 172.016473 218.360725L 180.234473 225.256525C 181.080673 225.966525 181.191073 227.228025 180.480973 228.074225L 166.312973 244.959025L 166.312773 244.957625L 156.202873 129.400425ZM 166.312773 244.957625L 173.584973 236.291025"></path></g></g><g id="0b.g-0b_fr_4havrle7lyj2-stroke" fill="none" stroke-linecap="round" stroke-linejoin="round" stroke-miterlimit="4" stroke="#2c2c2c" stroke-width="2"><g><path d="M 141.994963 127.632575C 138.693863 127.921375 136.251963 130.831575 136.540763 134.132675L 145.343363 234.747075L 145.343463 234.748375L 158.343563 245.655475L 148.495063 133.086775C 148.206263 129.785675 145.296063 127.343775 141.994963 127.632575ZM 158.343663 245.656775L 158.343563 245.655475L 145.343363 234.747075"></path></g></g><g id="0b.g-0b_fr_4havrle7lyj2-stroke" fill="none" stroke-linecap="round" stroke-linejoin="round" stroke-miterlimit="4" stroke="#2c2c2c" stroke-width="2"><g><path d="M 149.71688 111.921744L 126.07038 114.012144C 123.11298 114.636244 121.01858 117.356544 121.28558 120.408544C 121.57238 123.686144 124.47478 126.114044 127.78558 125.862344L 136.45888 224.998744C 136.59758 226.583944 137.36038 228.049244 138.57938 229.072044L 145.34288 234.747344L 136.54018 134.132944C 136.25138 130.831844 138.69338 127.921644 141.99448 127.632844C 145.29558 127.344044 148.20578 129.785944 148.49458 133.087044L 158.34308 245.655744L 159.61178 246.720244C 161.30408 248.140244 163.82708 247.919544 165.24708 246.227244L 166.31228 244.957844L 156.20228 129.400644C 155.91348 126.099544 158.35548 123.189344 161.65658 122.900544L 171.47978 122.040444C 169.33968 121.579644 167.53368 119.981144 166.93358 117.741544C 166.15508 114.836044 167.67378 111.850244 170.38328 110.674944L 170.39058 110.671744L 170.31558 110.630644L 170.30678 110.633044L 165.38038 111.953044C 160.05368 113.380344 154.67758 113.280444 149.71688 111.921744ZM 145.34288 234.747344L 145.34298 234.748544M 158.34308 245.655744L 158.34318 245.657044M 166.31228 244.957844L 166.31238 244.959244M 170.30678 110.633044L 170.38328 110.674944L 170.39038 110.678844M 173.22798 109.843244L 170.30698 110.625944L 170.31558 110.630644L 173.26698 109.839844"></path></g></g><g id="0b.g-0b_fr_4havrle7lyj2-stroke" fill="none" stroke-linecap="round" stroke-linejoin="round" stroke-miterlimit="4" stroke="#2c2c2c" stroke-width="2"><g><path d="M 151.399176 20.3984C 143.643076 29.144 140.288676 41.4939 143.540576 53.63L 144.213576 56.1415C 131.903276 62.2723 125.100676 76.2812 128.470776 90.0879C 126.330676 91.1561 124.951376 93.4542 125.172476 95.9814C 125.424676 98.8644 122.402676 100.8066 120.090576 99.066C 110.495776 91.8433 103.887576 80.7334 102.758476 67.8278C 100.646476 43.6885 118.503276 22.4077 142.642476 20.2957C 145.614876 20.0357 148.543976 20.0784 151.399176 20.3984ZM 161.928476 12.2493C 155.576676 10.3496 148.766076 9.5958 141.759676 10.2087C 112.049876 12.808 90.072376 38.9998 92.671576 68.7097"></path></g></g><g id="0b.g-0b_fr_4havrle7lyj2-stroke" fill="none" stroke-linecap="round" stroke-linejoin="round" stroke-miterlimit="4" stroke="#2c2c2c" stroke-width="2"><g><path d="M 218.438154 97.730231L 218.410354 97.737731L 170.307454 110.626831L 170.391054 110.672531C 167.677054 111.845631 166.154854 114.834231 166.934054 117.742431C 167.785654 120.920431 171.065554 122.807531 174.282354 121.984631L 200.038754 218.108831C 200.450654 219.645931 201.456254 220.956431 202.834354 221.752131L 210.480454 226.166731L 184.339754 128.608231C 183.482054 125.407431 185.381554 122.117431 188.582354 121.259831C 191.783154 120.402131 195.073254 122.301631 195.930854 125.502431L 225.177454 234.652031L 226.611754 235.479931C 228.524954 236.584431 230.971254 235.929031 232.075854 234.015831L 232.904354 232.581031L 202.881354 120.533631C 202.023754 117.332831 203.923254 114.042831 207.123954 113.185131L 221.543954 109.321431C 224.782754 108.453531 226.713154 105.155231 225.855454 101.954431C 224.997854 98.753631 221.676954 96.862431 218.438154 97.730231ZM 218.438154 97.730231L 170.307454 110.626831C 170.335354 110.642131 170.363254 110.657331 170.391054 110.672531"></path></g></g><g id="0b.g-0b_fr_4havrle7lyj2-stroke" fill="none" stroke-linecap="round" stroke-linejoin="round" stroke-miterlimit="4" stroke="#2c2c2c" stroke-width="2"><g><path d="M 207.124366 113.187788C 203.923566 114.045388 202.024066 117.335388 202.881666 120.536188L 232.904766 232.583588L 241.804166 217.169188C 242.356466 216.212688 242.028766 214.989488 241.072166 214.437188L 235.455766 211.194487L 239.284166 204.563488C 239.549366 204.104088 239.621266 203.558188 239.483966 203.045888L 238.359866 198.850688C 238.222566 198.338388 237.887366 197.901488 237.428066 197.636287L 230.796966 193.807888L 229.244066 188.012288L 233.072466 181.381287C 233.337766 180.921888 233.409566 180.375988 233.272266 179.863688L 232.148266 175.668488C 232.010966 175.156088 231.675766 174.719288 231.216366 174.454088L 224.585366 170.625688L 229.949266 161.334988C 230.501566 160.378388 230.173866 159.155188 229.217266 158.602987L 219.926566 153.238988L 223.169266 147.622588C 223.721566 146.665988 223.393766 145.442788 222.437166 144.890488L 220.494966 143.769187L 223.616366 138.362888C 223.881566 137.903588 223.953366 137.357588 223.816166 136.845288L 222.174366 130.718288C 222.037066 130.205888 221.701866 129.769088 221.242566 129.503888L 212.162066 124.261188L 215.990466 117.630188C 216.255666 117.170788 216.327566 116.624888 216.190266 116.112588L 214.851766 111.117188L 207.124366 113.187788Z"></path></g></g><g id="0b.g-0b_fr_4havrle7lyj2-stroke" fill="none" stroke-linecap="round" stroke-linejoin="round" stroke-miterlimit="4" stroke="#2c2c2c" stroke-width="2"><g><path d="M 188.582374 121.260588C 185.381574 122.118288 183.482074 125.408288 184.339674 128.609088L 210.480474 226.167588L 225.177374 234.652888L 195.930774 125.503288C 195.073174 122.302488 191.783174 120.402988 188.582374 121.260588Z"></path></g></g><g id="0b.g-0b_fr_4havrle7lyj2-stroke" fill="none" stroke-linecap="round" stroke-linejoin="round" stroke-miterlimit="4" stroke="#2c2c2c" stroke-width="2"><g><path d="M 193.902821 23.035516C 187.614521 18.702016 179.537321 17.049116 171.582521 19.180616C 157.178921 23.040016 148.631221 37.845116 152.490621 52.248716L 154.561221 59.976116C 154.990021 61.576516 154.040321 63.221516 152.439921 63.650416C 141.770621 66.509216 135.438921 77.475916 138.297721 88.145216C 141.156621 98.814616 152.123321 105.146216 162.792621 102.287416L 220.748221 86.758216C 231.417521 83.899416 237.749221 72.932716 234.890321 62.263316C 232.031521 51.594016 221.064821 45.262416 210.395421 48.121216C 208.795021 48.550016 207.150021 47.600316 206.721221 45.999916L 204.650621 38.272516C 203.973621 35.745916 202.959821 33.399416 201.670521 31.268616C 196.865821 34.074116 191.884021 36.609416 186.746021 38.853516C 186.201621 42.704716 183.423421 46.047216 179.429421 47.117416C 176.043621 48.024616 172.597921 47.080816 170.166721 44.906216L 170.162621 44.907516C 168.765421 43.656216 167.703821 41.998316 167.182121 40.051416C 166.979821 39.296416 166.869621 38.538316 166.844521 37.789216C 166.689921 33.243816 169.671721 29.026416 174.253021 27.798916C 176.995321 27.064116 179.776821 27.543616 182.026821 28.907716C 186.095021 27.143716 190.057621 25.182216 193.902821 23.035516Z"></path></g></g></g><g id="g-root-1.g-1_fr_1q6yfdde7m0p3-stroke" data-item-order="-390794" transform="translate(67.59188842773438, 338.65234375)"><g id="1.g-1_fr_1q6yfdde7m0p3-stroke" fill="none" stroke-linecap="round" stroke-linejoin="round" stroke-miterlimit="4" stroke="#2c2c2c" stroke-width="2"><g><path d="M 63.2279 100.0822L 46.248 95.5325C 43.1739 94.7088 40.5563 92.6985 38.965 89.9423L 23.6208 63.3654C 21.4116 59.539 22.7226 54.6463 26.549 52.4372L 75.6517 24.0877C 76.1886 23.7777 76.7465 23.537 77.315 23.3629L 77.4003 23.2393C 79.8516 19.6851 84.0238 17.7218 88.3249 18.0981L 93.9384 18.5892L 92.4446 16.002C 89.1309 10.2625 81.7919 8.296 76.0523 11.6097L 16.002 46.2798C 10.2625 49.5935 8.296 56.9326 11.6097 62.6721L 35.3075 103.718L 69.0276 112.7529L 63.2279 100.0822Z"></path></g></g></g><g id="g-root-2.g-2_fr_1lrrec1e7lybl-stroke" data-item-order="-390790" transform="translate(107.08102416992188, 346.69921875)"><g id="2.g-2_fr_1lrrec1e7lybl-stroke" fill="none" stroke-linecap="round" stroke-linejoin="round" stroke-miterlimit="4" stroke="#2c2c2c" stroke-width="2"><g><path d="M 93.420669 13.9484C 93.346769 13.9405 93.272669 13.9333 93.198369 13.9269L 48.837669 10.0458C 44.536569 9.6695 40.364869 11.6328 37.913469 15.1869L 12.121769 52.5813C 9.722069 56.0606 9.329669 60.5458 11.088769 64.3889L 29.995169 105.6939C 31.271969 108.4833 33.543469 110.6325 36.294469 111.7781L 78.656569 115.1524C 67.640369 109.5128 58.730069 100.1745 53.701669 88.6275L 46.939869 88.036C 43.638769 87.7471 40.728569 90.1891 40.439769 93.4902C 40.270169 95.4285 37.641669 95.8877 36.824969 94.1217L 21.845169 61.7324C 20.951069 59.799 21.148969 57.5365 22.365269 55.7878L 45.400369 22.6694C 46.628169 20.9041 48.706869 19.9308 50.848969 20.1182L 73.311169 22.0834C 79.253069 18.1239 86.050769 15.2995 93.420669 13.9484Z"></path></g></g></g><g id="g-root-3.g-3_fr_1cw4e35e7lz4b-stroke" data-item-order="-390786" transform="translate(146.29995727539062, 349.7578125)"><g id="3.g-3_fr_1cw4e35e7lz4b-stroke" fill="none" stroke-linecap="round" stroke-linejoin="round" stroke-miterlimit="4" stroke="#2c2c2c" stroke-width="2"><g><path d="M 79.464531 12.249C 73.113131 10.3495 66.302831 9.5958 59.296831 10.2087C 29.587031 12.808 7.609531 38.9998 10.208731 68.7097C 12.033131 89.5626 25.480231 106.6062 43.608631 114.0161L 67.236931 111.9272C 57.302031 109.199 49.036531 101.4209 46.177431 90.7506C 46.118231 90.5298 46.061731 90.3089 46.007831 90.088C 43.867831 91.1562 42.488531 93.4542 42.709631 95.9814C 42.961831 98.8644 39.939831 100.8066 37.627731 99.066C 28.032931 91.8433 21.424731 80.7334 20.295631 67.8278C 18.183631 43.6885 36.040431 22.4077 60.179631 20.2957C 63.151731 20.0357 66.080531 20.0784 68.935531 20.3983C 71.859131 17.1016 75.408131 14.317 79.464531 12.249Z"></path></g></g></g><g id="g-root-4.g-4_fr_18gavype7lzwl-stroke" data-item-order="-390782" transform="translate(181.44500732421875, 348.05078125)"><g id="4.g-4_fr_18gavype7lzwl-stroke" fill="none" stroke-linecap="round" stroke-linejoin="round" stroke-miterlimit="4" stroke="#2c2c2c" stroke-width="2"><g><path d="M 84.997 19.436C 76.2313 11.4372 63.6984 7.9364 51.3855 11.2356C 32.1807 16.3815 20.7838 36.1216 25.9297 55.3264L 26.6026 57.8379C 14.0952 64.067 7.2732 78.4285 11.0297 92.4477C 15.3179 108.4517 31.768 117.9492 47.772 113.6609L 52.6984 112.3409L 100.8012 99.4518L 105.7276 98.1318C 121.7315 93.8435 131.229 77.3934 126.9408 61.3894C 123.1843 47.3702 110.0956 38.3437 96.1493 39.203L 95.4763 36.6914C 94.6465 33.5945 93.4372 30.7005 91.9117 28.0463C 89.3512 29.7713 86.7322 31.4163 84.0584 32.9775C 85.3493 35.1098 86.3643 37.458 87.0418 39.9867L 89.1124 47.7142C 89.5412 49.3145 91.1862 50.2643 92.7866 49.8355C 103.4559 46.9766 114.4227 53.3083 117.2815 63.9776C 120.1404 74.6469 113.8087 85.6137 103.1394 88.4725L 45.1838 104.0016C 34.5145 106.8605 23.5478 100.5288 20.6889 89.8595C 17.8301 79.1902 24.1617 68.2234 34.8311 65.3646C 36.4315 64.9358 37.3812 63.2908 36.9524 61.6904L 34.8818 53.963C 31.0224 39.5594 39.5701 24.7543 53.9737 20.8949C 61.926 18.764 70.0007 20.4152 76.2882 24.7458C 79.2634 23.0849 82.1682 21.3131 84.997 19.436ZM 52.6984 112.3409L 52.782 112.3867M 100.8012 99.4518L 100.829 99.4444"></path></g></g></g><g id="g-root-0a.g-0a_fr_zknvpte7m0pb-stroke" data-item-order="-390778" transform="translate(39, 102.5859375)"><g id="0a.g-0a_fr_zknvpte7m0pb-stroke" fill="none" stroke-linecap="round" stroke-linejoin="round" stroke-miterlimit="4" stroke="#2c2c2c" stroke-width="2"><g><path d="M 67.4869 269.1255C 32.5752 242.8488 10 201.0608 10 154C 10 74.471 74.471 10 154 10C 233.529 10 298 74.471 298 154C 298 219.2848 254.5552 274.4225 194.9995 292.0793C 193.6023 290.8281 192.5407 289.1702 192.0191 287.2233C 191.488 285.2413 191.5912 283.2388 192.2043 281.4313C 247.0376 265.0156 287 214.1747 287 154C 287 80.5461 227.4539 21 154 21C 80.5461 21 21 80.5461 21 154C 21 199.1601 43.5078 239.0632 77.9176 263.1034L 67.4869 269.1255Z"></path></g></g></g><g id="g-root-dc_4j6b0xe7lybv-stroke" data-item-order="-9216" transform="translate(135.09600830078125, 160.52734375)"></g><g id="g-root-uneq_ddkd3le7q8so-stroke" data-item-order="-1296" transform="translate(351.22601318359375, 129)"></g><g id="g-root-buil_1q9gbpte7ue4r-stroke" data-item-order="-1296" transform="translate(351.22601318359375, 261)"></g><g id="g-root-seed_v5guohe7vtam-stroke" data-item-order="-1296" transform="translate(351.22601318359375, 369)"></g><g id="g-root-hand_9lmxde7ary9-stroke" data-item-order="-1296" transform="translate(351.22601318359375, 477)"></g><g id="g-root-tx_scmnhcqu_qpnck1e7lz41-stroke" data-item-order="0" transform="translate(177, 63)"></g><g id="g-root-tx_cchphnch_13zuwr5e7q8sm-stroke" data-item-order="0" transform="translate(399, 135)"></g><g id="g-root-tx_idinchos_qp0vgxe7q77r-stroke" data-item-order="0" transform="translate(399, 171)"></g><g id="g-root-tx_cquynnhn_de6u6pe7m0oy-stroke" data-item-order="0" transform="translate(111.09600830078125, 268.52734375)"></g><g id="g-root-tx_kimsotng_humte9e7uebt-stroke" data-item-order="0" transform="translate(399, 267)"></g><g id="g-root-tx_nhnmnhtm_4j6b0xe7ufwq-stroke" data-item-order="0" transform="translate(399, 303)"></g><g id="g-root-tx_utcng_1lrrec1e7vtak-stroke" data-item-order="0" transform="translate(399, 375)"></g><g id="g-root-tx_nubtvait_18gavype7vuvh-stroke" data-item-order="0" transform="translate(399, 411)"></g><g id="g-root-tx_vintrquc_mg2oghe7aryn-stroke" data-item-order="0" transform="translate(399, 483)"></g><g id="g-root-tx_nhnmnhvi_dl25ape7aqdc-stroke" data-item-order="0" transform="translate(399, 519)"></g></g></g></svg>