<?xml version="1.0" encoding="utf-8" standalone="yes"?>
<!DOCTYPE svg PUBLIC "-//W3C//DTD SVG 1.1//EN" "http://www.w3.org/Graphics/SVG/1.1/DTD/svg11.dtd">
<svg width="734" height="698" viewBox="0 0 734 698" style="fill:none;stroke:none;fill-rule:evenodd;clip-rule:evenodd;stroke-linecap:round;stroke-linejoin:round;stroke-miterlimit:1.5;" version="1.1" xmlns="http://www.w3.org/2000/svg" xmlns:xlink="http://www.w3.org/1999/xlink"><style class="text-font-style fontImports" data-font-family="Roboto">@import url('https://fonts.googleapis.com/css2?family=Roboto:wght@400;700&amp;display=block');</style><g id="items" style="isolation: isolate"><g id="blend" style="mix-blend-mode: normal"><g id="g-root-1.g-1_fr_hv9jy9gpl4hs-fill" data-item-order="-410390" transform="translate(64.33700561523438, 153)"><g id="1.g-1_fr_hv9jy9gpl4hs-fill" stroke="none" fill="#1ac3fb"><g><path d="M 208.159 94L 10 94C 12.1463 91.1066 14.4942 88.3066 17.0437 85.6C 33.4499 68.4889 56.0443 57.9111 84.827 53.8667L 84.827 21.6667C 84.827 18.2445 85.8344 15.4444 87.8492 13.2667C 89.864 11.0889 92.4544 10 95.6205 10L 126.274 10C 129.152 10 131.599 11.0889 133.614 13.2667C 135.628 15.4444 136.636 18.2445 136.636 21.6667L 136.636 54.8C 156.496 58.2222 173.046 64.7555 186.286 74.4C 194.928 80.362 202.218 86.8954 208.159 94Z"></path></g></g></g><g id="g-root-2.g-2_fr_8zmjpdgpl5ai-fill" data-item-order="-410386" transform="translate(47.2030029296875, 237)"><g id="2.g-2_fr_8zmjpdgpl5ai-fill" stroke="none" fill="#43dd93"><g><path d="M 225.292 10C 228.651 14.0173 231.578 18.2173 234.073 22.6C 241.269 34.4222 245.011 45.9333 245.299 57.1333C 245.299 59.6222 244.435 61.9556 242.708 64.1333C 240.981 66 238.823 66.9333 236.232 66.9333L 187.445 66.9333C 184.855 66.9333 181.42 66.6153 179.118 65.3708C 176.815 64.1264 174.533 61.1831 174.061 58.5333C 172.622 50.4444 167.585 43.4444 158.951 37.5333C 150.316 31.3111 139.378 28.2 126.138 28.2C 112.035 28.2 100.8094 31 92.4625 36.6C 84.1155 42.2 79.942 50.7556 79.942 62.2667C 79.942 69.7333 82.1007 76.1111 86.4181 81.4C 90.4063 85.9982 96.7277 90.1982 105.3824 94L 13.8823 94C 11.2941 85.0666 10 75.1111 10 64.1333C 10 43.4432 15.7113 25.3988 27.1338 10L 225.292 10Z"></path></g></g></g><g id="g-root-3.g-3_fr_4jt1kxgpl62s-fill" data-item-order="-410382" transform="translate(51.084991455078125, 321)"><g id="3.g-3_fr_4jt1kxgpl62s-fill" stroke="none" fill="#a6da37"><g><path d="M 101.5002 10C 102.2146 10.3138 102.9449 10.6249 103.6911 10.9333C 113.477 14.6667 126.717 18.8667 143.411 23.5333C 168.74 29.1333 189.32 35.8222 205.15 43.6C 220.981 51.3778 232.494 61.4889 239.689 73.9333C 243.336 79.8464 246.095 86.5353 247.964 94L 158.414 94C 155.696 92.7143 152.709 91.4698 149.456 90.2667C 138.806 86.2222 124.415 81.8667 106.2816 77.2C 84.6945 72.2222 66.4175 65.8445 51.4505 58.0667C 36.4835 49.9778 25.1143 39.7111 17.343 27.2667C 14.2605 22.0126 11.8128 16.257 10 10L 101.5002 10Z"></path></g></g></g><g id="g-root-4.g-4_fr_4jt1kxgpl62u-fill" data-item-order="-410378" transform="translate(39, 405)"><g id="4.g-4_fr_4jt1kxgpl62u-fill" stroke="none" fill="#ffe711"><g><path d="M 243.548 94L 28.8381 94C 26.3328 90.8659 24.083 87.5992 22.0887 84.2C 14.6052 71.4445 10.5757 58.0667 10 44.0667C 10 41.5778 10.8635 39.4 12.5905 37.5333C 14.6052 35.3556 16.9078 34.2667 19.4983 34.2667L 65.6945 34.2667C 69.4363 34.2667 73.2978 35.1865 75.3126 37.0532C 77.3274 38.6088 78.8388 40.2374 79.942 43.1333C 81.9568 48.4222 85.1229 53.5555 89.4403 58.5333C 94.0455 63.5111 100.2338 67.7111 108.0051 71.1333C 115.776 74.2444 125.419 75.8 136.932 75.8C 155.641 75.8 169.6 72.5333 178.811 66C 188.309 59.4667 193.058 50.6 193.058 39.4C 193.058 31.3111 190.468 24.7778 185.287 19.8C 181.849 16.303 176.92 13.0364 170.5 10L 260.05 10C 262.017 17.8526 263 26.5637 263 36.1333C 263 54.1778 258.827 70.2 250.48 84.2C 248.386 87.633 246.076 90.8997 243.548 94Z"></path></g></g></g><g id="g-root-5.g-5_fr_3zjghgpl6v4-fill" data-item-order="-410374" transform="translate(57.8380126953125, 489)"><g id="5.g-5_fr_3zjghgpl6v4-fill" stroke="none" fill="#f79438"><g><path d="M 94.3479 90.7333C 96.3627 92.9111 98.9531 94 102.1192 94L 132.773 94C 135.651 94 138.098 92.9111 140.112 90.7333C 142.127 88.5556 143.135 85.7556 143.135 82.3333L 143.135 50.1333C 163.57 47.3333 181.272 41.7333 196.239 33.3333C 207.668 27.0399 217.158 19.2622 224.71 10L 10 10C 16.8958 18.6266 25.7274 26.2488 36.4947 32.8667C 51.1739 41.5778 69.4509 47.3333 91.3257 50.1333L 91.3257 82.3333C 91.3257 85.7556 92.3331 88.5556 94.3479 90.7333Z"></path></g></g></g><g id="g-root-1.text-1_fr_1qa329tgpl4ay-fill" data-item-order="-410365" transform="translate(399, 111)"></g><g id="g-root-2.text-2_fr_1lu9k5dgpl538-fill" data-item-order="-410349" transform="translate(399, 207)"></g><g id="g-root-3.text-3_fr_1cymjwhgpl5vy-fill" data-item-order="-410335" transform="translate(399, 327)"></g><g id="g-root-4.text-4_fr_18it1s1gpl6o8-fill" data-item-order="-410321" transform="translate(399, 423)"></g><g id="g-root-5.text-5_fr_143m0qpgpl4aq-fill" data-item-order="-410307" transform="translate(399, 519)"></g><g id="g-root-tx_quynlcch_1lxdxkxgpmjnl-fill" data-item-order="0" transform="translate(411, 267)"><g id="tx_quynlcch_1lxdxkxgpmjnl-fill" stroke="none" fill="#dffff0"><g><text style="font: 15px Roboto, sans-serif; white-space: pre;" font-size="15px" font-family="Roboto, sans-serif"><tspan x="12" y="28" dominant-baseline="ideographic">Quyền lực chủ yếu thuộc về giai </tspan><tspan x="12" y="46" dominant-baseline="ideographic">cấp tư sản độc quyền</tspan></text></g></g></g><g id="g-root-tx_quynlcca_73ww1gpmlfk-fill" data-item-order="0" transform="translate(411, 207)"><g id="tx_quynlcca_73ww1gpmlfk-fill" stroke="none" fill="#43dd93"><g><text style="font: bold 20px Roboto, sans-serif; white-space: pre;" font-weight="bold" font-size="20px" font-family="Roboto, sans-serif"><tspan x="12" y="34" dominant-baseline="ideographic">Quyền lực của giai cấp tư </tspan><tspan x="12" y="58" dominant-baseline="ideographic">sản</tspan></text></g></g></g><g id="g-root-scat_144uywxgpnx8l-fill" data-item-order="0" transform="translate(339, 333)"></g><g id="g-root-3_18lxf7lgpml8i-fill" data-item-order="0" transform="translate(339, 213)"></g><g id="g-root-tx_anguynts_58hmpgpnzt7-fill" data-item-order="0" transform="translate(411, 327)"><g id="tx_anguynts_58hmpgpnzt7-fill" stroke="none" fill="#a6da37"><g><text style="font: bold 20px Roboto, sans-serif; white-space: pre;" font-weight="bold" font-size="20px" font-family="Roboto, sans-serif"><tspan x="12" y="34" dominant-baseline="ideographic">Đa nguyên tư sản</tspan></text></g></g></g><g id="g-root-tx_cduytrvi_1lviiblgpny18-fill" data-item-order="0" transform="translate(405, 363)"><g id="tx_cduytrvi_1lviiblgpny18-fill" stroke="none" fill="#f2ffd7"><g><text style="font: 15px Roboto, sans-serif; white-space: pre;" font-size="15px" font-family="Roboto, sans-serif"><tspan x="12" y="28" dominant-baseline="ideographic">Được duy trì với điều kiện không đe </tspan><tspan x="12" y="46" dominant-baseline="ideographic">dọa quyền lực tư sản</tspan></text></g></g></g><g id="g-root-tx_tptrungv_5uyptgpl5vq-fill" data-item-order="0" transform="translate(411, 147)"><g id="tx_tptrungv_5uyptgpl5vq-fill" stroke="none" fill="#e5f8ff"><g><text style="font: 15px Roboto, sans-serif; white-space: pre;" font-size="15px" font-family="Roboto, sans-serif"><tspan x="12" y="28" dominant-baseline="ideographic">Tập trung vào các lĩnh vực kinh tế </tspan><tspan x="12" y="46" dominant-baseline="ideographic">chính</tspan></text></g></g></g><g id="g-root-fram_1d2zvi9gppde0-fill" data-item-order="0" transform="translate(339, 429)"></g><g id="g-root-tx_tptrungk_hwii4hgpl6od-fill" data-item-order="0" transform="translate(411, 111)"><g id="tx_tptrungk_hwii4hgpl6od-fill" stroke="none" fill="#1ac3fb"><g><text style="font: bold 20px Roboto, sans-serif; white-space: pre;" font-weight="bold" font-size="20px" font-family="Roboto, sans-serif"><tspan x="12" y="34" dominant-baseline="ideographic">Tập trung kinh tế</tspan></text></g></g></g><g id="g-root-tx_hnhngquy_4o6d6pgppdl2-fill" data-item-order="0" transform="translate(411, 423)"><g id="tx_hnhngquy_4o6d6pgppdl2-fill" stroke="none" fill="#ffe711"><g><text style="font: bold 20px Roboto, sans-serif; white-space: pre;" font-weight="bold" font-size="20px" font-family="Roboto, sans-serif"><tspan x="12" y="34" dominant-baseline="ideographic">Hành động quyết liệt</tspan></text></g></g></g><g id="g-root-tx_hnhngcth_1hitdmpgppclr-fill" data-item-order="0" transform="translate(411, 459)"><g id="tx_hnhngcth_1hitdmpgppclr-fill" stroke="none" fill="#fffbd5"><g><text style="font: 15px Roboto, sans-serif; white-space: pre;" font-size="15px" font-family="Roboto, sans-serif"><tspan x="12" y="28" dominant-baseline="ideographic">Hành động được thực hiện khi lợi </tspan><tspan x="12" y="46" dominant-baseline="ideographic">ích tư sản bị đe dọa</tspan></text></g></g></g><g id="g-root-2_1qbc0g1gpl6hb-fill" data-item-order="0" transform="translate(339, 117)"></g><g id="g-root-inte_1hn41gps6q3-fill" data-item-order="0" transform="translate(339, 525)"></g><g id="g-root-tx_cquynnhn_v7z0htgpl53g-fill" data-item-order="0" transform="translate(177, 39)"><g id="tx_cquynnhn_v7z0htgpl53g-fill" stroke="none" fill="#f4f4f4"><g><text style="font: 15px Roboto, sans-serif; white-space: pre;" font-size="15px" font-family="Roboto, sans-serif"><tspan x="16.59" y="31" dominant-baseline="ideographic">Độc quyền nhà nước trong chủ nghĩa tư bản hiện đại</tspan></text></g></g></g><g id="g-root-tx_vaitrcav_qns6rlgps6q1-fill" data-item-order="0" transform="translate(411, 519)"><g id="tx_vaitrcav_qns6rlgps6q1-fill" stroke="none" fill="#f79438"><g><text style="font: bold 20px Roboto, sans-serif; white-space: pre;" font-weight="bold" font-size="20px" font-family="Roboto, sans-serif"><tspan x="12" y="34" dominant-baseline="ideographic">Vai trò của viện trợ nước </tspan><tspan x="12" y="58" dominant-baseline="ideographic">ngoài</tspan></text></g></g></g><g id="g-root-tx_csdngiut_dcy5hdgps556-fill" data-item-order="0" transform="translate(411, 579)"><g id="tx_csdngiut_dcy5hdgps556-fill" stroke="none" fill="#fff0e2"><g><text style="font: 15px Roboto, sans-serif; white-space: pre;" font-size="15px" font-family="Roboto, sans-serif"><tspan x="12" y="28" dominant-baseline="ideographic">Được sử dụng để điều tiết kinh tế </tspan><tspan x="12" y="46" dominant-baseline="ideographic">nội địa</tspan></text></g></g></g><g id="g-root-1.g-1_fr_hv9jy9gpl4hs-stroke" data-item-order="-410390" transform="translate(64.33700561523438, 153)"><g id="1.g-1_fr_hv9jy9gpl4hs-stroke" fill="none" stroke-linecap="round" stroke-linejoin="round" stroke-miterlimit="4" stroke="#2c2c2c" stroke-width="2"><g><path d="M 208.1586 94L 10 94C 12.1463 91.1066 14.4942 88.3066 17.0437 85.6C 33.4499 68.4889 56.0443 57.9111 84.827 53.8667L 84.827 21.6667C 84.827 18.2444 85.8344 15.4444 87.8492 13.2667C 89.864 11.0889 92.4544 10 95.6205 10L 126.2741 10C 129.1524 10 131.5989 11.0889 133.6137 13.2667C 135.6285 15.4444 136.6359 18.2444 136.6359 21.6667L 136.6359 54.8C 156.4959 58.2222 173.046 64.7555 186.2861 74.4C 194.9276 80.362 202.2184 86.8954 208.1586 94Z"></path></g></g></g><g id="g-root-2.g-2_fr_8zmjpdgpl5ai-stroke" data-item-order="-410386" transform="translate(47.2030029296875, 237)"><g id="2.g-2_fr_8zmjpdgpl5ai-stroke" fill="none" stroke-linecap="round" stroke-linejoin="round" stroke-miterlimit="4" stroke="#2c2c2c" stroke-width="2"><g><path d="M 225.2923 10C 228.6512 14.0173 231.5782 18.2173 234.0734 22.6C 241.2691 34.4222 245.0108 45.9333 245.2987 57.1333C 245.2987 59.6222 244.4352 61.9556 242.7082 64.1333C 240.9812 66 238.8225 66.9333 236.2321 66.9333L 187.4454 66.9333C 184.855 66.9333 181.4204 66.6153 179.1178 65.3708C 176.8152 64.1264 174.5329 61.1831 174.0615 58.5333C 172.6223 50.4444 167.5854 43.4444 158.9505 37.5333C 150.3157 31.3111 139.3783 28.2 126.1382 28.2C 112.0347 28.2 100.8094 31 92.4625 36.6C 84.1155 42.2 79.942 50.7556 79.942 62.2667C 79.942 69.7333 82.1007 76.1111 86.4181 81.4C 90.4063 85.9982 96.7277 90.1982 105.3824 94L 13.8823 94C 11.2941 85.0666 10 75.1111 10 64.1333C 10 43.4432 15.7113 25.3988 27.1338 10L 225.2923 10Z"></path></g></g></g><g id="g-root-3.g-3_fr_4jt1kxgpl62s-stroke" data-item-order="-410382" transform="translate(51.084991455078125, 321)"><g id="3.g-3_fr_4jt1kxgpl62s-stroke" fill="none" stroke-linecap="round" stroke-linejoin="round" stroke-miterlimit="4" stroke="#2c2c2c" stroke-width="2"><g><path d="M 101.5002 10C 102.2146 10.3138 102.9449 10.6249 103.6911 10.9333C 113.4772 14.6667 126.7173 18.8667 143.4113 23.5333C 168.7401 29.1333 189.3197 35.8222 205.1501 43.6C 220.9806 51.3778 232.4937 61.4889 239.6894 73.9333C 243.3364 79.8464 246.0947 86.5353 247.9644 94L 158.4143 94C 155.6956 92.7143 152.7093 91.4698 149.4556 90.2667C 138.806 86.2222 124.4146 81.8667 106.2816 77.2C 84.6945 72.2222 66.4175 65.8445 51.4505 58.0667C 36.4835 49.9778 25.1143 39.7111 17.343 27.2667C 14.2605 22.0126 11.8128 16.257 10 10L 101.5002 10Z"></path></g></g></g><g id="g-root-4.g-4_fr_4jt1kxgpl62u-stroke" data-item-order="-410378" transform="translate(39, 405)"><g id="4.g-4_fr_4jt1kxgpl62u-stroke" fill="none" stroke-linecap="round" stroke-linejoin="round" stroke-miterlimit="4" stroke="#2c2c2c" stroke-width="2"><g><path d="M 243.5479 94L 28.8381 94C 26.3328 90.8659 24.083 87.5992 22.0887 84.2C 14.6052 71.4445 10.5757 58.0667 10 44.0667C 10 41.5778 10.8635 39.4 12.5905 37.5333C 14.6052 35.3556 16.9078 34.2667 19.4983 34.2667L 65.6945 34.2667C 69.4363 34.2667 73.2978 35.1865 75.3126 37.0532C 77.3274 38.6088 78.8388 40.2374 79.942 43.1333C 81.9568 48.4222 85.1229 53.5555 89.4403 58.5333C 94.0455 63.5111 100.2338 67.7111 108.0051 71.1333C 115.7765 74.2444 125.4187 75.8 136.9317 75.8C 155.6405 75.8 169.6001 72.5333 178.8106 66C 188.3089 59.4667 193.058 50.6 193.058 39.4C 193.058 31.3111 190.4676 24.7778 185.2867 19.8C 181.8492 16.303 176.9203 13.0363 170.4997 10L 260.0497 10C 262.0165 17.8526 263 26.5637 263 36.1333C 263 54.1778 258.8265 70.2 250.4795 84.2C 248.3862 87.633 246.0757 90.8997 243.5479 94Z"></path></g></g></g><g id="g-root-5.g-5_fr_3zjghgpl6v4-stroke" data-item-order="-410374" transform="translate(57.8380126953125, 489)"><g id="5.g-5_fr_3zjghgpl6v4-stroke" fill="none" stroke-linecap="round" stroke-linejoin="round" stroke-miterlimit="4" stroke="#2c2c2c" stroke-width="2"><g><path d="M 94.3479 90.7333C 96.3627 92.9111 98.9531 94 102.1192 94L 132.7728 94C 135.6511 94 138.0976 92.9111 140.1124 90.7333C 142.1272 88.5556 143.1346 85.7556 143.1346 82.3333L 143.1346 50.1333C 163.5703 47.3333 181.2717 41.7333 196.2387 33.3333C 207.6678 27.0399 217.1582 19.2621 224.7098 10L 10 10C 16.8958 18.6266 25.7274 26.2488 36.4947 32.8667C 51.1739 41.5778 69.4509 47.3333 91.3257 50.1333L 91.3257 82.3333C 91.3257 85.7556 92.3331 88.5556 94.3479 90.7333Z"></path></g></g></g><g id="g-root-1.text-1_fr_1qa329tgpl4ay-stroke" data-item-order="-410365" transform="translate(399, 111)"><g id="1.text-1_fr_1qa329tgpl4ay-stroke" fill="none" stroke-linecap="round" stroke-linejoin="round" stroke-miterlimit="4" stroke="#1ac3fb" stroke-width="2"><g><path d="M 10 10L 10 82"></path></g></g></g><g id="g-root-2.text-2_fr_1lu9k5dgpl538-stroke" data-item-order="-410349" transform="translate(399, 207)"><g id="2.text-2_fr_1lu9k5dgpl538-stroke" fill="none" stroke-linecap="round" stroke-linejoin="round" stroke-miterlimit="4" stroke="#43dd93" stroke-width="2"><g><path d="M 10 10L 10 106"></path></g></g></g><g id="g-root-3.text-3_fr_1cymjwhgpl5vy-stroke" data-item-order="-410335" transform="translate(399, 327)"><g id="3.text-3_fr_1cymjwhgpl5vy-stroke" fill="none" stroke-linecap="round" stroke-linejoin="round" stroke-miterlimit="4" stroke="#a6da37" stroke-width="2"><g><path d="M 10 10L 10 82"></path></g></g></g><g id="g-root-4.text-4_fr_18it1s1gpl6o8-stroke" data-item-order="-410321" transform="translate(399, 423)"><g id="4.text-4_fr_18it1s1gpl6o8-stroke" fill="none" stroke-linecap="round" stroke-linejoin="round" stroke-miterlimit="4" stroke="#ffe711" stroke-width="2"><g><path d="M 10 10L 10 82"></path></g></g></g><g id="g-root-5.text-5_fr_143m0qpgpl4aq-stroke" data-item-order="-410307" transform="translate(399, 519)"><g id="5.text-5_fr_143m0qpgpl4aq-stroke" fill="none" stroke-linecap="round" stroke-linejoin="round" stroke-miterlimit="4" stroke="#f79438" stroke-width="2"><g><path d="M 10 10L 10 106"></path></g></g></g><g id="g-root-tx_quynlcch_1lxdxkxgpmjnl-stroke" data-item-order="0" transform="translate(411, 267)"></g><g id="g-root-tx_quynlcca_73ww1gpmlfk-stroke" data-item-order="0" transform="translate(411, 207)"></g><g id="g-root-scat_144uywxgpnx8l-stroke" data-item-order="0" transform="translate(339, 333)"><g id="scat_144uywxgpnx8l-stroke" fill="none" stroke-linecap="round" stroke-linejoin="round" stroke-miterlimit="4" stroke="#a6da37" stroke-width="2"><g><path d="M 11.5 11.5L 11.5 56.5L 56.5 56.5M 20.75 17.5C 20.335781 17.5 20 17.164219 20 16.75C 20 16.335781 20.335781 16 20.75 16M 20.75 17.5C 21.164219 17.5 21.5 17.164219 21.5 16.75C 21.5 16.335781 21.164219 16 20.75 16M 18.75 45.5C 18.335781 45.5 18 45.1642 18 44.75C 18 44.3358 18.335781 44 18.75 44M 18.75 45.5C 19.164219 45.5 19.5 45.1642 19.5 44.75C 19.5 44.3358 19.164219 44 18.75 44M 22.75 27.5C 22.335781 27.5 22 27.164221 22 26.75C 22 26.335779 22.335781 26 22.75 26M 22.75 27.5C 23.164219 27.5 23.5 27.164221 23.5 26.75C 23.5 26.335779 23.164219 26 22.75 26M 16.75 35.5C 16.335781 35.5 16 35.1642 16 34.75C 16 34.3358 16.335781 34 16.75 34M 16.75 35.5C 17.164219 35.5 17.5 35.1642 17.5 34.75C 17.5 34.3358 17.164219 34 16.75 34M 34.75 19.5C 34.3358 19.5 34 19.164219 34 18.75C 34 18.335781 34.3358 18 34.75 18M 34.75 19.5C 35.1642 19.5 35.5 19.164219 35.5 18.75C 35.5 18.335781 35.1642 18 34.75 18M 40.75 39.5C 40.3358 39.5 40 39.1642 40 38.75C 40 38.3358 40.3358 38 40.75 38M 40.75 39.5C 41.1642 39.5 41.5 39.1642 41.5 38.75C 41.5 38.3358 41.1642 38 40.75 38M 52.75 33.5C 52.3358 33.5 52 33.1642 52 32.75C 52 32.3358 52.3358 32 52.75 32M 52.75 33.5C 53.1642 33.5 53.5 33.1642 53.5 32.75C 53.5 32.3358 53.1642 32 52.75 32M 50.75 13.5C 50.3358 13.5 50 13.16422 50 12.75C 50 12.33578 50.3358 12 50.75 12M 50.75 13.5C 51.1642 13.5 51.5 13.16422 51.5 12.75C 51.5 12.33578 51.1642 12 50.75 12M 34.75 49.5C 34.3358 49.5 34 49.1642 34 48.75C 34 48.3358 34.3358 48 34.75 48M 34.75 49.5C 35.1642 49.5 35.5 49.1642 35.5 48.75C 35.5 48.3358 35.1642 48 34.75 48M 54.75 47.5C 54.3358 47.5 54 47.1642 54 46.75C 54 46.3358 54.3358 46 54.75 46M 54.75 47.5C 55.1642 47.5 55.5 47.1642 55.5 46.75C 55.5 46.3358 55.1642 46 54.75 46M 44.75 23.5C 44.3358 23.5 44 23.164219 44 22.75C 44 22.335781 44.3358 22 44.75 22M 44.75 23.5C 45.1642 23.5 45.5 23.164219 45.5 22.75C 45.5 22.335781 45.1642 22 44.75 22M 30.75 35.5C 30.3358 35.5 30 35.1642 30 34.75C 30 34.3358 30.3358 34 30.75 34M 30.75 35.5C 31.1642 35.5 31.5 35.1642 31.5 34.75C 31.5 34.3358 31.1642 34 30.75 34"></path></g></g></g><g id="g-root-3_18lxf7lgpml8i-stroke" data-item-order="0" transform="translate(339, 213)"><g id="3_18lxf7lgpml8i-stroke" fill="none" stroke-linecap="round" stroke-linejoin="round" stroke-miterlimit="4" stroke="#43dd93" stroke-width="2"><g><path d="M 19.524 33.865997C 18.711697 33.047241 18.716171 31.725237 19.534 30.911999L 29.91 20.610001C 30.726 19.794941 32.047997 19.794941 32.863998 20.610001M 11.16 16.544001C 11.16 18.851446 13.030555 20.722 15.338 20.722C 17.645447 20.722 19.515999 18.851446 19.515999 16.544001C 19.515999 14.236555 17.645447 12.366 15.338 12.366C 13.030555 12.366 11.16 14.236555 11.16 16.544001M 18.279999 19.507999C 17.424011 20.354462 16.242107 20.786633 15.042 20.692001L 22.5 27.968L 26.945999 23.554001L 19.487999 16.278C 19.573984 17.479074 19.13303 18.658112 18.279999 19.507999ZM 38.034 32.246002L 27.688 22.818001L 21.757999 28.704L 32.206001 39.827999M 47.400002 36.753998L 43.161999 36.753998C 41.818359 36.75074 40.661827 37.702393 40.406303 39.021519C 40.150787 40.340645 40.868324 41.655312 42.116001 42.153999L 46.428001 43.875999C 47.67532 44.374554 48.392849 45.688652 48.137875 47.007496C 47.882896 48.32634 46.727264 49.278294 45.383999 49.276001L 41.141998 49.276001M 44.273998 36.753998L 44.273998 35.188M 44.273998 50.852001L 44.273998 49.285999M 31.774 43.099998C 31.774 50.021233 37.384766 55.632 44.306 55.632C 51.227234 55.632 56.838001 50.021233 56.838001 43.099998C 56.838001 36.178768 51.227234 30.568001 44.306 30.568001C 37.384766 30.568001 31.774 36.178768 31.774 43.099998M 49.251999 13.764L 45.490002 21.925999L 50.882 22.02L 47.702 27.677999M 13.676001 48.417999L 22.360001 46.098L 21.535999 51.428001L 27.652 49.256001M 24.632 25.852001L 31.326 32.228001"></path></g></g></g><g id="g-root-tx_anguynts_58hmpgpnzt7-stroke" data-item-order="0" transform="translate(411, 327)"></g><g id="g-root-tx_cduytrvi_1lviiblgpny18-stroke" data-item-order="0" transform="translate(405, 363)"></g><g id="g-root-tx_tptrungv_5uyptgpl5vq-stroke" data-item-order="0" transform="translate(411, 147)"></g><g id="g-root-fram_1d2zvi9gppde0-stroke" data-item-order="0" transform="translate(339, 429)"><g id="fram_1d2zvi9gppde0-stroke" fill="none" stroke-linecap="round" stroke-linejoin="round" stroke-miterlimit="4" stroke="#ffe711" stroke-width="2"><g><path d="M 12.836 34C 12.836 44.005188 22.311445 52.115997 34 52.115997C 45.688553 52.115997 55.163998 44.005188 55.163998 34C 55.163998 23.994808 45.688553 15.884001 34 15.884001C 22.311445 15.884001 12.836 23.994808 12.836 34M 18.946781 21.28124L 49.049801 46.7188M 49.0532 21.28124L 18.95026 46.7188"></path></g></g></g><g id="g-root-tx_tptrungk_hwii4hgpl6od-stroke" data-item-order="0" transform="translate(411, 111)"></g><g id="g-root-tx_hnhngquy_4o6d6pgppdl2-stroke" data-item-order="0" transform="translate(411, 423)"></g><g id="g-root-tx_hnhngcth_1hitdmpgppclr-stroke" data-item-order="0" transform="translate(411, 459)"></g><g id="g-root-2_1qbc0g1gpl6hb-stroke" data-item-order="0" transform="translate(339, 117)"><g id="2_1qbc0g1gpl6hb-stroke" fill="none" stroke-linecap="round" stroke-linejoin="round" stroke-miterlimit="4" stroke="#1ac3fb" stroke-width="2"><g><path d="M 13.736 30.992001C 13.736 34.719925 16.758078 37.742001 20.486 37.742001C 24.213923 37.742001 27.236 34.719925 27.236 30.992001C 27.236 27.264078 24.213923 24.242001 20.486 24.242001C 16.758078 24.242001 13.736 27.264078 13.736 30.992001M 25.896 42.015999C 21.039612 39.59478 15.165894 40.694214 11.514 44.708M 40.764 30.992001C 40.764 34.719925 43.786079 37.742001 47.514 37.742001C 51.24192 37.742001 54.264 34.719925 54.264 30.992001C 54.264 27.264078 51.24192 24.242001 47.514 24.242001C 43.786079 24.242001 40.764 27.264078 40.764 30.992001M 56.486 44.708C 52.827831 40.690407 46.943954 39.596169 42.085999 42.029999M 20.986 19.25C 23.275414 14.773117 27.962111 12.039211 32.986 12.25C 38.009888 12.039211 42.696587 14.773117 44.986 19.25M 38.986 19.25L 45.986 19.25L 45.986 12.25M 37 42.25L 32.93 42.25C 31.644756 42.250896 30.540533 43.162785 30.296642 44.424675C 30.052752 45.686569 30.737654 46.944248 31.93 47.424L 36.057999 49.076C 37.250343 49.555752 37.935249 50.813431 37.691357 52.075321C 37.447464 53.337212 36.343243 54.2491 35.057999 54.25L 31 54.25M 33.996002 42.25L 33.996002 40.75M 33.996002 55.75L 33.996002 54.25M 41.898003 27.266001C 45.494823 29.83079 49.851822 31.106955 54.264004 30.888M 14.8 27.266001C 18.396824 29.83079 22.753819 31.106955 27.166 30.888"></path></g></g></g><g id="g-root-inte_1hn41gps6q3-stroke" data-item-order="0" transform="translate(339, 525)"><g id="inte_1hn41gps6q3-stroke" fill="none" stroke-linecap="round" stroke-linejoin="round" stroke-miterlimit="4" stroke="#f79438" stroke-width="2"><g><path d="M 34.507999 57C 21.80545 57 11.508 46.702549 11.508 34C 11.508 21.297451 21.80545 11 34.508003 11L 35.507999 11L 35.507999 57ZM 14.304 45L 35.506001 45M 14.304 23L 35.507999 23M 11.53 33L 35.507999 33M 33.624001 56.984001C 27.74202 50.780476 24.477104 42.54871 24.507999 34C 24.476818 25.450855 27.74258 17.218758 33.625999 11.016M 56.507999 19L 48.708 19C 44.926556 19.058098 41.908119 22.170549 41.966003 25.952C 41.950104 28.558695 43.387642 30.957159 45.693996 32.171997L 52.784 35.827999C 55.090355 37.042839 56.527889 39.441303 56.511997 42.047997C 56.569874 45.83099 53.549019 48.944092 49.766003 49L 41.966 49M 47.507999 49L 47.507999 54.453999M 51.507999 13.546L 51.507999 19"></path></g></g></g><g id="g-root-tx_cquynnhn_v7z0htgpl53g-stroke" data-item-order="0" transform="translate(177, 39)"></g><g id="g-root-tx_vaitrcav_qns6rlgps6q1-stroke" data-item-order="0" transform="translate(411, 519)"></g><g id="g-root-tx_csdngiut_dcy5hdgps556-stroke" data-item-order="0" transform="translate(411, 579)"></g></g></g></svg>