<?xml version="1.0" encoding="utf-8" standalone="yes"?>
<!DOCTYPE svg PUBLIC "-//W3C//DTD SVG 1.1//EN" "http://www.w3.org/Graphics/SVG/1.1/DTD/svg11.dtd">
<svg width="902" height="644" viewBox="0 0 902 644" style="fill:none;stroke:none;fill-rule:evenodd;clip-rule:evenodd;stroke-linecap:round;stroke-linejoin:round;stroke-miterlimit:1.5;" version="1.1" xmlns="http://www.w3.org/2000/svg" xmlns:xlink="http://www.w3.org/1999/xlink"><style class="text-font-style fontImports" data-font-family="Roboto">@import url('https://fonts.googleapis.com/css2?family=Roboto:wght@400;700&amp;display=block');</style><g id="items" style="isolation: isolate"><g id="blend" style="mix-blend-mode: normal"><g id="g-root-ro_4kflttehr8y2-fill" data-item-order="-25200" transform="translate(399, 204)"><g id="ro_4kflttehr8y2-fill" stroke="none" fill="#666666"><g><path d="M 34 10L 154 10C 154 10 178 10 178 34L 178 136C 178 136 178 160 154 160L 34 160C 34 160 10 160 10 136L 10 34C 10 34 10 10 34 10"></path></g></g></g><g id="g-root-ro_zqala9ehd6o0-fill" data-item-order="-18144" transform="translate(15, 309)"><g id="ro_zqala9ehd6o0-fill" stroke="none" fill="#92bd39"><g><path d="M 22 10L 334 10C 334 10 346 10 346 22L 346 52C 346 52 346 64 334 64L 22 64C 22 64 10 64 10 52L 10 22C 10 22 10 10 22 10"></path></g></g></g><g id="g-root-ro_dg2m2pehslj9-fill" data-item-order="-13608" transform="translate(615, 309)"><g id="ro_dg2m2pehslj9-fill" stroke="none" fill="#3cc583"><g><path d="M 22 10L 250 10C 250 10 262 10 262 22L 262 52C 262 52 262 64 250 64L 22 64C 22 64 10 64 10 52L 10 22C 10 22 10 10 22 10"></path></g></g></g><g id="g-root-ro_1upwnk1ehvegz-fill" data-item-order="-12312" transform="translate(369, 459)"><g id="ro_1upwnk1ehvegz-fill" stroke="none" fill="#e0cb15"><g><path d="M 22 10L 226 10C 226 10 238 10 238 22L 238 52C 238 52 238 64 226 64L 22 64C 22 64 10 64 10 52L 10 22C 10 22 10 10 22 10"></path></g></g></g><g id="g-root-ro_meu2wxehelmr-fill" data-item-order="-11664" transform="translate(135, 123)"><g id="ro_meu2wxehelmr-fill" stroke="none" fill="#de58a9"><g><path d="M 22 10L 214 10C 214 10 226 10 226 22L 226 52C 226 52 226 64 214 64L 22 64C 22 64 10 64 10 52L 10 22C 10 22 10 10 22 10"></path></g></g></g><g id="g-root-ro_mcc6khehbqip-fill" data-item-order="-11016" transform="translate(615, 123)"><g id="ro_mcc6khehbqip-fill" stroke="none" fill="#e55753"><g><path d="M 22 10L 202 10C 202 10 214 10 214 22L 214 52C 214 52 214 64 202 64L 22 64C 22 64 10 64 10 52L 10 22C 10 22 10 10 22 10"></path></g></g></g><g id="g-root-cu_4o6ji9ehekug-fill" data-item-order="0" transform="translate(567, 150)"></g><g id="g-root-tx_nghincuk_zp1n41ehbr40-fill" data-item-order="0" transform="translate(111, 189)"><g id="tx_nghincuk_zp1n41ehbr40-fill" stroke="none" fill="#484848"><g><text style="font: 20px Roboto, sans-serif; white-space: pre;" font-size="20px" font-family="Roboto, sans-serif"><tspan x="11.95" y="34" dominant-baseline="ideographic">Nghiên cứu khoa học</tspan></text></g></g></g><g id="g-root-cu_1d301ttehelfm-fill" data-item-order="0" transform="translate(309, 177)"></g><g id="g-root-cu_147zio1ehej2l-fill" data-item-order="0" transform="translate(309, 177)"></g><g id="g-root-cu_147zio1ehej2n-fill" data-item-order="0" transform="translate(309, 177)"></g><g id="g-root-cu_zs60jlehejux-fill" data-item-order="0" transform="translate(639, 177)"></g><g id="g-root-cu_vccif5ehekn8-fill" data-item-order="0" transform="translate(639, 177)"></g><g id="g-root-cu_vccif5ehekna-fill" data-item-order="0" transform="translate(639, 177)"></g><g id="g-root-tx_citigrou_diklkxehbqbv-fill" data-item-order="0" transform="translate(663, 189)"><g id="tx_citigrou_diklkxehbqbv-fill" stroke="none" fill="#484848"><g><text style="font: 20px Roboto, sans-serif; white-space: pre;" font-size="20px" font-family="Roboto, sans-serif"><tspan x="17.62" y="34" dominant-baseline="ideographic">Citigroup</tspan></text></g></g></g><g id="g-root-cu_9401mpehek25-fill" data-item-order="0" transform="translate(351, 150)"></g><g id="g-root-tx_htng_qtemv5ehbrwp-fill" data-item-order="0" transform="translate(219, 225)"><g id="tx_htng_qtemv5ehbrwp-fill" stroke="none" fill="#484848"><g><text style="font: 20px Roboto, sans-serif; white-space: pre;" font-size="20px" font-family="Roboto, sans-serif"><tspan x="17.09" y="34" dominant-baseline="ideographic">Hạ tầng</tspan></text></g></g></g><g id="g-root-tx_tponln_144v58hehbqbr-fill" data-item-order="0" transform="translate(417, 561)"><g id="tx_tponln_144v58hehbqbr-fill" stroke="none" fill="#484848"><g><text style="font: 20px Roboto, sans-serif; white-space: pre;" font-size="20px" font-family="Roboto, sans-serif"><tspan x="17.7" y="34" dominant-baseline="ideographic">Tập đoàn lớn</tspan></text></g></g></g><g id="g-root-tx_vaitrcan_qwj0apehelfk-fill" data-item-order="0" transform="translate(261, 45)"><g id="tx_vaitrcan_qwj0apehelfk-fill" stroke="none" fill="#484848"><g><text style="font: 15px Roboto, sans-serif; white-space: pre;" font-size="15px" font-family="Roboto, sans-serif"><tspan x="12.34" y="31" dominant-baseline="ideographic">Vai trò của nhà nước trong nền kinh tế tư bản hiện đại</tspan></text></g></g></g><g id="g-root-tx_aig_92r3ghehbr44-fill" data-item-order="0" transform="translate(663, 225)"><g id="tx_aig_92r3ghehbr44-fill" stroke="none" fill="#484848"><g><text style="font: 20px Roboto, sans-serif; white-space: pre;" font-size="20px" font-family="Roboto, sans-serif"><tspan x="11.95" y="34" dominant-baseline="ideographic">AIG</tspan></text></g></g></g><g id="g-root-tx_nhucuxhi_mdl4qpehbsoy-fill" data-item-order="0" transform="translate(159, 261)"><g id="tx_nhucuxhi_mdl4qpehbsoy-fill" stroke="none" fill="#484848"><g><text style="font: 20px Roboto, sans-serif; white-space: pre;" font-size="20px" font-family="Roboto, sans-serif"><tspan x="16.17" y="34" dominant-baseline="ideographic">Nhu cầu xã hội</tspan></text></g></g></g><g id="g-root-tx_anh_7437lehbrwt-fill" data-item-order="0" transform="translate(663, 261)"><g id="tx_anh_7437lehbrwt-fill" stroke="none" fill="#484848"><g><text style="font: 20px Roboto, sans-serif; white-space: pre;" font-size="20px" font-family="Roboto, sans-serif"><tspan x="16.45" y="34" dominant-baseline="ideographic">Anh</tspan></text></g></g></g><g id="g-root-cu_djtjr5ehej9r-fill" data-item-order="0" transform="translate(351, 304)"></g><g id="g-root-cu_djtjr5ehej9o-fill" data-item-order="0" transform="translate(567, 304)"></g><g id="g-root-cu_1hitjy9ehekn9-fill" data-item-order="0" transform="translate(393, 513)"></g><g id="g-root-cu_1hitjy9eheknc-fill" data-item-order="0" transform="translate(393, 513)"></g><g id="g-root-tx_ngnhng_1hfp6ipehbrwm-fill" data-item-order="0" transform="translate(417, 525)"><g id="tx_ngnhng_1hfp6ipehbrwm-fill" stroke="none" fill="#484848"><g><text style="font: 20px Roboto, sans-serif; white-space: pre;" font-size="20px" font-family="Roboto, sans-serif"><tspan x="15.72" y="34" dominant-baseline="ideographic">Ngân hàng</tspan></text></g></g></g><g id="g-root-cu_9401mpehek22-fill" data-item-order="0" transform="translate(483, 354)"></g><g id="g-root-tx_utinhngu_1ur5ow1ehbqbo-fill" data-item-order="0" transform="translate(147, 375)"><g id="tx_utinhngu_1ur5ow1ehbqbo-fill" stroke="none" fill="#484848"><g><text style="font: 20px Roboto, sans-serif; white-space: pre;" font-size="20px" font-family="Roboto, sans-serif"><tspan x="12.55" y="34" dominant-baseline="ideographic">Ưu tiên hàng đầu</tspan></text></g></g></g><g id="g-root-cu_1uua2blehej28-fill" data-item-order="0" transform="translate(309, 363)"></g><g id="g-root-cu_1lyn22pehejuz-fill" data-item-order="0" transform="translate(309, 363)"></g><g id="g-root-cu_4o6ji9ehekuj-fill" data-item-order="0" transform="translate(639, 363)"></g><g id="g-root-cu_1qegk75ehej2m-fill" data-item-order="0" transform="translate(639, 363)"></g><g id="g-root-tx_giilpphp_dgp6blehbrbe-fill" data-item-order="0" transform="translate(663, 375)"><g id="tx_giilpphp_dgp6blehbrbe-fill" stroke="none" fill="#484848"><g><text style="font: 20px Roboto, sans-serif; white-space: pre;" font-size="20px" font-family="Roboto, sans-serif"><tspan x="11.98" y="34" dominant-baseline="ideographic">Giới lập pháp</tspan></text></g></g></g><g id="g-root-tx_nnhkinht_1lvion5ehbr4d-fill" data-item-order="0" transform="translate(159, 411)"><g id="tx_nnhkinht_1lvion5ehbr4d-fill" stroke="none" fill="#484848"><g><text style="font: 20px Roboto, sans-serif; white-space: pre;" font-size="20px" font-family="Roboto, sans-serif"><tspan x="15.61" y="34" dominant-baseline="ideographic">Ổn định kinh tế</tspan></text></g></g></g><g id="g-root-tx_giihnhph_90vo75ehbs3n-fill" data-item-order="0" transform="translate(663, 411)"><g id="tx_giihnhph_90vo75ehbs3n-fill" stroke="none" fill="#484848"><g><text style="font: 20px Roboto, sans-serif; white-space: pre;" font-size="20px" font-family="Roboto, sans-serif"><tspan x="15.48" y="34" dominant-baseline="ideographic">Giới hành pháp</tspan></text></g></g></g><g id="g-root-tx_cutrkinh_v7cpq9ehbs3z-fill" data-item-order="4000000000" transform="translate(663, 138)"><g id="tx_cutrkinh_v7cpq9ehbs3z-fill" stroke="none" fill="#ffffff"><g><text style="font: 20px Roboto, sans-serif; white-space: pre;" font-size="20px" font-family="Roboto, sans-serif"><tspan x="16.87" y="34" dominant-baseline="ideographic">Cứu trợ kinh tế</tspan></text></g></g></g><g id="g-root-glob_dg2m2pehr85d-fill" data-item-order="4000000000" transform="translate(459, 228)"></g><g id="g-root-tx_nhnctbnh_hvw475ehr7d4-fill" data-item-order="4000000000" transform="translate(423, 282)"><g id="tx_nhnctbnh_hvw475ehr7d4-fill" stroke="none" fill="#ffffff"><g><text style="font: 20px Roboto, sans-serif; white-space: pre;" font-size="20px" font-family="Roboto, sans-serif"><tspan x="13.41" y="34" dominant-baseline="ideographic">Nhà nước tư </tspan><tspan x="14.43" y="58" dominant-baseline="ideographic">bản hiện đại</tspan></text></g></g></g><g id="g-root-2_qs5ooxehbpqg-fill" data-item-order="4000000000" transform="translate(627, 135)"></g><g id="g-root-doll_qunl1dehekui-fill" data-item-order="4000000000" transform="translate(309, 135)"></g><g id="g-root-tx_chnglmph_1hhkls1ehd4au-fill" data-item-order="4000000000" transform="translate(27, 324)"><g id="tx_chnglmph_1hhkls1ehd4au-fill" stroke="none" fill="#ffffff"><g><text style="font: 20px Roboto, sans-serif; white-space: pre;" font-size="20px" font-family="Roboto, sans-serif"><tspan x="12.57" y="34" dominant-baseline="ideographic">Chống lạm phát và thất nghiệp</tspan></text></g></g></g><g id="g-root-decr_14643epehd5vr-fill" data-item-order="4000000000" transform="translate(309, 321)"></g><g id="g-root-bill_hvw475ehskr0-fill" data-item-order="4000000000" transform="translate(627, 321)"></g><g id="g-root-tx_kimsotng_qqwncxehsn43-fill" data-item-order="4000000000" transform="translate(663, 324)"><g id="tx_kimsotng_qqwncxehsn43-fill" stroke="none" fill="#ffffff"><g><text style="font: 20px Roboto, sans-serif; white-space: pre;" font-size="20px" font-family="Roboto, sans-serif"><tspan x="12.76" y="34" dominant-baseline="ideographic">Kiểm soát ngân sách</tspan></text></g></g></g><g id="g-root-tx_utnhnc_14643epehej9l-fill" data-item-order="4000000000" transform="translate(147, 138)"><g id="tx_utnhnc_14643epehej9l-fill" stroke="none" fill="#ffffff"><g><text style="font: 20px Roboto, sans-serif; white-space: pre;" font-size="20px" font-family="Roboto, sans-serif"><tspan x="14.3" y="34" dominant-baseline="ideographic">Đầu tư nhà nước</tspan></text></g></g></g><g id="g-root-char_4m3pdehvdvu-fill" data-item-order="4000000000" transform="translate(381, 471)"></g><g id="g-root-tx_cphnnhnc_8zmmv5ehvg8x-fill" data-item-order="4000000000" transform="translate(417, 474)"><g id="tx_cphnnhnc_8zmmv5ehvg8x-fill" stroke="none" fill="#ffffff"><g><text style="font: 20px Roboto, sans-serif; white-space: pre;" font-size="20px" font-family="Roboto, sans-serif"><tspan x="13.13" y="34" dominant-baseline="ideographic">Cổ phần nhà nước</tspan></text></g></g></g><g id="g-root-ro_4kflttehr8y2-stroke" data-item-order="-25200" transform="translate(399, 204)"><g id="ro_4kflttehr8y2-stroke" fill="none" stroke-linecap="round" stroke-linejoin="round" stroke-miterlimit="4" stroke="#ffffff" stroke-width="2"><g><path d="M 34 10L 154 10C 154 10 178 10 178 34L 178 136C 178 136 178 160 154 160L 34 160C 34 160 10 160 10 136L 10 34C 10 34 10 10 34 10"></path></g></g></g><g id="g-root-ro_zqala9ehd6o0-stroke" data-item-order="-18144" transform="translate(15, 309)"><g id="ro_zqala9ehd6o0-stroke" fill="none" stroke-linecap="round" stroke-linejoin="round" stroke-miterlimit="4" stroke="#ffffff" stroke-width="2"><g><path d="M 22 10L 334 10C 334 10 346 10 346 22L 346 52C 346 52 346 64 334 64L 22 64C 22 64 10 64 10 52L 10 22C 10 22 10 10 22 10"></path></g></g></g><g id="g-root-ro_dg2m2pehslj9-stroke" data-item-order="-13608" transform="translate(615, 309)"><g id="ro_dg2m2pehslj9-stroke" fill="none" stroke-linecap="round" stroke-linejoin="round" stroke-miterlimit="4" stroke="#ffffff" stroke-width="2"><g><path d="M 22 10L 250 10C 250 10 262 10 262 22L 262 52C 262 52 262 64 250 64L 22 64C 22 64 10 64 10 52L 10 22C 10 22 10 10 22 10"></path></g></g></g><g id="g-root-ro_1upwnk1ehvegz-stroke" data-item-order="-12312" transform="translate(369, 459)"><g id="ro_1upwnk1ehvegz-stroke" fill="none" stroke-linecap="round" stroke-linejoin="round" stroke-miterlimit="4" stroke="#ffffff" stroke-width="2"><g><path d="M 22 10L 226 10C 226 10 238 10 238 22L 238 52C 238 52 238 64 226 64L 22 64C 22 64 10 64 10 52L 10 22C 10 22 10 10 22 10"></path></g></g></g><g id="g-root-ro_meu2wxehelmr-stroke" data-item-order="-11664" transform="translate(135, 123)"><g id="ro_meu2wxehelmr-stroke" fill="none" stroke-linecap="round" stroke-linejoin="round" stroke-miterlimit="4" stroke="#ffffff" stroke-width="2"><g><path d="M 22 10L 214 10C 214 10 226 10 226 22L 226 52C 226 52 226 64 214 64L 22 64C 22 64 10 64 10 52L 10 22C 10 22 10 10 22 10"></path></g></g></g><g id="g-root-ro_mcc6khehbqip-stroke" data-item-order="-11016" transform="translate(615, 123)"><g id="ro_mcc6khehbqip-stroke" fill="none" stroke-linecap="round" stroke-linejoin="round" stroke-miterlimit="4" stroke="#ffffff" stroke-width="2"><g><path d="M 22 10L 202 10C 202 10 214 10 214 22L 214 52C 214 52 214 64 202 64L 22 64C 22 64 10 64 10 52L 10 22C 10 22 10 10 22 10"></path></g></g></g><g id="g-root-cu_4o6ji9ehekug-stroke" data-item-order="0" transform="translate(567, 150)"><g id="cu_4o6ji9ehekug-stroke" fill="none" stroke-linecap="round" stroke-linejoin="round" stroke-miterlimit="4" stroke="#484848" stroke-width="2" stroke-dasharray="5.0, 7.0"><g><path d="M 10 114L 13 114L 13.1 114C 24.642749 114.000006 33.999999 104.642757 33.999998 93.100005L 34 93L 34 30.9C 33.999999 19.357249 43.357248 10.000001 54.899999 10.000002L 55 10L 58 10"></path></g></g></g><g id="g-root-tx_nghincuk_zp1n41ehbr40-stroke" data-item-order="0" transform="translate(111, 189)"></g><g id="g-root-cu_1d301ttehelfm-stroke" data-item-order="0" transform="translate(309, 177)"><g id="cu_1d301ttehelfm-stroke" fill="none" stroke-linecap="round" stroke-linejoin="round" stroke-miterlimit="4" stroke="#484848" stroke-width="2" stroke-dasharray="5.0, 7.0"><g><path d="M 28 10L 28 22L 28 34L 19 34L 10 34"></path></g></g></g><g id="g-root-cu_147zio1ehej2l-stroke" data-item-order="0" transform="translate(309, 177)"><g id="cu_147zio1ehej2l-stroke" fill="none" stroke-linecap="round" stroke-linejoin="round" stroke-miterlimit="4" stroke="#484848" stroke-width="2" stroke-dasharray="5.0, 7.0"><g><path d="M 28 10L 28 40L 28 70L 19 70L 10 70"></path></g></g></g><g id="g-root-cu_147zio1ehej2n-stroke" data-item-order="0" transform="translate(309, 177)"><g id="cu_147zio1ehej2n-stroke" fill="none" stroke-linecap="round" stroke-linejoin="round" stroke-miterlimit="4" stroke="#484848" stroke-width="2" stroke-dasharray="5.0, 7.0"><g><path d="M 28 10L 28 22L 28 94C 28.000002 100.627415 22.627419 105.999998 16.000002 105.999998L 15.9 106L 10 106"></path></g></g></g><g id="g-root-cu_zs60jlehejux-stroke" data-item-order="0" transform="translate(639, 177)"><g id="cu_zs60jlehejux-stroke" fill="none" stroke-linecap="round" stroke-linejoin="round" stroke-miterlimit="4" stroke="#484848" stroke-width="2" stroke-dasharray="5.0, 7.0"><g><path d="M 10 10L 10 22L 10 34L 19 34L 28 34"></path></g></g></g><g id="g-root-cu_vccif5ehekn8-stroke" data-item-order="0" transform="translate(639, 177)"><g id="cu_vccif5ehekn8-stroke" fill="none" stroke-linecap="round" stroke-linejoin="round" stroke-miterlimit="4" stroke="#484848" stroke-width="2" stroke-dasharray="5.0, 7.0"><g><path d="M 10 10L 10 40L 10 70L 19 70L 28 70"></path></g></g></g><g id="g-root-cu_vccif5ehekna-stroke" data-item-order="0" transform="translate(639, 177)"><g id="cu_vccif5ehekna-stroke" fill="none" stroke-linecap="round" stroke-linejoin="round" stroke-miterlimit="4" stroke="#484848" stroke-width="2" stroke-dasharray="5.0, 7.0"><g><path d="M 10 10L 10 22L 10 94C 10.000004 100.627423 15.372587 106.000006 22.000005 106.000005L 22.1 106L 28 106"></path></g></g></g><g id="g-root-tx_citigrou_diklkxehbqbv-stroke" data-item-order="0" transform="translate(663, 189)"></g><g id="g-root-cu_9401mpehek25-stroke" data-item-order="0" transform="translate(351, 150)"><g id="cu_9401mpehek25-stroke" fill="none" stroke-linecap="round" stroke-linejoin="round" stroke-miterlimit="4" stroke="#484848" stroke-width="2" stroke-dasharray="5.0, 7.0"><g><path d="M 58 114L 55 114L 54.9 114C 43.357245 113.999995 33.999997 104.642746 33.999997 93.099996L 34 93L 34 30.9C 33.999998 19.357248 24.64275 10 13.1 10L 13 10L 10 10"></path></g></g></g><g id="g-root-tx_htng_qtemv5ehbrwp-stroke" data-item-order="0" transform="translate(219, 225)"></g><g id="g-root-tx_tponln_144v58hehbqbr-stroke" data-item-order="0" transform="translate(417, 561)"></g><g id="g-root-tx_vaitrcan_qwj0apehelfk-stroke" data-item-order="0" transform="translate(261, 45)"></g><g id="g-root-tx_aig_92r3ghehbr44-stroke" data-item-order="0" transform="translate(663, 225)"></g><g id="g-root-tx_nhucuxhi_mdl4qpehbsoy-stroke" data-item-order="0" transform="translate(159, 261)"></g><g id="g-root-tx_anh_7437lehbrwt-stroke" data-item-order="0" transform="translate(663, 261)"></g><g id="g-root-cu_djtjr5ehej9r-stroke" data-item-order="0" transform="translate(351, 304)"><g id="cu_djtjr5ehej9r-stroke" fill="none" stroke-linecap="round" stroke-linejoin="round" stroke-miterlimit="4" stroke="#484848" stroke-width="2" stroke-dasharray="5.0, 7.0"><g><path d="M 58 10L 55 10L 54.9 10C 50.611929 10.004962 45.995266 11.578824 41.700001 14.500001C 39.147207 16.234511 36.356002 20.403194 34.000002 26.000001C 31.644001 31.596807 28.852796 35.76549 26.300001 37.500001C 22.004737 40.421177 17.388073 41.995039 13.100001 42L 13 42L 10 42"></path></g></g></g><g id="g-root-cu_djtjr5ehej9o-stroke" data-item-order="0" transform="translate(567, 304)"><g id="cu_djtjr5ehej9o-stroke" fill="none" stroke-linecap="round" stroke-linejoin="round" stroke-miterlimit="4" stroke="#484848" stroke-width="2" stroke-dasharray="5.0, 7.0"><g><path d="M 10 10L 13 10L 13.1 10C 17.388073 10.00496 22.004736 11.578822 26.300001 14.499999C 28.852796 16.234511 31.644001 20.403194 34.000002 26C 36.356002 31.596807 39.147208 35.76549 41.700003 37.500001C 45.995265 40.421176 50.611928 41.995038 54.900001 41.999998L 55 42L 58 42"></path></g></g></g><g id="g-root-cu_1hitjy9ehekn9-stroke" data-item-order="0" transform="translate(393, 513)"><g id="cu_1hitjy9ehekn9-stroke" fill="none" stroke-linecap="round" stroke-linejoin="round" stroke-miterlimit="4" stroke="#484848" stroke-width="2" stroke-dasharray="5.0, 7.0"><g><path d="M 10 10L 10 22L 10 34L 19 34L 28 34"></path></g></g></g><g id="g-root-cu_1hitjy9eheknc-stroke" data-item-order="0" transform="translate(393, 513)"><g id="cu_1hitjy9eheknc-stroke" fill="none" stroke-linecap="round" stroke-linejoin="round" stroke-miterlimit="4" stroke="#484848" stroke-width="2" stroke-dasharray="5.0, 7.0"><g><path d="M 10 10L 10 17.5L 10 58C 10.000002 64.627417 15.372585 70 22.000002 69.999999L 22.1 70L 28 70"></path></g></g></g><g id="g-root-tx_ngnhng_1hfp6ipehbrwm-stroke" data-item-order="0" transform="translate(417, 525)"></g><g id="g-root-cu_9401mpehek22-stroke" data-item-order="0" transform="translate(483, 354)"><g id="cu_9401mpehek22-stroke" fill="none" stroke-linecap="round" stroke-linejoin="round" stroke-miterlimit="4" stroke="#484848" stroke-width="2" stroke-dasharray="5.0, 7.0"><g><path d="M 10 10L 10 62.5L 10 115"></path></g></g></g><g id="g-root-tx_utinhngu_1ur5ow1ehbqbo-stroke" data-item-order="0" transform="translate(147, 375)"></g><g id="g-root-cu_1uua2blehej28-stroke" data-item-order="0" transform="translate(309, 363)"><g id="cu_1uua2blehej28-stroke" fill="none" stroke-linecap="round" stroke-linejoin="round" stroke-miterlimit="4" stroke="#484848" stroke-width="2" stroke-dasharray="5.0, 7.0"><g><path d="M 28 10L 28 22L 28 34L 19 34L 10 34"></path></g></g></g><g id="g-root-cu_1lyn22pehejuz-stroke" data-item-order="0" transform="translate(309, 363)"><g id="cu_1lyn22pehejuz-stroke" fill="none" stroke-linecap="round" stroke-linejoin="round" stroke-miterlimit="4" stroke="#484848" stroke-width="2" stroke-dasharray="5.0, 7.0"><g><path d="M 28 10L 28 17.5L 28 58C 27.999999 64.627415 22.627416 69.999998 16 69.999998L 15.9 70L 10 70"></path></g></g></g><g id="g-root-cu_4o6ji9ehekuj-stroke" data-item-order="0" transform="translate(639, 363)"><g id="cu_4o6ji9ehekuj-stroke" fill="none" stroke-linecap="round" stroke-linejoin="round" stroke-miterlimit="4" stroke="#484848" stroke-width="2" stroke-dasharray="5.0, 7.0"><g><path d="M 10 10L 10 22L 10 34L 19 34L 28 34"></path></g></g></g><g id="g-root-cu_1qegk75ehej2m-stroke" data-item-order="0" transform="translate(639, 363)"><g id="cu_1qegk75ehej2m-stroke" fill="none" stroke-linecap="round" stroke-linejoin="round" stroke-miterlimit="4" stroke="#484848" stroke-width="2" stroke-dasharray="5.0, 7.0"><g><path d="M 10 10L 10 17.5L 10 58C 10.000002 64.627417 15.372585 70 22.000002 69.999999L 22.1 70L 28 70"></path></g></g></g><g id="g-root-tx_giilpphp_dgp6blehbrbe-stroke" data-item-order="0" transform="translate(663, 375)"></g><g id="g-root-tx_nnhkinht_1lvion5ehbr4d-stroke" data-item-order="0" transform="translate(159, 411)"></g><g id="g-root-tx_giihnhph_90vo75ehbs3n-stroke" data-item-order="0" transform="translate(663, 411)"></g><g id="g-root-tx_cutrkinh_v7cpq9ehbs3z-stroke" data-item-order="4000000000" transform="translate(663, 138)"></g><g id="g-root-glob_dg2m2pehr85d-stroke" data-item-order="4000000000" transform="translate(459, 228)"><g id="glob_dg2m2pehr85d-stroke" fill="none" stroke-linecap="round" stroke-linejoin="round" stroke-miterlimit="4" stroke="#ffffff" stroke-width="2"><g><path d="M 33.5 56.5C 21.073593 56.5 11.000001 46.426407 11.000001 34C 11.000001 21.573593 21.073593 11.500001 33.5 11.500001M 12.296 26.5L 32 26.5M 12.304 41.5L 32 41.5M 33.5 56.5C 27.700001 56.5 23 46.425999 23 34C 23 21.574001 27.702 11.5 33.5 11.5M 35 29.702L 57 29.702M 35 23.702L 57 23.702M 40 50.702L 40 16.702L 44 16.702C 49.522846 16.702 54 21.179153 54 26.702C 54 32.224846 49.522846 36.702 44 36.702L 40 36.702"></path></g></g></g><g id="g-root-tx_nhnctbnh_hvw475ehr7d4-stroke" data-item-order="4000000000" transform="translate(423, 282)"></g><g id="g-root-2_qs5ooxehbpqg-stroke" data-item-order="4000000000" transform="translate(627, 135)"><g id="2_qs5ooxehbpqg-stroke" fill="none" stroke-linecap="round" stroke-linejoin="round" stroke-miterlimit="4" stroke="#ffffff" stroke-width="2"><g><path d="M 25 24.0625C 21.375626 24.0625 18.4375 21.12435 18.4375 17.499975C 18.4375 13.875612 21.375626 10.9375 25 10.9375C 27.230125 10.9375 29.200375 12.049863 30.38625 13.75M 37.5 36.5625C 37.5 29.658875 31.903625 24.0625 25 24.0625C 18.096437 24.0625 12.5 29.658875 12.5 36.5625M 23.250124 19.5C 24.021875 18.728201 25.091499 18.552074 25.99925 18.971613M 17.124937 39.0625L 17.124937 36.1875L 32.75 36.1875L 32.75 39.0625M 25.625 31.8125L 19.375 31.8125L 19.375 36.1875L 25.625 36.1875L 25.625 31.8125ZM 30.625 29.3125L 25.625 29.3125L 25.625 36.1875L 30.625 36.1875L 30.625 29.3125ZM 32.5 20.812376C 32.5 21.812374 31.625 22.687376 30.625 22.687376C 29.625 22.687376 28.75 21.812374 28.75 20.812376C 28.75 19.437374 30.625 17.062374 30.625 17.062374C 30.625 17.062374 32.5 19.312376 32.5 20.812376Z"></path></g></g></g><g id="g-root-doll_qunl1dehekui-stroke" data-item-order="4000000000" transform="translate(309, 135)"><g id="doll_qunl1dehekui-stroke" fill="none" stroke-linecap="round" stroke-linejoin="round" stroke-miterlimit="4" stroke="#ffffff" stroke-width="2"><g><path d="M 20 39.375L 11.25 39.375L 11.25 21.875C 11.25 21.184643 11.809644 20.625 12.5 20.625L 18.75 20.625C 19.440355 20.625 20 21.184643 20 21.875ZM 18.75 20.625L 18.75 16.03125C 18.750624 15.783307 18.897755 15.559176 19.125 15.46L 29.125 11.015C 29.317968 10.930781 29.540371 10.94938 29.716671 11.064478C 29.892971 11.179577 29.99947 11.375706 30 11.58625L 30 21.88125M 17.5 39.375L 17.5 36.25C 17.5 35.904823 17.220179 35.625 16.875 35.625L 14.375 35.625C 14.029822 35.625 13.75 35.904823 13.75 36.25L 13.75 39.375M 11.25 24.375L 16.25 24.375M 26.25 16.875L 30 16.875M 23.75 19.375L 30 19.375M 11.25 26.875L 13.75 26.875M 33.125 28.125L 30.583748 28.125C 29.780472 28.125561 29.090332 28.695492 28.937901 29.484173C 28.785469 30.272856 29.213533 31.058905 29.95875 31.358749L 32.53875 32.391251C 33.283966 32.691093 33.712029 33.477142 33.559601 34.265827C 33.407166 35.054508 32.717026 35.624435 31.91375 35.625L 29.375 35.625M 31.25 36.875L 31.25 35.625M 31.25 28.125L 31.25 26.875M 23.75 31.875C 23.750002 36.017136 27.107864 39.375 31.25 39.375C 35.392136 39.375 38.75 36.017136 38.75 31.875C 38.75 27.732864 35.392136 24.375002 31.25 24.375002C 27.107864 24.375002 23.750002 27.732864 23.750002 31.875ZM 21.25 14.51375L 21.25 10.625M 20 39.375L 23.75 39.375"></path></g></g></g><g id="g-root-tx_chnglmph_1hhkls1ehd4au-stroke" data-item-order="4000000000" transform="translate(27, 324)"></g><g id="g-root-decr_14643epehd5vr-stroke" data-item-order="4000000000" transform="translate(309, 321)"><g id="decr_14643epehd5vr-stroke" fill="none" stroke-linecap="round" stroke-linejoin="round" stroke-miterlimit="4" stroke="#ffffff" stroke-width="2"><g><path d="M 11.88 24.375L 21.879999 24.375C 21.879999 24.375 22.504999 24.375 22.504999 25L 22.504999 27.5C 22.504999 27.5 22.504999 28.125 21.879999 28.125L 11.88 28.125C 11.88 28.125 11.255 28.125 11.255 27.5L 11.255 25C 11.255 25 11.255 24.375 11.88 24.375M 13.13 28.125L 23.129999 28.125C 23.129999 28.125 23.754999 28.125 23.754999 28.75L 23.754999 31.25C 23.754999 31.25 23.754999 31.875 23.129999 31.875L 13.13 31.875C 13.13 31.875 12.505 31.875 12.505 31.25L 12.505 28.75C 12.505 28.75 12.505 28.125 13.13 28.125M 11.88 31.875L 21.879999 31.875C 21.879999 31.875 22.504999 31.875 22.504999 32.5L 22.504999 35C 22.504999 35 22.504999 35.625 21.879999 35.625L 11.88 35.625C 11.88 35.625 11.255 35.625 11.255 35L 11.255 32.5C 11.255 32.5 11.255 31.875 11.88 31.875M 13.13 35.625L 23.129999 35.625C 23.129999 35.625 23.754999 35.625 23.754999 36.25L 23.754999 38.75C 23.754999 38.75 23.754999 39.375 23.129999 39.375L 13.13 39.375C 13.13 39.375 12.505 39.375 12.505 38.75L 12.505 36.25C 12.505 36.25 12.505 35.625 13.13 35.625M 28.129999 31.875L 38.130001 31.875C 38.130001 31.875 38.755001 31.875 38.755001 32.5L 38.755001 35C 38.755001 35 38.755001 35.625 38.130001 35.625L 28.129999 35.625C 28.129999 35.625 27.504999 35.625 27.504999 35L 27.504999 32.5C 27.504999 32.5 27.504999 31.875 28.129999 31.875M 26.879999 35.625L 36.880001 35.625C 36.880001 35.625 37.505001 35.625 37.505001 36.25L 37.505001 38.75C 37.505001 38.75 37.505001 39.375 36.880001 39.375L 26.879999 39.375C 26.879999 39.375 26.254999 39.375 26.254999 38.75L 26.254999 36.25C 26.254999 36.25 26.254999 35.625 26.879999 35.625M 11.875 10.625L 21.088751 19.83375C 21.539087 20.284369 22.256269 20.324211 22.75375 19.92625L 27.231251 16.34375C 27.739382 15.938108 28.473637 15.989739 28.92 16.4625L 38.75 26.875M 30.004999 26.875L 38.755001 26.875L 38.755001 18.75"></path></g></g></g><g id="g-root-bill_hvw475ehskr0-stroke" data-item-order="4000000000" transform="translate(627, 321)"><g id="bill_hvw475ehskr0-stroke" fill="none" stroke-linecap="round" stroke-linejoin="round" stroke-miterlimit="4" stroke="#ffffff" stroke-width="2"><g><path d="M 13.4375 25.625L 17.1875 25.625C 17.35644 25.613825 17.521988 25.676075 17.641706 25.795794C 17.761425 25.915512 17.823675 26.08106 17.8125 26.25L 17.8125 37.5C 17.823675 37.668938 17.761425 37.834488 17.641706 37.954208C 17.521988 38.073925 17.35644 38.136177 17.1875 38.125L 13.4375 38.125M 22.975 23.9625L 20.625 26.875C 20.321491 27.258217 19.86368 27.487123 19.375 27.5L 17.8125 27.5M 17.8125 35C 20.3125 36.875 22.9 38.125 24.375 38.125L 33.4375 38.125C 34.349998 38.125 34.912498 38.0625 35.3125 36.875C 35.908657 33.986805 36.326115 31.06459 36.5625 28.125002C 36.5625 27.5 35.9375 26.875 34.6875 26.875L 24.6875 26.875M 23.125 25L 21.362499 12.5875C 21.332039 12.408695 21.382395 12.225586 21.5 12.0875C 21.621834 11.953614 21.793983 11.8766 21.974998 11.875L 30.625 11.875M 26.25 26.875L 25.075001 15.0625C 25.053318 14.883853 25.112965 14.704907 25.237499 14.575C 25.35766 14.447649 25.52491 14.375324 25.699999 14.375L 35.837502 14.375C 36.018517 14.3766 36.190662 14.453613 36.3125 14.5875C 36.430107 14.725587 36.480461 14.908695 36.450001 15.087501L 34.6875 26.875M 29.199999 20.9375C 29.200001 21.800446 29.899555 22.5 30.762501 22.5C 31.625444 22.5 32.325001 21.800446 32.325001 20.9375C 32.325001 20.074554 31.625444 19.375 30.762501 19.375C 29.899555 19.375 29.200001 20.074554 29.200001 20.9375"></path></g></g></g><g id="g-root-tx_kimsotng_qqwncxehsn43-stroke" data-item-order="4000000000" transform="translate(663, 324)"></g><g id="g-root-tx_utnhnc_14643epehej9l-stroke" data-item-order="4000000000" transform="translate(147, 138)"></g><g id="g-root-char_4m3pdehvdvu-stroke" data-item-order="4000000000" transform="translate(381, 471)"><g id="char_4m3pdehvdvu-stroke" fill="none" stroke-linecap="round" stroke-linejoin="round" stroke-miterlimit="4" stroke="#ffffff" stroke-width="2"><g><path d="M 10.9375 23.592499L 39.0625 23.592499M 10.9375 30.155001L 39.0625 30.155001M 10.9375 36.717499L 39.0625 36.717499M 10 10M 10.9375 23.592499L 18.4375 17.592474C 18.996851 17.14485 19.672726 16.866814 20.385149 16.791275C 21.097563 16.715738 21.816713 16.84585 22.4575 17.166225L 27.539999 19.707474C 28.180626 20.028013 28.89975 20.158337 29.612125 20.083012C 30.324627 20.0077 31.0005 19.7299 31.559999 19.282475L 39.059998 13.282475M 20.3125 16.7987L 20.3125 36.717499M 10 10M 10.9375 23.592499L 10.9375 36.717499M 10 10M 39.0625 13.282475L 39.0625 36.717499M 29.6875 20.072638L 29.6875 36.717625"></path></g></g></g><g id="g-root-tx_cphnnhnc_8zmmv5ehvg8x-stroke" data-item-order="4000000000" transform="translate(417, 474)"></g></g></g></svg>