<?xml version="1.0" encoding="utf-8" standalone="yes"?>
<!DOCTYPE svg PUBLIC "-//W3C//DTD SVG 1.1//EN" "http://www.w3.org/Graphics/SVG/1.1/DTD/svg11.dtd">
<svg width="614" height="722" viewBox="0 0 614 722" style="fill:none;stroke:none;fill-rule:evenodd;clip-rule:evenodd;stroke-linecap:round;stroke-linejoin:round;stroke-miterlimit:1.5;" version="1.1" xmlns="http://www.w3.org/2000/svg" xmlns:xlink="http://www.w3.org/1999/xlink"><style class="text-font-style fontImports" data-font-family="Roboto">@import url('https://fonts.googleapis.com/css2?family=Roboto:wght@400;700&amp;display=block');</style><g id="items" style="isolation: isolate"><g id="blend" style="mix-blend-mode: normal"><g id="g-root-3.shape-3_fr_zmje41hjihho-fill" data-item-order="-351924" transform="translate(285.302734375, 105)"><g id="3.shape-3_fr_zmje41hjihho-fill" stroke="none" fill="#a6da37"><g><path d="M 27.696778 315.999969L 15.696778 315.999969L 15.696778 159.999985L 27.696778 159.999985L 27.696778 315.999969ZM 32.2969 28.191L 27.6969 28.191L 27.6969 160L 15.6969 160L 15.6969 28.1909L 11.0169 28.1909C 10.2369 28.1909 9.7469 27.3409 10.1369 26.6609L 20.8599 10.4483C 21.2561 9.8494 22.1356 9.8508 22.5298 10.451L 33.1769 26.6609C 33.5769 27.341 33.0869 28.191 32.2969 28.191Z"></path></g></g></g><g id="g-root-3.shape-3_1_fr_v6pvzlhjii9y-fill" data-item-order="-351914" transform="translate(33, 411)"><g id="3.shape-3_1_fr_v6pvzlhjii9y-fill" stroke="none" fill="#a6da37"><g><path d="M 268 10.0994C 267.956 46.0337 243.972 64.3209 214 64.3209L 45.9999 64.3209C 26.1177 64.3209 10.000022 80.4233 10 100.3055L 539 100.3055C 539 80.4233 522.882 64.3209 503 64.3209L 335 64.3209C 305.027 64.3209 280.045 46.033 280 10.0974M 280 10L 268 10Z"></path></g></g></g><g id="g-root-1.shape-1_fr_qqwdv5hjij28-fill" data-item-order="-351904" transform="translate(33.499969482421875, 104.81640625)"><g id="1.shape-1_fr_qqwdv5hjij28-fill" stroke="none" fill="#4f91fc"><g><path d="M 214.000203 352.183563L 45.999903 352.183463C 26.117703 352.183463 10.000003 336.081263 10.000003 316.199163L 10.000003 316.183563L 250.000203 316.183563C 250.000203 336.065763 233.882203 352.183563 214.000203 352.183563ZM 254.600031 28.374594L 250.000031 28.374594L 250.000031 160.183594L 10.000031 160.183594C 10.000052 140.301594 26.117731 124.504594 45.999931 124.504594L 172.000031 124.504594C 213.070031 124.504594 238.000031 94.374494 238.000031 55.034494L 238.000031 28.374494L 233.320031 28.374494C 232.540031 28.374494 232.050031 27.524494 232.440031 26.844494L 243.163031 10.631894C 243.559031 10.032994 244.439031 10.034394 244.833031 10.634594L 255.480031 26.844494C 255.880031 27.524594 255.390031 28.374594 254.600031 28.374594ZM 250.000031 160.183579L 250.000031 316.183563L 10.000031 316.183563L 10.000059 160.183579L 250.000031 160.183579Z"></path></g></g></g><g id="g-root-2.shape-2_fr_hv9dm9hjijuy-fill" data-item-order="-351878" transform="translate(315.8775634765625, 104.81640625)"><g id="2.shape-2_fr_hv9dm9hjijuy-fill" stroke="none" fill="#1ac3fb"><g><path d="M 51.622433 352.183624L 219.622433 352.183524C 239.504433 352.183524 255.622433 336.081324 255.622433 316.199224L 255.622433 316.183624L 15.622433 316.183624C 15.622433 336.065824 31.740133 352.183624 51.622433 352.183624ZM 11.022416 28.374594L 15.622416 28.374594L 15.622416 160.183594L 255.622016 160.183594C 255.622016 140.301594 239.505016 124.504594 219.623016 124.504594L 93.622416 124.504594C 52.552416 124.504594 27.622416 94.374494 27.622416 55.034494L 27.622416 28.374494L 32.302416 28.374494C 33.082416 28.374494 33.572416 27.524494 33.182416 26.844494L 22.459416 10.631894C 22.063216 10.032994 21.183716 10.034394 20.789516 10.634594L 10.142416 26.844494C 9.742416 27.524594 10.232416 28.374594 11.022416 28.374594ZM 15.62233 160.183579L 15.62233 316.183563L 255.62233 316.183563L 255.62233 160.183579L 15.62233 160.183579Z"></path></g></g></g><g id="g-root-3.shape-3_2_fr_dg2ckxhjihhg-fill" data-item-order="-351852" transform="translate(33, 501)"><g id="3.shape-3_2_fr_dg2ckxhjihhg-fill" stroke="none" fill="#a6da37"><g><path d="M 539 10L 539 105.9844L 10 105.9844L 10.000061 10L 539 10ZM 503 142.007813L 45.9999 142.007713C 26.1177 142.007713 10.000032 125.905513 10 106.023413L 10 106.007813L 539 106.007813C 539 125.890013 522.882 142.007813 503 142.007813Z"></path></g></g></g><g id="g-root-tx_tcscnbng_4kfcc1hjiia6-fill" data-item-order="0" transform="translate(129, 39)"><g id="tx_tcscnbng_4kfcc1hjiia6-fill" stroke="none" fill="#f4f4f4"><g><text style="font: 15px Roboto, sans-serif; white-space: pre;" font-size="15px" font-family="Roboto, sans-serif"><tspan x="17.7" y="31" dominant-baseline="ideographic">Đạt được sự cân bằng trong quyền lực nhà nước</tspan></text></g></g></g><g id="g-root-pick_18jfcj5hjiivd-fill" data-item-order="0" transform="translate(129.5, 243)"></g><g id="g-root-conf_m97ghdhjlbm4-fill" data-item-order="0" transform="translate(417.5, 243)"></g><g id="g-root-tx_thchangu_1lu9dtdhjikg7-fill" data-item-order="0" transform="translate(63.5, 303)"><g id="tx_thchangu_1lu9dtdhjikg7-fill" stroke="none" fill="#2c2c2c"><g><text style="font: bold 20px Roboto, sans-serif; white-space: pre;" font-weight="bold" font-size="20px" font-family="Roboto, sans-serif"><tspan x="14.59" y="34" dominant-baseline="ideographic">Thể chế đa nguyên</tspan></text></g></g></g><g id="g-root-tx_thahipgi_18foi0hhjlcea-fill" data-item-order="0" transform="translate(351, 303)"><g id="tx_thahipgi_18foi0hhjlcea-fill" stroke="none" fill="#2c2c2c"><g><text style="font: bold 20px Roboto, sans-serif; white-space: pre;" font-weight="bold" font-size="20px" font-family="Roboto, sans-serif"><tspan x="13.46" y="34" dominant-baseline="ideographic">Thỏa hiệp giữa các </tspan><tspan x="36.73" y="58" dominant-baseline="ideographic">thế lực tư bản</tspan></text></g></g></g><g id="g-root-tx_thchangu_1hf2cs1hjii2o-fill" data-item-order="0" transform="translate(69.5, 339)"><g id="tx_thchangu_1hf2cs1hjii2o-fill" stroke="none" fill="#2c2c2c"><g><text style="font: 15px Roboto, sans-serif; white-space: pre;" font-size="15px" font-family="Roboto, sans-serif"><tspan x="14.78" y="31" dominant-baseline="ideographic">Thể chế đa nguyên phổ </tspan><tspan x="24.33" y="49" dominant-baseline="ideographic">biến trong phân chia </tspan><tspan x="57.84" y="67" dominant-baseline="ideographic">quyền lực.</tspan></text></g></g></g><g id="g-root-tx_cctbncqu_zk1hrlhjld6z-fill" data-item-order="0" transform="translate(357, 363)"><g id="tx_cctbncqu_zk1hrlhjld6z-fill" stroke="none" fill="#2c2c2c"><g><text style="font: 15px Roboto, sans-serif; white-space: pre;" font-size="15px" font-family="Roboto, sans-serif"><tspan x="19.53" y="31" dominant-baseline="ideographic">Các tư bản độc quyền </tspan><tspan x="13.73" y="49" dominant-baseline="ideographic">thỏa hiệp chia sẻ quyền </tspan><tspan x="79.77" y="67" dominant-baseline="ideographic">lực.</tspan></text></g></g></g><g id="g-root-1_djt73lhjmrdb-fill" data-item-order="0" transform="translate(273, 489)"></g><g id="g-root-tx_quynlcth_1463qr5hjmrd9-fill" data-item-order="0" transform="translate(123, 549)"><g id="tx_quynlcth_1463qr5hjmrd9-fill" stroke="none" fill="#2c2c2c"><g><text style="font: bold 20px Roboto, sans-serif; white-space: pre;" font-weight="bold" font-size="20px" font-family="Roboto, sans-serif"><tspan x="13.41" y="34" dominant-baseline="ideographic">Quyền lực thuộc về thế lực trung dung</tspan></text></g></g></g><g id="g-root-tx_quynlcnh_qv9pgxhjmpse-fill" data-item-order="0" transform="translate(129, 585)"><g id="tx_quynlcnh_qv9pgxhjmpse-fill" stroke="none" fill="#2c2c2c"><g><text style="font: 15px Roboto, sans-serif; white-space: pre;" font-size="15px" font-family="Roboto, sans-serif"><tspan x="16.89" y="31" dominant-baseline="ideographic">Quyền lực nhà nước thuộc về thế lực trung dung.</tspan></text></g></g></g><g id="g-root-3.shape-3_fr_zmje41hjihho-stroke" data-item-order="-351924" transform="translate(285.302734375, 105)"><g id="3.shape-3_fr_zmje41hjihho-stroke" fill="none" stroke-linecap="round" stroke-linejoin="round" stroke-miterlimit="4" stroke="#2c2c2c" stroke-width="2"><g><path d="M 15.697266 159.999985L 15.697266 315.999969M 27.697266 315.999969L 27.697266 159.999985M 15.6969 160L 15.6969 28.1909L 11.0169 28.1909C 10.2369 28.1909 9.7469 27.3409 10.1369 26.6609L 20.8599 10.4483C 21.2561 9.8494 22.1356 9.8508 22.5298 10.451L 33.1769 26.6609C 33.5769 27.341 33.0869 28.191 32.2969 28.191L 27.6969 28.191L 27.6969 160"></path></g></g></g><g id="g-root-3.shape-3_1_fr_v6pvzlhjii9y-stroke" data-item-order="-351914" transform="translate(33, 411)"><g id="3.shape-3_1_fr_v6pvzlhjii9y-stroke" fill="none" stroke-linecap="round" stroke-linejoin="round" stroke-miterlimit="4" stroke="#2c2c2c" stroke-width="2"><g><path d="M 268 10C 268 46 244 64.3209 214 64.3209L 45.9999 64.3209C 26.1177 64.3209 10 80.4233 10 100.3055M 280 10C 280 46 304 64.3209 334 64.3209L 503.0002 64.3209C 522.8823 64.3209 539 80.4233 539 100.3055"></path></g></g></g><g id="g-root-1.shape-1_fr_qqwdv5hjij28-stroke" data-item-order="-351904" transform="translate(33.499969482421875, 104.81640625)"><g id="1.shape-1_fr_qqwdv5hjij28-stroke" fill="none" stroke-linecap="round" stroke-linejoin="round" stroke-miterlimit="4" stroke="#2c2c2c" stroke-width="2"><g><path d="M 10.000031 160.1836C 10.000031 140.3014 26.117731 124.3209 45.999931 124.3209L 172.000031 124.3209C 213.070031 124.3209 238.000031 94.1909 238.000031 54.8509L 238.000031 28.1909L 233.320031 28.1909C 232.540031 28.1909 232.050031 27.3409 232.440031 26.6609L 243.163131 10.4483C 243.559231 9.8494 244.438731 9.8508 244.833031 10.451L 255.480031 26.6609C 255.880031 27.341 255.390031 28.191 254.600031 28.191L 250.000031 28.191L 250.000031 160.1836M 250.000131 316.183563C 250.000131 336.065763 233.882331 352.191363 214.000131 352.191363L 45.999931 352.191263C 26.117731 352.191263 10.000031 336.081263 10.000031 316.199163L 10.000031 316.183563M 250.000138 316.183563L 250.000138 160.183579M 10.000031 160.183579L 10.000031 316.183563"></path></g></g></g><g id="g-root-2.shape-2_fr_hv9dm9hjijuy-stroke" data-item-order="-351878" transform="translate(315.8775634765625, 104.81640625)"><g id="2.shape-2_fr_hv9dm9hjijuy-stroke" fill="none" stroke-linecap="round" stroke-linejoin="round" stroke-miterlimit="4" stroke="#2c2c2c" stroke-width="2"><g><path d="M 255.622416 160.1836C 255.622416 140.3014 239.504716 124.3209 219.622616 124.3209L 93.622416 124.3209C 52.552416 124.3209 27.622416 94.1909 27.622416 54.8509L 27.622416 28.1909L 32.302416 28.1909C 33.082416 28.1909 33.572416 27.3409 33.182416 26.6609L 22.459416 10.4483C 22.063216 9.8494 21.183716 9.8508 20.789516 10.451L 10.142416 26.6609C 9.742416 27.341 10.232416 28.191 11.022416 28.191L 15.622416 28.191L 15.622416 160.1836M 15.622437 316.183563C 15.622437 336.065763 31.740137 352.183563 51.622437 352.183563L 219.622637 352.183463C 239.504737 352.183463 255.622437 336.081263 255.622437 316.199163L 255.622437 316.183563M 15.62233 316.183563L 15.62233 160.183579M 255.62233 160.183579L 255.62233 316.183563"></path></g></g></g><g id="g-root-3.shape-3_2_fr_dg2ckxhjihhg-stroke" data-item-order="-351852" transform="translate(33, 501)"><g id="3.shape-3_2_fr_dg2ckxhjihhg-stroke" fill="none" stroke-linecap="round" stroke-linejoin="round" stroke-miterlimit="4" stroke="#2c2c2c" stroke-width="2"><g><path d="M 539 105.9844L 539 10M 10.0001 10L 10 106M 539.0001 106.007813C 539.0001 125.890013 522.8823 142.007813 503.0001 142.007813L 45.9999 142.007713C 26.1177 142.007713 10 125.905513 10 106.023413L 10 106.007813"></path></g></g></g><g id="g-root-tx_tcscnbng_4kfcc1hjiia6-stroke" data-item-order="0" transform="translate(129, 39)"></g><g id="g-root-pick_18jfcj5hjiivd-stroke" data-item-order="0" transform="translate(129.5, 243)"><g id="pick_18jfcj5hjiivd-stroke" fill="none" stroke-linecap="round" stroke-linejoin="round" stroke-miterlimit="4" stroke="#2c2c2c" stroke-width="2"><g><path d="M 27.271999 41.580002C 27.271402 45.330437 30.311563 48.371078 34.062 48.371078C 37.812435 48.371078 40.852596 45.330437 40.851997 41.580002C 40.852596 37.829563 37.812435 34.788918 34.062 34.788918C 30.311563 34.788918 27.271402 37.829563 27.271999 41.580002M 23.652 57C 25.222328 52.683071 29.293978 49.783154 33.88707 49.710361C 38.48016 49.637566 42.641663 52.407001 44.348 56.672001M 15.796 43.993999C 15.796 46.410797 17.755203 48.369999 20.172001 48.369999C 22.588799 48.369999 24.548 46.410797 24.548 43.993999C 24.548 41.577202 22.588799 39.618 20.172001 39.618C 17.755203 39.618 15.796 41.577202 15.796 43.993999M 25.445999 53.838001C 23.941299 52.658298 22.084021 52.018078 20.172001 52.02C 16.930964 52.028675 13.967644 53.851307 12.498 56.739998M 43.452 43.993999C 43.452 46.410797 45.411201 48.369999 47.827999 48.369999C 50.244797 48.369999 52.203999 46.410797 52.203999 43.993999C 52.203999 41.577202 50.244797 39.618 47.827999 39.618C 45.411201 39.618 43.452 41.577202 43.452 43.993999M 55.501999 56.740002C 54.032352 53.851307 51.069035 52.028675 47.827999 52.019997C 45.948448 52.015881 44.120258 52.633244 42.628002 53.776001M 47 11L 39.711998 11.2C 38.377304 11.2377 37.086403 11.684522 36.014 12.48L 29.040001 17.653999C 27.575289 18.743141 26.518806 20.29265 26.040001 22.054001L 24.84 26.483999C 24.363297 27.842503 24.357662 29.321907 24.824001 30.684C 25.552889 32.108547 27.222017 32.775688 28.732 32.246002C 29.620253 31.963127 30.30036 31.242968 30.532001 30.34L 32.028 24.084C 32.273464 23.503872 32.686401 23.010155 33.214001 22.666L 38.223999 19.4C 39.157883 18.789135 40.343842 18.713209 41.348 19.200001C 42.147999 19.6 43.560001 20.372 43.872002 21.172001C 44.48856 22.440083 44.269863 23.955914 43.32 24.997999L 39.57 28.656C 38.420204 29.705395 38.228401 31.445349 39.122002 32.720001C 40.271999 34.09 41.888 33.284 43.380001 32.251999L 50.119999 27.587999C 50.709465 27.17837 51.144085 26.582441 51.354 25.896L 52.754002 21.318001"></path></g></g></g><g id="g-root-conf_m97ghdhjlbm4-stroke" data-item-order="0" transform="translate(417.5, 243)"><g id="conf_m97ghdhjlbm4-stroke" fill="none" stroke-linecap="round" stroke-linejoin="round" stroke-miterlimit="4" stroke="#2c2c2c" stroke-width="2"><g><path d="M 10 10M 56.414001 44.268002L 54.374001 42.228001C 54.374001 42.228001 54.200001 39.548 53.448002 38.807999L 46.598 32.048C 45.668819 31.130987 44.175182 31.130987 43.245998 32.048C 42.803593 32.484673 42.554562 33.080383 42.554562 33.702C 42.554562 34.323616 42.803593 34.919327 43.245998 35.355999L 41.57 33.702C 40.640377 32.786064 39.147625 32.786064 38.218002 33.702003C 37.775589 34.138672 37.526562 34.734383 37.526562 35.355999C 37.526562 35.977615 37.775589 36.573326 38.217999 37.009998L 37.382 36.186001C 36.45282 35.268986 34.959183 35.268986 34.029999 36.185997C 33.587593 36.622673 33.338562 37.218384 33.338562 37.839996C 33.338562 38.461617 33.587593 39.057327 34.029999 39.493999L 34.870003 40.321999C 33.940582 39.403671 32.445419 39.403671 31.515999 40.321999C 31.073591 40.758675 30.824562 41.354382 30.824562 41.975998C 30.824562 42.597618 31.073591 43.193325 31.515999 43.629997L 34.029999 46.110001C 33.142807 46.982983 32.642815 48.175327 32.641998 49.419998C 32.641998 50.66 33.141998 51.849998 34.029999 52.728001C 36.360001 55.028 40.678001 56.633999 44.284 56.397999M 34.028 46.108002L 36.542 48.588001M 36.540001 41.972L 34.863998 40.318001M 39.893997 38.664001L 38.218002 37.010002M 11.586 23.732L 13.625999 25.771999C 13.625999 25.771999 13.8 28.452 14.552 29.191999L 21.402 35.952C 22.331181 36.869011 23.824818 36.869011 24.754 35.952C 25.196407 35.515327 25.445438 34.919617 25.445438 34.297997C 25.445438 33.676384 25.196407 33.080673 24.754 32.643997L 26.43 34.298C 27.359625 35.213936 28.852377 35.213936 29.782001 34.298C 30.224407 33.861328 30.473436 33.265617 30.473436 32.643997C 30.473436 32.022381 30.224407 31.426674 29.782 30.99L 30.618 31.813999C 31.547182 32.73101 33.040817 32.73101 33.970001 31.813999C 34.412407 31.377325 34.661438 30.781616 34.661438 30.16C 34.661438 29.538382 34.412407 28.942673 33.970001 28.505999L 33.129997 27.677999C 34.059418 28.596329 35.554581 28.596329 36.484001 27.677999C 36.926407 27.241325 37.175438 26.645617 37.175438 26.024C 37.175438 25.402382 36.926407 24.806673 36.484001 24.369999L 33.970001 21.889999C 34.857193 21.017015 35.357182 19.824673 35.358002 18.58C 35.358002 17.34 34.858002 16.147999 33.970001 15.271999C 31.639999 12.972 27.32 11.366 23.716 11.6M 33.973999 21.892L 31.458 19.411999M 31.459999 26.028L 33.136002 27.681999M 28.106001 29.336L 29.782 30.99M 38.958 14L 40.285999 12.474C 40.491409 12.238348 40.788849 12.103259 41.101456 12.103642C 41.414063 12.104027 41.711174 12.239844 41.916 12.476L 44.571999 15.532C 44.83432 15.834187 45.242222 15.966563 45.632 15.875999L 49.576 14.964001C 49.881096 14.893262 50.201874 14.958448 50.455158 15.142656C 50.708447 15.326865 50.869297 15.611953 50.896 15.924L 51.248001 19.958C 51.28196 20.356167 51.533787 20.702721 51.902 20.858L 55.630001 22.438C 55.920074 22.559799 56.14262 22.802032 56.239452 23.101368C 56.336285 23.400703 56.297779 23.727383 56.134003 23.996L 54.048 27.468C 53.843315 27.809692 53.843315 28.236309 54.048 28.578001L 56.133999 32.049999C 56.298447 32.31815 56.337318 32.644833 56.240391 32.944084C 56.143459 33.24334 55.920433 33.485191 55.629997 33.605999L 54.698002 34.001999M 29.096001 54L 27.768 55.529999C 27.562593 55.765652 27.265154 55.900742 26.952545 55.90036C 26.639936 55.899975 26.342829 55.764156 26.138 55.528L 23.482 52.470001C 23.219425 52.168201 22.811758 52.0359 22.422001 52.125999L 18.478001 53.040001C 18.172905 53.110741 17.852127 53.045551 17.598841 52.861343C 17.345554 52.677135 17.184706 52.392048 17.158001 52.080002L 16.806 48.046001C 16.771603 47.647991 16.519922 47.301643 16.152 47.145996L 12.422 45.563999C 12.13286 45.441715 11.911239 45.199673 11.814849 44.900902C 11.718459 44.602131 11.756841 44.276207 11.92 44.007999L 14.006001 40.535999C 14.211486 40.193813 14.211486 39.76619 14.006001 39.424L 11.92 35.954002C 11.756841 35.685795 11.718459 35.359871 11.814849 35.061096C 11.911239 34.762329 12.13286 34.520287 12.422 34.398003L 13.356 34"></path></g></g></g><g id="g-root-tx_thchangu_1lu9dtdhjikg7-stroke" data-item-order="0" transform="translate(63.5, 303)"></g><g id="g-root-tx_thahipgi_18foi0hhjlcea-stroke" data-item-order="0" transform="translate(351, 303)"></g><g id="g-root-tx_thchangu_1hf2cs1hjii2o-stroke" data-item-order="0" transform="translate(69.5, 339)"></g><g id="g-root-tx_cctbncqu_zk1hrlhjld6z-stroke" data-item-order="0" transform="translate(357, 363)"></g><g id="g-root-1_djt73lhjmrdb-stroke" data-item-order="0" transform="translate(273, 489)"><g id="1_djt73lhjmrdb-stroke" fill="none" stroke-linecap="round" stroke-linejoin="round" stroke-miterlimit="4" stroke="#2c2c2c" stroke-width="2"><g><path d="M 11.775544 47.096199C 11.775544 50.164799 14.2631 52.652401 17.331659 52.652401C 20.400219 52.652401 22.887779 50.164799 22.887779 47.096199C 22.887779 50.164799 25.37532 52.652401 28.44388 52.652401C 31.5124 52.652401 34 50.164799 34 47.096199C 34 50.164799 36.487602 52.652401 39.556198 52.652401C 42.624599 52.652401 45.112202 50.164799 45.112202 47.096199C 45.112202 50.164799 47.5998 52.652401 50.6684 52.652401C 53.736801 52.652401 56.2244 50.164799 56.2244 47.096199M 11.775544 35.446198C 11.775544 38.514801 14.2631 41.002399 17.331659 41.002399C 20.400219 41.002399 22.887779 38.514801 22.887779 35.446198C 22.887779 38.514801 25.37532 41.002399 28.44388 41.002399C 31.5124 41.002399 34 38.514801 34 35.446198C 34 38.514801 36.487602 41.002399 39.556198 41.002399C 42.624599 41.002399 45.112202 38.514801 45.112202 35.446198C 45.112202 38.514801 47.5998 41.002399 50.6684 41.002399C 53.736801 41.002399 56.2244 38.514801 56.2244 35.446198M 10 10M 49.321602 15.34766L 56.049801 22.075699L 49.321602 28.803761M 10 10M 56.074001 22.07568L 11.926086 22.07568"></path></g></g></g><g id="g-root-tx_quynlcth_1463qr5hjmrd9-stroke" data-item-order="0" transform="translate(123, 549)"></g><g id="g-root-tx_quynlcnh_qv9pgxhjmpse-stroke" data-item-order="0" transform="translate(129, 585)"></g></g></g></svg>