<?xml version="1.0" encoding="utf-8" standalone="yes"?>
<!DOCTYPE svg PUBLIC "-//W3C//DTD SVG 1.1//EN" "http://www.w3.org/Graphics/SVG/1.1/DTD/svg11.dtd">
<svg width="602" height="458" viewBox="0 0 602 458" style="fill:none;stroke:none;fill-rule:evenodd;clip-rule:evenodd;stroke-linecap:round;stroke-linejoin:round;stroke-miterlimit:1.5;" version="1.1" xmlns="http://www.w3.org/2000/svg" xmlns:xlink="http://www.w3.org/1999/xlink"><style class="text-font-style fontImports" data-font-family="Roboto">@import url('https://fonts.googleapis.com/css2?family=Roboto:wght@400;700&amp;display=block');</style><g id="items" style="isolation: isolate"><g id="blend" style="mix-blend-mode: normal"><g id="g-root-4.cu_sy_1464spdh9lr0j-fill" data-item-order="-105977" transform="translate(122.95700073242188, 208)"></g><g id="g-root-3.Exclude_sy_vahsghh9lrt8-fill" data-item-order="-105974" transform="translate(244.055908203125, 245)"><g id="3.Exclude_sy_vahsghh9lrt8-fill" stroke="none" fill="#969696"><g><path d="M 56.944107 10C 49.471107 10 43.195107 15.122 41.436107 22.047L 10.134107 124.12C 9.542107 126.049 10.984107 128 13.002107 128L 100.886107 128C 102.903107 128 104.346107 126.049 103.754107 124.12L 72.454107 22.054C 70.696107 15.126 64.419107 10 56.944107 10ZM 56.944107 33C 60.810107 33 63.944107 29.866 63.944107 26C 63.944107 22.134 60.810107 19 56.944107 19C 53.078107 19 49.944107 22.134 49.944107 26C 49.944107 29.866 53.078107 33 56.944107 33Z"></path></g></g></g><g id="g-root-2.right-bucket_sy_qvarf5h9lpfp-fill" data-item-order="-105970" transform="translate(339, 219)"><g id="2.right-bucket_sy_qvarf5h9lpfp-fill" stroke="none" fill="#e55753"><g><path d="M 11.081 15.729C 10.338 14.904 10 13.826 10 12.716L 10 12.716C 10 11.216 11.216 10 12.716 10L 235.284 10C 236.784 10 238 11.216 238 12.716L 238 12.716C 238 13.826 237.662 14.904 236.919 15.729C 231.551 21.692 204.717 46 124 46C 43.283 46 16.449 21.692 11.081 15.729Z"></path></g></g></g><g id="g-root-1.left-bucket_sy_qvarf5h9lpfq-fill" data-item-order="-105966" transform="translate(15, 171)"><g id="1.left-bucket_sy_qvarf5h9lpfq-fill" stroke="none" fill="#3cc583"><g><path d="M 11.0812 15.729C 10.3384 14.904 10 13.826 10 12.716L 10 12.716C 10 11.216 11.2158 10 12.7157 10L 235.284 10C 236.784 10 238 11.216 238 12.716L 238 12.716C 238 13.826 237.662 14.904 236.919 15.729C 231.551 21.692 204.717 46 124 46C 43.2826 46 16.4488 21.692 11.0812 15.729Z"></path></g></g></g><g id="g-root-pick_4mbtjlh9ol4z-fill" data-item-order="-2304" transform="translate(27, 39)"><g id="pick_4mbtjlh9ol4z-fill" stroke="none" fill="#969696"><g><path d="M 10 10M 50.52 10L 42.66 10.24C 41.215996 10.275043 39.818428 10.757204 38.659996 11.62L 31.16 17.200001C 29.600336 18.402351 28.487926 20.092087 27.999998 22L 26.620001 26.719999C 26.109449 28.190273 26.109449 29.789728 26.620001 31.26C 27.416922 32.787346 29.211407 33.501736 30.84 32.940002C 31.806606 32.662247 32.562244 31.906607 32.84 30.940001L 34.459999 24.200001C 34.723457 23.570454 35.169239 23.034126 35.739998 22.66L 41.139999 19.139999C 42.140217 18.475727 43.415524 18.384632 44.5 18.9C 45.380001 19.34 46.900002 20.18 47.220001 21.040001C 47.896065 22.401327 47.665627 24.038231 46.639999 25.16L 42.639999 29.16C 41.398418 30.232542 41.126472 32.051178 42 33.440002C 43.240002 34.919998 44.98 34.040001 46.599998 32.940002L 53.880001 28C 54.549107 27.512754 55.023876 26.804142 55.220001 26L 56.720001 21.060001M 45.66 44.959999C 45.66 47.047638 47.352364 48.740002 49.439999 48.740002C 51.527637 48.740002 53.220001 47.047638 53.220001 44.959999C 53.220001 42.872364 51.527637 41.18 49.439999 41.18C 47.352364 41.18 45.66 42.872364 45.66 44.959999M 15 44.959999C 15 47.047638 16.692364 48.740002 18.779999 48.740002C 20.867638 48.740002 22.560001 47.047638 22.560001 44.959999C 22.560001 42.872364 20.867638 41.18 18.779999 41.18C 16.692364 41.18 15 42.872364 15 44.959999M 28.32 42.560001C 28.32 45.708023 30.871977 48.259998 34.019997 48.259998C 37.168022 48.259998 39.720001 45.708023 39.720001 42.559998C 39.720001 39.411976 37.168022 36.860001 34.019997 36.860001C 30.871977 36.860001 28.32 39.411976 28.32 42.559998M 45.02 58L 57.82 58L 56.779999 56.16C 55.234116 54.147038 52.899181 52.893696 50.367226 52.717762C 47.835266 52.541824 45.34943 53.460186 43.540001 55.239998C 44.135006 56.101753 44.631447 57.027546 45.02 58.000004ZM 24.639999 55.220001C 23.531479 54.124214 22.150654 53.344048 20.639999 52.959999C 17.221857 52.086121 13.6106 53.318661 11.440001 56.100002L 10.18 58L 23.18 58C 23.568466 57.024994 24.057793 56.093262 24.640001 55.220001ZM 34.120003 52C 30.29167 52.156631 26.88941 54.486946 25.360001 58L 42.84 58C 41.316856 54.499519 37.933643 52.171619 34.120003 52Z"></path></g></g></g><g id="g-root-exch_vbqtshh96ayr-fill" data-item-order="-2304" transform="translate(351, 87)"><g id="exch_vbqtshh96ayr-fill" stroke="none" fill="#969696"><g><path d="M 12.72 22.439999C 12.719706 24.803988 14.636013 26.720533 17 26.720533C 19.363987 26.720533 21.280294 24.803988 21.280001 22.440001C 21.280294 20.076014 19.363987 18.159468 17 18.159468C 14.636013 18.159468 12.719706 20.076014 12.72 22.440001M 11 40C 11 40.276142 11.223858 40.5 11.5 40.5L 13.12 40.5C 13.381247 40.499161 13.599102 40.699589 13.62 40.959999L 14.38 48.619999C 14.400898 48.880409 14.618753 49.080837 14.88 49.080002L 19.119999 49.080002C 19.381247 49.080837 19.599102 48.880409 19.619999 48.619999L 20.380001 40.959999C 20.400898 40.699589 20.618753 40.499161 20.880001 40.5L 22.5 40.5C 22.776142 40.5 23 40.276142 23 40L 23 35.299999C 23 31.986292 20.313709 29.300001 17 29.300001C 13.686292 29.300001 11 31.986292 11 35.300003ZM 46.720001 22.439999C 46.719707 24.803988 48.636013 26.720533 51 26.720533C 53.363987 26.720533 55.280296 24.803988 55.280003 22.440001C 55.280296 20.076014 53.363987 18.159468 51 18.159468C 48.636013 18.159468 46.719707 20.076014 46.720001 22.440001M 57 40L 57 35.299999C 57 31.986292 54.313709 29.300001 51 29.300001C 47.686295 29.300001 45 31.986292 45 35.300003L 45 40C 45 40.276142 45.223858 40.5 45.5 40.5L 47.119999 40.5C 47.381248 40.499161 47.599102 40.699589 47.619999 40.959999L 48.380001 48.619999C 48.400898 48.880409 48.618752 49.080837 48.880001 49.080002L 53.119999 49.080002C 53.381248 49.080837 53.599102 48.880409 53.619999 48.619999L 54.380001 40.959999C 54.400898 40.699589 54.618752 40.499161 54.880001 40.5L 56.5 40.5C 56.776142 40.5 57 40.276142 57 40ZM 34.900002 31.76C 32.379997 31.16 32.139999 30.959999 32.139999 29.52C 32.130165 28.473175 32.865829 27.567162 33.892372 27.361853C 34.918915 27.156546 35.946457 27.709917 36.34 28.68C 36.881123 29.939224 38.335217 30.527998 39.599998 30C 40.877426 29.465937 41.484718 28.001293 40.959999 26.719999C 40.229214 24.983902 38.85228 23.599796 37.120003 22.860001C 36.933495 22.784668 36.81374 22.601044 36.82 22.4L 36.82 21.02C 36.82 19.639288 35.700714 18.52 34.32 18.52C 32.939289 18.52 31.82 19.639288 31.82 21.02L 31.82 22.439999C 31.823469 22.645178 31.70595 22.83321 31.519999 22.919998C 28.865198 24.038527 27.139303 26.639189 27.139999 29.519999C 27.139999 35.040001 31.440001 36.080002 33.739998 36.620003C 36.34 37.260002 36.5 37.48 36.5 38.879997C 36.5 40.083981 35.523979 41.059998 34.32 41.059998C 33.447998 41.04496 32.665581 40.520744 32.32 39.720001C 31.767715 38.444221 30.285778 37.857716 29.01 38.41C 27.734222 38.962288 27.147715 40.444221 27.700001 41.720001C 28.423584 43.460911 29.802868 44.847378 31.539999 45.579998C 31.722794 45.659775 31.840694 45.840557 31.84 46.040001L 31.84 47.439999C 31.84 48.820713 32.95929 49.940002 34.34 49.940002C 35.720711 49.940002 36.84 48.820713 36.84 47.440002L 36.84 46C 36.839306 45.800556 36.957207 45.619778 37.139999 45.540001C 39.7948 44.421471 41.520691 41.820808 41.519997 38.939999C 41.5 33.360001 37.200001 32.32 34.900002 31.76Z"></path></g></g></g><g id="g-root-rise_hznr69h9lq8f-fill" data-item-order="-2304" transform="translate(27, 111)"><g id="rise_hznr69h9lq8f-fill" stroke="none" fill="#969696"><g><path d="M 11.12 42.299999L 24.48 42.299999C 25.098558 42.299999 25.6 41.798561 25.6 41.18L 25.6 11.12C 25.592197 10.745009 25.406588 10.396062 25.099998 10.18C 24.789661 9.932617 24.373001 9.864436 24 10L 10.68 15.66C 10.270864 15.834764 10.003961 16.235119 10 16.68L 10 41.18C 10 41.798561 10.501441 42.299999 11.12 42.299999ZM 13.34 32.299999C 13.34 31.68144 13.841441 31.18 14.46 31.18L 21.139999 31.18C 21.75856 31.18 22.26 31.68144 22.26 32.299999C 22.26005 32.595238 22.141415 32.878101 21.930779 33.084976C 21.720142 33.291851 21.435188 33.405369 21.139999 33.400002L 14.46 33.400002C 14.161311 33.405483 13.873239 33.289246 13.661998 33.078003C 13.450757 32.86676 13.334518 32.57869 13.34 32.279999ZM 13.34 26.719999C 13.350908 26.109266 13.849168 25.619904 14.46 25.619999L 21.139999 25.619999C 21.572138 25.561863 21.998735 25.759809 22.233362 26.127333C 22.467987 26.494858 22.467987 26.965143 22.233362 27.332666C 21.998735 27.70019 21.572138 27.898136 21.139999 27.84L 14.46 27.84C 14.15946 27.840048 13.87151 27.719307 13.660885 27.504921C 13.450259 27.290533 13.334633 27.000492 13.34 26.700001ZM 13.34 21.16C 13.329139 20.856091 13.442327 20.560827 13.653556 20.342052C 13.864785 20.12328 14.155895 19.999805 14.46 20L 21.139999 20C 21.758499 20.000086 22.259846 20.501501 22.259846 21.119999C 22.259846 21.738499 21.758499 22.239914 21.139999 22.24L 14.46 22.24C 13.849168 22.240097 13.350908 21.750734 13.34 21.139999ZM 58 38C 58 37.447716 57.552284 37 57 37L 48 37C 47.596298 37.002014 47.233402 37.246574 47.080002 37.620003C 46.912445 37.989738 47.001163 38.425266 47.299999 38.699997L 50 41.440002C 50.100353 41.533047 50.15818 41.663162 50.16 41.799999C 50.157497 41.930943 50.0993 42.054611 50 42.139999L 45 47.18L 39.82 42C 38.25985 40.449104 35.74015 40.449104 34.18 42L 21.58 54.580002C 21.201374 54.955532 20.988403 55.466724 20.988403 56C 20.988403 56.533276 21.201374 57.044468 21.58 57.419998C 21.955532 57.798626 22.466724 58.011597 23 58.011597C 23.533276 58.011597 24.044468 57.798626 24.42 57.419998L 37 44.82L 42.18 50C 43.74015 51.550896 46.25985 51.550896 47.82 50L 52.860001 44.98C 52.950729 44.88332 53.077412 44.82848 53.209999 44.82848C 53.342583 44.82848 53.469265 44.88332 53.559998 44.98L 56.299999 47.700001C 56.48056 47.894276 56.734791 48.003231 57 48C 57.12508 48.028336 57.254917 48.028336 57.379997 48C 57.781651 47.83638 58.032047 47.43251 58 47ZM 28.940001 42.299999L 29.4 42.299999C 29.542843 42.299026 29.679482 42.241497 29.780001 42.139999C 30.82 40.959999 36.66 34.599998 41.940002 39.879997L 42.560001 40.48C 42.699467 40.624996 42.912251 40.672279 43.099998 40.599998C 43.287224 40.522163 43.412136 40.342606 43.419998 40.139999L 43.419998 24.48C 43.414608 24.057529 43.176006 23.672688 42.799999 23.48L 36.120003 20.139999C 35.805931 19.979729 35.434067 19.979729 35.120003 20.139999L 28.440001 23.48C 28.063992 23.672688 27.82539 24.057529 27.82 24.48L 27.82 41.18C 27.82 41.798561 28.321442 42.299999 28.940001 42.299999ZM 32.279999 25.6L 38.959999 25.6C 39.392136 25.541862 39.818733 25.739809 40.05336 26.107334C 40.287987 26.474857 40.287987 26.945143 40.05336 27.312666C 39.818733 27.680191 39.392136 27.878138 38.959999 27.82L 32.279999 27.82C 31.847862 27.878138 31.421265 27.680191 31.186638 27.312666C 30.952011 26.945143 30.952011 26.474857 31.186638 26.107334C 31.421265 25.739809 31.847862 25.541862 32.279999 25.6ZM 32.279999 31.16L 38.959999 31.16C 39.57856 31.16 40.080002 31.661442 40.080002 32.279999C 40.080048 32.575237 39.961418 32.858101 39.750778 33.064976C 39.540146 33.271851 39.255188 33.385368 38.959999 33.380001L 32.279999 33.379997C 31.984814 33.385368 31.699858 33.271851 31.489222 33.064976C 31.278585 32.858101 31.159952 32.575237 31.160002 32.279999C 31.16 31.661442 31.661442 31.16 32.279999 31.16Z"></path></g></g></g><g id="g-root-fall_de7z9th9rdvr-fill" data-item-order="-2304" transform="translate(351, 159)"><g id="fall_de7z9th9rdvr-fill" stroke="none" fill="#969696"><g><path d="M 56.900002 42.299999C 57.518559 42.299999 58.02 41.798561 58.02 41.18L 58.02 16.68C 58.018074 16.228573 57.740532 15.824153 57.320004 15.66L 44 10C 43.65448 9.860229 43.262066 9.901501 42.953182 10.110097C 42.644299 10.318692 42.459423 10.667279 42.459999 11.04L 42.459999 41.040001C 42.459999 41.658558 42.961441 42.16 43.579998 42.16ZM 54.66 33.379997L 46.880001 33.379997C 46.447861 33.438137 46.021263 33.240189 45.786636 32.872665C 45.55201 32.505142 45.55201 32.034859 45.786636 31.667334C 46.021263 31.299809 46.447861 31.101864 46.880001 31.16L 53.560001 31.16C 53.85524 31.159952 54.138103 31.278585 54.344978 31.489222C 54.551853 31.699858 54.665371 31.984814 54.660004 32.279999ZM 54.66 26.700001C 54.665371 26.99519 54.551853 27.280144 54.344978 27.49078C 54.138103 27.701416 53.85524 27.820049 53.560001 27.820002L 46.880001 27.82C 46.26144 27.82 45.759998 27.31856 45.759998 26.700001C 45.759953 26.404764 45.878586 26.121901 46.089222 25.915026C 46.299858 25.708151 46.584812 25.594633 46.880001 25.6L 53.560001 25.6C 53.853386 25.594515 54.136375 25.708645 54.343864 25.916138C 54.551357 26.123627 54.665485 26.406614 54.66 26.700001ZM 53.560001 22.26L 46.880001 22.26C 46.261501 22.259914 45.760155 21.758499 45.760155 21.139999C 45.760155 20.521502 46.261501 20.020084 46.880001 20.02L 53.560001 20.02C 54.178497 20.020084 54.679844 20.521502 54.679844 21.139999C 54.679844 21.758499 54.178497 22.259914 53.560001 22.26ZM 46.98 48C 46.976284 47.602638 46.742134 47.243607 46.380001 47.079998C 46.248142 47.05191 46.111851 47.05191 45.98 47.079998C 45.715763 47.081539 45.463348 47.189716 45.279999 47.380001L 42.560001 50C 42.465759 50.097775 42.3358 50.153011 42.200001 50.153011C 42.064201 50.153011 41.934242 50.097775 41.84 50L 36.82 45C 36.069725 44.24889 35.051636 43.826855 33.989998 43.826855C 32.928364 43.826855 31.910273 44.24889 31.16 45L 26 50.18L 13.4 37.580002C 12.619925 36.80455 11.360075 36.80455 10.58 37.580002C 10.201375 37.955536 9.988403 38.466724 9.988403 39C 9.988403 39.533276 10.201375 40.044464 10.58 40.419998L 23.16 53C 23.910273 53.75111 24.928364 54.173145 25.99 54.173145C 27.051638 54.173145 28.069727 53.75111 28.82 53L 34 47.82L 39.040001 52.860001C 39.126514 52.952499 39.176292 53.073395 39.18 53.199997C 39.175835 53.33247 39.126427 53.459518 39.040001 53.559998L 36.299999 56.299999C 36.021736 56.585979 35.935776 57.007957 36.080002 57.380001C 36.233406 57.753426 36.596298 57.997986 37 58L 46 58C 46.552284 58 47 57.552284 47 57ZM 24.6 41.040001C 24.6 41.658558 25.10144 42.16 25.720001 42.16L 29.059999 42.16C 29.670734 42.149094 30.160097 41.650833 30.16 41.040001L 30.16 38.799999C 30.170908 38.189266 30.669168 37.699902 31.280001 37.700001L 33.5 37.700001C 34.110832 37.699902 34.609093 38.189266 34.619999 38.799999L 34.620003 40.440002C 34.616814 40.687698 34.795471 40.900383 35.040001 40.940002C 36.0938 41.066349 37.105553 41.428665 38 42C 38.091713 42.02462 38.188293 42.02462 38.279999 42L 39.16 42C 39.778557 42 40.279999 41.498558 40.279999 40.879997L 40.279999 24.34C 40.288986 23.913467 40.04604 23.521618 39.66 23.34L 32.900002 20C 32.613728 19.871658 32.286274 19.871658 32 20L 25.220001 23.34C 24.833961 23.521618 24.591015 23.913467 24.6 24.34ZM 29.059999 25.439999L 35.739998 25.439999C 36.358498 25.440086 36.859848 25.941502 36.859848 26.559999C 36.859848 27.178499 36.358498 27.679914 35.739998 27.68L 29.059999 27.68C 28.441502 27.679914 27.940155 27.178499 27.940155 26.559999C 27.940155 25.941502 28.441502 25.440086 29.059999 25.439999ZM 29.059999 31.02L 35.739998 31.02C 36.295837 31.094778 36.71067 31.569155 36.71067 32.129997C 36.71067 32.690845 36.295837 33.165222 35.739998 33.239998L 29.059999 33.239998C 28.627861 33.298138 28.201263 33.100189 27.966639 32.732666C 27.732012 32.365143 27.732012 31.894857 27.966639 31.527334C 28.201263 31.159809 28.627861 30.961863 29.059999 31.02Z"></path></g></g></g><g id="g-root-tx_tinbxhi_i0abf5h97pxq-fill" data-item-order="0" transform="translate(87, 51)"><g id="tx_tinbxhi_i0abf5h97pxq-fill" stroke="none" fill="#484848"><g><text style="font: 20px Roboto, sans-serif; white-space: pre;" font-size="20px" font-family="Roboto, sans-serif"><tspan x="12" y="34" dominant-baseline="ideographic">Tiến bộ xã hội</tspan></text></g></g></g><g id="g-root-tx_phnhagiu_v306kxh9953i-fill" data-item-order="0" transform="translate(411, 87)"><g id="tx_phnhagiu_v306kxh9953i-fill" stroke="none" fill="#484848"><g><text style="font: 20px Roboto, sans-serif; white-space: pre;" font-size="20px" font-family="Roboto, sans-serif"><tspan x="12" y="34" dominant-baseline="ideographic">Phân hóa giàu </tspan><tspan x="12" y="58" dominant-baseline="ideographic">nghèo</tspan></text></g></g></g><g id="g-root-tx_thcyphtt_1hi7vblh97p4y-fill" data-item-order="0" transform="translate(87, 111)"><g id="tx_thcyphtt_1hi7vblh97p4y-fill" stroke="none" fill="#484848"><g><text style="font: 20px Roboto, sans-serif; white-space: pre;" font-size="20px" font-family="Roboto, sans-serif"><tspan x="12" y="34" dominant-baseline="ideographic">Thúc đẩy phát </tspan><tspan x="12" y="58" dominant-baseline="ideographic">triển kinh tế</tspan></text></g></g></g><g id="g-root-tx_muthunvh_1lzabm9h97qiy-fill" data-item-order="0" transform="translate(411, 159)"><g id="tx_muthunvh_1lzabm9h97qiy-fill" stroke="none" fill="#484848"><g><text style="font: 20px Roboto, sans-serif; white-space: pre;" font-size="20px" font-family="Roboto, sans-serif"><tspan x="12" y="34" dominant-baseline="ideographic">Mâu thuẫn và </tspan><tspan x="12" y="58" dominant-baseline="ideographic">hạn chế nội tại</tspan></text></g></g></g><g id="g-root-tx_vaitrtch_1umt5qph993b6-fill" data-item-order="0" transform="translate(39, 267)"><g id="tx_vaitrtch_1umt5qph993b6-fill" stroke="none" fill="#484848"><g><text style="font: 20px Roboto, sans-serif; white-space: pre;" font-size="20px" font-family="Roboto, sans-serif"><tspan x="11.98" y="34" dominant-baseline="ideographic">Vai trò tích cực của </tspan><tspan x="23.23" y="58" dominant-baseline="ideographic">chủ nghĩa tư bản</tspan></text></g></g></g><g id="g-root-tx_nhnghnch_hu1kk1h992j2-fill" data-item-order="0" transform="translate(351, 315)"><g id="tx_nhnghnch_hu1kk1h992j2-fill" stroke="none" fill="#484848"><g><text style="font: 20px Roboto, sans-serif; white-space: pre;" font-size="20px" font-family="Roboto, sans-serif"><tspan x="13.72" y="34" dominant-baseline="ideographic">Những hạn chế và tác </tspan><tspan x="49.33" y="58" dominant-baseline="ideographic">động tiêu cực</tspan></text></g></g></g><g id="g-root-tx_cnbngvai_1hd82mph993wi-fill" data-item-order="0" transform="translate(63, 375)"><g id="tx_cnbngvai_1hd82mph993wi-fill" stroke="none" fill="#484848"><g><text style="font: 20px Roboto, sans-serif; white-space: pre;" font-size="20px" font-family="Roboto, sans-serif"><tspan x="16.13" y="34" dominant-baseline="ideographic">Cân bằng vai trò và tác động của chủ nghĩa tư bản</tspan></text></g></g></g><g id="g-root-4.cu_sy_1464spdh9lr0j-stroke" data-item-order="-105977" transform="translate(122.95700073242188, 208)"><g id="4.cu_sy_1464spdh9lr0j-stroke" fill="none" stroke-linecap="round" stroke-linejoin="round" stroke-miterlimit="4" stroke="#484848" stroke-width="2"><g><path d="M 340.042999 93C 343.356999 93 346.042999 90.314 346.042999 87C 346.042999 83.686 343.356999 81 340.042999 81C 336.728999 81 334.042999 83.686 334.042999 87C 334.042999 90.314 336.728999 93 340.042999 93ZM 16.021999 45C 19.346999 45 22.042999 42.314 22.042999 39C 22.042999 35.686 19.346999 33 16.021999 33C 12.695999 33 9.999999 35.686 9.999999 39C 9.999999 42.314 12.695999 45 16.021999 45ZM 340.042999 81L 340.042999 57.75M 16.042999 10L 16.042999 33M 195.561999 65.593L 334.144999 86.11M 162.040999 60.634L 22.027999 39.904"></path></g></g></g><g id="g-root-3.Exclude_sy_vahsghh9lrt8-stroke" data-item-order="-105974" transform="translate(244.055908203125, 245)"><g id="3.Exclude_sy_vahsghh9lrt8-stroke" fill="none" stroke-linecap="round" stroke-linejoin="round" stroke-miterlimit="4" stroke="#ffffff" stroke-width="2"><g><path d="M 56.944107 10C 49.471107 10 43.195107 15.122 41.436107 22.047L 10.134107 124.12C 9.542107 126.049 10.984107 128 13.002107 128L 100.886107 128C 102.903107 128 104.346107 126.049 103.754107 124.12L 72.454107 22.054C 70.696107 15.126 64.419107 10 56.944107 10ZM 56.944107 33C 60.810107 33 63.944107 29.866 63.944107 26C 63.944107 22.134 60.810107 19 56.944107 19C 53.078107 19 49.944107 22.134 49.944107 26C 49.944107 29.866 53.078107 33 56.944107 33Z"></path></g></g></g><g id="g-root-2.right-bucket_sy_qvarf5h9lpfp-stroke" data-item-order="-105970" transform="translate(339, 219)"><g id="2.right-bucket_sy_qvarf5h9lpfp-stroke" fill="none" stroke-linecap="round" stroke-linejoin="round" stroke-miterlimit="4" stroke="#ffffff" stroke-width="2"><g><path d="M 11.081 15.729C 10.338 14.904 10 13.826 10 12.716L 10 12.716C 10 11.216 11.216 10 12.716 10L 235.284 10C 236.784 10 238 11.216 238 12.716L 238 12.716C 238 13.826 237.662 14.904 236.919 15.729C 231.551 21.692 204.717 46 124 46C 43.283 46 16.449 21.692 11.081 15.729Z"></path></g></g></g><g id="g-root-1.left-bucket_sy_qvarf5h9lpfq-stroke" data-item-order="-105966" transform="translate(15, 171)"><g id="1.left-bucket_sy_qvarf5h9lpfq-stroke" fill="none" stroke-linecap="round" stroke-linejoin="round" stroke-miterlimit="4" stroke="#ffffff" stroke-width="2"><g><path d="M 11.0812 15.729C 10.3384 14.904 10 13.826 10 12.716L 10 12.716C 10 11.216 11.2158 10 12.7157 10L 235.284 10C 236.784 10 238 11.216 238 12.716L 238 12.716C 238 13.826 237.662 14.904 236.919 15.729C 231.551 21.692 204.717 46 124 46C 43.2826 46 16.4488 21.692 11.0812 15.729Z"></path></g></g></g><g id="g-root-pick_4mbtjlh9ol4z-stroke" data-item-order="-2304" transform="translate(27, 39)"></g><g id="g-root-exch_vbqtshh96ayr-stroke" data-item-order="-2304" transform="translate(351, 87)"></g><g id="g-root-rise_hznr69h9lq8f-stroke" data-item-order="-2304" transform="translate(27, 111)"></g><g id="g-root-fall_de7z9th9rdvr-stroke" data-item-order="-2304" transform="translate(351, 159)"></g><g id="g-root-tx_tinbxhi_i0abf5h97pxq-stroke" data-item-order="0" transform="translate(87, 51)"></g><g id="g-root-tx_phnhagiu_v306kxh9953i-stroke" data-item-order="0" transform="translate(411, 87)"></g><g id="g-root-tx_thcyphtt_1hi7vblh97p4y-stroke" data-item-order="0" transform="translate(87, 111)"></g><g id="g-root-tx_muthunvh_1lzabm9h97qiy-stroke" data-item-order="0" transform="translate(411, 159)"></g><g id="g-root-tx_vaitrtch_1umt5qph993b6-stroke" data-item-order="0" transform="translate(39, 267)"></g><g id="g-root-tx_nhnghnch_hu1kk1h992j2-stroke" data-item-order="0" transform="translate(351, 315)"></g><g id="g-root-tx_cnbngvai_1hd82mph993wi-stroke" data-item-order="0" transform="translate(63, 375)"></g></g></g></svg>