<?xml version="1.0" encoding="utf-8" standalone="yes"?>
<!DOCTYPE svg PUBLIC "-//W3C//DTD SVG 1.1//EN" "http://www.w3.org/Graphics/SVG/1.1/DTD/svg11.dtd">
<svg width="859" height="576" viewBox="0 0 859 576" style="fill:none;stroke:none;fill-rule:evenodd;clip-rule:evenodd;stroke-linecap:round;stroke-linejoin:round;stroke-miterlimit:1.5;" version="1.1" xmlns="http://www.w3.org/2000/svg" xmlns:xlink="http://www.w3.org/1999/xlink"><style class="text-font-style fontImports" data-font-family="Roboto">@import url('https://fonts.googleapis.com/css2?family=Roboto:wght@400;700&amp;display=block');</style><g id="items" style="isolation: isolate"><g id="blend" style="mix-blend-mode: normal"><g id="g-root-0.g-0_fr_1q5q3fkf1rthl-fill" data-item-order="-321926" transform="translate(154.79791259765625, 171.687255859375)"><g id="0.g-0_fr_1q5q3fkf1rthl-fill" stroke="none" fill="url(#gradient-8a8a8a-330675446)"><g><path d="M 91.6709 92.7315L 48.5846 81.7241L 10 120.309L 49.4294 159.738L 91.6709 148.946L 80.8792 191.188L 120.309 230.617L 158.893 192.033L 147.886 148.947L 190.972 159.954L 230.617 120.309L 191.817 81.5082L 147.886 92.7315L 159.109 48.8004L 120.309 10L 80.6634 49.6452L 91.6709 92.7315Z"></path></g></g></g><g id="g-root-3.g-3_fr_1lpwlb4f1ru9v-fill" data-item-order="-321922" transform="translate(91.15789794921875, 310.63330078125)"><g id="3.g-3_fr_1lpwlb4f1ru9v-fill" stroke="none" fill="url(#gradient-87aa3f-469929121)"><g><path d="M 10 47.1231L 155.31 10L 118.187 155.31L 10 47.1231Z"></path></g></g></g><g id="g-root-4.g-4_fr_v3m1nkf1ru9x-fill" data-item-order="-321918" transform="translate(91.15789794921875, 109.1082763671875)"><g id="4.g-4_fr_v3m1nkf1ru9x-fill" stroke="none" fill="url(#gradient-c3b321-14556876)"><g><path d="M 10 118.187L 155.31 155.31L 118.187 10L 10 118.187Z"></path></g></g></g><g id="g-root-2.g-2_fr_m8lihsf1rrwv-fill" data-item-order="-321914" transform="translate(292.6828918457031, 310.63330078125)"><g id="2.g-2_fr_m8lihsf1rrwv-fill" stroke="none" fill="url(#gradient-40ae79-389135447)"><g><path d="M 47.1231 155.31L 10 10L 155.31 47.1231L 47.1231 155.31Z"></path></g></g></g><g id="g-root-1.g-1_fr_hss0dcf1rsp5-fill" data-item-order="-321910" transform="translate(292.6828918457031, 109.1082763671875)"><g id="1.g-1_fr_hss0dcf1rsp5-fill" stroke="none" fill="url(#gradient-2898bd-56937253)"><g><path d="M 47.1231 10L 10 155.31L 155.31 118.187L 47.1231 10Z"></path></g></g></g><g id="g-root-1.g-1_1_fr_dcyi8wf1rthf-fill" data-item-order="-321888" transform="translate(497.99188232421875, 102.52532958984375)"><g id="1.g-1_1_fr_dcyi8wf1rthf-fill" stroke="none" fill="url(#gradient-2898bd-56937253)"><g><path d="M 10 10L 10 39L 34 24.1778L 10 10Z"></path></g></g></g><g id="g-root-2.g-2_1_fr_4hbi00f1rua5-fill" data-item-order="-321872" transform="translate(497.99188232421875, 198.52532958984375)"><g id="2.g-2_1_fr_4hbi00f1rua5-fill" stroke="none" fill="url(#gradient-40ae79-389135447)"><g><path d="M 10 10L 10 39L 34 24.1778L 10 10Z"></path></g></g></g><g id="g-root-3.g-3_1_fr_24gyof1rrwn-fill" data-item-order="-321858" transform="translate(497.993896484375, 294.52532958984375)"><g id="3.g-3_1_fr_24gyof1rrwn-fill" stroke="none" fill="url(#gradient-87aa3f-469929121)"><g><path d="M 10 10L 10 39L 34 24.1778L 10 10Z"></path></g></g></g><g id="g-root-4.g-4_1_fr_1unf0tcf1rsht-fill" data-item-order="-321844" transform="translate(497.993896484375, 390.52532958984375)"><defs><linearGradient id="gradient-8a8a8a-330675446" x2="0" y2="1"><stop offset="0" stop-color="#959595"></stop><stop offset="1" stop-color="#7f7f7f"></stop></linearGradient><linearGradient id="gradient-87aa3f-469929121" x2="0" y2="1"><stop offset="0" stop-color="#91bb39"></stop><stop offset="1" stop-color="#7d9844"></stop></linearGradient><linearGradient id="gradient-c3b321-14556876" x2="0" y2="1"><stop offset="0" stop-color="#ddc916"></stop><stop offset="1" stop-color="#a99c2c"></stop></linearGradient><linearGradient id="gradient-40ae79-389135447" x2="0" y2="1"><stop offset="0" stop-color="#3bc482"></stop><stop offset="1" stop-color="#449870"></stop></linearGradient><linearGradient id="gradient-2898bd-56937253" x2="0" y2="1"><stop offset="0" stop-color="#1fa9d7"></stop><stop offset="1" stop-color="#3187a3"></stop></linearGradient></defs><g id="4.g-4_1_fr_1unf0tcf1rsht-fill" stroke="none" fill="url(#gradient-c3b321-14556876)"><g><path d="M 10 10L 10 39L 34 24.1778L 10 10Z"></path></g></g></g><g id="g-root-netw_1qa3i74f19kp1-fill" data-item-order="0" transform="translate(327.4158935546875, 170.7762451171875)"></g><g id="g-root-tx_cngtyang_m982qof1az9c-fill" data-item-order="0" transform="translate(533.993896484375, 198.52630615234375)"><g id="tx_cngtyang_m982qof1az9c-fill" stroke="none" fill="#43dd93"><g><text style="font: bold 20px Roboto, sans-serif; white-space: pre;" font-weight="bold" font-size="20px" font-family="Roboto, sans-serif"><tspan x="12" y="34" dominant-baseline="ideographic">Công ty đa ngành</tspan></text></g></g></g><g id="g-root-tx_cctchcba_de7jkwf1aww9-fill" data-item-order="0" transform="translate(533.993896484375, 234.52630615234375)"><g id="tx_cctchcba_de7jkwf1aww9-fill" stroke="none" fill="#f4f4f4"><g><text style="font: 15px Roboto, sans-serif; white-space: pre;" font-size="15px" font-family="Roboto, sans-serif"><tspan x="12" y="28" dominant-baseline="ideographic">Các tổ chức bao gồm nhiều lĩnh </tspan><tspan x="12" y="46" dominant-baseline="ideographic">vực kinh doanh khác nhau</tspan></text></g></g></g><g id="g-root-disl_18gxza8f1rrpo-fill" data-item-order="0" transform="translate(150.57589721679688, 170.7762451171875)"></g><g id="g-root-tx_cngtytpo_2r17kf1ayh6-fill" data-item-order="0" transform="translate(533.993896484375, 294.52630615234375)"><g id="tx_cngtytpo_2r17kf1ayh6-fill" stroke="none" fill="#a6da37"><g><text style="font: bold 20px Roboto, sans-serif; white-space: pre;" font-weight="bold" font-size="20px" font-family="Roboto, sans-serif"><tspan x="12" y="34" dominant-baseline="ideographic">Công ty tập đoàn</tspan></text></g></g></g><g id="g-root-tx_cccngtyh_v4v2zkf1axov-fill" data-item-order="0" transform="translate(533.993896484375, 138.52630615234375)"><g id="tx_cccngtyh_v4v2zkf1axov-fill" stroke="none" fill="#f4f4f4"><g><text style="font: 15px Roboto, sans-serif; white-space: pre;" font-size="15px" font-family="Roboto, sans-serif"><tspan x="12" y="28" dominant-baseline="ideographic">Các công ty hoạt động toàn cầu </tspan><tspan x="12" y="46" dominant-baseline="ideographic">vượt qua biên giới quốc gia</tspan></text></g></g></g><g id="g-root-tx_cngtyxuy_140i38gf1aww6-fill" data-item-order="0" transform="translate(533.993896484375, 102.52630615234375)"><g id="tx_cngtyxuy_140i38gf1aww6-fill" stroke="none" fill="#1ac3fb"><g><text style="font: bold 20px Roboto, sans-serif; white-space: pre;" font-weight="bold" font-size="20px" font-family="Roboto, sans-serif"><tspan x="12" y="34" dominant-baseline="ideographic">Công ty xuyên quốc gia</tspan></text></g></g></g><g id="g-root-tx_cctphpcn_1uo1l28f1az2b-fill" data-item-order="0" transform="translate(527.993896484375, 330.52630615234375)"><g id="tx_cctphpcn_1uo1l28f1az2b-fill" stroke="none" fill="#f4f4f4"><g><text style="font: 15px Roboto, sans-serif; white-space: pre;" font-size="15px" font-family="Roboto, sans-serif"><tspan x="12" y="28" dominant-baseline="ideographic">Các tập hợp công ty con không liên </tspan><tspan x="12" y="46" dominant-baseline="ideographic">quan trực tiếp</tspan></text></g></g></g><g id="g-root-buil_zrjpwgf1ru31-fill" data-item-order="0" transform="translate(150.57589721679688, 349.7762451171875)"></g><g id="g-root-wind_mcyu3kf1t8na-fill" data-item-order="0" transform="translate(327.4158935546875, 349.7762451171875)"></g><g id="g-root-tx_ccyutdnn_1lrs0kgf1rtaj-fill" data-item-order="0" transform="translate(270.15789794921875, 30.52630615234375)"><g id="tx_ccyutdnn_1lrs0kgf1rtaj-fill" stroke="none" fill="#f4f4f4"><g><text style="font: 15px Roboto, sans-serif; white-space: pre;" font-size="15px" font-family="Roboto, sans-serif"><tspan x="17.63" y="31" dominant-baseline="ideographic">Các yếu tố dẫn đến sự mở rộng của độc quyền</tspan></text></g></g></g><g id="g-root-tx_doanhngh_1hd7js0f1axhg-fill" data-item-order="0" transform="translate(533.993896484375, 390.52630615234375)"><g id="tx_doanhngh_1hd7js0f1axhg-fill" stroke="none" fill="#ffe711"><g><text style="font: bold 20px Roboto, sans-serif; white-space: pre;" font-weight="bold" font-size="20px" font-family="Roboto, sans-serif"><tspan x="12" y="34" dominant-baseline="ideographic">Doanh nghiệp vừa và nhỏ</tspan></text></g></g></g><g id="g-root-tx_cccngtyn_18hkjj4f1aya5-fill" data-item-order="0" transform="translate(533.993896484375, 426.52630615234375)"><g id="tx_cccngtyn_18hkjj4f1aya5-fill" stroke="none" fill="#f4f4f4"><g><text style="font: 15px Roboto, sans-serif; white-space: pre;" font-size="15px" font-family="Roboto, sans-serif"><tspan x="12" y="28" dominant-baseline="ideographic">Các công ty nhỏ thích ứng và phát </tspan><tspan x="12" y="46" dominant-baseline="ideographic">triển thông qua đổi mới</tspan></text></g></g></g><g id="g-root-0.g-0_fr_1q5q3fkf1rthl-stroke" data-item-order="-321926" transform="translate(154.79791259765625, 171.687255859375)"><g id="0.g-0_fr_1q5q3fkf1rthl-stroke" fill="none" stroke-linecap="round" stroke-linejoin="round" stroke-miterlimit="4" stroke="#f4f4f4" stroke-width="2"><g><path d="M 91.6709 92.7315L 48.5846 81.7241L 10 120.3087L 49.4294 159.7381L 91.6709 148.9465L 80.8792 191.1879L 120.3087 230.6173L 158.8932 192.0328L 147.8857 148.9465L 190.972 159.954L 230.6173 120.3087L 191.8169 81.5082L 147.8857 92.7315L 159.109 48.8004L 120.3087 10L 80.6634 49.6452L 91.6709 92.7315Z"></path></g></g></g><g id="g-root-3.g-3_fr_1lpwlb4f1ru9v-stroke" data-item-order="-321922" transform="translate(91.15789794921875, 310.63330078125)"><g id="3.g-3_fr_1lpwlb4f1ru9v-stroke" fill="none" stroke-linecap="round" stroke-linejoin="round" stroke-miterlimit="4" stroke="#f4f4f4" stroke-width="2"><g><path d="M 10 47.1231L 155.3104 10L 118.1873 155.3104L 10 47.1231Z"></path></g></g></g><g id="g-root-4.g-4_fr_v3m1nkf1ru9x-stroke" data-item-order="-321918" transform="translate(91.15789794921875, 109.1082763671875)"><g id="4.g-4_fr_v3m1nkf1ru9x-stroke" fill="none" stroke-linecap="round" stroke-linejoin="round" stroke-miterlimit="4" stroke="#f4f4f4" stroke-width="2"><g><path d="M 10 118.1873L 155.3104 155.3104L 118.1873 10L 10 118.1873Z"></path></g></g></g><g id="g-root-2.g-2_fr_m8lihsf1rrwv-stroke" data-item-order="-321914" transform="translate(292.6828918457031, 310.63330078125)"><g id="2.g-2_fr_m8lihsf1rrwv-stroke" fill="none" stroke-linecap="round" stroke-linejoin="round" stroke-miterlimit="4" stroke="#f4f4f4" stroke-width="2"><g><path d="M 47.1231 155.3104L 10 10L 155.3104 47.1231L 47.1231 155.3104Z"></path></g></g></g><g id="g-root-1.g-1_fr_hss0dcf1rsp5-stroke" data-item-order="-321910" transform="translate(292.6828918457031, 109.1082763671875)"><g id="1.g-1_fr_hss0dcf1rsp5-stroke" fill="none" stroke-linecap="round" stroke-linejoin="round" stroke-miterlimit="4" stroke="#f4f4f4" stroke-width="2"><g><path d="M 47.1231 10L 10 155.3104L 155.3104 118.1873L 47.1231 10Z"></path></g></g></g><g id="g-root-1.g-1_1_fr_dcyi8wf1rthf-stroke" data-item-order="-321888" transform="translate(497.99188232421875, 102.52532958984375)"><g id="1.g-1_1_fr_dcyi8wf1rthf-stroke" fill="none" stroke-linecap="round" stroke-linejoin="round" stroke-miterlimit="4" stroke="#f4f4f4" stroke-width="2"><g><path d="M 10 10L 10 39L 34 24.1778L 10 10Z"></path></g></g></g><g id="g-root-2.g-2_1_fr_4hbi00f1rua5-stroke" data-item-order="-321872" transform="translate(497.99188232421875, 198.52532958984375)"><g id="2.g-2_1_fr_4hbi00f1rua5-stroke" fill="none" stroke-linecap="round" stroke-linejoin="round" stroke-miterlimit="4" stroke="#f4f4f4" stroke-width="2"><g><path d="M 10 10L 10 39L 34 24.1778L 10 10Z"></path></g></g></g><g id="g-root-3.g-3_1_fr_24gyof1rrwn-stroke" data-item-order="-321858" transform="translate(497.993896484375, 294.52532958984375)"><g id="3.g-3_1_fr_24gyof1rrwn-stroke" fill="none" stroke-linecap="round" stroke-linejoin="round" stroke-miterlimit="4" stroke="#f4f4f4" stroke-width="2"><g><path d="M 10 10L 10 39L 34 24.1778L 10 10Z"></path></g></g></g><g id="g-root-4.g-4_1_fr_1unf0tcf1rsht-stroke" data-item-order="-321844" transform="translate(497.993896484375, 390.52532958984375)"><g id="4.g-4_1_fr_1unf0tcf1rsht-stroke" fill="none" stroke-linecap="round" stroke-linejoin="round" stroke-miterlimit="4" stroke="#f4f4f4" stroke-width="2"><g><path d="M 10 10L 10 39L 34 24.1778L 10 10Z"></path></g></g></g><g id="g-root-netw_1qa3i74f19kp1-stroke" data-item-order="0" transform="translate(327.4158935546875, 170.7762451171875)"><g id="netw_1qa3i74f19kp1-stroke" fill="none" stroke-linecap="round" stroke-linejoin="round" stroke-miterlimit="4" stroke="#f4f4f4" stroke-width="2"><g><path d="M 11.072001 33.996002C 11.072001 46.698551 21.369452 56.996002 34.071999 56.996002C 46.774551 56.996002 57.071999 46.698551 57.071999 33.996002C 57.071999 21.293451 46.774551 10.996 34.071999 10.996C 21.369452 10.996 11.072001 21.293451 11.072001 33.996002ZM 23.071999 25.496C 23.072001 27.981281 25.08672 29.996 27.572001 29.996C 30.057281 29.996 32.071999 27.981281 32.071999 25.496C 32.071999 23.010719 30.057281 20.996 27.572001 20.996C 25.08672 20.996 23.072001 23.010719 23.072001 25.496ZM 36.071999 45.495998C 36.071999 46.876713 37.191288 47.996002 38.571999 47.996002C 39.952713 47.996002 41.071999 46.876713 41.071999 45.496002C 41.071999 44.115288 39.952713 42.996002 38.571999 42.996002C 37.191288 42.996002 36.071999 44.115288 36.071999 45.496002ZM 44.071999 30.496C 44.072002 32.428997 45.639004 33.996002 47.572002 33.996002C 49.504997 33.996002 51.072002 32.428997 51.072002 30.496C 51.072002 28.563004 49.504997 26.996 47.572002 26.996C 45.639004 26.996 44.072002 28.563004 44.072002 30.496ZM 32.071999 25C 36.542919 25.170311 40.80291 26.945305 44.071999 30M 48.27 33.928001L 49.07 34.996002C 49.07 34.996002 52.07 38.996002 52.07 47.995998M 43.717999 13.11L 44.071999 14C 45.519688 18.288517 46.1968 22.799444 46.071999 27.323999M 45.071999 33C 44.821491 37.13044 43.332851 41.089699 40.799999 44.362M 37.375999 47.692001L 37.071999 48C 37.071999 48 32.071999 53 21.071999 53M 34.071999 11C 31.335846 13.926501 29.135672 17.311386 27.571999 21M 25.236 29.344L 25.071999 30C 23.982292 35.408966 24.684383 41.0257 27.072001 46C 30.472 52.812 39.071999 56 39.071999 56L 39.818001 56.278M 23.071999 25.496C 23.071999 25.496 15.4 26.046 11.522 29.441999M 11.632 39.063999L 12.072001 38.996002C 12.072001 38.996002 25.834 36.879997 37.02 43.535999"></path></g></g></g><g id="g-root-tx_cngtyang_m982qof1az9c-stroke" data-item-order="0" transform="translate(533.993896484375, 198.52630615234375)"></g><g id="g-root-tx_cctchcba_de7jkwf1aww9-stroke" data-item-order="0" transform="translate(533.993896484375, 234.52630615234375)"></g><g id="g-root-disl_18gxza8f1rrpo-stroke" data-item-order="0" transform="translate(150.57589721679688, 170.7762451171875)"><g id="disl_18gxza8f1rrpo-stroke" fill="none" stroke-linecap="round" stroke-linejoin="round" stroke-miterlimit="4" stroke="#f4f4f4" stroke-width="2"><g><path d="M 13 39.615997C 13.392 39.414665 13.785334 39.214668 14.18 39.015999C 21.454 35.34 21.098 36.056 27.326 36.056C 29.926001 36.056 31.247999 37.748001 32.015999 40.225998L 32.015999 40.242001L 33.905998 46.549999L 33.905998 46.562C 34.088184 47.161453 33.974983 47.811798 33.600964 48.314438C 33.226944 48.817074 32.63652 49.112316 32.009998 49.109997L 27.158001 49.110001C 26.544582 49.111687 25.965864 49.394779 25.588001 49.877998C 25.212273 50.362061 25.084284 50.99387 25.242001 51.585999L 26.115999 54.883999C 26.253817 55.403564 26.134062 55.957706 25.793999 56.374001C 25.458212 56.785526 24.949558 57.016701 24.418716 56.999046C 23.887871 56.981388 23.395702 56.71693 23.088001 56.284L 18.242001 49.452C 17.869122 48.927574 17.265474 48.616062 16.622 48.615997L 13 48.616001M 11 37L 13 37L 13 51L 11 51M 18.464001 11C 17.63448 11.000403 16.89131 11.512825 16.596001 12.288L 13.436 20.584C 13.094445 21.473572 13.081679 22.455853 13.4 23.354C 14.303807 25.869835 16.885187 27.371967 19.519051 26.91474C 22.152916 26.457514 24.076994 24.173254 24.079998 21.5C 24.080002 24.537567 26.542435 27 29.58 27C 32.617569 27 35.080002 24.537567 35.080002 21.5C 35.080002 24.537567 37.542435 27 40.580002 27C 43.617565 27 46.080002 24.537567 46.080002 21.5C 46.083004 24.173254 48.00708 26.457514 50.640945 26.91474C 53.274811 27.371967 55.85619 25.869835 56.759998 23.354C 57.081951 22.456984 57.072018 21.474327 56.732002 20.584L 53.571999 12.288C 53.277214 11.514189 52.536057 11.00206 51.708 11ZM 16.282 32.416L 16.383999 26.540001M 53.088001 26.792L 53 51L 37 51M 39 51L 39 35C 39 33.895432 39.895432 33 41 33L 47 33C 48.104568 33 49 33.895432 49 35L 49 51"></path></g></g></g><g id="g-root-tx_cngtytpo_2r17kf1ayh6-stroke" data-item-order="0" transform="translate(533.993896484375, 294.52630615234375)"></g><g id="g-root-tx_cccngtyh_v4v2zkf1axov-stroke" data-item-order="0" transform="translate(533.993896484375, 138.52630615234375)"></g><g id="g-root-tx_cngtyxuy_140i38gf1aww6-stroke" data-item-order="0" transform="translate(533.993896484375, 102.52630615234375)"></g><g id="g-root-tx_cctphpcn_1uo1l28f1az2b-stroke" data-item-order="0" transform="translate(527.993896484375, 330.52630615234375)"></g><g id="g-root-buil_zrjpwgf1ru31-stroke" data-item-order="0" transform="translate(150.57589721679688, 349.7762451171875)"><g id="buil_zrjpwgf1ru31-stroke" fill="none" stroke-linecap="round" stroke-linejoin="round" stroke-miterlimit="4" stroke="#f4f4f4" stroke-width="2"><g><path d="M 12 29L 32 29C 32 29 33 29 33 30L 33 56C 33 56 33 57 32 57L 12 57C 12 57 11 57 11 56L 11 30C 11 30 11 29 12 29M 29 29L 29 18C 29 17.447716 28.552284 17 28 17L 16 17C 15.447716 17 15 17.447716 15 18L 15 29M 21 17L 21 11M 40 23L 56 23C 56 23 57 23 57 24L 57 56C 57 56 57 57 56 57L 40 57C 40 57 39 57 39 56L 39 24C 39 24 39 23 40 23M 43 29L 53 29M 43 35L 53 35M 43 41L 53 41M 43 47L 53 47M 15 35L 29 35M 15 41L 29 41M 15 47L 29 47M 19 22.966L 25 22.966M 23 57L 23 52C 23 51.447716 22.552284 51 22 51L 20 51C 19.447716 51 19 51.447716 19 52L 19 57M 51 57L 51 52C 51 51.447716 50.552284 51 50 51L 48 51C 47.447716 51 47 51.447716 47 52L 47 57"></path></g></g></g><g id="g-root-wind_mcyu3kf1t8na-stroke" data-item-order="0" transform="translate(327.4158935546875, 349.7762451171875)"><g id="wind_mcyu3kf1t8na-stroke" fill="none" stroke-linecap="round" stroke-linejoin="round" stroke-miterlimit="4" stroke="#f4f4f4" stroke-width="2"><g><path d="M 51.900002 56.5L 15.8999 56.5L 15.8999 19.5C 15.8999 18.299999 16.6999 17.5 17.8999 17.5L 49.900002 17.5C 51.099998 17.5 51.900002 18.299999 51.900002 19.5L 51.900002 56.5ZM 56.5 56.5L 11.5 56.5M 25.8999 17.5L 25.8999 56.5M 41.900002 17.5L 41.900002 56.5M 27.8999 45.5L 39.900002 45.5M 34 45.5L 34 56.5M 15.8999 27.5L 51.900002 27.5M 15.8999 36.5L 51.900002 36.5M 15.8999 45.5L 51.900002 45.5M 31.9 17.5L 31.9 11.5L 49.900002 11.5L 49.900002 17.5"></path></g></g></g><g id="g-root-tx_ccyutdnn_1lrs0kgf1rtaj-stroke" data-item-order="0" transform="translate(270.15789794921875, 30.52630615234375)"></g><g id="g-root-tx_doanhngh_1hd7js0f1axhg-stroke" data-item-order="0" transform="translate(533.993896484375, 390.52630615234375)"></g><g id="g-root-tx_cccngtyn_18hkjj4f1aya5-stroke" data-item-order="0" transform="translate(533.993896484375, 426.52630615234375)"></g></g></g></svg>