<?xml version="1.0" encoding="utf-8" standalone="yes"?>
<!DOCTYPE svg PUBLIC "-//W3C//DTD SVG 1.1//EN" "http://www.w3.org/Graphics/SVG/1.1/DTD/svg11.dtd">
<svg width="555" height="674" viewBox="0 0 555 674" style="fill:none;stroke:none;fill-rule:evenodd;clip-rule:evenodd;stroke-linecap:round;stroke-linejoin:round;stroke-miterlimit:1.5;" version="1.1" xmlns="http://www.w3.org/2000/svg" xmlns:xlink="http://www.w3.org/1999/xlink"><style class="text-font-style fontImports" data-font-family="Roboto">@import url('https://fonts.googleapis.com/css2?family=Roboto:wght@400;700&amp;display=block');</style><g id="items" style="isolation: isolate"><g id="blend" style="mix-blend-mode: normal"><g id="g-root-0.cu_sy_1uu9stdfvs0lm-fill" data-item-order="-272154" transform="translate(237.00048828125, 99)"></g><g id="g-root-0.cu_1_sy_1qf2rs1fvry83-fill" data-item-order="-272151" transform="translate(15, 182.9990234375)"></g><g id="g-root-0.cu_2_sy_1hjfrj5fvrz0s-fill" data-item-order="-272149" transform="translate(267.00048828125, 75)"></g><g id="g-root-tx_nhcim_1uonm75fvnrb8-fill" data-item-order="0" transform="translate(375.00048828125, 87)"><g id="tx_nhcim_1uonm75fvnrb8-fill" stroke="none" fill="#f4f4f4"><g><text style="font: bold 30px Roboto, sans-serif; white-space: pre;" font-weight="bold" font-size="30px" font-family="Roboto, sans-serif"><tspan x="12" y="46" dominant-baseline="ideographic">Nhược </tspan><tspan x="12" y="82" dominant-baseline="ideographic">điểm</tspan></text></g></g></g><g id="g-root-tx_uim_1hd73ttfvnsw5-fill" data-item-order="0" transform="translate(75.00048828125, 105)"><g id="tx_uim_1hd73ttfvnsw5-fill" stroke="none" fill="#f4f4f4"><g><text style="font: bold 30px Roboto, sans-serif; white-space: pre;" font-weight="bold" font-size="30px" font-family="Roboto, sans-serif"><tspan x="12" y="46" dominant-baseline="ideographic">Ưu điểm</tspan></text></g></g></g><g id="g-root-refr_detkptfvmbr5-fill" data-item-order="0" transform="translate(15.00048828125, 219)"></g><g id="g-root-tx_mrngcatn_3d2chfvnqq3-fill" data-item-order="0" transform="translate(75.00048828125, 219)"><g id="tx_mrngcatn_3d2chfvnqq3-fill" stroke="none" fill="#f4f4f4"><g><text style="font: 20px Roboto, sans-serif; white-space: pre;" font-size="20px" font-family="Roboto, sans-serif"><tspan x="12" y="34" dominant-baseline="ideographic">Mở rộng của </tspan><tspan x="12" y="58" dominant-baseline="ideographic">TNCs</tspan></text></g></g></g><g id="g-root-glob_1utnew1fvb4zm-fill" data-item-order="0" transform="translate(315.00048828125, 219)"></g><g id="g-root-tx_suythoim_8x4nc1fvnqwy-fill" data-item-order="0" transform="translate(375.00048828125, 555)"><g id="tx_suythoim_8x4nc1fvnqwy-fill" stroke="none" fill="#f4f4f4"><g><text style="font: 20px Roboto, sans-serif; white-space: pre;" font-size="20px" font-family="Roboto, sans-serif"><tspan x="12" y="34" dominant-baseline="ideographic">Suy thoái môi </tspan><tspan x="12" y="58" dominant-baseline="ideographic">trường</tspan></text></g></g></g><g id="g-root-disc_1hfp069fvkx6w-fill" data-item-order="0" transform="translate(15.00048828125, 303)"></g><g id="g-root-tx_cquynquc_de73mpfvnsay-fill" data-item-order="0" transform="translate(75.00048828125, 303)"><g id="tx_cquynquc_de73mpfvnsay-fill" stroke="none" fill="#f4f4f4"><g><text style="font: 20px Roboto, sans-serif; white-space: pre;" font-size="20px" font-family="Roboto, sans-serif"><tspan x="12" y="34" dominant-baseline="ideographic">Độc quyền </tspan><tspan x="12" y="58" dominant-baseline="ideographic">quốc tế</tspan></text></g></g></g><g id="g-root-scal_v3lov5fvb5z5-fill" data-item-order="0" transform="translate(315.00048828125, 303)"></g><g id="g-root-tx_chnhlchk_1hby5nlfvnqpx-fill" data-item-order="0" transform="translate(375.00048828125, 303)"><g id="tx_chnhlchk_1hby5nlfvnqpx-fill" stroke="none" fill="#f4f4f4"><g><text style="font: 20px Roboto, sans-serif; white-space: pre;" font-size="20px" font-family="Roboto, sans-serif"><tspan x="12" y="34" dominant-baseline="ideographic">Chênh lệch </tspan><tspan x="12" y="58" dominant-baseline="ideographic">kinh tế</tspan></text></g></g></g><g id="g-root-hand_mfgdnlfvjitr-fill" data-item-order="0" transform="translate(15.00048828125, 387)"></g><g id="g-root-tx_linminhk_m9u3vlfvnri9-fill" data-item-order="0" transform="translate(75.00048828125, 387)"><g id="tx_linminhk_m9u3vlfvnri9-fill" stroke="none" fill="#f4f4f4"><g><text style="font: 20px Roboto, sans-serif; white-space: pre;" font-size="20px" font-family="Roboto, sans-serif"><tspan x="12" y="34" dominant-baseline="ideographic">Liên minh kinh </tspan><tspan x="12" y="58" dominant-baseline="ideographic">tế</tspan></text></g></g></g><g id="g-root-fall_qwity9fv8cn4-fill" data-item-order="0" transform="translate(315.00048828125, 387)"></g><g id="g-root-tx_mtquyntc_1ums6xtfvnsas-fill" data-item-order="0" transform="translate(375.00048828125, 387)"><g id="tx_mtquyntc_1ums6xtfvnsas-fill" stroke="none" fill="#f4f4f4"><g><text style="font: 20px Roboto, sans-serif; white-space: pre;" font-size="20px" font-family="Roboto, sans-serif"><tspan x="12" y="34" dominant-baseline="ideographic">Mất quyền tự </tspan><tspan x="12" y="58" dominant-baseline="ideographic">chủ địa phương</tspan></text></g></g></g><g id="g-root-exch_hzmvj5fvi686-fill" data-item-order="0" transform="translate(15.00048828125, 471)"></g><g id="g-root-tx_tchhpkin_qpnm01fvnqq0-fill" data-item-order="0" transform="translate(75.00048828125, 471)"><g id="tx_tchhpkin_qpnm01fvnqq0-fill" stroke="none" fill="#f4f4f4"><g><text style="font: 20px Roboto, sans-serif; white-space: pre;" font-size="20px" font-family="Roboto, sans-serif"><tspan x="12" y="34" dominant-baseline="ideographic">Tích hợp kinh </tspan><tspan x="12" y="58" dominant-baseline="ideographic">tế khu vực</tspan></text></g></g></g><g id="g-root-shov_1lse4v5fv8aa7-fill" data-item-order="0" transform="translate(315.00048828125, 471)"></g><g id="g-root-tx_khaithct_1hn35fvnrpn-fill" data-item-order="0" transform="translate(375.00048828125, 471)"><g id="tx_khaithct_1hn35fvnrpn-fill" stroke="none" fill="#f4f4f4"><g><text style="font: 20px Roboto, sans-serif; white-space: pre;" font-size="20px" font-family="Roboto, sans-serif"><tspan x="12" y="34" dominant-baseline="ideographic">Khai thác tài </tspan><tspan x="12" y="58" dominant-baseline="ideographic">nguyên</tspan></text></g></g></g><g id="g-root-3_1qbyhi9fvck5f-fill" data-item-order="0" transform="translate(15.00048828125, 555)"></g><g id="g-root-tx_phnngtrc_140hna9fvnsav-fill" data-item-order="0" transform="translate(75.00048828125, 555)"><g id="tx_phnngtrc_140hna9fvnsav-fill" stroke="none" fill="#f4f4f4"><g><text style="font: 20px Roboto, sans-serif; white-space: pre;" font-size="20px" font-family="Roboto, sans-serif"><tspan x="12" y="34" dominant-baseline="ideographic">Phản ứng trước </tspan><tspan x="12" y="58" dominant-baseline="ideographic">áp lực tư bản</tspan></text></g></g></g><g id="g-root-bloc_147z95tfvs0lq-fill" data-item-order="0" transform="translate(315.00048828125, 555)"></g><g id="g-root-tx_toncuhav_1d3m9epfvrzt1-fill" data-item-order="0" transform="translate(141.00048828125, 39)"><g id="tx_toncuhav_1d3m9epfvrzt1-fill" stroke="none" fill="#f4f4f4"><g><text style="font: 15px Roboto, sans-serif; white-space: pre;" font-size="15px" font-family="Roboto, sans-serif"><tspan x="13.33" y="31" dominant-baseline="ideographic">Toàn cầu hóa và Khu vực hóa Kinh tế</tspan></text></g></g></g><g id="g-root-tx_plctbnln_18gb5epfvnrim-fill" data-item-order="0" transform="translate(375.00048828125, 207)"><g id="tx_plctbnln_18gb5epfvnrim-fill" stroke="none" fill="#f4f4f4"><g><text style="font: 20px Roboto, sans-serif; white-space: pre;" font-size="20px" font-family="Roboto, sans-serif"><tspan x="12" y="34" dominant-baseline="ideographic">Áp lực tư bản </tspan><tspan x="12" y="58" dominant-baseline="ideographic">lên các nước </tspan><tspan x="12" y="82" dominant-baseline="ideographic">đang phát triển</tspan></text></g></g></g><g id="g-root-0.cu_sy_1uu9stdfvs0lm-stroke" data-item-order="-272154" transform="translate(237.00048828125, 99)"><g id="0.cu_sy_1uu9stdfvs0lm-stroke" fill="none" stroke-linecap="round" stroke-linejoin="round" stroke-miterlimit="4" stroke="#d3d3d3" stroke-width="2"><g><path d="M 10 34L 28 10L 28 18.0001L 52 18.0001L 52 10.0002L 70 34.0002L 52 58.0002L 52 50.0001L 28 50.0001L 28 58L 10 34ZM 30.598633 28.373184L 34.998633 39.480384M 35.198633 39.097384L 39.598633 28.660484M 49.398633 30.192484C 49.065333 29.937084 48.731933 29.681784 48.398633 29.426484C 47.798633 28.851984 46.831933 28.628484 45.498633 28.756184C 44.165333 28.883884 43.465333 29.522184 43.398633 30.671184C 43.265333 31.820284 44.231933 32.905384 46.298633 33.926784C 48.431933 34.884284 49.465333 36.001384 49.398633 37.278084C 49.398633 38.554784 48.631933 39.320784 47.098633 39.576084C 45.498633 39.767584 44.431933 39.416584 43.898633 38.522884C 43.565333 38.075984 43.265333 37.629184 42.998633 37.182384"></path></g></g></g><g id="g-root-0.cu_1_sy_1qf2rs1fvry83-stroke" data-item-order="-272151" transform="translate(15, 182.9990234375)"><g id="0.cu_1_sy_1qf2rs1fvry83-stroke" fill="none" stroke-linecap="round" stroke-linejoin="round" stroke-miterlimit="4" stroke="#d3d3d3" stroke-width="2"><g><path d="M 514.0005 10L 10 10.0008"></path></g></g></g><g id="g-root-0.cu_2_sy_1hjfrj5fvrz0s-stroke" data-item-order="-272149" transform="translate(267.00048828125, 75)"><g id="0.cu_2_sy_1hjfrj5fvrz0s-stroke" fill="none" stroke-linecap="round" stroke-linejoin="round" stroke-miterlimit="4" stroke="#d3d3d3" stroke-width="2"><g><path d="M 10.0001 298L 10 214M 10.0001 382L 10 298M 10.0001 466L 10 382M 10.0001 550L 10 466M 10.0001 214L 10 118M 10 118L 10 80M 10 36L 10 10"></path></g></g></g><g id="g-root-tx_nhcim_1uonm75fvnrb8-stroke" data-item-order="0" transform="translate(375.00048828125, 87)"></g><g id="g-root-tx_uim_1hd73ttfvnsw5-stroke" data-item-order="0" transform="translate(75.00048828125, 105)"></g><g id="g-root-refr_detkptfvmbr5-stroke" data-item-order="0" transform="translate(15.00048828125, 219)"><g id="refr_detkptfvmbr5-stroke" fill="none" stroke-linecap="round" stroke-linejoin="round" stroke-miterlimit="4" stroke="#43dd93" stroke-width="2"><g><path d="M 13.796 45L 37.931999 45M 15.021999 21L 52.990002 21M 49.995998 33L 11.02 33M 19.756001 52.062C 11.722013 45.705105 8.861037 34.80088 12.739235 25.318544C 16.617434 15.83621 26.299725 10.062078 36.485802 11.157042C 46.671875 12.252004 54.905746 19.952049 56.68 30.042M 32.538002 11.052C 22.512001 21.914 21.014 35.507999 27.799999 49.015999M 35.459999 11.052C 41.174145 16.927425 44.364601 24.804157 44.349998 33M 44 42.001999L 54 36.001999L 57 47.001999M 53.644001 36.216C 51.589775 48.222649 41.18111 57.000999 29 57"></path></g></g></g><g id="g-root-tx_mrngcatn_3d2chfvnqq3-stroke" data-item-order="0" transform="translate(75.00048828125, 219)"></g><g id="g-root-glob_1utnew1fvb4zm-stroke" data-item-order="0" transform="translate(315.00048828125, 219)"><g id="glob_1utnew1fvb4zm-stroke" fill="none" stroke-linecap="round" stroke-linejoin="round" stroke-miterlimit="4" stroke="#fb6762" stroke-width="2"><g><path d="M 33.5 56.5C 21.073593 56.5 11.000001 46.426407 11.000001 34C 11.000001 21.573593 21.073593 11.500001 33.5 11.500001M 12.296 26.5L 32 26.5M 12.304 41.5L 32 41.5M 33.5 56.5C 27.700001 56.5 23 46.425999 23 34C 23 21.574001 27.702 11.5 33.5 11.5M 35 29.702L 57 29.702M 35 23.702L 57 23.702M 40 50.702L 40 16.702L 44 16.702C 49.522846 16.702 54 21.179153 54 26.702C 54 32.224846 49.522846 36.702 44 36.702L 40 36.702"></path></g></g></g><g id="g-root-tx_suythoim_8x4nc1fvnqwy-stroke" data-item-order="0" transform="translate(375.00048828125, 555)"></g><g id="g-root-disc_1hfp069fvkx6w-stroke" data-item-order="0" transform="translate(15.00048828125, 303)"><g id="disc_1hfp069fvkx6w-stroke" fill="none" stroke-linecap="round" stroke-linejoin="round" stroke-miterlimit="4" stroke="#4f91fc" stroke-width="2"><g><path d="M 56.4576 32.5732C 56.4226 32.027599 56.368401 31.4828 56.2948 30.940001C 55.707401 26.66106 53.901001 22.6416 51.091 19.361599C 48.280998 16.0816 44.586399 13.67966 40.4482 12.44262C 36.3102 11.205576 31.9034 11.185704 27.75428 12.38538C 23.605179 13.58504 19.889019 15.95356 17.049601 19.20808C 14.210159 22.462601 12.36744 26.465599 11.741478 30.739C 11.115514 35.0126 11.732762 39.375801 13.51952 43.307999C 15.30626 47.2402 18.187019 50.575001 21.81776 52.9142C 24.995579 54.961601 28.630381 56.170601 32.383801 56.441601M 28.574881 55.84C 25.53488 51.380001 23.494881 43.259998 23.494881 34C 23.494881 24.739979 25.494881 16.61998 28.574881 12.15998M 11.494874 34L 34 34M 14.67492 22.5L 53.314999 22.5M 14.67492 45.5L 32.495003 45.5M 39.415001 12.15998C 43.014999 17.43998 44.314999 26.159981 44.474998 32.5M 10 10M 38.321198 37.729202L 55.999802 55.407799M 10 10M 43.5168 42.924801L 47.660801 38.7808C 49.673199 36.768402 52.935799 36.768402 54.9482 38.7808C 56.960602 40.793198 56.960602 44.055801 54.9482 46.068199L 50.819801 50.196602M 10 10M 40.313999 46.1278L 39.372803 47.069C 37.360397 49.081402 37.360397 52.344002 39.372803 54.3564C 41.385201 56.368599 44.6478 56.368599 46.660198 54.3564L 47.398399 53.618"></path></g></g></g><g id="g-root-tx_cquynquc_de73mpfvnsay-stroke" data-item-order="0" transform="translate(75.00048828125, 303)"></g><g id="g-root-scal_v3lov5fvb5z5-stroke" data-item-order="0" transform="translate(315.00048828125, 303)"><g id="scal_v3lov5fvb5z5-stroke" fill="none" stroke-linecap="round" stroke-linejoin="round" stroke-miterlimit="4" stroke="#f79438" stroke-width="2"><g><path d="M 34.562 48.952C 34.182465 48.477375 33.607716 48.201061 33 48.201061C 32.392284 48.201061 31.817537 48.477375 31.438 48.952L 26.299999 55.375999C 26.06039 55.676056 26.013758 56.086815 26.180004 56.432949C 26.346251 56.779083 26.696012 56.999454 27.08 57L 38.919998 57C 39.303986 56.999454 39.653748 56.779083 39.819996 56.432949C 39.986244 56.086815 39.93961 55.676056 39.700001 55.375999ZM 11 47L 57 47M 12.5 16.5C 12.5 19.537567 14.962435 22 18 22C 21.037567 22 23.5 19.537567 23.5 16.5C 23.5 13.462434 21.037567 11 18 11C 14.962435 11 12.5 13.462434 12.5 16.5ZM 25 31C 25 27.134008 21.865993 24 18 24C 14.134007 24 11 27.134008 11 31L 11 37L 14.166 37L 15 47L 21 47L 21.834 37L 25 37ZM 37 33C 37 38.52285 41.477154 43 47 43C 52.522846 43 57 38.52285 57 33C 57 27.477154 52.522846 23 47 23C 41.477154 23 37 27.477154 37 33ZM 47 37L 47 39M 47 27L 47 29M 43 37L 49 37C 50.104568 37 51 36.104568 51 35C 51 33.895432 50.104568 33 49 33L 45 33C 43.895432 33 43 32.104568 43 31C 43 29.89543 43.895432 29 45 29L 51 29"></path></g></g></g><g id="g-root-tx_chnhlchk_1hby5nlfvnqpx-stroke" data-item-order="0" transform="translate(375.00048828125, 303)"></g><g id="g-root-hand_mfgdnlfvjitr-stroke" data-item-order="0" transform="translate(15.00048828125, 387)"><g id="hand_mfgdnlfvjitr-stroke" fill="none" stroke-linecap="round" stroke-linejoin="round" stroke-miterlimit="4" stroke="#a6da37" stroke-width="2"><g><path d="M 20.908001 27.620001C 19.739769 22.631084 21.615746 17.421778 25.696476 14.323119C 29.777206 11.22446 35.298946 10.816385 39.790855 13.2815C 44.282768 15.746613 46.904148 20.62355 46.481998 25.73M 21.82 19.102001L 24.278 19.102001C 26.260609 19.251587 27.836411 20.827391 27.986 22.809999L 27.986 26.264C 27.986 26.775999 28.441999 27.218 28.944 27.618M 36.498001 12.024C 36.498001 12.024 34.334 13.728 33.542 14.337999C 32.206818 15.366749 31.946564 17.277655 32.958 18.625999L 34.82 21.110001C 35.402084 21.885067 36.314697 22.341372 37.284 22.341999L 39.084 22.341999C 39.901016 22.34128 40.684715 22.66584 41.262001 23.243999L 42.683998 24.664M 50.669998 48.217999L 40.686001 49.049999M 38.858002 36.43L 31.884001 38.736C 30.766323 39.103287 29.550863 38.574265 29.058001 37.506001C 28.525827 36.361473 28.996387 35.001095 30.122 34.43L 36.877998 31.030001C 38.041801 30.443649 39.396461 30.365454 40.619999 30.813999L 50.619999 34.472M 31.152 33.912003L 30.431999 33.312C 29.254356 32.449097 27.714605 32.255493 26.360001 32.799999L 17.41 36.379997M 11.376 32.956001L 15.4 32.956001C 16.463615 32.910805 17.363367 33.734535 17.412001 34.798L 17.412001 47.702C 17.363358 48.765755 16.463955 49.590057 15.4 49.546001L 11.376 49.546001M 56.624001 49.546001L 52.599998 49.546001C 51.536045 49.590057 50.636642 48.765755 50.588001 47.702L 50.588001 34.799999C 50.636631 33.736534 51.536385 32.912807 52.599998 32.958L 56.622002 32.958M 36.096001 38L 41.295998 45.138C 41.952049 46.038876 42.011395 47.243034 41.447113 48.204052C 40.882828 49.16507 39.802361 49.699963 38.695999 49.566002C 38.425995 51.00877 37.078117 51.990959 35.622002 51.806C 35.351105 53.248432 34.004227 54.230766 32.548 54.048C 32.331886 55.135815 31.494066 55.993546 30.411625 56.235146C 29.329185 56.476746 28.206161 56.056675 27.548 55.164001L 22.302 48.571999C 21.525995 47.586224 20.35574 46.991589 19.102001 46.945999L 17.41 46.886002M 32.556 54.043999L 31.152 52.32M 35.629997 51.801998L 34.428001 50.206001M 38.704002 49.562L 37.389999 47.776001"></path></g></g></g><g id="g-root-tx_linminhk_m9u3vlfvnri9-stroke" data-item-order="0" transform="translate(75.00048828125, 387)"></g><g id="g-root-fall_qwity9fv8cn4-stroke" data-item-order="0" transform="translate(315.00048828125, 387)"><g id="fall_qwity9fv8cn4-stroke" fill="none" stroke-linecap="round" stroke-linejoin="round" stroke-miterlimit="4" stroke="#ffe711" stroke-width="2"><g><path d="M 57 43C 57 43.552284 56.552284 44 56 44L 42 44C 41.447716 44 41 43.552284 41 43L 41 13.42C 41.000137 13.094191 41.158989 12.788875 41.42572 12.601768C 41.692444 12.414661 42.0336 12.369225 42.34 12.48L 56.34 16.76C 56.735947 16.903151 56.999821 17.278969 57 17.700001ZM 55 16L 55 11M 41 21L 47 21M 27 29L 33 29M 27 35L 35 35M 41 27L 52 27M 46 44L 46 37C 46 36.447716 46.447716 36 47 36L 51 36C 51.552284 36 52 36.447716 52 37L 52 44M 41 23L 28 23C 27.447716 23 27 23.447716 27 24L 27 38M 11 38.419998L 20.779999 48.18C 21.084167 48.486565 21.498146 48.658993 21.93 48.658993C 22.361855 48.658993 22.775833 48.486565 23.08 48.18L 28.48 42.779999C 29.111368 42.154667 30.128632 42.154667 30.76 42.779999L 45 57M 45 48L 45 57L 36 57"></path></g></g></g><g id="g-root-tx_mtquyntc_1ums6xtfvnsas-stroke" data-item-order="0" transform="translate(375.00048828125, 387)"></g><g id="g-root-exch_hzmvj5fvi686-stroke" data-item-order="0" transform="translate(15.00048828125, 471)"><g id="exch_hzmvj5fvi686-stroke" fill="none" stroke-linecap="round" stroke-linejoin="round" stroke-miterlimit="4" stroke="#1ac3fb" stroke-width="2"><g><path d="M 27.007999 26C 27.008001 34.284271 33.723732 41 42.008003 41C 50.292274 41 57.008003 34.284271 57.008003 26C 57.008003 17.715729 50.292274 11.000001 42.008003 11.000001C 33.723732 11.000001 27.008001 17.715729 27.008001 26ZM 27.059999 27.052C 20.814291 26.607828 14.949745 30.089964 12.349983 35.786228C 9.750222 41.482491 10.962248 48.194359 15.390104 52.621578C 19.817961 57.048798 26.530003 58.259857 32.225891 55.659275C 37.921783 53.058693 41.403072 47.193649 40.958 40.948002M 11.97 20.07L 15.982 24.056L 19.970001 20.046M 25.945999 12.026C 20.423141 12.042543 15.959406 16.533142 15.976 22.056L 15.976 24.056M 56.046001 47.93L 52.034 43.944L 48.046001 47.953999M 42.07 55.973999C 47.592857 55.957458 52.056595 51.466858 52.040001 45.944L 52.040001 43.944M 27 49C 25.3578 49.189873 23.718842 48.619053 22.549896 47.450104C 21.380949 46.281158 20.810127 44.6422 21 43C 20.810127 41.3578 21.380949 39.718842 22.549896 38.549896C 23.718842 37.380951 25.3578 36.810127 27 37M 19.007999 41L 27.007999 41M 19.007999 45L 25.007999 45M 45 19L 41.599998 19C 40.446991 18.991116 39.425858 19.742687 39.091606 20.846222C 38.757359 21.949757 39.189842 23.141613 40.153999 23.774L 43.834 26.226C 44.796238 26.857191 45.229076 28.045841 44.898022 29.147978C 44.566963 30.250114 43.550777 31.00351 42.399998 31L 39 31M 43.007999 19L 43.007999 17M 41.007999 33L 41.007999 31"></path></g></g></g><g id="g-root-tx_tchhpkin_qpnm01fvnqq0-stroke" data-item-order="0" transform="translate(75.00048828125, 471)"></g><g id="g-root-shov_1lse4v5fv8aa7-stroke" data-item-order="0" transform="translate(315.00048828125, 471)"><g id="shov_1lse4v5fv8aa7-stroke" fill="none" stroke-linecap="round" stroke-linejoin="round" stroke-miterlimit="4" stroke="#cb68f9" stroke-width="2"><g><path d="M 23 56.967999L 57 56.967999C 57 56.967999 56.166 36.968002 45 36.968002C 34.422001 36.968002 23 56.967999 23 56.967999ZM 26.695999 44.557999C 25.038155 43.498699 23.107256 42.946121 21.139999 42.967999C 14.516 42.967999 11 56.967999 11 56.967999L 23 56.967999M 16.902 15.98L 31.044001 30.124001M 42.799999 37.242001L 41.746002 33.068001C 41.560883 32.447609 41.237434 31.877295 40.800003 31.400002L 36 26.586C 35.609501 26.195618 34.976501 26.195618 34.585999 26.586L 27.51 33.658001C 27.119617 34.0485 27.119617 34.681499 27.51 35.071999L 32.27 39.832001C 32.750694 40.279114 33.30835 40.635521 33.916 40.883999L 35.416 41.431999M 11.954 20.93L 21.852001 11.032"></path></g></g></g><g id="g-root-tx_khaithct_1hn35fvnrpn-stroke" data-item-order="0" transform="translate(375.00048828125, 471)"></g><g id="g-root-3_1qbyhi9fvck5f-stroke" data-item-order="0" transform="translate(15.00048828125, 555)"><g id="3_1qbyhi9fvck5f-stroke" fill="none" stroke-linecap="round" stroke-linejoin="round" stroke-miterlimit="4" stroke="#f366bb" stroke-width="2"><g><path d="M 19.524 33.865997C 18.711697 33.047241 18.716171 31.725237 19.534 30.911999L 29.91 20.610001C 30.726 19.794941 32.047997 19.794941 32.863998 20.610001M 11.16 16.544001C 11.16 18.851446 13.030555 20.722 15.338 20.722C 17.645447 20.722 19.515999 18.851446 19.515999 16.544001C 19.515999 14.236555 17.645447 12.366 15.338 12.366C 13.030555 12.366 11.16 14.236555 11.16 16.544001M 18.279999 19.507999C 17.424011 20.354462 16.242107 20.786633 15.042 20.692001L 22.5 27.968L 26.945999 23.554001L 19.487999 16.278C 19.573984 17.479074 19.13303 18.658112 18.279999 19.507999ZM 38.034 32.246002L 27.688 22.818001L 21.757999 28.704L 32.206001 39.827999M 47.400002 36.753998L 43.161999 36.753998C 41.818359 36.75074 40.661827 37.702393 40.406303 39.021519C 40.150787 40.340645 40.868324 41.655312 42.116001 42.153999L 46.428001 43.875999C 47.67532 44.374554 48.392849 45.688652 48.137875 47.007496C 47.882896 48.32634 46.727264 49.278294 45.383999 49.276001L 41.141998 49.276001M 44.273998 36.753998L 44.273998 35.188M 44.273998 50.852001L 44.273998 49.285999M 31.774 43.099998C 31.774 50.021233 37.384766 55.632 44.306 55.632C 51.227234 55.632 56.838001 50.021233 56.838001 43.099998C 56.838001 36.178768 51.227234 30.568001 44.306 30.568001C 37.384766 30.568001 31.774 36.178768 31.774 43.099998M 49.251999 13.764L 45.490002 21.925999L 50.882 22.02L 47.702 27.677999M 13.676001 48.417999L 22.360001 46.098L 21.535999 51.428001L 27.652 49.256001M 24.632 25.852001L 31.326 32.228001"></path></g></g></g><g id="g-root-tx_phnngtrc_140hna9fvnsav-stroke" data-item-order="0" transform="translate(75.00048828125, 555)"></g><g id="g-root-bloc_147z95tfvs0lq-stroke" data-item-order="0" transform="translate(315.00048828125, 555)"><g id="bloc_147z95tfvs0lq-stroke" fill="none" stroke-linecap="round" stroke-linejoin="round" stroke-miterlimit="4" stroke="#8769fd" stroke-width="2"><g><path d="M 33 45C 33 51.627419 38.372581 57 45 57C 51.627419 57 57 51.627419 57 45C 57 38.372581 51.627419 33 45 33C 38.372581 33 33 38.372581 33 45M 36.52 53.48L 53.48 36.52M 30 52.900002C 18.96896 51.847305 10.654165 42.404675 11.005535 31.329092C 11.356906 20.253508 20.253508 11.356906 31.329092 11.005535C 42.404675 10.654165 51.847305 18.96896 52.900002 30M 11.32 28.34L 22.42 28.34C 23.884014 28.348686 25.282732 28.947107 26.299999 30L 28.299999 32C 30.364096 34.048164 30.460829 37.354668 28.52 39.52L 26 42.32C 25.126408 43.343643 24.66324 44.654762 24.700001 46L 24.700001 51.740002M 47.080002 17.4L 36.5 17.4C 34.235634 17.4 32.400002 19.235634 32.400002 21.5C 32.400002 23.764366 34.235634 25.6 36.5 25.6L 37.279999 25.6C 39.104786 25.590874 40.8144 26.490671 41.84 28L 42.34 28.74"></path></g></g></g><g id="g-root-tx_toncuhav_1d3m9epfvrzt1-stroke" data-item-order="0" transform="translate(141.00048828125, 39)"></g><g id="g-root-tx_plctbnln_18gb5epfvnrim-stroke" data-item-order="0" transform="translate(375.00048828125, 207)"></g></g></g></svg>