<?xml version="1.0" encoding="utf-8" standalone="yes"?>
<!DOCTYPE svg PUBLIC "-//W3C//DTD SVG 1.1//EN" "http://www.w3.org/Graphics/SVG/1.1/DTD/svg11.dtd">
<svg width="950" height="530" viewBox="0 0 950 530" style="fill:none;stroke:none;fill-rule:evenodd;clip-rule:evenodd;stroke-linecap:round;stroke-linejoin:round;stroke-miterlimit:1.5;" version="1.1" xmlns="http://www.w3.org/2000/svg" xmlns:xlink="http://www.w3.org/1999/xlink"><style class="text-font-style fontImports" data-font-family="Roboto">@import url('https://fonts.googleapis.com/css2?family=Roboto:wght@400;700&amp;display=block');</style><g id="items" style="isolation: isolate"><g id="blend" style="mix-blend-mode: normal"><g id="g-root-ro_qv9ma9f1kqoc-fill" data-item-order="-29232" transform="translate(351, 135)"><g id="ro_qv9ma9f1kqoc-fill" stroke="none" fill="url(#gradient-8a8a8a-330675446)"><g><path d="M 34 10L 154 10C 154 10 178 10 178 34L 178 160C 178 160 178 184 154 184L 34 184C 34 184 10 184 10 160L 10 34C 10 34 10 10 34 10"></path></g></g></g><g id="g-root-ro_hs4x01f1p156-fill" data-item-order="-18792" transform="translate(261, 345)"><g id="ro_hs4x01f1p156-fill" stroke="none" fill="url(#gradient-ae58d5-381354595)"><g><path d="M 22 10L 346 10C 346 10 358 10 358 22L 358 52C 358 52 358 64 346 64L 22 64C 22 64 10 64 10 52L 10 22C 10 22 10 10 22 10"></path></g></g></g><g id="g-root-ro_1ly055df1qdjb-fill" data-item-order="-15552" transform="translate(15, 123)"><g id="ro_1ly055df1qdjb-fill" stroke="none" fill="url(#gradient-4f83d8-135982273)"><g><path d="M 22 10L 286 10C 286 10 298 10 298 22L 298 52C 298 52 298 64 286 64L 22 64C 22 64 10 64 10 52L 10 22C 10 22 10 10 22 10"></path></g></g></g><g id="g-root-ro_1413uvlf1njm7-fill" data-item-order="-12960" transform="translate(567, 123)"><defs><linearGradient id="gradient-8a8a8a-330675446" x2="0" y2="1"><stop offset="0" stop-color="#959595"></stop><stop offset="1" stop-color="#7f7f7f"></stop></linearGradient><linearGradient id="gradient-ae58d5-381354595" x2="0" y2="1"><stop offset="0" stop-color="#b95ce3"></stop><stop offset="1" stop-color="#a354c7"></stop></linearGradient><linearGradient id="gradient-4f83d8-135982273" x2="0" y2="1"><stop offset="0" stop-color="#4e88e6"></stop><stop offset="1" stop-color="#4f7eca"></stop></linearGradient><linearGradient id="gradient-40ae79-389135447" x2="0" y2="1"><stop offset="0" stop-color="#3bc482"></stop><stop offset="1" stop-color="#449870"></stop></linearGradient></defs><g id="ro_1413uvlf1njm7-fill" stroke="none" fill="url(#gradient-40ae79-389135447)"><g><path d="M 22 10L 238 10C 238 10 250 10 250 22L 250 52C 250 52 250 64 238 64L 22 64C 22 64 10 64 10 52L 10 22C 10 22 10 10 22 10"></path></g></g></g><g id="g-root-cu_qvw3ddf1qeby-fill" data-item-order="0" transform="translate(285, 399)"></g><g id="g-root-cu_18mjms1f1qf4e-fill" data-item-order="0" transform="translate(303, 150)"></g><g id="g-root-cu_vbplhtf1qebl-fill" data-item-order="0" transform="translate(285, 399)"></g><g id="g-root-cu_1hi6n0xf1qebk-fill" data-item-order="0" transform="translate(519, 150)"></g><g id="g-root-tx_bot_i0vk7lf1oyki-fill" data-item-order="0" transform="translate(207, 189)"><g id="tx_bot_i0vk7lf1oyki-fill" stroke="none" fill="#f4f4f4"><g><text style="font: 20px Roboto, sans-serif; white-space: pre;" font-size="20px" font-family="Roboto, sans-serif"><tspan x="15.05" y="34" dominant-baseline="ideographic">BOT</tspan></text></g></g></g><g id="g-root-cu_mg2l8xf1qf4b-fill" data-item-order="0" transform="translate(261, 177)"></g><g id="g-root-cu_i0vk7lf1qcqu-fill" data-item-order="0" transform="translate(261, 177)"></g><g id="g-root-cu_i0vk7lf1qcqw-fill" data-item-order="0" transform="translate(261, 177)"></g><g id="g-root-cu_147clqpf1qcqx-fill" data-item-order="0" transform="translate(591, 177)"></g><g id="g-root-cu_zrj3m9f1qdj8-fill" data-item-order="0" transform="translate(591, 177)"></g><g id="g-root-tx_vaitrchn_vbplhtf1p05c-fill" data-item-order="0" transform="translate(309, 411)"><g id="tx_vaitrchn_vbplhtf1p05c-fill" stroke="none" fill="#f4f4f4"><g><text style="font: 20px Roboto, sans-serif; white-space: pre;" font-size="20px" font-family="Roboto, sans-serif"><tspan x="13.34" y="34" dominant-baseline="ideographic">Vai trò chính trong FDI</tspan></text></g></g></g><g id="g-root-tx_uttrctip_1d2d4whf1p0xy-fill" data-item-order="0" transform="translate(615, 189)"><g id="tx_uttrctip_1d2d4whf1p0xy-fill" stroke="none" fill="#f4f4f4"><g><text style="font: 20px Roboto, sans-serif; white-space: pre;" font-size="20px" font-family="Roboto, sans-serif"><tspan x="14.2" y="34" dominant-baseline="ideographic">Đầu tư trực tiếp nước ngoài (FDI)</tspan></text></g></g></g><g id="g-root-tx_bt_958jypf1ozd7-fill" data-item-order="0" transform="translate(219, 225)"><g id="tx_bt_958jypf1ozd7-fill" stroke="none" fill="#f4f4f4"><g><text style="font: 20px Roboto, sans-serif; white-space: pre;" font-size="20px" font-family="Roboto, sans-serif"><tspan x="15.93" y="34" dominant-baseline="ideographic">BT</tspan></text></g></g></g><g id="g-root-tx_qunlut_mg2l8xf1p0y1-fill" data-item-order="0" transform="translate(309, 447)"><g id="tx_qunlut_mg2l8xf1p0y1-fill" stroke="none" fill="#f4f4f4"><g><text style="font: 20px Roboto, sans-serif; white-space: pre;" font-size="20px" font-family="Roboto, sans-serif"><tspan x="17.65" y="34" dominant-baseline="ideographic">Quản lý đầu tư</tspan></text></g></g></g><g id="g-root-tx_phttrink_147clqpf1oykv-fill" data-item-order="0" transform="translate(615, 225)"><g id="tx_phttrink_147clqpf1oykv-fill" stroke="none" fill="#f4f4f4"><g><text style="font: 20px Roboto, sans-serif; white-space: pre;" font-size="20px" font-family="Roboto, sans-serif"><tspan x="13.01" y="34" dominant-baseline="ideographic">Phát triển kinh tế</tspan></text></g></g></g><g id="g-root-tx_nguyntcc_4pf1u9f1p05g-fill" data-item-order="0" transform="translate(39, 261)"><g id="tx_nguyntcc_4pf1u9f1p05g-fill" stroke="none" fill="#f4f4f4"><g><text style="font: 20px Roboto, sans-serif; white-space: pre;" font-size="20px" font-family="Roboto, sans-serif"><tspan x="16.97" y="34" dominant-baseline="ideographic">Nguyên tắc cùng có lợi</tspan></text></g></g></g><g id="g-root-cu_18mjms1f1qf4b-fill" data-item-order="0" transform="translate(435, 309)"></g><g id="g-root-tx_xuhngutt_dl2235f1qdj6-fill" data-item-order="0" transform="translate(405, 45)"><g id="tx_xuhngutt_dl2235f1qdj6-fill" stroke="none" fill="#f4f4f4"><g><text style="font: 15px Roboto, sans-serif; white-space: pre;" font-size="15px" font-family="Roboto, sans-serif"><tspan x="13.45" y="31" dominant-baseline="ideographic">Xuất khẩu tư bản</tspan></text></g></g></g><g id="g-root-circ_1qdtn9tf1qcr2-fill" data-item-order="4000000000" transform="translate(261, 135)"></g><g id="g-root-char_1hbxw5tf1nl72-fill" data-item-order="4000000000" transform="translate(579, 135)"></g><g id="g-root-glob_1463nkhf1ks97-fill" data-item-order="4000000000" transform="translate(411, 159)"></g><g id="g-root-tx_ccncphtt_1uneej5f1njm5-fill" data-item-order="4000000000" transform="translate(615, 138)"><g id="tx_ccncphtt_1uneej5f1njm5-fill" stroke="none" fill="#dffff0"><g><text style="font: 20px Roboto, sans-serif; white-space: pre;" font-size="20px" font-family="Roboto, sans-serif"><tspan x="12.96" y="34" dominant-baseline="ideographic">Các nước phát triển</tspan></text></g></g></g><g id="g-root-tx_lunchuyn_1use781f1ks96-fill" data-item-order="4000000000" transform="translate(375, 213)"><g id="tx_lunchuyn_1use781f1ks96-fill" stroke="none" fill="#f4f4f4"><g><text style="font: 20px Roboto, sans-serif; white-space: pre;" font-size="20px" font-family="Roboto, sans-serif"><tspan x="12.78" y="34" dominant-baseline="ideographic">Luân chuyển </tspan><tspan x="17.88" y="58" dominant-baseline="ideographic">tư bản toàn </tspan><tspan x="52.53" y="82" dominant-baseline="ideographic">cầu</tspan></text></g></g></g><g id="g-root-tx_cchnhthc_7q4ghf1qfb9-fill" data-item-order="4000000000" transform="translate(27, 138)"><g id="tx_cchnhthc_7q4ghf1qfb9-fill" stroke="none" fill="#ebf2ff"><g><text style="font: 20px Roboto, sans-serif; white-space: pre;" font-size="20px" font-family="Roboto, sans-serif"><tspan x="11.89" y="34" dominant-baseline="ideographic">Các hình thức đầu tư mới</tspan></text></g></g></g><g id="g-root-carb_qnrx8xf1p0ch-fill" data-item-order="4000000000" transform="translate(273, 357)"></g><g id="g-root-tx_cngtyxuy_v3lfddf1ozk8-fill" data-item-order="4000000000" transform="translate(309, 360)"><g id="tx_cngtyxuy_v3lfddf1ozk8-fill" stroke="none" fill="#faeeff"><g><text style="font: 20px Roboto, sans-serif; white-space: pre;" font-size="20px" font-family="Roboto, sans-serif"><tspan x="16.98" y="34" dominant-baseline="ideographic">Công ty xuyên quốc gia (TNCs)</tspan></text></g></g></g><g id="g-root-ro_qv9ma9f1kqoc-stroke" data-item-order="-29232" transform="translate(351, 135)"><g id="ro_qv9ma9f1kqoc-stroke" fill="none" stroke-linecap="round" stroke-linejoin="round" stroke-miterlimit="4" stroke="#f4f4f4" stroke-width="2"><g><path d="M 34 10L 154 10C 154 10 178 10 178 34L 178 160C 178 160 178 184 154 184L 34 184C 34 184 10 184 10 160L 10 34C 10 34 10 10 34 10"></path></g></g></g><g id="g-root-ro_hs4x01f1p156-stroke" data-item-order="-18792" transform="translate(261, 345)"><g id="ro_hs4x01f1p156-stroke" fill="none" stroke-linecap="round" stroke-linejoin="round" stroke-miterlimit="4" stroke="#f4f4f4" stroke-width="2"><g><path d="M 22 10L 346 10C 346 10 358 10 358 22L 358 52C 358 52 358 64 346 64L 22 64C 22 64 10 64 10 52L 10 22C 10 22 10 10 22 10"></path></g></g></g><g id="g-root-ro_1ly055df1qdjb-stroke" data-item-order="-15552" transform="translate(15, 123)"><g id="ro_1ly055df1qdjb-stroke" fill="none" stroke-linecap="round" stroke-linejoin="round" stroke-miterlimit="4" stroke="#f4f4f4" stroke-width="2"><g><path d="M 22 10L 286 10C 286 10 298 10 298 22L 298 52C 298 52 298 64 286 64L 22 64C 22 64 10 64 10 52L 10 22C 10 22 10 10 22 10"></path></g></g></g><g id="g-root-ro_1413uvlf1njm7-stroke" data-item-order="-12960" transform="translate(567, 123)"><g id="ro_1413uvlf1njm7-stroke" fill="none" stroke-linecap="round" stroke-linejoin="round" stroke-miterlimit="4" stroke="#f4f4f4" stroke-width="2"><g><path d="M 22 10L 238 10C 238 10 250 10 250 22L 250 52C 250 52 250 64 238 64L 22 64C 22 64 10 64 10 52L 10 22C 10 22 10 10 22 10"></path></g></g></g><g id="g-root-cu_qvw3ddf1qeby-stroke" data-item-order="0" transform="translate(285, 399)"><g id="cu_qvw3ddf1qeby-stroke" fill="none" stroke-linecap="round" stroke-linejoin="round" stroke-miterlimit="4" stroke="#ababab" stroke-width="2" stroke-dasharray="5.0, 7.0"><g><path d="M 10 10L 10 22L 10 34L 19 34L 28 34"></path></g></g></g><g id="g-root-cu_18mjms1f1qf4e-stroke" data-item-order="0" transform="translate(303, 150)"><g id="cu_18mjms1f1qf4e-stroke" fill="none" stroke-linecap="round" stroke-linejoin="round" stroke-miterlimit="4" stroke="#ababab" stroke-width="2" stroke-dasharray="5.0, 7.0"><g><path d="M 58 53L 55 53L 54.9 53C 43.357252 53.000001 34.000002 43.642752 34.000002 32.1L 34 32L 34 30.9C 33.999998 19.357248 24.64275 10 13.1 10L 13 10L 10 10"></path></g></g></g><g id="g-root-cu_vbplhtf1qebl-stroke" data-item-order="0" transform="translate(285, 399)"><g id="cu_vbplhtf1qebl-stroke" fill="none" stroke-linecap="round" stroke-linejoin="round" stroke-miterlimit="4" stroke="#ababab" stroke-width="2" stroke-dasharray="5.0, 7.0"><g><path d="M 10 10L 10 17.5L 10 58C 10.000002 64.627417 15.372585 70 22.000002 69.999999L 22.1 70L 28 70"></path></g></g></g><g id="g-root-cu_1hi6n0xf1qebk-stroke" data-item-order="0" transform="translate(519, 150)"><g id="cu_1hi6n0xf1qebk-stroke" fill="none" stroke-linecap="round" stroke-linejoin="round" stroke-miterlimit="4" stroke="#ababab" stroke-width="2" stroke-dasharray="5.0, 7.0"><g><path d="M 10 53L 13 53L 13.1 53C 24.642753 52.999998 34.000001 43.642749 34 32.099998L 34 32L 34 30.9C 33.999999 19.357249 43.357248 10.000001 54.899999 10.000002L 55 10L 58 10"></path></g></g></g><g id="g-root-tx_bot_i0vk7lf1oyki-stroke" data-item-order="0" transform="translate(207, 189)"></g><g id="g-root-cu_mg2l8xf1qf4b-stroke" data-item-order="0" transform="translate(261, 177)"><g id="cu_mg2l8xf1qf4b-stroke" fill="none" stroke-linecap="round" stroke-linejoin="round" stroke-miterlimit="4" stroke="#ababab" stroke-width="2" stroke-dasharray="5.0, 7.0"><g><path d="M 28 10L 28 22L 28 34L 19 34L 10 34"></path></g></g></g><g id="g-root-cu_i0vk7lf1qcqu-stroke" data-item-order="0" transform="translate(261, 177)"><g id="cu_i0vk7lf1qcqu-stroke" fill="none" stroke-linecap="round" stroke-linejoin="round" stroke-miterlimit="4" stroke="#ababab" stroke-width="2" stroke-dasharray="5.0, 7.0"><g><path d="M 28 10L 28 40L 28 70L 19 70L 10 70"></path></g></g></g><g id="g-root-cu_i0vk7lf1qcqw-stroke" data-item-order="0" transform="translate(261, 177)"><g id="cu_i0vk7lf1qcqw-stroke" fill="none" stroke-linecap="round" stroke-linejoin="round" stroke-miterlimit="4" stroke="#ababab" stroke-width="2" stroke-dasharray="5.0, 7.0"><g><path d="M 28 10L 28 22L 28 94C 28.000002 100.627415 22.627419 105.999998 16.000002 105.999998L 15.9 106L 10 106"></path></g></g></g><g id="g-root-cu_147clqpf1qcqx-stroke" data-item-order="0" transform="translate(591, 177)"><g id="cu_147clqpf1qcqx-stroke" fill="none" stroke-linecap="round" stroke-linejoin="round" stroke-miterlimit="4" stroke="#ababab" stroke-width="2" stroke-dasharray="5.0, 7.0"><g><path d="M 10 10L 10 22L 10 34L 19 34L 28 34"></path></g></g></g><g id="g-root-cu_zrj3m9f1qdj8-stroke" data-item-order="0" transform="translate(591, 177)"><g id="cu_zrj3m9f1qdj8-stroke" fill="none" stroke-linecap="round" stroke-linejoin="round" stroke-miterlimit="4" stroke="#ababab" stroke-width="2" stroke-dasharray="5.0, 7.0"><g><path d="M 10 10L 10 17.5L 10 58C 10.000002 64.627417 15.372585 70 22.000002 69.999999L 22.1 70L 28 70"></path></g></g></g><g id="g-root-tx_vaitrchn_vbplhtf1p05c-stroke" data-item-order="0" transform="translate(309, 411)"></g><g id="g-root-tx_uttrctip_1d2d4whf1p0xy-stroke" data-item-order="0" transform="translate(615, 189)"></g><g id="g-root-tx_bt_958jypf1ozd7-stroke" data-item-order="0" transform="translate(219, 225)"></g><g id="g-root-tx_qunlut_mg2l8xf1p0y1-stroke" data-item-order="0" transform="translate(309, 447)"></g><g id="g-root-tx_phttrink_147clqpf1oykv-stroke" data-item-order="0" transform="translate(615, 225)"></g><g id="g-root-tx_nguyntcc_4pf1u9f1p05g-stroke" data-item-order="0" transform="translate(39, 261)"></g><g id="g-root-cu_18mjms1f1qf4b-stroke" data-item-order="0" transform="translate(435, 309)"><g id="cu_18mjms1f1qf4b-stroke" fill="none" stroke-linecap="round" stroke-linejoin="round" stroke-miterlimit="4" stroke="#ababab" stroke-width="2" stroke-dasharray="5.0, 7.0"><g><path d="M 10 10L 10 28L 10 46"></path></g></g></g><g id="g-root-tx_xuhngutt_dl2235f1qdj6-stroke" data-item-order="0" transform="translate(405, 45)"></g><g id="g-root-circ_1qdtn9tf1qcr2-stroke" data-item-order="4000000000" transform="translate(261, 135)"><g id="circ_1qdtn9tf1qcr2-stroke" fill="none" stroke-linecap="round" stroke-linejoin="round" stroke-miterlimit="4" stroke="#ebf2ff" stroke-width="2"><g><path d="M 16.873751 29.375L 16.873751 21.875L 20.623749 29.375L 20.623749 21.875M 26.900002 29.375L 24.400002 29.375C 23.709644 29.375 23.150002 28.815357 23.150002 28.125L 23.150002 23.125C 23.150002 22.434643 23.709644 21.875 24.400002 21.875L 26.900002 21.875M 23.150002 25.625L 25.650002 25.625M 34.375 21.875L 34.375 24.08C 34.37458 25.918053 33.94664 27.730814 33.125 29.375L 31.875 24.375L 30.625 29.375C 29.802797 27.73102 29.374825 25.918121 29.375 24.08L 29.375 21.875M 10.625 25C 10.625 32.939095 17.060907 39.375 25 39.375C 32.939095 39.375 39.375 32.939095 39.375 25C 39.375 17.060907 32.939095 10.625 25 10.625C 17.060907 10.625 10.625 17.060907 10.625 25Z"></path></g></g></g><g id="g-root-char_1hbxw5tf1nl72-stroke" data-item-order="4000000000" transform="translate(579, 135)"><g id="char_1hbxw5tf1nl72-stroke" fill="none" stroke-linecap="round" stroke-linejoin="round" stroke-miterlimit="4" stroke="#dffff0" stroke-width="2"><g><path d="M 10.9375 23.592499L 39.0625 23.592499M 10.9375 30.155001L 39.0625 30.155001M 10.9375 36.717499L 39.0625 36.717499M 10 10M 10.9375 23.592499L 18.4375 17.592474C 18.996851 17.14485 19.672726 16.866814 20.385149 16.791275C 21.097563 16.715738 21.816713 16.84585 22.4575 17.166225L 27.539999 19.707474C 28.180626 20.028013 28.89975 20.158337 29.612125 20.083012C 30.324627 20.0077 31.0005 19.7299 31.559999 19.282475L 39.059998 13.282475M 20.3125 16.7987L 20.3125 36.717499M 10 10M 10.9375 23.592499L 10.9375 36.717499M 10 10M 39.0625 13.282475L 39.0625 36.717499M 29.6875 20.072638L 29.6875 36.717625"></path></g></g></g><g id="g-root-glob_1463nkhf1ks97-stroke" data-item-order="4000000000" transform="translate(411, 159)"><g id="glob_1463nkhf1ks97-stroke" fill="none" stroke-linecap="round" stroke-linejoin="round" stroke-miterlimit="4" stroke="#f4f4f4" stroke-width="2"><g><path d="M 33.5 56.5C 21.073593 56.5 11.000001 46.426407 11.000001 34C 11.000001 21.573593 21.073593 11.500001 33.5 11.500001M 12.296 26.5L 32 26.5M 12.304 41.5L 32 41.5M 33.5 56.5C 27.700001 56.5 23 46.425999 23 34C 23 21.574001 27.702 11.5 33.5 11.5M 35 29.702L 57 29.702M 35 23.702L 57 23.702M 40 50.702L 40 16.702L 44 16.702C 49.522846 16.702 54 21.179153 54 26.702C 54 32.224846 49.522846 36.702 44 36.702L 40 36.702"></path></g></g></g><g id="g-root-tx_ccncphtt_1uneej5f1njm5-stroke" data-item-order="4000000000" transform="translate(615, 138)"></g><g id="g-root-tx_lunchuyn_1use781f1ks96-stroke" data-item-order="4000000000" transform="translate(375, 213)"></g><g id="g-root-tx_cchnhthc_7q4ghf1qfb9-stroke" data-item-order="4000000000" transform="translate(27, 138)"></g><g id="g-root-carb_qnrx8xf1p0ch-stroke" data-item-order="4000000000" transform="translate(273, 357)"><g id="carb_qnrx8xf1p0ch-stroke" fill="none" stroke-linecap="round" stroke-linejoin="round" stroke-miterlimit="4" stroke="#faeeff" stroke-width="2"><g><path d="M 11.875 10.625L 38.125 10.625C 38.125 10.625 39.375 10.625 39.375 11.875L 39.375 38.125C 39.375 38.125 39.375 39.375 38.125 39.375L 11.875 39.375C 11.875 39.375 10.625 39.375 10.625 38.125L 10.625 11.875C 10.625 11.875 10.625 10.625 11.875 10.625M 18.75 33.75L 31.25 33.75M 27.8125 21.25C 27.42625 20.158751 26.224998 19.375 25 19.375C 23.446699 19.375 22.1875 20.634199 22.1875 22.1875L 22.1875 27.8125C 22.1875 29.365801 23.446699 30.625 25 30.625C 26.224998 30.625 27.42625 29.842499 27.8125 28.75"></path></g></g></g><g id="g-root-tx_cngtyxuy_v3lfddf1ozk8-stroke" data-item-order="4000000000" transform="translate(309, 360)"></g></g></g></svg>