<?xml version="1.0" encoding="utf-8" standalone="yes"?>
<!DOCTYPE svg PUBLIC "-//W3C//DTD SVG 1.1//EN" "http://www.w3.org/Graphics/SVG/1.1/DTD/svg11.dtd">
<svg width="530" height="878" viewBox="0 0 530 878" style="fill:none;stroke:none;fill-rule:evenodd;clip-rule:evenodd;stroke-linecap:round;stroke-linejoin:round;stroke-miterlimit:1.5;" version="1.1" xmlns="http://www.w3.org/2000/svg" xmlns:xlink="http://www.w3.org/1999/xlink"><style class="text-font-style fontImports" data-font-family="Roboto">@import url('https://fonts.googleapis.com/css2?family=Roboto:wght@400;700&amp;display=block');</style><g id="items" style="isolation: isolate"><g id="blend" style="mix-blend-mode: normal"><g id="g-root-di_1qd8bapflo7b8-fill" data-item-order="-46083" transform="translate(52.9976806640625, 450.998046875)"><g id="di_1qd8bapflo7b8-fill" stroke="none" fill="#de8431"><g><path d="M 10 106.000488L 130 202.010488L 250 106.000488L 130 10.000488Z"></path></g></g></g><g id="g-root-ro_940qwhflsemi-fill" data-item-order="-21600" transform="translate(277, 699)"><g id="ro_940qwhflsemi-fill" stroke="none" fill="#1eabda"><g><path d="M 22 10L 178 10C 178 10 190 10 190 22L 190 118C 190 118 190 130 178 130L 22 130C 22 130 10 130 10 118L 10 22C 10 22 10 10 22 10"></path></g></g></g><g id="g-root-ro_4nkroxflo5xe-fill" data-item-order="-21600" transform="translate(83, 275)"><g id="ro_4nkroxflo5xe-fill" stroke="none" fill="#1eabda"><g><path d="M 22 10L 178 10C 178 10 190 10 190 22L 190 118C 190 118 190 130 178 130L 22 130C 22 130 10 130 10 118L 10 22C 10 22 10 10 22 10"></path></g></g></g><g id="g-root-ro_hyesz5flqy9z-fill" data-item-order="-20160" transform="translate(89, 699)"><g id="ro_hyesz5flqy9z-fill" stroke="none" fill="#1eabda"><g><path d="M 22 10L 166 10C 166 10 178 10 178 22L 178 118C 178 118 178 130 166 130L 22 130C 22 130 10 130 10 118L 10 22C 10 22 10 10 22 10"></path></g></g></g><g id="g-root-ro_1cw5j5dflmqrr-fill" data-item-order="-12096" transform="translate(89, 147)"><g id="ro_1cw5j5dflmqrr-fill" stroke="none" fill="#a3a3a3"><g><path d="M 22 10L 166 10C 166 10 178 10 178 22L 178 70C 178 70 178 82 166 82L 22 82C 22 82 10 82 10 70L 10 22C 10 22 10 10 22 10"></path></g></g></g><g id="g-root-tx_yes_mgq7g1flsf7o-fill" data-item-order="0" transform="translate(185, 643)"><g id="tx_yes_mgq7g1flsf7o-fill" stroke="none" fill="#484848"><g><text style="font: 15px Roboto, sans-serif; white-space: pre;" font-size="15px" font-family="Roboto, sans-serif"><tspan x="12" y="31" dominant-baseline="ideographic">Yes</tspan></text></g></g></g><g id="g-root-tx_quanhquy_1q6d3chfltr7t-fill" data-item-order="0" transform="translate(87, 57)"><g id="tx_quanhquy_1q6d3chfltr7t-fill" stroke="none" fill="#484848"><g><text style="font: 15px Roboto, sans-serif; white-space: pre;" font-size="15px" font-family="Roboto, sans-serif"><tspan x="13.11" y="31" dominant-baseline="ideographic">Quan hệ quyền lực trong hệ thống chính trị kinh tế</tspan></text></g></g></g><g id="g-root-tx_no_qwjpkhflseff-fill" data-item-order="0" transform="translate(293, 559)"><g id="tx_no_qwjpkhflseff-fill" stroke="none" fill="#484848"><g><text style="font: 15px Roboto, sans-serif; white-space: pre;" font-size="15px" font-family="Roboto, sans-serif"><tspan x="12" y="31" dominant-baseline="ideographic">No</tspan></text></g></g></g><g id="g-root-cu_dbq2whfltrf1-fill" data-item-order="2" transform="translate(173, 219)"></g><g id="g-root-cu_8vwks1flts7c-fill" data-item-order="2" transform="translate(173, 395)"></g><g id="g-root-cu_1ulk4dtflttla-fill" data-item-order="2" transform="translate(293.00238037109375, 547.001953125)"></g><g id="g-root-cu_4g32nlfltszn-fill" data-item-order="2" transform="translate(173, 643.005859375)"></g><g id="g-root-gath_93e9tdflo555-fill" data-item-order="3999999100" transform="translate(95, 320)"><g id="gath_93e9tdflo555-fill" stroke="none" fill="#484848"><g><path d="M 21.575001 20.2125C 22.055443 19.767208 22.682579 19.513685 23.3375 19.5C 24.064276 19.498304 24.753088 19.824341 25.2125 20.387499L 25.887501 21.3375L 27.212502 20.4125C 27.633154 20.027662 28.179953 19.809832 28.75 19.799999C 29.383333 19.799 29.990833 20.051001 30.4375 20.5L 31.424999 21.475C 30.799999 20.225 30 18.75 29.3375 17.625C 29.006725 16.999424 28.497738 16.486086 27.875 16.15L 27.875 10.3125L 22.3125 10.3625L 22.3125 15.9875C 20.647081 16.475412 19.502079 18.002083 19.5 19.737501L 19.5 22.3375ZM 22.15 32.287498C 22.263054 31.457874 22.783916 30.739927 23.5375 30.375L 21.25 28.112499C 20.77109 27.616455 20.518311 26.944641 20.551445 26.255934C 20.584579 25.567225 20.900682 24.922779 21.425001 24.475L 24.875 22.0625L 24.199999 21.1C 23.720558 20.655354 22.979443 20.655354 22.5 21.1L 18.15 25.487501L 18.3375 23.75C 18.412674 23.047331 17.92317 22.409325 17.225 22.299999C 16.588181 22.178265 15.96399 22.563633 15.7875 23.1875C 15.325001 24.6 14.625 27.137501 14.15 28.8125C 13.941038 29.488384 13.941038 30.211617 14.15 30.887499L 10 35.0625L 13.975 38.962502L 17.975 35C 19.496056 35.835579 21.38625 35.565552 22.612499 34.337498L 22.6875 34.262501C 22.234694 33.71104 22.039106 32.992371 22.15 32.287498ZM 36.037498 31.724998C 36.868771 30.203161 36.599133 28.315712 35.375 27.087502L 29.6 21.387499C 29.152525 20.94755 28.434975 20.94755 27.987501 21.387499L 22.137501 25.5C 21.692852 25.979441 21.692852 26.720558 22.137501 27.200001L 26.537498 31.525L 24.862501 31.3375C 24.155659 31.26289 23.515858 31.759285 23.412498 32.462498C 23.290764 33.099319 23.676132 33.723511 24.299999 33.900002C 25.7125 34.362499 28.25 35.0625 29.9125 35.525002C 30.588383 35.733963 31.311615 35.733963 31.987499 35.525002L 36.112499 39.649998L 40 35.712502Z"></path></g></g></g><g id="g-root-conf_1hbck6pflmt5a-fill" data-item-order="3999999100" transform="translate(101, 168)"><g id="conf_1hbck6pflmt5a-fill" stroke="none" fill="#484848"><g><path d="M 10 10M 28.827499 13.32125L 29.2225 12.86625L 30.395 14.216249C 30.885 14.778749 31.606251 15.059999 32.400002 14.87625L 34.146248 14.4725L 34.150002 14.54375C 34.1875 15.15125 34.23 15.85625 34.341248 16.4925C 34.451252 17.125 34.87875 17.68 35.486252 17.936251L 37.208752 18.6675L 36.2425 20.27375C 35.876438 20.884014 35.876919 21.646446 36.243748 22.256248L 37.208752 23.86125C 36.593128 24.147697 36.318756 24.873201 36.590771 25.495335C 36.862785 26.117466 37.581696 26.408682 38.209999 26.151249L 38.78875 25.90625L 38.791252 25.90625C 39.304985 25.687096 39.698681 25.256262 39.870766 24.724905C 40.042854 24.19355 39.976471 23.613714 39.688747 23.134998L 39.686249 23.13125L 38.564999 21.26375L 39.690002 19.393749C 39.977131 18.91481 40.0429 18.33503 39.870346 17.803944C 39.697792 17.272856 39.303802 16.842457 38.789997 16.623749L 36.7575 15.76125C 36.7075 15.37125 36.682503 14.98375 36.657501 14.55375L 36.657501 14.5525C 36.639999 14.283751 36.623749 14 36.5975 13.68875C 36.55719 13.165369 36.320007 12.676717 35.93375 12.32125C 35.476456 11.904858 34.843048 11.741127 34.241253 11.88375L 32.108749 12.3775L 30.678749 10.73L 30.678749 10.72875C 30.31255 10.308506 29.782635 10.06698 29.225225 10.066262C 28.667816 10.065543 28.13728 10.305701 27.769999 10.725L 26.938749 11.68125C 26.485878 12.202469 26.541283 12.992126 27.0625 13.445C 27.583719 13.897874 28.373377 13.842469 28.826252 13.32125ZM 21.1675 36.68375L 20.772499 37.138752L 19.598749 35.78875C 19.110836 35.205425 18.33387 34.949989 17.595001 35.130001L 15.84875 35.533749L 15.84375 35.462502C 15.80625 34.855 15.76375 34.150002 15.653749 33.512501C 15.540434 32.868748 15.10977 32.325718 14.50875 32.068752L 14.5075 32.068752L 12.78625 31.3375L 13.75 29.731251C 14.115945 29.121527 14.115945 28.359722 13.75 27.75L 12.785 26.145C 13.417582 25.86809 13.705968 25.130846 13.429171 24.498215C 13.152372 23.865583 12.415181 23.577065 11.7825 23.85375L 11.20375 24.1L 11.2025 24.1C 10.688911 24.318954 10.295211 24.749458 10.122904 25.280518C 9.950597 25.811579 10.016547 26.39122 10.30375 26.869999L 10.30625 26.873749L 11.42875 28.741249L 10.30375 30.612499C 10.016547 31.091278 9.950597 31.670918 10.122904 32.201981C 10.295211 32.73304 10.688911 33.163544 11.2025 33.3825L 11.20375 33.3825L 13.235 34.244999C 13.2875 34.633751 13.31 35.022499 13.33625 35.452499C 13.3525 35.721249 13.37 36.006248 13.395 36.317501C 13.43625 36.813751 13.655 37.317501 14.059999 37.685001C 14.4925 38.076252 15.10375 38.27 15.752501 38.12125L 17.883751 37.62875L 19.31625 39.276249C 20.078751 40.15625 21.4575 40.158752 22.221251 39.28125L 23.0525 38.325001C 23.505375 37.80378 23.44997 37.014126 22.928751 36.561249C 22.407532 36.108376 21.617874 36.163784 21.165001 36.685001ZM 12.9925 21.14625L 11.8375 18.68L 10.5175 17.334999L 16.63625 10.1025L 17.72875 11.05875L 19.52125 10.845C 20.350353 10.733472 21.193439 10.790442 22 11.0125C 22.808817 11.234571 23.564659 11.617169 24.2225 12.1375L 24.891251 12.66875C 25.990631 13.532566 26.426336 14.995432 25.97875 16.32L 23.85375 14.645C 23.617441 14.458142 23.291851 14.431996 23.028751 14.578751C 22.856422 14.676889 22.730425 14.839787 22.678751 15.03125C 22.597145 15.323657 22.697996 15.636539 22.934999 15.82625L 26.6425 18.84375C 27.031008 19.151731 27.28142 19.601301 27.338749 20.09375C 27.396461 20.584894 27.259115 21.079071 26.956249 21.469999L 21.581251 26.703751C 21.279049 27.09203 20.834623 27.343929 20.346251 27.403751C 19.857767 27.4618 19.366432 27.321289 18.9825 27.01375L 15.403749 24.195C 14.367782 23.386292 13.541612 22.340181 12.995 21.145ZM 38.5425 31.083752L 37.352501 28.633749C 36.79068 27.445709 35.951218 26.410311 34.905003 25.615002L 31.289999 22.84375C 30.901182 22.543091 30.408703 22.409513 29.921249 22.4725C 29.433495 22.536734 28.99205 22.794392 28.696249 23.1875L 23.38875 28.49C 23.089188 28.884472 22.958368 29.38168 23.025002 29.872501C 23.090342 30.363098 23.345762 30.808401 23.73625 31.112499L 27.4825 34.081249C 27.723581 34.266556 27.829182 34.578918 27.75 34.872501C 27.699408 35.064682 27.574965 35.229107 27.403749 35.330002C 27.143112 35.481686 26.816385 35.459408 26.578749 35.27375L 24.432499 33.626247C 24.001873 34.95676 24.456642 36.414227 25.567501 37.263752L 26.2425 37.787498C 27.58219 38.82127 29.2847 39.265736 30.95875 39.018749L 32.748749 38.78125L 33.853752 39.7225L 39.87875 32.411251L 38.541252 31.083752Z"></path></g></g></g><g id="g-root-1_mdlu0hflr0ni-fill" data-item-order="3999999100" transform="translate(101, 744)"><g id="1_mdlu0hflr0ni-fill" stroke="none" fill="#484848"><g><path d="M 21.25 26.487499C 21.323645 26.377886 21.323645 26.234612 21.249998 26.125C 21.162848 26.026218 21.026184 25.987171 20.9 26.025002C 20.38681 26.186777 19.841934 26.2211 19.3125 26.125C 20.650002 24.799999 20.012501 22.375 19.4 21.125C 19.352749 21.027178 19.258087 20.960915 19.15 20.950001C 19.042065 20.936274 18.935629 20.984653 18.875 21.074999L 16.049999 25L 15.4125 24.762501C 13.3 24.049999 11.9625 26.6875 11.9125 26.799999C 11.856191 26.892073 11.856191 27.007927 11.9125 27.1C 11.966568 27.193657 12.066859 27.250967 12.175 27.25L 13.875 27.25C 14.526252 28.383741 15.742732 29.073399 17.049999 29.049999C 18.807682 29.008957 20.409424 28.031704 21.25 26.487499ZM 19.6875 19.6875L 21.375 19.6875C 22.026251 20.821241 23.242731 21.510899 24.549999 21.487499C 26.310316 21.443932 27.912676 20.461533 28.75 18.9125C 28.831255 18.805326 28.831255 18.657173 28.749998 18.549999C 28.668758 18.450451 28.534861 18.410778 28.412498 18.450001C 27.900389 18.617495 27.35408 18.651907 26.824999 18.549999C 28.1625 17.299999 27.525002 14.8 26.9125 13.6125C 26.86525 13.514678 26.770588 13.448414 26.6625 13.4375C 26.554565 13.423773 26.448128 13.472154 26.387499 13.5625L 23.549999 17.5L 22.9125 17.262501C 20.800001 16.5 19.4625 19.125 19.4125 19.237499C 19.35619 19.329573 19.35619 19.445427 19.4125 19.5375C 19.463949 19.639923 19.57353 19.699696 19.6875 19.6875ZM 38.049999 15.425C 37.968758 15.32545 37.834862 15.285777 37.712502 15.325001C 37.20039 15.492495 36.654079 15.526907 36.125 15.424999C 37.462498 14.175 36.824997 11.675 36.212498 10.4875C 36.165249 10.389678 36.070587 10.323414 35.962502 10.3125C 35.854565 10.298773 35.748131 10.347154 35.6875 10.4375L 32.924999 14.3125L 32.287498 14.075C 30.174999 13.375 28.8375 16 28.75 16.112499C 28.693691 16.204573 28.693691 16.320427 28.75 16.4125C 28.799702 16.510427 28.902897 16.569399 29.012501 16.5625L 30.75 16.5625C 31.401251 17.696241 32.617729 18.385899 33.924999 18.362499C 35.667236 18.301331 37.246555 17.321392 38.074997 15.787499C 38.149113 15.674788 38.138882 15.52647 38.049999 15.424999ZM 26.825001 32.112499C 26.898645 32.002888 26.898645 31.85961 26.824999 31.75C 26.737846 31.651218 26.601185 31.612171 26.475 31.65C 25.961811 31.811775 25.416935 31.8461 24.887501 31.750002C 26.224998 30.424999 25.5875 28 24.974998 26.8125C 24.92775 26.714678 24.833086 26.648413 24.725 26.637501C 24.616606 26.620583 24.508528 26.66971 24.449999 26.762501L 21.6875 30.637501L 21.049999 30.4C 18.924999 29.700001 17.5875 32.325001 17.5 32.5C 17.443691 32.592072 17.443691 32.707928 17.5 32.799999C 17.554068 32.893658 17.65436 32.950966 17.762499 32.949997L 19.5 32.950001C 20.151251 34.08374 21.367731 34.773399 22.674999 34.75C 24.43046 34.676239 26.012871 33.670551 26.825001 32.112499ZM 33.962502 36.650002C 33.44931 36.811779 32.904438 36.8461 32.375 36.75C 33.712498 35.424999 33.074997 33 32.462498 31.8125C 32.415249 31.714678 32.320587 31.648415 32.212502 31.637499C 32.104107 31.620583 31.996025 31.66971 31.9375 31.762501L 29.174999 35.637501L 28.5375 35.400002C 26.425001 34.6875 25.0875 37.325001 25.0375 37.4375C 24.98119 37.529572 24.98119 37.645424 25.0375 37.737499C 25.091568 37.831158 25.191858 37.888466 25.299999 37.887501L 27 37.887501C 27.651251 39.02124 28.867731 39.710899 30.174999 39.6875C 31.917238 39.626328 33.496559 38.646389 34.324997 37.112499C 34.398643 37.002884 34.398643 36.859612 34.324997 36.749996C 34.235649 36.646202 34.09243 36.606697 33.962502 36.650002Z"></path></g></g></g><g id="g-root-tx_thahipgi_me8b3lflo6q0-fill" data-item-order="4000000000" transform="translate(131, 287)"><g id="tx_thahipgi_me8b3lflo6q0-fill" stroke="none" fill="#ffffff"><g><text style="font: 20px Roboto, sans-serif; white-space: pre;" font-size="20px" font-family="Roboto, sans-serif"><tspan x="12" y="34" dominant-baseline="ideographic">Thỏa hiệp </tspan><tspan x="12" y="58" dominant-baseline="ideographic">giữa các thế </tspan><tspan x="12" y="82" dominant-baseline="ideographic">lực độc </tspan><tspan x="12" y="106" dominant-baseline="ideographic">quyền</tspan></text></g></g></g><g id="g-root-tx_quynlcth_1ut1tf5flo6iz-fill" data-item-order="4000000000" transform="translate(113.00006103515625, 499)"><g id="tx_quynlcth_1ut1tf5flo6iz-fill" stroke="none" fill="#ffffff"><g><text style="font: 20px Roboto, sans-serif; white-space: pre;" font-size="20px" font-family="Roboto, sans-serif"><tspan x="23.91" y="34" dominant-baseline="ideographic">Quyền lực </tspan><tspan x="13.79" y="58" dominant-baseline="ideographic">thuộc về thế </tspan><tspan x="28.55" y="82" dominant-baseline="ideographic">lực trung </tspan><tspan x="41.18" y="106" dominant-baseline="ideographic">dung?</tspan></text></g></g></g><g id="g-root-48px_hznr5dflsdtt-fill" data-item-order="4000000000" transform="translate(289, 744)"></g><g id="g-root-tx_thchangu_1umt2k1flmrkd-fill" data-item-order="4000000000" transform="translate(137, 159)"><g id="tx_thchangu_1umt2k1flmrkd-fill" stroke="none" fill="#ffffff"><g><text style="font: 20px Roboto, sans-serif; white-space: pre;" font-size="20px" font-family="Roboto, sans-serif"><tspan x="12" y="34" dominant-baseline="ideographic">Thể chế đa </tspan><tspan x="12" y="58" dominant-baseline="ideographic">nguyên</tspan></text></g></g></g><g id="g-root-tx_hthngkin_v98u9dflqzut-fill" data-item-order="4000000000" transform="translate(137, 711)"><g id="tx_hthngkin_v98u9dflqzut-fill" stroke="none" fill="#ffffff"><g><text style="font: 20px Roboto, sans-serif; white-space: pre;" font-size="20px" font-family="Roboto, sans-serif"><tspan x="12" y="34" dominant-baseline="ideographic">Hệ thống </tspan><tspan x="12" y="58" dominant-baseline="ideographic">kinh tế - </tspan><tspan x="12" y="82" dominant-baseline="ideographic">chính trị ôn </tspan><tspan x="12" y="106" dominant-baseline="ideographic">hòa hơn</tspan></text></g></g></g><g id="g-root-tx_hthngkin_vahsflflsfeo-fill" data-item-order="4000000000" transform="translate(325, 711)"><g id="tx_hthngkin_vahsflflsfeo-fill" stroke="none" fill="#ffffff"><g><text style="font: 20px Roboto, sans-serif; white-space: pre;" font-size="20px" font-family="Roboto, sans-serif"><tspan x="12" y="34" dominant-baseline="ideographic">Hệ thống </tspan><tspan x="12" y="58" dominant-baseline="ideographic">kinh tế - </tspan><tspan x="12" y="82" dominant-baseline="ideographic">chính trị cực </tspan><tspan x="12" y="106" dominant-baseline="ideographic">đoan hơn</tspan></text></g></g></g><g id="g-root-di_1qd8bapflo7b8-stroke" data-item-order="-46083" transform="translate(52.9976806640625, 450.998046875)"><g id="di_1qd8bapflo7b8-stroke" fill="none" stroke-linecap="round" stroke-linejoin="round" stroke-miterlimit="4" stroke="#ffffff" stroke-width="2"><g><path d="M 10 106.000488L 130 202.010488L 250 106.000488L 130 10.000488Z"></path></g></g></g><g id="g-root-ro_940qwhflsemi-stroke" data-item-order="-21600" transform="translate(277, 699)"><g id="ro_940qwhflsemi-stroke" fill="none" stroke-linecap="round" stroke-linejoin="round" stroke-miterlimit="4" stroke="#ffffff" stroke-width="2"><g><path d="M 22 10L 178 10C 178 10 190 10 190 22L 190 118C 190 118 190 130 178 130L 22 130C 22 130 10 130 10 118L 10 22C 10 22 10 10 22 10"></path></g></g></g><g id="g-root-ro_4nkroxflo5xe-stroke" data-item-order="-21600" transform="translate(83, 275)"><g id="ro_4nkroxflo5xe-stroke" fill="none" stroke-linecap="round" stroke-linejoin="round" stroke-miterlimit="4" stroke="#ffffff" stroke-width="2"><g><path d="M 22 10L 178 10C 178 10 190 10 190 22L 190 118C 190 118 190 130 178 130L 22 130C 22 130 10 130 10 118L 10 22C 10 22 10 10 22 10"></path></g></g></g><g id="g-root-ro_hyesz5flqy9z-stroke" data-item-order="-20160" transform="translate(89, 699)"><g id="ro_hyesz5flqy9z-stroke" fill="none" stroke-linecap="round" stroke-linejoin="round" stroke-miterlimit="4" stroke="#ffffff" stroke-width="2"><g><path d="M 22 10L 166 10C 166 10 178 10 178 22L 178 118C 178 118 178 130 166 130L 22 130C 22 130 10 130 10 118L 10 22C 10 22 10 10 22 10"></path></g></g></g><g id="g-root-ro_1cw5j5dflmqrr-stroke" data-item-order="-12096" transform="translate(89, 147)"><g id="ro_1cw5j5dflmqrr-stroke" fill="none" stroke-linecap="round" stroke-linejoin="round" stroke-miterlimit="4" stroke="#ffffff" stroke-width="2"><g><path d="M 22 10L 166 10C 166 10 178 10 178 22L 178 70C 178 70 178 82 166 82L 22 82C 22 82 10 82 10 70L 10 22C 10 22 10 10 22 10"></path></g></g></g><g id="g-root-tx_yes_mgq7g1flsf7o-stroke" data-item-order="0" transform="translate(185, 643)"></g><g id="g-root-tx_quanhquy_1q6d3chfltr7t-stroke" data-item-order="0" transform="translate(87, 57)"></g><g id="g-root-tx_no_qwjpkhflseff-stroke" data-item-order="0" transform="translate(293, 559)"></g><g id="g-root-cu_dbq2whfltrf1-stroke" data-item-order="2" transform="translate(173, 219)"><g id="cu_dbq2whfltrf1-stroke" fill="none" stroke-linecap="round" stroke-linejoin="round" stroke-miterlimit="4" stroke="#484848" stroke-width="2"><g><path d="M 10 10L 10 38L 10 64"></path><path d="M 3.5 58L 10 64.5L 16.5 58" stroke-dasharray="none"></path></g></g></g><g id="g-root-cu_8vwks1flts7c-stroke" data-item-order="2" transform="translate(173, 395)"><g id="cu_8vwks1flts7c-stroke" fill="none" stroke-linecap="round" stroke-linejoin="round" stroke-miterlimit="4" stroke="#484848" stroke-width="2"><g><path d="M 10 10L 10 38L 10 64"></path><path d="M 3.5 58L 10 64.5L 16.5 58" stroke-dasharray="none"></path></g></g></g><g id="g-root-cu_1ulk4dtflttla-stroke" data-item-order="2" transform="translate(293.00238037109375, 547.001953125)"><g id="cu_1ulk4dtflttla-stroke" fill="none" stroke-linecap="round" stroke-linejoin="round" stroke-miterlimit="4" stroke="#484848" stroke-width="2"><g><path d="M 10 9.999023L 47 9.999023L 84 9.999023L 84 85.999023L 84 159.999023"></path><path d="M 77.5 153.999023L 84 160.499023L 90.5 153.999023" stroke-dasharray="none"></path></g></g></g><g id="g-root-cu_4g32nlfltszn-stroke" data-item-order="2" transform="translate(173, 643.005859375)"><g id="cu_4g32nlfltszn-stroke" fill="none" stroke-linecap="round" stroke-linejoin="round" stroke-miterlimit="4" stroke="#484848" stroke-width="2"><g><path d="M 10 10L 10 38L 10 64"></path><path d="M 3.5 58L 10 64.5L 16.5 58" stroke-dasharray="none"></path></g></g></g><g id="g-root-gath_93e9tdflo555-stroke" data-item-order="3999999100" transform="translate(95, 320)"></g><g id="g-root-conf_1hbck6pflmt5a-stroke" data-item-order="3999999100" transform="translate(101, 168)"></g><g id="g-root-1_mdlu0hflr0ni-stroke" data-item-order="3999999100" transform="translate(101, 744)"></g><g id="g-root-tx_thahipgi_me8b3lflo6q0-stroke" data-item-order="4000000000" transform="translate(131, 287)"></g><g id="g-root-tx_quynlcth_1ut1tf5flo6iz-stroke" data-item-order="4000000000" transform="translate(113.00006103515625, 499)"></g><g id="g-root-48px_hznr5dflsdtt-stroke" data-item-order="4000000000" transform="translate(289, 744)"><g id="48px_hznr5dflsdtt-stroke" fill="none" stroke-linecap="round" stroke-linejoin="round" stroke-miterlimit="4" stroke="#ffffff" stroke-width="2"><g><path d="M 22.5005 25.4765C 22.521812 25.272501 22.553751 25.068501 22.596375 24.8645C 22.660313 24.476936 22.7775 24.140375 22.947937 23.85475C 23.139626 23.54875 23.384624 23.314188 23.682938 23.150999C 23.981188 22.987812 24.332687 22.875626 24.737499 22.814375C 25.163563 22.753187 25.589624 22.753187 26.015751 22.814375C 26.4205 22.875626 26.772062 22.987812 27.070313 23.150999C 27.389874 23.314188 27.634874 23.54875 27.805313 23.85475C 27.97575 24.140375 28.092937 24.476936 28.156813 24.8645C 28.199438 25.068501 28.231375 25.272501 28.252687 25.4765M 23.893187 28.963625C 23.66725 29.487375 23.441313 30.005438 23.215374 30.51775C 22.751625 31.553875 22.519751 32.083313 22.519751 32.106125C 22.507875 32.128876 22.501938 32.151627 22.501938 32.174438L 22.501938 32.242752L 22.57325 32.379375C 22.597063 32.390751 22.614876 32.407814 22.626812 32.430626L 22.698124 32.464748L 22.769501 32.464748L 22.805124 32.481876L 25.409313 32.481876L 24.785 34.531311L 24.178562 36.58075L 26.800562 34.189751C 28.560436 32.607063 29.446312 31.804375 29.458187 31.781626C 29.482 31.747437 29.499813 31.719 29.511749 31.696188C 29.523624 31.673439 29.529562 31.650688 29.529562 31.627874C 29.529562 31.59375 29.523624 31.565248 29.511749 31.5425C 29.511749 31.508373 29.499813 31.479876 29.476063 31.457127C 29.464188 31.422937 29.446312 31.400187 29.422562 31.388813C 29.410625 31.366001 29.392813 31.348936 29.368999 31.337563C 29.333374 31.326187 29.303625 31.320499 29.279875 31.320499L 29.226313 31.303375L 26.925438 31.303375L 27.549688 30.142061L 28.156126 28.963625M 20.865124 19.011749C 21.465063 19.011749 22.575001 19.698376 22.965 20.778313C 22.221062 20.538313 21.116062 20.583374 20.448439 21.108313M 29.867687 19.011749C 29.26775 19.011749 28.157812 19.698376 27.767813 20.778313C 28.511812 20.538313 29.616751 20.583374 30.284376 21.108313M 22.455 25.495125C 22.455 25.495125 23.807751 24.870125 25.317875 24.870125C 26.827938 24.870125 28.20475 25.456875 28.20475 25.456875M 24.460625 24.932249L 24.460625 22.866062M 26.281 24.942688L 26.281 22.863501M 38.364876 23.389812C 38.345062 23.200188 38.325314 23.010624 38.3055 22.821062C 38.265873 22.441875 38.19656 22.081625 38.097565 21.740376C 37.978813 21.380188 37.830311 21.048437 37.652126 20.745064C 37.454124 20.422749 37.226376 20.119436 36.968998 19.835062C 36.711624 19.53175 36.4245 19.266314 36.10775 19.038813C 35.810749 18.792376 35.484001 18.593313 35.127625 18.441626C 34.791061 18.271 34.444565 18.13825 34.088127 18.043501C 33.711937 17.948689 33.325874 17.891811 32.929874 17.872875C 32.533875 17.853874 32.078499 17.45575 31.563686 16.678438C 31.029125 15.901169 30.425188 15.266056 29.752001 14.773138C 29.098625 14.261256 28.366062 13.901044 27.554249 13.6925C 26.722687 13.464993 25.831688 13.379681 24.881313 13.436556C 23.911125 13.493431 22.970625 13.664063 22.059813 13.948438C 21.149061 14.251775 20.357063 14.649906 19.683874 15.142825C 19.0305 15.63575 18.486 16.232944 18.050375 16.934437C 17.634624 17.635876 17.238625 18.887125 16.862438 20.688189C 16.209019 20.631311 15.723926 20.621876 15.407125 20.65975C 15.090331 20.697687 14.783438 20.764063 14.486444 20.858812C 14.189444 20.972563 13.90235 21.11475 13.625156 21.285376C 13.347957 21.455999 13.090563 21.655062 12.852969 21.882563C 12.635169 22.110064 12.437175 22.347063 12.258975 22.593563C 12.100574 22.858938 11.961981 23.133875 11.843182 23.418251C 11.744182 23.702625 11.684781 24.005938 11.664981 24.328249C 11.625387 24.631561 11.625387 24.991814 11.664981 25.408875C 11.724381 25.807001 11.823381 26.176687 11.961981 26.517937C 12.120375 26.859188 12.318375 27.172001 12.555969 27.456375C 12.793569 27.721813 13.080663 27.958813 13.417256 28.167376C 13.75385 28.375875 13.92215 28.480188 13.92215 28.480188C 13.92215 28.480188 13.99145 28.499125 14.13005 28.537062C 14.248844 28.593937 14.367644 28.641312 14.486444 28.679251C 14.625037 28.717125 14.763638 28.755062 14.902237 28.792999C 15.040831 28.830875 15.179432 28.859312 15.318031 28.878311C 15.456625 28.897249 15.525925 28.90675 15.525925 28.90675C 15.525925 28.90675 15.555625 28.90675 15.615026 28.90675C 15.674425 28.925688 15.733825 28.935188 15.793225 28.935188C 15.852619 28.935188 15.912019 28.935188 15.971418 28.935188C 16.050619 28.954124 16.119919 28.963625 16.179319 28.963625C 16.238718 28.963625 16.268438 28.963625 16.268438 28.963625C 16.268438 28.963625 19.08 28.963625 24.703062 28.963625C 30.326187 28.963625 33.167439 28.954124 33.226875 28.935188C 33.286251 28.935188 33.355564 28.925688 33.43475 28.90675C 33.494186 28.887751 33.563438 28.868813 33.642689 28.849874C 33.702065 28.830875 33.771374 28.821438 33.850563 28.821438C 33.909939 28.802437 33.939625 28.792999 33.939625 28.792999C 33.939625 28.792999 34.018875 28.764563 34.17725 28.707687C 34.335625 28.650812 34.494061 28.593937 34.652439 28.537062C 34.810814 28.480188 34.959312 28.423313 35.097939 28.366436C 35.256313 28.290562 35.404812 28.21475 35.543438 28.138939C 35.681999 28.063063 35.751312 28.025126 35.751312 28.025126C 35.751312 28.025126 35.939438 27.882936 36.315624 27.598562C 36.691814 27.29525 37.018501 26.972939 37.295689 26.631687C 37.572876 26.2715 37.790688 25.882813 37.949127 25.46575C 38.107498 25.048687 38.216373 24.603125 38.27581 24.129189C 38.335186 23.63625 38.364876 23.389812 38.364876 23.389812Z"></path></g></g></g><g id="g-root-tx_thchangu_1umt2k1flmrkd-stroke" data-item-order="4000000000" transform="translate(137, 159)"></g><g id="g-root-tx_hthngkin_v98u9dflqzut-stroke" data-item-order="4000000000" transform="translate(137, 711)"></g><g id="g-root-tx_hthngkin_vahsflflsfeo-stroke" data-item-order="4000000000" transform="translate(325, 711)"></g></g></g></svg>