<?xml version="1.0" encoding="utf-8" standalone="yes"?>
<!DOCTYPE svg PUBLIC "-//W3C//DTD SVG 1.1//EN" "http://www.w3.org/Graphics/SVG/1.1/DTD/svg11.dtd">
<svg width="806" height="506" viewBox="0 0 806 506" style="fill:none;stroke:none;fill-rule:evenodd;clip-rule:evenodd;stroke-linecap:round;stroke-linejoin:round;stroke-miterlimit:1.5;" version="1.1" xmlns="http://www.w3.org/2000/svg" xmlns:xlink="http://www.w3.org/1999/xlink"><style class="text-font-style fontImports" data-font-family="Roboto">@import url('https://fonts.googleapis.com/css2?family=Roboto:wght@400;700&amp;display=block');</style><g id="items" style="isolation: isolate"><g id="blend" style="mix-blend-mode: normal"><g id="g-root-ro_1hit45tf1dqme-fill" data-item-order="-25200" transform="translate(339, 135)"><g id="ro_1hit45tf1dqme-fill" stroke="none" fill="#666666"><g><path d="M 34 10L 154 10C 154 10 178 10 178 34L 178 136C 178 136 178 160 154 160L 34 160C 34 160 10 160 10 136L 10 34C 10 34 10 10 34 10"></path></g></g></g><g id="g-root-ro_hsre4xf1nls7-fill" data-item-order="-12960" transform="translate(303, 321)"><g id="ro_hsre4xf1nls7-fill" stroke="none" fill="#e0cb15"><g><path d="M 22 10L 238 10C 238 10 250 10 250 22L 250 52C 250 52 250 64 238 64L 22 64C 22 64 10 64 10 52L 10 22C 10 22 10 10 22 10"></path></g></g></g><g id="g-root-ro_1lw4pxtf1qfpk-fill" data-item-order="-12960" transform="translate(51, 123)"><g id="ro_1lw4pxtf1qfpk-fill" stroke="none" fill="#4e88e7"><g><path d="M 22 10L 238 10C 238 10 250 10 250 22L 250 52C 250 52 250 64 238 64L 22 64C 22 64 10 64 10 52L 10 22C 10 22 10 10 22 10"></path></g></g></g><g id="g-root-ro_1hefsk1f1krgk-fill" data-item-order="-9720" transform="translate(555, 123)"><g id="ro_1hefsk1f1krgk-fill" stroke="none" fill="#ba5de5"><g><path d="M 22 10L 178 10C 178 10 190 10 190 22L 190 52C 190 52 190 64 178 64L 22 64C 22 64 10 64 10 52L 10 22C 10 22 10 10 22 10"></path></g></g></g><g id="g-root-cu_metn4hf1qe4s-fill" data-item-order="0" transform="translate(327, 375)"></g><g id="g-root-cu_1hgxowhf1qdc1-fill" data-item-order="0" transform="translate(291, 150)"></g><g id="g-root-cu_hz0501f1qex3-fill" data-item-order="0" transform="translate(327, 375)"></g><g id="g-root-cu_18laonlf1qe4s-fill" data-item-order="0" transform="translate(507, 150)"></g><g id="g-root-tx_kthutvcn_dcxw0hf1nmkg-fill" data-item-order="0" transform="translate(39, 189)"><g id="tx_kthutvcn_dcxw0hf1nmkg-fill" stroke="none" fill="#484848"><g><text style="font: 20px Roboto, sans-serif; white-space: pre;" font-size="20px" font-family="Roboto, sans-serif"><tspan x="13.84" y="34" dominant-baseline="ideographic">Kỹ thuật và công nghệ</tspan></text></g></g></g><g id="g-root-cu_145h6j5f1qex6-fill" data-item-order="0" transform="translate(249, 177)"></g><g id="g-root-cu_zpnoepf1qfph-fill" data-item-order="0" transform="translate(249, 177)"></g><g id="g-root-cu_qun58xf1qdcf-fill" data-item-order="0" transform="translate(579, 177)"></g><g id="g-root-cu_vagnddf1qdc2-fill" data-item-order="0" transform="translate(579, 177)"></g><g id="g-root-tx_cchmngcn_4hxcupf1nk7d-fill" data-item-order="0" transform="translate(15, 225)"><g id="tx_cchmngcn_4hxcupf1nk7d-fill" stroke="none" fill="#484848"><g><text style="font: 20px Roboto, sans-serif; white-space: pre;" font-size="20px" font-family="Roboto, sans-serif"><tspan x="16.45" y="34" dominant-baseline="ideographic">Cách mạng công nghiệp</tspan></text></g></g></g><g id="g-root-tx_phncngla_1cwqv69f1nk0c-fill" data-item-order="0" transform="translate(351, 387)"><g id="tx_phncngla_1cwqv69f1nk0c-fill" stroke="none" fill="#484848"><g><text style="font: 20px Roboto, sans-serif; white-space: pre;" font-size="20px" font-family="Roboto, sans-serif"><tspan x="17.31" y="34" dominant-baseline="ideographic">Phân công lao động</tspan></text></g></g></g><g id="g-root-tx_kinhthng_23uq9f1nkzm-fill" data-item-order="0" transform="translate(603, 189)"><g id="tx_kinhthng_23uq9f1nkzm-fill" stroke="none" fill="#484848"><g><text style="font: 20px Roboto, sans-serif; white-space: pre;" font-size="20px" font-family="Roboto, sans-serif"><tspan x="13.51" y="34" dominant-baseline="ideographic">Kinh tế hàng hóa</tspan></text></g></g></g><g id="g-root-tx_snxuttpt_1q7kwghf1nll7-fill" data-item-order="0" transform="translate(603, 225)"><g id="tx_snxuttpt_1q7kwghf1nll7-fill" stroke="none" fill="#484848"><g><text style="font: 20px Roboto, sans-serif; white-space: pre;" font-size="20px" font-family="Roboto, sans-serif"><tspan x="12.84" y="34" dominant-baseline="ideographic">Sản xuất tập trung</tspan></text></g></g></g><g id="g-root-cu_18laonlf1qe4v-fill" data-item-order="0" transform="translate(423, 285)"></g><g id="g-root-tx_linktkin_zlacsxf1nll9-fill" data-item-order="0" transform="translate(351, 423)"><g id="tx_linktkin_zlacsxf1nll9-fill" stroke="none" fill="#484848"><g><text style="font: 20px Roboto, sans-serif; white-space: pre;" font-size="20px" font-family="Roboto, sans-serif"><tspan x="15.16" y="34" dominant-baseline="ideographic">Liên kết kinh tế</tspan></text></g></g></g><g id="g-root-tx_vaitrtch_dj6mvlf1qfpd-fill" data-item-order="0" transform="translate(267, 45)"><g id="tx_vaitrtch_dj6mvlf1qfpd-fill" stroke="none" fill="#484848"><g><text style="font: 15px Roboto, sans-serif; white-space: pre;" font-size="15px" font-family="Roboto, sans-serif"><tspan x="14.27" y="31" dominant-baseline="ideographic">Vai trò tích cực của chủ nghĩa tư bản</tspan></text></g></g></g><g id="g-root-2_1qby829f1qexb-fill" data-item-order="4000000000" transform="translate(249, 135)"></g><g id="g-root-buil_1lu9aohf1kqob-fill" data-item-order="4000000000" transform="translate(567, 135)"></g><g id="g-root-2_1lymma9f1dpu5-fill" data-item-order="4000000000" transform="translate(399, 159)"></g><g id="g-root-tx_nnsnxut_3z9zlf1ksga-fill" data-item-order="4000000000" transform="translate(603, 138)"><g id="tx_nnsnxut_3z9zlf1ksga-fill" stroke="none" fill="#ffffff"><g><text style="font: 20px Roboto, sans-serif; white-space: pre;" font-size="20px" font-family="Roboto, sans-serif"><tspan x="11.77" y="34" dominant-baseline="ideographic">Nền sản xuất</tspan></text></g></g></g><g id="g-root-tx_chnghatb_8clldf1drm4-fill" data-item-order="4000000000" transform="translate(363, 213)"><g id="tx_chnghatb_8clldf1drm4-fill" stroke="none" fill="#ffffff"><g><text style="font: 20px Roboto, sans-serif; white-space: pre;" font-size="20px" font-family="Roboto, sans-serif"><tspan x="12.24" y="34" dominant-baseline="ideographic">Chủ nghĩa tư </tspan><tspan x="52.18" y="58" dominant-baseline="ideographic">bản</tspan></text></g></g></g><g id="g-root-tx_lclngsnx_4maoghf1qdji-fill" data-item-order="4000000000" transform="translate(63, 138)"><g id="tx_lclngsnx_4maoghf1qdji-fill" stroke="none" fill="#ffffff"><g><text style="font: 20px Roboto, sans-serif; white-space: pre;" font-size="20px" font-family="Roboto, sans-serif"><tspan x="14.97" y="34" dominant-baseline="ideographic">Lực lượng sản xuất</tspan></text></g></g></g><g id="g-root-2_m8kw9df1nkzy-fill" data-item-order="4000000000" transform="translate(315, 333)"></g><g id="g-root-tx_xhihasnx_zjexjlf1nmkt-fill" data-item-order="4000000000" transform="translate(351, 336)"><g id="tx_xhihasnx_zjexjlf1nmkt-fill" stroke="none" fill="#ffffff"><g><text style="font: 20px Roboto, sans-serif; white-space: pre;" font-size="20px" font-family="Roboto, sans-serif"><tspan x="12.77" y="34" dominant-baseline="ideographic">Xã hội hóa sản xuất</tspan></text></g></g></g><g id="g-root-ro_1hit45tf1dqme-stroke" data-item-order="-25200" transform="translate(339, 135)"><g id="ro_1hit45tf1dqme-stroke" fill="none" stroke-linecap="round" stroke-linejoin="round" stroke-miterlimit="4" stroke="#ffffff" stroke-width="2"><g><path d="M 34 10L 154 10C 154 10 178 10 178 34L 178 136C 178 136 178 160 154 160L 34 160C 34 160 10 160 10 136L 10 34C 10 34 10 10 34 10"></path></g></g></g><g id="g-root-ro_hsre4xf1nls7-stroke" data-item-order="-12960" transform="translate(303, 321)"><g id="ro_hsre4xf1nls7-stroke" fill="none" stroke-linecap="round" stroke-linejoin="round" stroke-miterlimit="4" stroke="#ffffff" stroke-width="2"><g><path d="M 22 10L 238 10C 238 10 250 10 250 22L 250 52C 250 52 250 64 238 64L 22 64C 22 64 10 64 10 52L 10 22C 10 22 10 10 22 10"></path></g></g></g><g id="g-root-ro_1lw4pxtf1qfpk-stroke" data-item-order="-12960" transform="translate(51, 123)"><g id="ro_1lw4pxtf1qfpk-stroke" fill="none" stroke-linecap="round" stroke-linejoin="round" stroke-miterlimit="4" stroke="#ffffff" stroke-width="2"><g><path d="M 22 10L 238 10C 238 10 250 10 250 22L 250 52C 250 52 250 64 238 64L 22 64C 22 64 10 64 10 52L 10 22C 10 22 10 10 22 10"></path></g></g></g><g id="g-root-ro_1hefsk1f1krgk-stroke" data-item-order="-9720" transform="translate(555, 123)"><g id="ro_1hefsk1f1krgk-stroke" fill="none" stroke-linecap="round" stroke-linejoin="round" stroke-miterlimit="4" stroke="#ffffff" stroke-width="2"><g><path d="M 22 10L 178 10C 178 10 190 10 190 22L 190 52C 190 52 190 64 178 64L 22 64C 22 64 10 64 10 52L 10 22C 10 22 10 10 22 10"></path></g></g></g><g id="g-root-cu_metn4hf1qe4s-stroke" data-item-order="0" transform="translate(327, 375)"><g id="cu_metn4hf1qe4s-stroke" fill="none" stroke-linecap="round" stroke-linejoin="round" stroke-miterlimit="4" stroke="#484848" stroke-width="2" stroke-dasharray="5.0, 7.0"><g><path d="M 10 10L 10 22L 10 34L 19 34L 28 34"></path></g></g></g><g id="g-root-cu_1hgxowhf1qdc1-stroke" data-item-order="0" transform="translate(291, 150)"><g id="cu_1hgxowhf1qdc1-stroke" fill="none" stroke-linecap="round" stroke-linejoin="round" stroke-miterlimit="4" stroke="#484848" stroke-width="2" stroke-dasharray="5.0, 7.0"><g><path d="M 58 45L 55 45L 54.9 45C 50.422131 44.972593 45.63978 43.214375 41.299999 40C 38.67988 38.118536 36.018569 33.561496 33.999999 27.499999C 31.98143 21.438501 29.320119 16.881461 26.699999 15C 22.360218 11.785625 17.577867 10.027408 13.1 10L 13 10L 10 10"></path></g></g></g><g id="g-root-cu_hz0501f1qex3-stroke" data-item-order="0" transform="translate(327, 375)"><g id="cu_hz0501f1qex3-stroke" fill="none" stroke-linecap="round" stroke-linejoin="round" stroke-miterlimit="4" stroke="#484848" stroke-width="2" stroke-dasharray="5.0, 7.0"><g><path d="M 10 10L 10 17.5L 10 58C 10.000002 64.627417 15.372585 70 22.000002 69.999999L 22.1 70L 28 70"></path></g></g></g><g id="g-root-cu_18laonlf1qe4s-stroke" data-item-order="0" transform="translate(507, 150)"><g id="cu_18laonlf1qe4s-stroke" fill="none" stroke-linecap="round" stroke-linejoin="round" stroke-miterlimit="4" stroke="#484848" stroke-width="2" stroke-dasharray="5.0, 7.0"><g><path d="M 10 45L 13 45L 13.1 45C 17.577866 44.972592 22.360217 43.214375 26.699999 40C 29.320119 38.118536 31.98143 33.561497 33.999999 27.499999C 36.018569 21.438502 38.67988 16.881462 41.299999 15C 45.63978 11.785625 50.422131 10.027407 54.899998 9.999999L 55 10L 58 10"></path></g></g></g><g id="g-root-tx_kthutvcn_dcxw0hf1nmkg-stroke" data-item-order="0" transform="translate(39, 189)"></g><g id="g-root-cu_145h6j5f1qex6-stroke" data-item-order="0" transform="translate(249, 177)"><g id="cu_145h6j5f1qex6-stroke" fill="none" stroke-linecap="round" stroke-linejoin="round" stroke-miterlimit="4" stroke="#484848" stroke-width="2" stroke-dasharray="5.0, 7.0"><g><path d="M 28 10L 28 22L 28 34L 19 34L 10 34"></path></g></g></g><g id="g-root-cu_zpnoepf1qfph-stroke" data-item-order="0" transform="translate(249, 177)"><g id="cu_zpnoepf1qfph-stroke" fill="none" stroke-linecap="round" stroke-linejoin="round" stroke-miterlimit="4" stroke="#484848" stroke-width="2" stroke-dasharray="5.0, 7.0"><g><path d="M 28 10L 28 17.5L 28 58C 27.999999 64.627415 22.627416 69.999998 16 69.999998L 15.9 70L 10 70"></path></g></g></g><g id="g-root-cu_qun58xf1qdcf-stroke" data-item-order="0" transform="translate(579, 177)"><g id="cu_qun58xf1qdcf-stroke" fill="none" stroke-linecap="round" stroke-linejoin="round" stroke-miterlimit="4" stroke="#484848" stroke-width="2" stroke-dasharray="5.0, 7.0"><g><path d="M 10 10L 10 22L 10 34L 19 34L 28 34"></path></g></g></g><g id="g-root-cu_vagnddf1qdc2-stroke" data-item-order="0" transform="translate(579, 177)"><g id="cu_vagnddf1qdc2-stroke" fill="none" stroke-linecap="round" stroke-linejoin="round" stroke-miterlimit="4" stroke="#484848" stroke-width="2" stroke-dasharray="5.0, 7.0"><g><path d="M 10 10L 10 17.5L 10 58C 10.000002 64.627417 15.372585 70 22.000002 69.999999L 22.1 70L 28 70"></path></g></g></g><g id="g-root-tx_cchmngcn_4hxcupf1nk7d-stroke" data-item-order="0" transform="translate(15, 225)"></g><g id="g-root-tx_phncngla_1cwqv69f1nk0c-stroke" data-item-order="0" transform="translate(351, 387)"></g><g id="g-root-tx_kinhthng_23uq9f1nkzm-stroke" data-item-order="0" transform="translate(603, 189)"></g><g id="g-root-tx_snxuttpt_1q7kwghf1nll7-stroke" data-item-order="0" transform="translate(603, 225)"></g><g id="g-root-cu_18laonlf1qe4v-stroke" data-item-order="0" transform="translate(423, 285)"><g id="cu_18laonlf1qe4v-stroke" fill="none" stroke-linecap="round" stroke-linejoin="round" stroke-miterlimit="4" stroke="#484848" stroke-width="2" stroke-dasharray="5.0, 7.0"><g><path d="M 10 10L 10 28L 10 46"></path></g></g></g><g id="g-root-tx_linktkin_zlacsxf1nll9-stroke" data-item-order="0" transform="translate(351, 423)"></g><g id="g-root-tx_vaitrtch_dj6mvlf1qfpd-stroke" data-item-order="0" transform="translate(267, 45)"></g><g id="g-root-2_1qby829f1qexb-stroke" data-item-order="4000000000" transform="translate(249, 135)"><g id="2_1qby829f1qexb-stroke" fill="none" stroke-linecap="round" stroke-linejoin="round" stroke-miterlimit="4" stroke="#ffffff" stroke-width="2"><g><path d="M 39.0625 35.96125C 39.0625 37.687141 37.663391 39.08625 35.9375 39.08625L 14.0625 39.08625C 12.33661 39.08625 10.9375 37.687141 10.9375 35.96125C 10.9375 34.235359 12.33661 32.83625 14.0625 32.83625L 35.9375 32.83625C 37.663391 32.83625 39.0625 34.235359 39.0625 35.96125ZM 15.2 26.438749L 22.3925 26.438749L 22.3925 32.83625L 15.2 32.83625ZM 15 35.96125C 15 36.306427 15.279821 36.58625 15.625 36.58625C 15.970179 36.58625 16.25 36.306427 16.25 35.96125C 16.25 35.61607 15.970179 35.33625 15.625 35.33625C 15.279821 35.33625 15 35.61607 15 35.96125M 21.25 35.96125C 21.25 36.306427 21.529823 36.58625 21.875 36.58625C 22.220177 36.58625 22.5 36.306427 22.5 35.96125C 22.5 35.61607 22.220177 35.33625 21.875 35.33625C 21.529823 35.33625 21.25 35.61607 21.25 35.96125M 27.5525 35.96125C 27.5525 36.306427 27.832321 36.58625 28.1775 36.58625C 28.522678 36.58625 28.8025 36.306427 28.8025 35.96125C 28.8025 35.61607 28.522678 35.33625 28.1775 35.33625C 27.832321 35.33625 27.5525 35.61607 27.5525 35.96125M 33.802498 35.96125C 33.802498 36.306427 34.082321 36.58625 34.427498 36.58625C 34.772678 36.58625 35.052498 36.306427 35.052498 35.96125C 35.052498 35.61607 34.772678 35.33625 34.427498 35.33625C 34.082321 35.33625 33.802498 35.61607 33.802498 35.96125M 18.796249 28.9925L 18.796249 26.438749M 28.1775 26.438749L 35.369999 26.438749L 35.369999 32.83625L 28.1775 32.83625ZM 31.77375 28.9925L 31.77375 26.438749M 37.84 17.15L 31.602499 10.91375L 31.602499 14.9675L 13.78 14.9675L 13.78 19.53875L 31.602499 19.53875L 31.602499 23.387501L 37.84 17.15Z"></path></g></g></g><g id="g-root-buil_1lu9aohf1kqob-stroke" data-item-order="4000000000" transform="translate(567, 135)"><g id="buil_1lu9aohf1kqob-stroke" fill="none" stroke-linecap="round" stroke-linejoin="round" stroke-miterlimit="4" stroke="#ffffff" stroke-width="2"><g><path d="M 15.357142 11.071428L 34.642857 11.071428C 35.826324 11.071428 36.785713 12.030818 36.785713 13.214286L 36.785713 38.92857L 36.785713 38.92857L 13.214286 38.92857L 13.214286 38.92857L 13.214286 13.214286C 13.214286 12.030818 14.173676 11.071428 15.357142 11.071428ZM 18.571428 16.428572L 21.785713 16.428572M 28.214285 16.428572L 31.42857 16.428572M 18.571428 21.785713L 21.785713 21.785713M 28.214285 21.785713L 31.42857 21.785713M 18.571428 27.142857L 21.785713 27.142857M 28.214285 27.142857L 31.42857 27.142857M 22.321428 32.5L 27.678572 32.5L 27.678572 38.92857L 22.321428 38.92857Z"></path></g></g></g><g id="g-root-2_1lymma9f1dpu5-stroke" data-item-order="4000000000" transform="translate(399, 159)"><g id="2_1lymma9f1dpu5-stroke" fill="none" stroke-linecap="round" stroke-linejoin="round" stroke-miterlimit="4" stroke="#ffffff" stroke-width="2"><g><path d="M 31 31L 13 31C 11.895431 31 11 30.10457 11 29L 11 13C 11 11.895431 11.895431 11 13 11L 45 11C 46.104568 11 47 11.895431 47 13L 47 23M 11.008 18L 18.007999 11M 47.007999 18L 40.007999 11M 11.008 24L 18.007999 31M 33 17L 26.691999 17C 25.844688 17.007654 25.134691 17.642994 25.033333 18.484257C 24.931976 19.32552 25.470753 20.111315 26.292 20.32L 31.74 21.68C 32.561249 21.888685 33.100021 22.67448 32.998665 23.515743C 32.897308 24.357006 32.187309 24.992346 31.34 25L 25 25M 29.007999 17L 29.007999 15M 29.007999 27L 29.007999 25M 39.007999 41L 41.007999 41M 45.007999 41L 47.007999 41M 51.007999 41L 53.007999 41M 39.007999 45L 41.007999 45M 45.007999 45L 47.007999 45M 51.007999 45L 53.007999 45M 39.007999 49L 41.007999 49M 45.007999 49L 47.007999 49M 51.007999 49L 53.007999 49M 39.007999 53L 41.007999 53M 45.007999 53L 47.007999 53M 51.007999 53L 53.007999 53M 39.007999 27L 53.007999 27C 53.007999 27 57.007999 27 57.007999 31L 57.007999 53C 57.007999 53 57.007999 57 53.007999 57L 39.007999 57C 39.007999 57 35.007999 57 35.007999 53L 35.007999 31C 35.007999 31 35.007999 27 39.007999 27M 35.007999 37L 57.007999 37M 13.007999 35L 31.007999 35M 15.007999 39L 31.007999 39"></path></g></g></g><g id="g-root-tx_nnsnxut_3z9zlf1ksga-stroke" data-item-order="4000000000" transform="translate(603, 138)"></g><g id="g-root-tx_chnghatb_8clldf1drm4-stroke" data-item-order="4000000000" transform="translate(363, 213)"></g><g id="g-root-tx_lclngsnx_4maoghf1qdji-stroke" data-item-order="4000000000" transform="translate(63, 138)"></g><g id="g-root-2_m8kw9df1nkzy-stroke" data-item-order="4000000000" transform="translate(315, 333)"><g id="2_m8kw9df1nkzy-stroke" fill="none" stroke-linecap="round" stroke-linejoin="round" stroke-miterlimit="4" stroke="#ffffff" stroke-width="2"><g><path d="M 31.93375 21.481251L 32.8125 10.9375L 36.5625 10.9375L 37.8125 25.9375M 31.25 39.0625L 39.0625 39.0625L 39.0625 27.1875C 39.0625 26.497143 38.502853 25.9375 37.8125 25.9375L 31.875 25.9375L 25.735001 21.4725C 25.296778 21.153934 24.703222 21.153934 24.264999 21.4725L 18.125 25.9375L 12.1875 25.9375C 11.497144 25.9375 10.9375 26.497143 10.9375 27.1875L 10.9375 39.0625L 17.1875 39.0625M 32.161251 18.75L 37.213749 18.75L 36.901249 15L 32.473751 15L 32.161251 18.75ZM 18.06625 21.481251L 17.1875 10.9375L 13.4375 10.9375L 12.1875 25.9375M 17.838749 18.75L 12.78625 18.75L 13.09875 15L 17.526249 15L 17.838749 18.75ZM 22.5 36.147499C 22.5 36.147499 24.48625 38.172501 26.415001 37.337502C 30.33 35.631248 28.282501 30.353752 29.133751 27.9625C 26.17975 27.539089 23.201767 28.557007 21.125 30.699999C 19.42625 32.57375 19.938751 34.6175 22.5 36.147499ZM 24.536249 32.741249C 24.536249 32.741249 22.125 33.88625 21.6875 38.814999"></path></g></g></g><g id="g-root-tx_xhihasnx_zjexjlf1nmkt-stroke" data-item-order="4000000000" transform="translate(351, 336)"></g></g></g></svg>