<?xml version="1.0" encoding="utf-8" standalone="yes"?>
<!DOCTYPE svg PUBLIC "-//W3C//DTD SVG 1.1//EN" "http://www.w3.org/Graphics/SVG/1.1/DTD/svg11.dtd">
<svg width="782" height="614" viewBox="0 0 782 614" style="fill:none;stroke:none;fill-rule:evenodd;clip-rule:evenodd;stroke-linecap:round;stroke-linejoin:round;stroke-miterlimit:1.5;" version="1.1" xmlns="http://www.w3.org/2000/svg" xmlns:xlink="http://www.w3.org/1999/xlink"><style class="text-font-style fontImports" data-font-family="Roboto">@import url('https://fonts.googleapis.com/css2?family=Roboto:wght@400;700&amp;display=block');</style><g id="items" style="isolation: isolate"><g id="blend" style="mix-blend-mode: normal"><g id="g-root--1.cu_sy_1d1qnv5fvqm80-fill" data-item-order="-316218" transform="translate(15, 254.00390625)"><g id="-1.cu_sy_1d1qnv5fvqm80-fill" stroke="none" fill="#a3a3a3"><g><path d="M 10.001 143L 10 47L 67 47L 70 59L 322 59L 319 47L 367 47L 370 59L 622 59L 619 47L 646 47L 646 10L 742 95L 646.002 180L 646 143L 619 143L 622 131L 370 131L 367 143L 319.001 143L 322.001 131L 70.001 131L 67.001 143L 10.001 143Z"></path></g></g></g><g id="g-root-4.cu_sy_146q4pdfvqjux-fill" data-item-order="-316214" transform="translate(330, 375)"><g id="4.cu_sy_146q4pdfvqjux-fill" stroke="none" fill="#ba5de5"><g><path d="M 307 10L 295 58L 43 58L 55 10L 307 10ZM 291.992188 70L 279.992188 118L 27.992188 118L 39.992188 70L 291.992188 70ZM 277 130L 25 130L 10 190L 262 190L 277 130Z"></path></g></g></g><g id="g-root-3.cu_sy_zqwmkxfvqkn6-fill" data-item-order="-316210" transform="translate(330, 123)"><g id="3.cu_sy_zqwmkxfvqkn6-fill" stroke="none" fill="#e0cb15"><g><path d="M 307 190L 295 142L 43 142L 55 190L 307 190ZM 291.992188 130L 279.992188 82L 27.992188 82L 39.992188 130L 291.992188 130ZM 277 70L 25 70L 10 10L 262 10L 277 70Z"></path></g></g></g><g id="g-root-2.cu_sy_qv9mc1fvqlfv-fill" data-item-order="-316206" transform="translate(30, 375)"><g id="2.cu_sy_qv9mc1fvqlfv-fill" stroke="none" fill="#e55753"><g><path d="M 307.000977 10L 295.000977 58L 43.000977 58L 55.000977 10L 307.000977 10ZM 291.993164 70L 279.993164 118L 27.993164 118L 39.993164 70L 291.993164 70ZM 277.001 130L 25.001 130L 10 190L 262 190L 277.001 130Z"></path></g></g></g><g id="g-root-1.cu_sy_mfg47lfvqm84-fill" data-item-order="-316202" transform="translate(30, 123)"><g id="1.cu_sy_mfg47lfvqm84-fill" stroke="none" fill="#de8431"><g><path d="M 307 190L 295 142L 43 142L 55 190L 307 190ZM 291.992188 130L 279.992188 82L 27.992188 82L 39.992188 130L 291.992188 130ZM 277 70L 25 70L 10 10L 262 10L 277 70Z"></path></g></g></g><g id="g-root-tx_nhnghnch_m97dchfvryte-fill" data-item-order="0" transform="translate(249, 39)"><g id="tx_nhnghnch_m97dchfvryte-fill" stroke="none" fill="#484848"><g><text style="font: bold 15px Roboto, sans-serif; white-space: pre;" font-weight="bold" font-size="15px" font-family="Roboto, sans-serif"><tspan x="13.13" y="31" dominant-baseline="ideographic">Những hạn chế của chủ nghĩa tư bản</tspan></text></g></g></g><g id="g-root-tx_lichgiai_qp0vgxfvry15-fill" data-item-order="0" transform="translate(129, 141)"><g id="tx_lichgiai_qp0vgxfvry15-fill" stroke="none" fill="#ffffff"><g><text style="font: bold 20px Roboto, sans-serif; white-space: pre;" font-weight="bold" font-size="20px" font-family="Roboto, sans-serif"><tspan x="17.17" y="34" dominant-baseline="ideographic">Lợi ích giai cấp</tspan></text></g></g></g><g id="g-root-tx_phnphiti_dboxu9fvs0ln-fill" data-item-order="0" transform="translate(405, 141)"><g id="tx_phnphiti_dboxu9fvs0ln-fill" stroke="none" fill="#ffffff"><g><text style="font: bold 20px Roboto, sans-serif; white-space: pre;" font-weight="bold" font-size="20px" font-family="Roboto, sans-serif"><tspan x="21.09" y="34" dominant-baseline="ideographic">Phân phối tài sản</tspan></text></g></g></g><g id="g-root-tx_cquynkin_18foevlfvrytr-fill" data-item-order="0" transform="translate(156, 207)"><g id="tx_cquynkin_18foevlfvrytr-fill" stroke="none" fill="#ffffff"><g><text style="font: 15px Roboto, sans-serif; white-space: pre;" font-size="15px" font-family="Roboto, sans-serif"><tspan x="21.58" y="31" dominant-baseline="ideographic">Độc quyền kinh tế</tspan></text></g></g></g><g id="g-root-tx_tchlytis_m7by35fvrzsy-fill" data-item-order="0" transform="translate(480, 207)"><g id="tx_tchlytis_m7by35fvrzsy-fill" stroke="none" fill="#ffffff"><g><text style="font: 15px Roboto, sans-serif; white-space: pre;" font-size="15px" font-family="Roboto, sans-serif"><tspan x="16.14" y="31" dominant-baseline="ideographic">Tích lũy tài sản</tspan></text></g></g></g><g id="g-root-tx_bcltlaon_13zuwr5fvrzm0-fill" data-item-order="0" transform="translate(183, 267)"><g id="tx_bcltlaon_13zuwr5fvrzm0-fill" stroke="none" fill="#ffffff"><g><text style="font: 15px Roboto, sans-serif; white-space: pre;" font-size="15px" font-family="Roboto, sans-serif"><tspan x="19.38" y="31" dominant-baseline="ideographic">Bóc lột lao động</tspan></text></g></g></g><g id="g-root-tx_nghoikod_zisgghfvry81-fill" data-item-order="0" transform="translate(471, 267)"><g id="tx_nghoikod_zisgghfvry81-fill" stroke="none" fill="#ffffff"><g><text style="font: 15px Roboto, sans-serif; white-space: pre;" font-size="15px" font-family="Roboto, sans-serif"><tspan x="19.53" y="31" dominant-baseline="ideographic">Nghèo đói kéo dài</tspan></text></g></g></g><g id="g-root-tx_nhnghnch_dkfl1tfvqjv1-fill" data-item-order="0" transform="translate(267, 321)"><g id="tx_nhnghnch_dkfl1tfvqjv1-fill" stroke="none" fill="#ffffff"><g><text style="font: bold 25px Roboto, sans-serif; white-space: pre;" font-weight="bold" font-size="25px" font-family="Roboto, sans-serif"><tspan x="18.45" y="43" dominant-baseline="ideographic">Những hạn chế của chủ nghĩa tư bản</tspan></text></g></g></g><g id="g-root-tx_chintran_uwk1fvrz0s-fill" data-item-order="0" transform="translate(135, 387)"><g id="tx_chintran_uwk1fvrz0s-fill" stroke="none" fill="#ffffff"><g><text style="font: 15px Roboto, sans-serif; white-space: pre;" font-size="15px" font-family="Roboto, sans-serif"><tspan x="19.83" y="31" dominant-baseline="ideographic">Chiến tranh thương mại</tspan></text></g></g></g><g id="g-root-tx_tinbkthu_1uu9mj5fvqm12-fill" data-item-order="0" transform="translate(483, 387)"><g id="tx_tinbkthu_1uu9mj5fvqm12-fill" stroke="none" fill="#ffffff"><g><text style="font: 15px Roboto, sans-serif; white-space: pre;" font-size="15px" font-family="Roboto, sans-serif"><tspan x="21.81" y="31" dominant-baseline="ideographic">Tiến bộ kỹ thuật</tspan></text></g></g></g><g id="g-root-tx_chnghath_1um5gepfvrzlx-fill" data-item-order="0" transform="translate(144, 447)"><g id="tx_chnghath_1um5gepfvrzlx-fill" stroke="none" fill="#ffffff"><g><text style="font: 15px Roboto, sans-serif; white-space: pre;" font-size="15px" font-family="Roboto, sans-serif"><tspan x="22.5" y="31" dominant-baseline="ideographic">Chủ nghĩa thực dân</tspan></text></g></g></g><g id="g-root-tx_shutnhn_1lz93ddfvqjnz-fill" data-item-order="0" transform="translate(480, 447)"><g id="tx_shutnhn_1lz93ddfvqjnz-fill" stroke="none" fill="#ffffff"><g><text style="font: 15px Roboto, sans-serif; white-space: pre;" font-size="15px" font-family="Roboto, sans-serif"><tspan x="14.36" y="31" dominant-baseline="ideographic">Sở hữu tư nhân</tspan></text></g></g></g><g id="g-root-tx_xungtton_1lqig5tfvs0em-fill" data-item-order="0" transform="translate(105, 513)"><g id="tx_xungtton_1lqig5tfvs0em-fill" stroke="none" fill="#ffffff"><g><text style="font: bold 20px Roboto, sans-serif; white-space: pre;" font-weight="bold" font-size="20px" font-family="Roboto, sans-serif"><tspan x="12.06" y="34" dominant-baseline="ideographic">Xung đột toàn cầu</tspan></text></g></g></g><g id="g-root-tx_muthunni_1d3m34hfvql8g-fill" data-item-order="0" transform="translate(405, 513)"><g id="tx_muthunni_1d3m34hfvql8g-fill" stroke="none" fill="#ffffff"><g><text style="font: bold 20px Roboto, sans-serif; white-space: pre;" font-weight="bold" font-size="20px" font-family="Roboto, sans-serif"><tspan x="20.03" y="34" dominant-baseline="ideographic">Mâu thuẫn nội tại</tspan></text></g></g></g><g id="g-root--1.cu_sy_1d1qnv5fvqm80-stroke" data-item-order="-316218" transform="translate(15, 254.00390625)"><g id="-1.cu_sy_1d1qnv5fvqm80-stroke" fill="none" stroke-linecap="round" stroke-linejoin="round" stroke-miterlimit="4" stroke="#ffffff" stroke-width="2"><g><path d="M 10.001 143L 10 47L 67 47L 70 59L 322 59L 319 47L 367 47L 370 59L 622 59L 619 47L 646 47L 646 10L 742 95L 646.0017 180L 646 143L 619 143L 622 131L 370 131L 367 143L 319.001 143L 322.001 131L 70.001 131L 67.001 143L 10.001 143Z"></path></g></g></g><g id="g-root-4.cu_sy_146q4pdfvqjux-stroke" data-item-order="-316214" transform="translate(330, 375)"><g id="4.cu_sy_146q4pdfvqjux-stroke" fill="none" stroke-linecap="round" stroke-linejoin="round" stroke-miterlimit="4" stroke="#ffffff" stroke-width="2"><g><path d="M 307 10L 295 58L 43 58L 55 10L 307 10ZM 291.992188 70L 279.992188 118L 27.992188 118L 39.992188 70L 291.992188 70ZM 277 130L 25 130L 10 190L 262 190L 277 130Z"></path></g></g></g><g id="g-root-3.cu_sy_zqwmkxfvqkn6-stroke" data-item-order="-316210" transform="translate(330, 123)"><g id="3.cu_sy_zqwmkxfvqkn6-stroke" fill="none" stroke-linecap="round" stroke-linejoin="round" stroke-miterlimit="4" stroke="#ffffff" stroke-width="2"><g><path d="M 307 190L 295 142L 43 142L 55 190L 307 190ZM 291.992188 130L 279.992188 82L 27.992188 82L 39.992188 130L 291.992188 130ZM 277 70L 25 70L 10 10L 262 10L 277 70Z"></path></g></g></g><g id="g-root-2.cu_sy_qv9mc1fvqlfv-stroke" data-item-order="-316206" transform="translate(30, 375)"><g id="2.cu_sy_qv9mc1fvqlfv-stroke" fill="none" stroke-linecap="round" stroke-linejoin="round" stroke-miterlimit="4" stroke="#ffffff" stroke-width="2"><g><path d="M 307.000977 10L 295.000977 58L 43.000977 58L 55.000977 10L 307.000977 10ZM 291.993164 70L 279.993164 118L 27.993164 118L 39.993164 70L 291.993164 70ZM 277.001 130L 25.001 130L 10 190L 262 190L 277.001 130Z"></path></g></g></g><g id="g-root-1.cu_sy_mfg47lfvqm84-stroke" data-item-order="-316202" transform="translate(30, 123)"><g id="1.cu_sy_mfg47lfvqm84-stroke" fill="none" stroke-linecap="round" stroke-linejoin="round" stroke-miterlimit="4" stroke="#ffffff" stroke-width="2"><g><path d="M 307 190L 295 142L 43 142L 55 190L 307 190ZM 291.992188 130L 279.992188 82L 27.992188 82L 39.992188 130L 291.992188 130ZM 277 70L 25 70L 10 10L 262 10L 277 70Z"></path></g></g></g><g id="g-root-tx_nhnghnch_m97dchfvryte-stroke" data-item-order="0" transform="translate(249, 39)"></g><g id="g-root-tx_lichgiai_qp0vgxfvry15-stroke" data-item-order="0" transform="translate(129, 141)"></g><g id="g-root-tx_phnphiti_dboxu9fvs0ln-stroke" data-item-order="0" transform="translate(405, 141)"></g><g id="g-root-tx_cquynkin_18foevlfvrytr-stroke" data-item-order="0" transform="translate(156, 207)"></g><g id="g-root-tx_tchlytis_m7by35fvrzsy-stroke" data-item-order="0" transform="translate(480, 207)"></g><g id="g-root-tx_bcltlaon_13zuwr5fvrzm0-stroke" data-item-order="0" transform="translate(183, 267)"></g><g id="g-root-tx_nghoikod_zisgghfvry81-stroke" data-item-order="0" transform="translate(471, 267)"></g><g id="g-root-tx_nhnghnch_dkfl1tfvqjv1-stroke" data-item-order="0" transform="translate(267, 321)"></g><g id="g-root-tx_chintran_uwk1fvrz0s-stroke" data-item-order="0" transform="translate(135, 387)"></g><g id="g-root-tx_tinbkthu_1uu9mj5fvqm12-stroke" data-item-order="0" transform="translate(483, 387)"></g><g id="g-root-tx_chnghath_1um5gepfvrzlx-stroke" data-item-order="0" transform="translate(144, 447)"></g><g id="g-root-tx_shutnhn_1lz93ddfvqjnz-stroke" data-item-order="0" transform="translate(480, 447)"></g><g id="g-root-tx_xungtton_1lqig5tfvs0em-stroke" data-item-order="0" transform="translate(105, 513)"></g><g id="g-root-tx_muthunni_1d3m34hfvql8g-stroke" data-item-order="0" transform="translate(405, 513)"></g></g></g></svg>