<?xml version="1.0" encoding="utf-8" standalone="yes"?>
<!DOCTYPE svg PUBLIC "-//W3C//DTD SVG 1.1//EN" "http://www.w3.org/Graphics/SVG/1.1/DTD/svg11.dtd">
<svg width="914" height="624" viewBox="0 0 914 624" style="fill:none;stroke:none;fill-rule:evenodd;clip-rule:evenodd;stroke-linecap:round;stroke-linejoin:round;stroke-miterlimit:1.5;" version="1.1" xmlns="http://www.w3.org/2000/svg" xmlns:xlink="http://www.w3.org/1999/xlink"><style class="text-font-style fontImports" data-font-family="Roboto">@import url('https://fonts.googleapis.com/css2?family=Roboto:wght@400;700&amp;display=block');</style><g id="items" style="isolation: isolate"><g id="blend" style="mix-blend-mode: normal"><g id="g-root-4.cu_sy_18hkje9dxmfbe-fill" data-item-order="-218730" transform="translate(183, 432.25146484375)"><g id="4.cu_sy_18hkje9dxmfbe-fill" stroke="none" fill="#f366bb"><g><path d="M 259.368 10.005C 119.89 12.5813 10 41.0613 10 75.8152C 10 112.266 130.883 141.815 280 141.815C 429.117 141.815 550 112.266 550 75.8152C 550 41.0386 439.966 12.5441 300.359 10C 301.324 12.9822 302.319 16.0441 303.378 19.1276C 408.355 21.9514 490 43.5678 490 69.8152C 490 97.9817 395.98 120.815 280 120.815C 164.02 120.815 70 97.9817 70 69.8152C 70 43.5879 151.519 21.9846 256.38 19.1342C 257.426 16.0505 258.412 12.988 259.368 10.005Z"></path></g></g></g><g id="g-root-3.cu_sy_142dicxdxmcxv-fill" data-item-order="-218726" transform="translate(243, 441.37841796875)"><g id="3.cu_sy_142dicxdxmcxv-fill" stroke="none" fill="#1ac3fb"><g><path d="M 196.38 10.0065C 91.5195 12.857 10 34.4603 10 60.6875C 10 88.8541 104.0202 111.688 220 111.688C 335.98 111.688 430 88.8541 430 60.6875C 430 34.4401 348.355 12.8238 243.378 10C 244.316 12.7324 245.303 15.4819 246.362 18.2079C 323.294 21.2777 382 37.561 382 57.1875C 382 79.0028 309.47 96.6875 220 96.6875C 130.53 96.6875 58 79.0028 58 57.1875C 58 37.5784 116.602 21.3066 193.434 18.2161C 194.478 15.49 195.453 12.7399 196.38 10.0065Z"></path></g></g></g><g id="g-root-2.cu_sy_v6qi41dxmdqk-fill" data-item-order="-218722" transform="translate(291, 449.5859375)"><g id="2.cu_sy_v6qi41dxmdqk-fill" stroke="none" fill="#43dd93"><g><path d="M 145.434 10.0082C 68.6021 13.098701 10 29.3705 10 48.979601C 10 70.7949 82.5299 88.4796 172 88.4796C 261.47 88.4796 334 70.7949 334 48.979601C 334 29.3531 275.294 13.0698 198.362 10C 199.596 13.1774 200.927 16.323 202.391 19.3728C 257.297 22.664301 298 34.671401 298 48.979601C 298 65.8243 241.588 79.479601 172 79.479601C 102.4121 79.479601 46 65.8243 46 48.979601C 46 34.684301 86.6291 22.686 141.46 19.381701C 142.903 16.332601 144.216 13.1866 145.434 10.0082Z"></path></g></g></g><g id="g-root-1.cu_sy_qqwzzldxmeit-fill" data-item-order="-218718" transform="translate(327, 458.958984375)"><g id="1.cu_sy_qqwzzldxmeit-fill" stroke="none" fill="#fb6762"><g><path d="M 105.4603 10.0089C 50.6291 13.3132 10 25.3115 10 39.6069C 10 56.4516 66.4121 70.1069 136 70.1069C 205.588 70.1069 262 56.4516 262 39.6069C 262 25.2986 221.297 13.2916 166.391 10C 167.542 12.3981 168.775 14.737 170.107 16.9854C 209.668 20.2872 238 29.1705 238 39.6108C 238 52.8656 192.333 63.6108 135.999 63.6108C 79.6662 63.6108 33.999 52.8656 33.999 39.6108C 33.999 29.1787 62.2868 20.3012 101.7986 16.9932C 103.1108 14.7459 104.3257 12.4074 105.4603 10.0089Z"></path></g></g></g><g id="g-root-0.cu_sy_hv9zqpdxmfbi-fill" data-item-order="-218714" transform="translate(351, 254.5615234375)"><g id="0.cu_sy_hv9zqpdxmfbi-fill" stroke="none" fill="#e8e8e8"><g><path d="M 91.5808 187.032517C 97.1439 169.669617 101.7895 155.170517 111.822 155.170517C 121.844 155.170517 126.491 169.539217 132.074 186.806917C 135.748 198.166117 139.826 210.779817 146.108 221.383017C 185.669 224.684817 214.001 233.568117 214.001 244.008417C 214.001 257.263517 168.334 268.008517 112 268.008517C 55.6672 268.008517 10 257.263517 10 244.008417C 10 233.576317 38.2878 224.698817 77.7996 221.390817C 83.9442 210.866717 87.9571 198.342117 91.5808 187.032517Z"></path></g></g><g id="0.cu_sy_hv9zqpdxmfbi-fill" stroke="none" fill="#e8e8e8"><g><path d="M 82.000702 40.008007C 81.996081 56.579619 95.428732 70.016017 112.000346 70.016017C 128.57196 70.016017 142.004611 56.579619 141.99999 40.008006C 142.004611 23.436393 128.57196 9.999995 112.000346 9.999995C 95.428732 9.999995 81.996081 23.436393 82.000702 40.008006M 94 112.438168C 94.000001 122.379232 102.058826 130.438057 111.99989 130.438057C 121.940954 130.438057 129.999779 122.379232 129.999779 112.438168C 129.999779 102.497104 121.940954 94.438279 111.99989 94.438279C 102.058826 94.438279 94.000001 102.497104 94.000001 112.438168"></path></g></g></g><g id="g-root--1.vector_sy_dg2ypddxmcxz-fill" data-item-order="-218709" transform="translate(615, 303)"></g><g id="g-root--1.vector_1_sy_dg2ypddxmcy0-fill" data-item-order="-218705" transform="translate(255.00021362304688, 303)"></g><g id="g-root--1.vector_2_sy_909gkxdxmdq9-fill" data-item-order="-218701" transform="translate(567, 159)"></g><g id="g-root--1.vector_3_sy_909gkxdxmdqa-fill" data-item-order="-218697" transform="translate(256.0002136230469, 159)"></g><g id="g-root-tx_shptccht_1hf2ywhdxmdj9-fill" data-item-order="0" transform="translate(723, 195)"><g id="tx_shptccht_1hf2ywhdxmdj9-fill" stroke="none" fill="#dffff0"><g><text style="font: 15px Roboto, sans-serif; white-space: pre;" font-size="15px" font-family="Roboto, sans-serif"><tspan x="12" y="31" dominant-baseline="ideographic">Sự hợp tác chặt chẽ </tspan><tspan x="12" y="49" dominant-baseline="ideographic">giữa các tập đoàn và </tspan><tspan x="12" y="67" dominant-baseline="ideographic">chính phủ</tspan></text></g></g></g><g id="g-root-tx_tchhpcng_91ier5dxmfwi-fill" data-item-order="0" transform="translate(51, 279)"><g id="tx_tchhpcng_91ier5dxmfwi-fill" stroke="none" fill="#1ac3fb"><g><text style="font: bold 20px Roboto, sans-serif; white-space: pre;" font-weight="bold" font-size="20px" font-family="Roboto, sans-serif"><tspan x="12.16" y="34" dominant-baseline="ideographic">Tích hợp công </tspan><tspan x="95.36" y="58" dominant-baseline="ideographic">nghệ</tspan></text></g></g></g><g id="g-root-towe_1lw5f75dxmex8-fill" data-item-order="0" transform="translate(195, 279)"></g><g id="g-root-fire_v48lrldxs07i-fill" data-item-order="0" transform="translate(663, 279)"></g><g id="g-root-tx_tcngtonc_6hvlddxmdjf-fill" data-item-order="0" transform="translate(723, 279)"><g id="tx_tcngtonc_6hvlddxmdjf-fill" stroke="none" fill="#f366bb"><g><text style="font: bold 20px Roboto, sans-serif; white-space: pre;" font-weight="bold" font-size="20px" font-family="Roboto, sans-serif"><tspan x="12" y="34" dominant-baseline="ideographic">Tác động toàn </tspan><tspan x="12" y="58" dominant-baseline="ideographic">cầu</tspan></text></g></g></g><g id="g-root-tx_linktvin_dhbwvldxmf49-fill" data-item-order="0" transform="translate(723, 135)"><g id="tx_linktvin_dhbwvldxmf49-fill" stroke="none" fill="#43dd93"><g><text style="font: bold 20px Roboto, sans-serif; white-space: pre;" font-weight="bold" font-size="20px" font-family="Roboto, sans-serif"><tspan x="12" y="34" dominant-baseline="ideographic">Liên kết với nhà </tspan><tspan x="12" y="58" dominant-baseline="ideographic">nước</tspan></text></g></g></g><g id="g-root-tx_vicsdngc_143mgj5dxmf46-fill" data-item-order="0" transform="translate(15, 339)"><g id="tx_vicsdngc_143mgj5dxmf46-fill" stroke="none" fill="#e5f8ff"><g><text style="font: 15px Roboto, sans-serif; white-space: pre;" font-size="15px" font-family="Roboto, sans-serif"><tspan x="15.61" y="28" dominant-baseline="ideographic">Việc sử dụng công nghệ </tspan><tspan x="41.81" y="46" dominant-baseline="ideographic">để kiểm soát kinh tế</tspan></text></g></g></g><g id="g-root-tx_tcngkinh_qssf8xdxmdjb-fill" data-item-order="0" transform="translate(723, 339)"><g id="tx_tcngkinh_qssf8xdxmdjb-fill" stroke="none" fill="#ffe8f6"><g><text style="font: 15px Roboto, sans-serif; white-space: pre;" font-size="15px" font-family="Roboto, sans-serif"><tspan x="12" y="31" dominant-baseline="ideographic">Tác động kinh tế kiểm </tspan><tspan x="12" y="49" dominant-baseline="ideographic">soát trên quy mô toàn </tspan><tspan x="12" y="67" dominant-baseline="ideographic">cầu</tspan></text></g></g></g><g id="g-root-buil_1d30bapdxteyv-fill" data-item-order="0" transform="translate(663, 135)"></g><g id="g-root-shar_1cymzoxdxp891-fill" data-item-order="0" transform="translate(195, 135)"></g><g id="g-root-tx_mrngcquy_mcyx4hdxmebk-fill" data-item-order="0" transform="translate(63, 135)"><g id="tx_mrngcquy_mcyx4hdxmebk-fill" stroke="none" fill="#fb6762"><g><text style="font: bold 20px Roboto, sans-serif; white-space: pre;" font-weight="bold" font-size="20px" font-family="Roboto, sans-serif"><tspan x="13.36" y="34" dominant-baseline="ideographic">Mở rộng độc </tspan><tspan x="73.44" y="58" dominant-baseline="ideographic">quyền</tspan></text></g></g></g><g id="g-root-tx_sphttrin_4mgc1dxmeiz-fill" data-item-order="0" transform="translate(255, 39)"><g id="tx_sphttrin_4mgc1dxmeiz-fill" stroke="none" fill="#f4f4f4"><g><text style="font: bold 20px Roboto, sans-serif; white-space: pre;" font-weight="bold" font-size="20px" font-family="Roboto, sans-serif"><tspan x="15.59" y="34" dominant-baseline="ideographic">Sự phát triển của chủ nghĩa tư bản hiện đại</tspan></text></g></g></g><g id="g-root-tx_ccthcthc_1lu9zxtdxmfws-fill" data-item-order="0" transform="translate(15, 195)"><g id="tx_ccthcthc_1lu9zxtdxmfws-fill" stroke="none" fill="#ffe9e8"><g><text style="font: 15px Roboto, sans-serif; white-space: pre;" font-size="15px" font-family="Roboto, sans-serif"><tspan x="18.41" y="31" dominant-baseline="ideographic">Các thực thể độc quyền </tspan><tspan x="24.69" y="49" dominant-baseline="ideographic">mở rộng ảnh hưởng thị </tspan><tspan x="131.44" y="67" dominant-baseline="ideographic">trường</tspan></text></g></g></g><g id="g-root-4.cu_sy_18hkje9dxmfbe-stroke" data-item-order="-218730" transform="translate(183, 432.25146484375)"><g id="4.cu_sy_18hkje9dxmfbe-stroke" fill="none" stroke-linecap="round" stroke-linejoin="round" stroke-miterlimit="4" stroke="#2c2c2c" stroke-width="2"><g><path d="M 259.3677 10.005C 119.8903 12.5813 10 41.0613 10 75.8152C 10 112.266 130.8831 141.8152 280 141.8152C 429.1169 141.8152 550 112.266 550 75.8152C 550 41.0386 439.966 12.5441 300.3588 10C 301.3236 12.9821 302.3193 16.0441 303.3777 19.1276C 408.3552 21.9514 490 43.5678 490 69.8152C 490 97.9817 395.9798 120.8152 280 120.8152C 164.0202 120.8152 70 97.9817 70 69.8152C 70 43.5879 151.5195 21.9846 256.3805 19.1342C 257.4265 16.0505 258.4117 12.988 259.3677 10.005Z"></path></g></g></g><g id="g-root-3.cu_sy_142dicxdxmcxv-stroke" data-item-order="-218726" transform="translate(243, 441.37841796875)"><g id="3.cu_sy_142dicxdxmcxv-stroke" fill="none" stroke-linecap="round" stroke-linejoin="round" stroke-miterlimit="4" stroke="#2c2c2c" stroke-width="2"><g><path d="M 196.3805 10.0065C 91.5195 12.857 10 34.4603 10 60.6875C 10 88.8541 104.0202 111.6875 220 111.6875C 335.9798 111.6875 430 88.8541 430 60.6875C 430 34.4401 348.3552 12.8238 243.3777 10C 244.3157 12.7324 245.3029 15.4819 246.3617 18.2079C 323.2938 21.2777 382 37.561 382 57.1875C 382 79.0028 309.4701 96.6875 220 96.6875C 130.5299 96.6875 58 79.0028 58 57.1875C 58 37.5784 116.6021 21.3066 193.4337 18.2161C 194.4783 15.49 195.4533 12.7399 196.3805 10.0065Z"></path></g></g></g><g id="g-root-2.cu_sy_v6qi41dxmdqk-stroke" data-item-order="-218722" transform="translate(291, 449.5859375)"><g id="2.cu_sy_v6qi41dxmdqk-stroke" fill="none" stroke-linecap="round" stroke-linejoin="round" stroke-miterlimit="4" stroke="#2c2c2c" stroke-width="2"><g><path d="M 145.4337 10.0082C 68.6021 13.098701 10 29.3705 10 48.979601C 10 70.7949 82.5299 88.4796 172 88.4796C 261.4701 88.4796 334 70.7949 334 48.979601C 334 29.3531 275.2938 13.0698 198.3617 10C 199.5958 13.1774 200.9272 16.323 202.391 19.372701C 257.2975 22.664301 298 34.671401 298 48.979601C 298 65.8243 241.5879 79.479601 172 79.479601C 102.4121 79.479601 46 65.8243 46 48.979601C 46 34.684301 86.6291 22.686 141.4603 19.381701C 142.9028 16.332601 144.2157 13.1866 145.4337 10.0082Z"></path></g></g></g><g id="g-root-1.cu_sy_qqwzzldxmeit-stroke" data-item-order="-218718" transform="translate(327, 458.958984375)"><g id="1.cu_sy_qqwzzldxmeit-stroke" fill="none" stroke-linecap="round" stroke-linejoin="round" stroke-miterlimit="4" stroke="#2c2c2c" stroke-width="2"><g><path d="M 105.4603 10.0089C 50.6291 13.3132 10 25.3115 10 39.6069C 10 56.4516 66.4121 70.1069 136 70.1069C 205.5879 70.1069 262 56.4516 262 39.6069C 262 25.2986 221.2975 13.2915 166.391 10C 167.5421 12.3981 168.7751 14.737 170.1072 16.9854C 209.6677 20.2872 237.9999 29.1705 237.9999 39.6108C 237.9999 52.8656 192.3327 63.6108 135.9995 63.6108C 79.6662 63.6108 33.999 52.8656 33.999 39.6108C 33.999 29.1787 62.2868 20.3012 101.7986 16.9932C 103.1108 14.7459 104.3257 12.4074 105.4603 10.0089Z"></path></g></g></g><g id="g-root-0.cu_sy_hv9zqpdxmfbi-stroke" data-item-order="-218714" transform="translate(351, 254.5615234375)"><g id="0.cu_sy_hv9zqpdxmfbi-stroke" fill="none" stroke-linecap="round" stroke-linejoin="round" stroke-miterlimit="4" stroke="#2c2c2c" stroke-width="2"><g><path d="M 91.5808 187.032517C 97.1439 169.669617 101.7895 155.170517 111.8222 155.170517C 121.8442 155.170517 126.4906 169.539217 132.0744 186.806917C 135.7476 198.166117 139.8265 210.779817 146.1082 221.383017C 185.6687 224.684817 214.0009 233.568117 214.0009 244.008417C 214.0009 257.263217 168.3337 268.008417 112.0004 268.008417C 55.6672 268.008417 10 257.263217 10 244.008417C 10 233.576317 38.2878 224.698817 77.7996 221.390817C 83.9442 210.866717 87.9571 198.342117 91.5808 187.032517ZM 50.209961 244.009008C 62.828761 240.931408 71.497761 232.100308 77.799661 221.391208M 146.108161 221.383408C 152.445561 231.976408 161.184161 240.806208 173.792561 244.009008"></path></g></g><g id="0.cu_sy_hv9zqpdxmfbi-stroke" fill="none" stroke-linecap="round" stroke-linejoin="round" stroke-miterlimit="4" stroke="#2c2c2c" stroke-width="2"><g><path d="M 82.000702 40.008007C 81.996081 56.579619 95.428732 70.016017 112.000346 70.016017C 128.57196 70.016017 142.004611 56.579619 141.99999 40.008006C 142.004611 23.436393 128.57196 9.999995 112.000346 9.999995C 95.428732 9.999995 81.996081 23.436393 82.000702 40.008006M 94 112.438168C 94.000001 122.379232 102.058826 130.438057 111.99989 130.438057C 121.940954 130.438057 129.999779 122.379232 129.999779 112.438168C 129.999779 102.497104 121.940954 94.438279 111.99989 94.438279C 102.058826 94.438279 94.000001 102.497104 94.000001 112.438168"></path></g></g></g><g id="g-root--1.vector_sy_dg2ypddxmcxz-stroke" data-item-order="-218709" transform="translate(615, 303)"><g id="-1.vector_sy_dg2ypddxmcxz-stroke" fill="none" stroke-linecap="round" stroke-linejoin="round" stroke-miterlimit="4" stroke="#f4f4f4" stroke-width="2"><style>.fillAsStrokeColor-qtemupfbu70m { fill:#f4f4f4; }</style><g><path d="M 46 10L 34 10C 20.7452 10 10 20.7786 10 34.0748L 10 152"></path><path d="M 7 152C 7 153.656858 8.343146 155.000004 10 155.000004C 11.656854 155.000004 13 153.656858 13 152.000004C 13 150.34315 11.656854 149.000004 10 149.000004C 8.343146 149.000004 7 150.34315 7 152.000004Z" stroke-dasharray="none" class="fillAsStrokeColor-qtemupfbu70m"></path></g></g></g><g id="g-root--1.vector_1_sy_dg2ypddxmcy0-stroke" data-item-order="-218705" transform="translate(255.00021362304688, 303)"><g id="-1.vector_1_sy_dg2ypddxmcy0-stroke" fill="none" stroke-linecap="round" stroke-linejoin="round" stroke-miterlimit="4" stroke="#f4f4f4" stroke-width="2"><style>.fillAsStrokeColor-qtemupfbu70n { fill:#f4f4f4; }</style><g><path d="M 10 10L 22 10C 35.2548 10 46 20.8093 46 34.1433L 46 167"></path><path d="M 43 167C 43.000001 168.656859 44.343147 170.000005 46.000001 170.000005C 47.656855 170.000005 49.000001 168.656859 49.000001 167.000005C 49.000001 165.34315 47.656855 164.000005 46.000001 164.000005C 44.343147 164.000005 43.000001 165.34315 43.000001 167.000005Z" stroke-dasharray="none" class="fillAsStrokeColor-qtemupfbu70n"></path></g></g></g><g id="g-root--1.vector_2_sy_909gkxdxmdq9-stroke" data-item-order="-218701" transform="translate(567, 159)"><g id="-1.vector_2_sy_909gkxdxmdq9-stroke" fill="none" stroke-linecap="round" stroke-linejoin="round" stroke-miterlimit="4" stroke="#f4f4f4" stroke-width="2"><style>.fillAsStrokeColor-mdl4q9fbu7sw { fill:#f4f4f4; }</style><g><path d="M 94 10L 46.3025 10C 26.2532 10 10 26.1178 10 46L 10 312"></path><path d="M 7 312C 7 313.656863 8.343146 315.000009 10 315.000009C 11.656854 315.000009 13 313.656863 13 312.000009C 13 310.343155 11.656854 309.000009 10 309.000009C 8.343146 309.000009 7 310.343155 7 312.000009Z" stroke-dasharray="none" class="fillAsStrokeColor-mdl4q9fbu7sw"></path></g></g></g><g id="g-root--1.vector_3_sy_909gkxdxmdqa-stroke" data-item-order="-218697" transform="translate(256.0002136230469, 159)"><g id="-1.vector_3_sy_909gkxdxmdqa-stroke" fill="none" stroke-linecap="round" stroke-linejoin="round" stroke-miterlimit="4" stroke="#f4f4f4" stroke-width="2"><style>.fillAsStrokeColor-mdl4q9fbu7sx { fill:#f4f4f4; }</style><g><path d="M 10 10L 57 10C 76.8822 10 93 26.1177 93 46L 93 327"></path><path d="M 90 327C 90.000002 328.656864 91.343148 330.000009 93.000002 330.000009C 94.656857 330.000009 96.000002 328.656864 96.000002 327.000009C 96.000002 325.343155 94.656857 324.000009 93.000002 324.000009C 91.343148 324.000009 90.000002 325.343155 90.000002 327.000009Z" stroke-dasharray="none" class="fillAsStrokeColor-mdl4q9fbu7sx"></path></g></g></g><g id="g-root-tx_shptccht_1hf2ywhdxmdj9-stroke" data-item-order="0" transform="translate(723, 195)"></g><g id="g-root-tx_tchhpcng_91ier5dxmfwi-stroke" data-item-order="0" transform="translate(51, 279)"></g><g id="g-root-towe_1lw5f75dxmex8-stroke" data-item-order="0" transform="translate(195, 279)"><g id="towe_1lw5f75dxmex8-stroke" fill="none" stroke-linecap="round" stroke-linejoin="round" stroke-miterlimit="4" stroke="#1ac3fb" stroke-width="2"><g><path d="M 11 57L 57 57M 29 57L 11 57L 11 26C 11 25.447716 11.447716 25 12 25L 28 25C 28.552284 25 29 25.447716 29 26ZM 53 38C 53 37.447716 52.552284 37 52 37L 46 37C 45.447716 37 45 37.447716 45 38L 45 57L 53 57ZM 41 38C 41 37.447716 40.552284 37 40 37L 34 37C 33.447716 37 33 37.447716 33 38L 33 57L 41 57ZM 23 22C 23 21.447716 22.552284 21 22 21L 18 21C 17.447716 21 17 21.447716 17 22L 17 25L 23 25ZM 19 21L 19 13M 15 31L 25 31M 15 37L 25 37M 15 43L 25 43M 15 49L 25 49M 35 24C 35 21.238575 32.761425 19 30 19M 39 24C 39 19.029438 34.970566 15 30 15M 43 24C 43 16.820297 37.179703 11 30 11"></path></g></g></g><g id="g-root-fire_v48lrldxs07i-stroke" data-item-order="0" transform="translate(663, 279)"><g id="fire_v48lrldxs07i-stroke" fill="none" stroke-linecap="round" stroke-linejoin="round" stroke-miterlimit="4" stroke="#f366bb" stroke-width="2"><g><path d="M 29.246 22.265999C 29.33 22.018 29.417999 21.768 29.514 21.512001C 29.93951 20.633249 30.150618 19.666134 30.130001 18.690001C 30.099823 18.349438 30.245728 18.017059 30.516844 17.808758C 30.787962 17.600456 31.146708 17.545105 31.468 17.662001C 33.243217 18.28553 34.617531 19.714016 35.172001 21.512001C 36.397758 19.689571 37.932098 18.094992 39.706001 16.799999C 40.994553 15.851718 41.746078 14.339725 41.723999 12.74C 41.718651 12.349562 41.941048 11.991722 42.293503 11.82366C 42.645958 11.655599 43.063999 11.708059 43.363998 11.958C 47.86005 15.427221 50.408665 20.850571 50.209999 26.525999C 51.143959 26.033272 51.992756 25.393803 52.723999 24.632C 52.972183 24.362495 53.347878 24.25029 53.703209 24.339539C 54.058544 24.428789 54.336624 24.705208 54.428001 25.060001C 55.396 28.799999 56.192001 36.692001 47.452 40.886002M 43 41.211998C 43.003311 49.523102 36.269104 56.26358 27.958 56.267998C 19.608635 56.135349 12.929726 49.292122 13 40.942001C 13.003587 32.965691 19.379539 26.453814 27.354 26.282C 27.57 26.271999 27.788 26.268 28.006001 26.268C 31.980648 26.246134 35.799553 27.811956 38.614784 30.617802C 41.430016 33.423645 43.008587 37.237297 42.999996 41.211998ZM 27.354 26.282C 18.91 34.760002 18.91 45.821999 27.354 56.256001M 28.658001 26.282C 37.122002 34.760002 37.122002 45.818001 28.658001 56.251999M 14.587999 34.267998L 41.306 34.267998M 13.946 46.268002L 42.130001 46.268002"></path></g></g></g><g id="g-root-tx_tcngtonc_6hvlddxmdjf-stroke" data-item-order="0" transform="translate(723, 279)"></g><g id="g-root-tx_linktvin_dhbwvldxmf49-stroke" data-item-order="0" transform="translate(723, 135)"></g><g id="g-root-tx_vicsdngc_143mgj5dxmf46-stroke" data-item-order="0" transform="translate(15, 339)"></g><g id="g-root-tx_tcngkinh_qssf8xdxmdjb-stroke" data-item-order="0" transform="translate(723, 339)"></g><g id="g-root-buil_1d30bapdxteyv-stroke" data-item-order="0" transform="translate(663, 135)"><g id="buil_1d30bapdxteyv-stroke" fill="none" stroke-linecap="round" stroke-linejoin="round" stroke-miterlimit="4" stroke="#43dd93" stroke-width="2"><g><path d="M 10 10M 45 50.880001L 37.080002 52.48M 38 43.580002L 34.299999 45.099998C 33.711929 45.348942 33.048073 45.348942 32.459999 45.099998C 31.593096 44.743824 31.015936 43.912037 30.98572 42.9753C 30.955502 42.038567 31.477854 41.17131 32.32 40.760002L 36.040001 38.959999C 36.496887 38.721878 37.004787 38.598335 37.52 38.599998C 37.907982 38.608067 38.292442 38.675514 38.66 38.800003L 45.419998 41.400002M 23 52.580002L 25.799999 52.580002L 30.459999 56.119999C 30.941761 56.670044 31.772215 56.740723 32.34 56.279999L 39.34 50.66C 39.905155 50.182648 39.993374 49.344566 39.540001 48.759998L 35.700001 44.52M 32 40.919998L 31.52 40.52C 31.007654 40.171066 30.399796 39.989403 29.780001 40C 29.410326 39.994713 29.043266 40.062683 28.700001 40.200001L 23 42.580002M 17 53.580002C 17 54.132286 17.447716 54.580002 18 54.580002L 21 54.580002C 22.104568 54.580002 23 53.68457 23 52.580002L 23 42.580002C 23 41.475433 22.104568 40.580002 21 40.580002L 18 40.580002C 17.447716 40.580002 17 41.027718 17 41.580002ZM 51 53.580002C 51 54.132286 50.552284 54.580002 50 54.580002L 47 54.580002C 45.895432 54.580002 45 53.68457 45 52.580002L 45 42.580002C 45 41.475433 45.895432 40.580002 47 40.580002L 50 40.580002C 50.552284 40.580002 51 41.027718 51 41.580002ZM 33 34.580002L 33 12.42C 33.003246 12.054714 33.201591 11.719054 33.52 11.54C 33.83321 11.349119 34.226791 11.349119 34.540001 11.54L 46.540001 19.24C 46.826572 19.432541 46.998917 19.754749 46.999996 20.099998L 47 34.540001M 45 18.299999L 45 11.58M 33 20.58L 37 20.58M 33 26.58L 39 26.58M 19 30.58L 25 30.58M 33 24.58L 20 24.58C 19.447716 24.58 19 25.027716 19 25.58L 19 34.580002"></path></g></g></g><g id="g-root-shar_1cymzoxdxp891-stroke" data-item-order="0" transform="translate(195, 135)"><g id="shar_1cymzoxdxp891-stroke" fill="none" stroke-linecap="round" stroke-linejoin="round" stroke-miterlimit="4" stroke="#fb6762" stroke-width="2"><g><path d="M 17 56L 13 50.959999C 11.710997 49.37009 11.005193 47.38678 11 45.34L 11 35C 11 33.343147 12.343145 32 14 32L 14 32C 15.656855 32 17 33.343147 17 35L 17 42.759998M 26 55.720001L 26 49.720001C 26.001097 47.945591 25.471773 46.211361 24.48 44.739998L 22.200001 41.32C 21.808197 40.648251 21.154671 40.169704 20.395975 39.999001C 19.63728 39.828293 18.841766 39.980804 18.200001 40.419998L 18.200001 40.419998C 17.044495 41.218658 16.659557 42.749847 17.299999 44L 20 48.5M 51 56L 55 50.959999C 56.289005 49.37009 56.994808 47.38678 57 45.34L 57 35C 57 33.343147 55.656857 32 54 32L 54 32C 52.343147 32 51 33.343147 51 35L 51 42.779999M 42 55.720001L 42 49.720001C 41.998901 47.945591 42.528225 46.211361 43.52 44.739998L 45.799999 41.32C 46.191803 40.648251 46.845329 40.169704 47.604023 39.999001C 48.36272 39.828293 49.158234 39.980804 49.799999 40.419998L 49.799999 40.419998C 50.955505 41.218658 51.340443 42.749847 50.700001 44L 48 48.5M 29 17C 29 19.761425 31.238577 22 34 22C 36.761425 22 39 19.761425 39 17C 39 14.238577 36.761425 12 34 12C 31.238577 12 29 14.238577 29 17M 27.120001 23.880001L 30.459999 20.540001M 40.879997 23.880001L 37.540001 20.540001M 22 26C 22 27.656855 23.343147 29 25 29C 26.656855 29 28 27.656855 28 26C 28 24.343147 26.656855 23 25 23C 23.343147 23 22 24.343147 22 26M 40 26C 40 27.656855 41.343147 29 43 29C 44.656857 29 46 27.656855 46 26C 46 24.343147 44.656857 23 43 23C 41.343147 23 40 24.343147 40 26"></path></g></g></g><g id="g-root-tx_mrngcquy_mcyx4hdxmebk-stroke" data-item-order="0" transform="translate(63, 135)"></g><g id="g-root-tx_sphttrin_4mgc1dxmeiz-stroke" data-item-order="0" transform="translate(255, 39)"></g><g id="g-root-tx_ccthcthc_1lu9zxtdxmfws-stroke" data-item-order="0" transform="translate(15, 195)"></g></g></g></svg>