<?xml version="1.0" encoding="utf-8" standalone="yes"?>
<!DOCTYPE svg PUBLIC "-//W3C//DTD SVG 1.1//EN" "http://www.w3.org/Graphics/SVG/1.1/DTD/svg11.dtd">
<svg width="845" height="934" viewBox="0 0 845 934" style="fill:none;stroke:none;fill-rule:evenodd;clip-rule:evenodd;stroke-linecap:round;stroke-linejoin:round;stroke-miterlimit:1.5;" version="1.1" xmlns="http://www.w3.org/2000/svg" xmlns:xlink="http://www.w3.org/1999/xlink"><style class="text-font-style fontImports" data-font-family="Roboto">@import url('https://fonts.googleapis.com/css2?family=Roboto:wght@400;700&amp;display=block');</style><g id="items" style="isolation: isolate"><g id="blend" style="mix-blend-mode: normal"><g id="g-root-di_m9ut5tehtz40-fill" data-item-order="-31105" transform="translate(592.9982299804688, 602.99951171875)"><g id="di_m9ut5tehtz40-fill" stroke="none" fill="#f79438"><g><path d="M 10.000122 82.000488L 118.000122 154.000488L 226.000122 82.000488L 118.000122 10.000488Z"></path></g></g></g><g id="g-root-di_mcz6ldehirya-fill" data-item-order="-23051" transform="translate(155.04949951171875, 602.99755859375)"><g id="di_mcz6ldehirya-fill" stroke="none" fill="#f79438"><g><path d="M 10.000031 58.860488L 127.950031 107.710488L 245.900031 58.860488L 127.950031 10.000488Z"></path></g></g></g><g id="g-root-ro_143mq01ehisqw-fill" data-item-order="-23040" transform="translate(395.9705810546875, 427)"><g id="ro_143mq01ehisqw-fill" stroke="none" fill="#1ac3fb"><g><path d="M 22 10L 190 10C 190 10 202 10 202 22L 202 118C 202 118 202 130 190 130L 22 130C 22 130 10 130 10 118L 10 22C 10 22 10 10 22 10"></path></g></g></g><g id="g-root-ro_mfh2xtehadxh-fill" data-item-order="-21600" transform="translate(401.9705810546875, 251)"><g id="ro_mfh2xtehadxh-fill" stroke="none" fill="#1ac3fb"><g><path d="M 22 10L 178 10C 178 10 190 10 190 22L 190 118C 190 118 190 130 178 130L 22 130C 22 130 10 130 10 118L 10 22C 10 22 10 10 22 10"></path></g></g></g><g id="g-root-ro_v4vcblehu0pa-fill" data-item-order="-12960" transform="translate(423, 803)"><g id="ro_v4vcblehu0pa-fill" stroke="none" fill="#1ac3fb"><g><path d="M 22 10L 178 10C 178 10 190 10 190 22L 190 70C 190 70 190 82 178 82L 22 82C 22 82 10 82 10 70L 10 22C 10 22 10 10 22 10"></path></g></g></g><g id="g-root-ro_qn6extehadc2-fill" data-item-order="-11232" transform="translate(413.9705810546875, 123)"><g id="ro_qn6extehadc2-fill" stroke="none" fill="#ababab"><g><path d="M 22 10L 154 10C 154 10 166 10 166 22L 166 70C 166 70 166 82 154 82L 22 82C 22 82 10 82 10 70L 10 22C 10 22 10 10 22 10"></path></g></g></g><g id="g-root-ro_zitf6pehvf2j-fill" data-item-order="-11232" transform="translate(623, 803)"><g id="ro_zitf6pehvf2j-fill" stroke="none" fill="#1ac3fb"><g><path d="M 22 10L 154 10C 154 10 166 10 166 22L 166 70C 166 70 166 82 154 82L 22 82C 22 82 10 82 10 70L 10 22C 10 22 10 10 22 10"></path></g></g></g><g id="g-root-ro_1uqjqqpehr6dk-fill" data-item-order="-9504" transform="translate(131, 803)"><g id="ro_1uqjqqpehr6dk-fill" stroke="none" fill="#1ac3fb"><g><path d="M 22 10L 130 10C 130 10 142 10 142 22L 142 70C 142 70 142 82 130 82L 22 82C 22 82 10 82 10 70L 10 22C 10 22 10 10 22 10"></path></g></g></g><g id="g-root-ro_zmk9pdehsljf-fill" data-item-order="-8640" transform="translate(283, 803)"><g id="ro_zmk9pdehsljf-fill" stroke="none" fill="#1ac3fb"><g><path d="M 22 10L 118 10C 118 10 130 10 130 22L 130 70C 130 70 130 82 118 82L 22 82C 22 82 10 82 10 70L 10 22C 10 22 10 10 22 10"></path></g></g></g><g id="g-root-ro_1hdua75ehpsel-fill" data-item-order="-6912" transform="translate(15, 803)"><g id="ro_1hdua75ehpsel-fill" stroke="none" fill="#1ac3fb"><g><path d="M 22 10L 94 10C 94 10 106 10 106 22L 106 70C 106 70 106 82 94 82L 22 82C 22 82 10 82 10 70L 10 22C 10 22 10 10 22 10"></path></g></g></g><g id="g-root-tx_biuhinca_1hd7t41ehveo3-fill" data-item-order="0" transform="translate(130.00003051757812, 39)"><g id="tx_biuhinca_1hd7t41ehveo3-fill" stroke="none" fill="#f4f4f4"><g><text style="font: 25px Roboto, sans-serif; white-space: pre;" font-size="25px" font-family="Roboto, sans-serif"><tspan x="16.42" y="43" dominant-baseline="ideographic">Biểu hiện của chủ nghĩa tư bản độc quyền quốc tế</tspan></text></g></g></g><g id="g-root-cu_ddlbttehvggf-fill" data-item-order="2" transform="translate(491.9705810546875, 371)"></g><g id="g-root-cu_htety9ehvgg2-fill" data-item-order="2" transform="translate(273, 547)"></g><g id="g-root-cu_1q88c9tehvg9a-fill" data-item-order="2" transform="translate(491.9705810546875, 547)"></g><g id="g-root-cu_m98c2pehvfno-fill" data-item-order="2" transform="translate(491.9705810546875, 195)"></g><g id="g-root-cu_8yeashehve31-fill" data-item-order="2" transform="translate(63, 700.71142578125)"></g><g id="g-root-cu_4ikso1ehvevc-fill" data-item-order="2" transform="translate(197, 700.71142578125)"></g><g id="g-root-cu_2rajlehvfnm-fill" data-item-order="2" transform="translate(273, 700.71142578125)"></g><g id="g-root-cu_2rajlehvfno-fill" data-item-order="2" transform="translate(273, 700.71142578125)"></g><g id="g-root-cu_1lt1b8hehvdvs-fill" data-item-order="2" transform="translate(701, 747.0009765625)"></g><g id="g-root-glob_18jg84hehiryn-fill" data-item-order="3999999100" transform="translate(407.9705810546875, 472)"><g id="glob_18jg84hehiryn-fill" stroke="none" fill="#f4f4f4"><g><path d="M 38.75 21.875L 38.099998 21.875L 38.099998 21.25L 38.099998 20.625L 38.75 20.625C 39.440353 20.625 40 20.065357 40 19.375C 40 18.684645 39.440353 18.125 38.75 18.125L 37.5 18.125C 36.269566 15.440288 33.578159 13.727572 30.625 13.75L 28.125 13.75C 27.434643 13.75 26.875 14.309644 26.875 15L 26.875 18.125L 25.625 18.125C 24.934643 18.125 24.375 18.684645 24.375 19.375C 24.375 20.065357 24.934643 20.625 25.625 20.625L 26.875 20.625L 26.875 21.875L 25.625 21.875C 24.934643 21.875 24.375 22.434643 24.375 23.125C 24.375 23.815357 24.934643 24.375 25.625 24.375L 26.875 24.375L 26.875 36.25C 26.875 36.940353 27.434643 37.5 28.125 37.5C 28.815357 37.5 29.375 36.940353 29.375 36.25L 29.375 28.75L 30.625 28.75C 33.578159 28.772429 36.269566 27.059713 37.5 24.375L 38.75 24.375C 39.440353 24.375 40 23.815357 40 23.125C 40 22.434643 39.440353 21.875 38.75 21.875ZM 29.375 16.25L 30.625 16.25C 32.142139 16.250948 33.57679 16.940683 34.525002 18.125L 29.375 18.125ZM 29.375 20.625L 35.625 20.625C 35.675018 21.040165 35.675018 21.459833 35.624996 21.874998L 29.375 21.875ZM 30.625 26.25L 29.375 26.25L 29.375 24.375L 34.525002 24.375C 33.57679 25.559317 32.142139 26.249052 30.625 26.25ZM 24.924999 12.5875C 24.985983 12.530526 25.066545 12.499196 25.149998 12.5L 25.599998 12.5C 26.290356 12.5 26.849998 11.940356 26.849998 11.25C 26.849998 10.559644 26.290356 10 25.599998 10C 11.15 10 10 23.1625 10 25C 10 26.8375 11.1375 40 25.599998 40C 26.290356 40 26.849998 39.440353 26.849998 38.75C 26.849998 38.059647 26.290356 37.5 25.599998 37.5L 25.15 37.5C 25.065083 37.496189 24.984732 37.46048 24.925001 37.400002C 23.660631 36.176064 22.559837 34.79377 21.650002 33.287502C 21.596951 33.190544 21.599058 33.072781 21.65554 32.977787C 21.712025 32.882793 21.814482 32.824699 21.924999 32.825001L 23.85 32.825001C 24.540356 32.825001 25.1 32.265354 25.1 31.575001C 25.1 30.884645 24.540356 30.325001 23.85 30.325001L 20.612499 30.325001C 20.473612 30.325001 20.351389 30.233334 20.3125 30.1C 19.996181 28.952532 19.799303 27.775446 19.725 26.5875C 19.715876 26.499063 19.74818 26.411379 19.8125 26.35C 19.859936 26.293943 19.927023 26.258165 20 26.25L 20.625 26.25C 21.315357 26.25 21.875 25.690357 21.875 25C 21.875 24.309643 21.315357 23.75 20.625 23.75L 20 23.75C 19.913799 23.752094 19.831209 23.715387 19.775 23.65C 19.712711 23.592495 19.680428 23.509478 19.6875 23.424999C 19.761833 22.23295 19.958704 21.051723 20.275 19.9C 20.313889 19.766666 20.436111 19.674999 20.575001 19.674999L 21.825001 19.674999C 22.515356 19.674999 23.075001 19.115356 23.075001 18.424999C 23.075001 17.734644 22.515356 17.174999 21.825001 17.174999C 21.713371 17.176392 21.611029 17.113037 21.5625 17.012501C 21.499727 16.92235 21.499727 16.802649 21.5625 16.7125C 22.518747 15.211159 23.647242 13.826761 24.925001 12.587501ZM 20.475 36.025002C 20.558334 36.136112 20.558334 36.288887 20.475 36.400002C 20.389984 36.510437 20.242113 36.551231 20.112499 36.5C 18.437342 35.77692 16.936886 34.702728 15.712501 33.349998C 15.652211 33.245579 15.652211 33.11692 15.712501 33.012501C 15.76236 32.898254 15.875348 32.824566 16 32.825001L 18.5 32.825001C 18.624653 32.824566 18.73764 32.898254 18.7875 33.012501C 19.242678 34.073124 19.808296 35.082863 20.474998 36.024998ZM 17.7125 30C 17.754778 30.082394 17.754778 30.180107 17.7125 30.262499C 17.653715 30.333082 17.566853 30.374229 17.475 30.375L 13.9 30.375C 13.781874 30.375896 13.674217 30.307388 13.625 30.200001C 13.105442 29.075434 12.759829 27.878431 12.6 26.65C 12.587336 26.559717 12.61473 26.468403 12.675 26.4C 12.72861 26.317865 12.815298 26.263115 12.9125 26.25L 16.9125 26.25C 17.075779 26.249477 17.211939 26.374743 17.225 26.537498C 17.289791 27.703327 17.452871 28.861607 17.7125 30ZM 17.225 23.512501C 17.211939 23.675257 17.075779 23.800524 16.9125 23.799999L 12.9125 23.799999C 12.823223 23.799393 12.737824 23.763435 12.675 23.700001C 12.61473 23.631596 12.587336 23.540283 12.6 23.450001C 12.754843 22.204498 13.10056 20.990269 13.625 19.85C 13.674217 19.742611 13.781874 19.674103 13.9 19.674999L 17.4125 19.674999C 17.505251 19.676832 17.592396 19.71978 17.650349 19.792221C 17.708302 19.864662 17.731071 19.959108 17.7125 20.049999C 17.455633 21.17201 17.29257 22.313448 17.225 23.462502ZM 15.975 17.262501C 15.850348 17.262934 15.73736 17.189247 15.6875 17.075001C 15.627212 16.970577 15.627212 16.841923 15.6875 16.737501C 16.906654 15.351664 18.412165 14.247054 20.1 13.5C 20.229614 13.448769 20.377485 13.489561 20.4625 13.6C 20.545834 13.711111 20.545834 13.863889 20.4625 13.975C 19.791639 14.918912 19.21789 15.928206 18.75 16.987499C 18.70014 17.101746 18.587152 17.175434 18.4625 17.174999Z"></path></g></g></g><g id="g-root-ftp_4mpsxehr8y7-fill" data-item-order="3999999100" transform="translate(143, 824)"><g id="ftp_4mpsxehr8y7-fill" stroke="none" fill="#f4f4f4"><g><path d="M 24.375 16.875C 25.065357 16.875 25.625 16.315355 25.625 15.625L 25.625 14.6875C 25.625 14.514911 25.764912 14.375 25.9375 14.375L 27.5 14.375C 27.752314 14.37374 27.979122 14.220891 28.075001 13.9875C 28.179722 13.756413 28.124273 13.484208 27.9375 13.3125L 24.8125 10.1875C 24.699081 10.066653 24.540731 9.998101 24.374998 9.998101C 24.209267 9.998101 24.050915 10.066653 23.9375 10.1875L 20.8125 13.3125C 20.625727 13.484208 20.570278 13.756413 20.674999 13.9875C 20.770878 14.220891 20.997686 14.37374 21.25 14.375L 22.8125 14.375C 22.985088 14.375 23.125 14.514911 23.125 14.6875L 23.125 15.625C 23.125 16.315355 23.684643 16.875 24.375 16.875ZM 31.5625 22.8125C 31.389912 22.8125 31.25 22.952412 31.25 23.125L 31.25 24.375C 31.25 24.547588 31.389912 24.6875 31.5625 24.6875L 32.1875 24.6875C 32.705265 24.6875 33.125 24.267767 33.125 23.75C 33.125 23.232233 32.705265 22.8125 32.1875 22.8125ZM 12.5 20L 12.5 30C 12.5 31.035536 13.339466 31.875 14.375 31.875L 35.625 31.875C 36.660534 31.875 37.5 31.035536 37.5 30L 37.5 20C 37.5 18.964466 36.660534 18.125 35.625 18.125L 14.375 18.125C 13.339466 18.125 12.5 18.964466 12.5 20ZM 29.375 21.875C 29.381731 21.360046 29.797546 20.944231 30.3125 20.9375L 32.1875 20.9375C 33.740803 20.9375 35 22.196699 35 23.75C 35 25.303301 33.740803 26.5625 32.1875 26.5625L 31.5625 26.5625C 31.389912 26.5625 31.25 26.702412 31.25 26.875L 31.25 28.125C 31.25 28.642767 30.830267 29.0625 30.3125 29.0625C 29.794733 29.0625 29.375002 28.642767 29.375002 28.125ZM 23.4375 22.8125C 22.919733 22.8125 22.5 22.392767 22.5 21.875C 22.5 21.357233 22.919733 20.9375 23.4375 20.9375L 27.1875 20.9375C 27.705267 20.9375 28.125 21.357233 28.125 21.875C 28.125 22.392767 27.705267 22.8125 27.1875 22.8125L 26.5625 22.8125C 26.389912 22.8125 26.25 22.952412 26.25 23.125L 26.25 28.125C 26.25 28.642767 25.830267 29.0625 25.3125 29.0625C 24.794733 29.0625 24.375 28.642767 24.375 28.125L 24.375 23.125C 24.375 22.952412 24.235088 22.8125 24.0625 22.8125ZM 19.0625 24.0625C 19.580267 24.0625 20 24.482233 20 25C 20 25.517767 19.580267 25.9375 19.0625 25.9375L 17.8125 25.9375C 17.639912 25.9375 17.5 26.077412 17.5 26.25L 17.5 28.125C 17.5 28.642767 17.080267 29.0625 16.5625 29.0625C 16.044733 29.0625 15.625 28.642767 15.625 28.125L 15.625 23.125C 15.625 21.916878 16.604378 20.9375 17.8125 20.9375L 20.3125 20.9375C 20.830267 20.9375 21.25 21.357233 21.25 21.875C 21.25 22.392767 20.830267 22.8125 20.3125 22.8125L 17.8125 22.8125C 17.639912 22.8125 17.5 22.952412 17.5 23.125L 17.5 23.75C 17.5 23.922588 17.639912 24.0625 17.8125 24.0625ZM 24.375 33.125C 23.684643 33.125 23.125 33.684647 23.125 34.375L 23.125 35.3125C 23.125 35.485088 22.985088 35.625 22.8125 35.625L 21.25 35.625C 20.997686 35.626259 20.770878 35.77911 20.674999 36.012501C 20.57424 36.244015 20.629204 36.513844 20.8125 36.6875L 23.9375 39.8125C 24.050915 39.933346 24.209267 40.001896 24.374998 40.001896C 24.540731 40.001896 24.699081 39.933346 24.8125 39.8125L 27.9375 36.6875C 28.120794 36.513844 28.175758 36.244015 28.074999 36.012501C 27.979122 35.77911 27.752314 35.626259 27.5 35.625L 25.9375 35.625C 25.764912 35.625 25.625 35.485088 25.625 35.3125L 25.625 34.375C 25.625 33.684647 25.065357 33.125 24.375 33.125Z"></path></g></g></g><g id="g-root-hand_18egfflehve9u-fill" data-item-order="3999999100" transform="translate(635, 824)"><g id="hand_18egfflehve9u-fill" stroke="none" fill="#f4f4f4"><g><path d="M 38.75 23.950001L 36.174999 23.950001C 35.783234 23.948961 35.397106 24.043348 35.049999 24.225C 34.969509 24.255775 34.880493 24.255775 34.799999 24.225L 29.424999 22.174999C 28.385809 21.806681 27.242418 21.869701 26.25 22.35L 23.6 23.6C 23.506538 23.651138 23.393461 23.651138 23.300001 23.6C 22.294287 23.017721 21.075441 22.934618 20 23.375L 16.25 25C 16.122787 25.049952 15.977916 25.014984 15.8875 24.912498C 15.380269 24.321293 14.64147 23.979256 13.8625 23.975002L 11.25 23.975C 10.735047 23.981731 10.319232 24.397547 10.3125 24.912498L 10.3125 36.787498C 10.3125 37.305267 10.732233 37.724998 11.25 37.724998L 13.825 37.724998C 14.684497 37.730568 15.492273 37.315006 15.9875 36.612499C 16.042046 36.517578 16.140715 36.456497 16.25 36.449997L 17.4125 36.450001C 17.48225 36.450317 17.549273 36.477123 17.6 36.524998L 21.1 39.275002C 21.554049 39.738892 22.17588 40.000244 22.824999 40C 23.38891 39.996727 23.935152 39.802902 24.375 39.450001L 28.1875 36.3125C 28.226601 36.279243 28.274231 36.257591 28.325001 36.25L 33.200001 35.274998C 33.276554 35.246227 33.360947 35.246227 33.4375 35.275002C 33.501862 35.324467 33.546242 35.395473 33.5625 35.475002C 33.792358 36.736618 34.892612 37.652618 36.174999 37.649998L 38.75 37.650002C 39.267769 37.650002 39.6875 37.230267 39.6875 36.712502L 39.6875 24.8375C 39.654869 24.342163 39.246376 23.955458 38.75 23.950001ZM 28.475 32.850002L 23.075001 37.362499C 22.971773 37.441696 22.828228 37.441696 22.725 37.362499L 18.75 34.224998C 18.530077 34.04855 18.256954 33.951637 17.975 33.950001L 16.799999 33.950001C 16.627411 33.950001 16.487499 33.810089 16.487499 33.637501L 16.487499 27.775C 16.491924 27.654907 16.564823 27.547989 16.674999 27.5L 20.9 25.700001C 20.994017 25.651085 21.10598 25.651085 21.199999 25.699999C 21.279076 25.772919 21.308378 25.885246 21.275 25.987499C 21.104347 26.667381 21.148006 27.383389 21.4 28.0375C 21.711443 28.872694 22.342901 29.549328 23.154617 29.91765C 23.966333 30.285971 24.891373 30.315609 25.725 30L 25.924999 29.9125C 26.041128 29.875853 26.167969 29.910002 26.25 30L 28.487499 32.5C 28.541096 32.562229 28.568037 32.643059 28.5625 32.724998C 28.545124 32.773788 28.514893 32.816975 28.475 32.850002ZM 33.475002 32.400002C 33.478043 32.550861 33.372849 32.68235 33.224998 32.712502L 31.587502 33.037498C 31.495052 33.061573 31.396683 33.038151 31.324999 32.974998C 31.250996 32.913441 31.209496 32.821213 31.2125 32.724998C 31.2125 31.475 30.775002 31.2125 27.35 27.4375C 26.984945 27.067888 26.437574 26.945707 25.949999 27.124998L 24.700001 27.612499C 24.500902 27.70023 24.274097 27.70023 24.075001 27.612499C 23.877102 27.523804 23.720587 27.36282 23.637501 27.162498C 23.476826 26.775654 23.647106 26.330727 24.025 26.15L 27.225 24.6C 27.617256 24.418091 28.063807 24.3913 28.475 24.525L 33.275002 26.362499C 33.371601 26.402277 33.435417 26.49555 33.4375 26.6ZM 21.5625 21.1625C 21.574909 21.046164 21.574909 20.928837 21.5625 20.8125L 21.5625 20.3125C 21.565414 19.618639 21.192287 18.977625 20.5875 18.637501L 18.75 17.5C 19.027142 15.081034 20.665592 13.034711 22.965389 12.235246C 25.265182 11.43578 27.819654 12.02454 29.5375 13.75L 28.450001 14.8375L 26.174999 14.8375C 25.734604 14.837869 25.317411 15.035004 25.0375 15.375L 24.349998 16.25C 23.890102 16.835274 23.938347 17.671497 24.4625 18.200001L 25.4125 19.15C 25.755241 19.494991 26.248104 19.645197 26.724998 19.549999L 28.387501 19.2125L 29.362499 19.700001L 29.15 20.112499C 29.475658 20.163406 29.794405 20.251482 30.1 20.375L 32.599998 21.325001C 32.997597 20.348633 33.201385 19.304218 33.200001 18.25C 33.22554 14.800898 31.096348 11.70223 27.867428 10.489371C 24.638504 9.276512 20.995819 10.207125 18.744301 12.820097C 16.492781 15.433069 16.110748 19.17329 17.7875 22.1875L 19.137501 21.612499C 19.90185 21.282516 20.730646 21.128717 21.5625 21.1625Z"></path></g></g></g><g id="g-root-2_18i79y9ehskqq-fill" data-item-order="3999999100" transform="translate(295, 824)"><g id="2_18i79y9ehskqq-fill" stroke="none" fill="#f4f4f4"><g><path d="M 25 23.75C 26.09 23.75 27.120001 23.49625 28.036249 23.045C 27.493452 22.427485 27.192034 21.634651 27.1875 20.8125C 27.1875 20.643751 27.20125 20.475 27.22625 20.307501C 26.857988 20.52438 26.38966 20.464745 26.087502 20.1625C 25.453751 19.528749 24.547499 19.528749 23.9125 20.1625C 23.678787 20.413317 23.326805 20.516562 22.99464 20.431732C 22.662472 20.346901 22.403099 20.087526 22.31827 19.755362C 22.23344 19.423195 22.336685 19.071213 22.587502 18.8375C 23.953751 17.471251 26.047501 17.471251 27.4125 18.8375C 27.483217 18.907692 27.542292 18.988708 27.587502 19.077499C 27.675001 18.865 27.768749 18.6675 27.8575 18.4925C 28.162184 17.903299 28.5063 17.33534 28.887499 16.7925C 29.20775 16.327536 29.699961 16.009224 30.255377 15.907898C 30.810793 15.806572 31.383694 15.930573 31.847498 16.252501C 31.511038 12.551796 28.294861 9.788195 24.58567 10.012542C 20.876482 10.236889 18.01684 13.36798 18.128866 17.08226C 18.240891 20.796539 21.284031 23.749601 25 23.75ZM 12.5 38.125C 12.5 31.221249 18.096251 25.625 25 25.625C 31.903751 25.625 37.5 31.221249 37.5 38.125L 37.5 38.75C 37.5 39.440353 36.940353 40 36.25 40L 34.375 40L 34.375 36.875C 34.375 35.494286 33.255714 34.375 31.875 34.375L 31.875 30.625C 31.875 29.244287 30.755713 28.125 29.375 28.125L 26.5625 28.125C 25.386187 28.124601 24.368717 28.944304 24.11875 30.09375C 23.897066 30.031282 23.667816 29.999735 23.4375 30L 19.375 30C 17.994287 30 16.875 31.119287 16.875 32.5L 16.875 34.709999C 16.101517 35.15657 15.625023 35.981857 15.625 36.875L 15.625 40L 13.75 40C 13.059644 40 12.5 39.440353 12.5 38.75L 12.5 38.125ZM 17.5 40L 32.5 40L 32.5 36.875C 32.5 36.529823 32.220177 36.25 31.875 36.25L 18.125 36.25C 17.779821 36.25 17.5 36.529823 17.5 36.875L 17.5 40ZM 30 34.6875L 30 30.625C 30 30.279823 29.720177 30 29.375 30L 26.5625 30C 26.217323 30 25.9375 30.279823 25.9375 30.625L 25.9375 34.6875L 30 34.6875ZM 24.0625 34.375L 24.0625 34.6875L 18.75 34.6875L 18.75 32.5C 18.75 32.154823 19.029821 31.875 19.375 31.875L 23.4375 31.875C 23.782677 31.875 24.0625 32.154823 24.0625 32.5L 24.0625 34.375ZM 30.625 22.6875C 31.625 22.6875 32.5 21.8125 32.5 20.8125C 32.5 19.799999 31.647501 18.4475 31.091249 17.674999C 30.985964 17.523661 30.812666 17.43416 30.628315 17.435911C 30.443958 17.437662 30.272396 17.530439 30.17 17.68375C 29.615 18.4825 28.75 19.87875 28.75 20.8125C 28.75 21.8125 29.625 22.6875 30.625 22.6875Z"></path></g></g></g><g id="g-root-ente_qval29ehad58-fill" data-item-order="3999999100" transform="translate(413.9705810546875, 296)"><g id="ente_qval29ehad58-fill" stroke="none" fill="#f4f4f4"><g><path d="M 32.200001 25.637501C 31.522638 27.372505 29.97673 28.618746 28.137499 28.912498C 28.262629 29.261776 28.330175 29.629061 28.3375 30C 28.332561 30.429821 28.24338 30.854502 28.075001 31.25C 30.72332 31.737177 32.558559 34.169689 32.299999 36.850002C 35.819839 33.11116 35.906586 27.304813 32.5 23.462502C 32.559502 24.200695 32.457115 24.942978 32.200001 25.637501ZM 23.5375 27.012499C 23.83777 26.863871 24.157633 26.758654 24.487499 26.699999L 25 26.699999C 25.393055 26.700436 25.782743 26.772444 26.15 26.9125L 26.2125 26.9125C 26.572676 27.045338 26.953608 27.11306 27.337498 27.112499C 28.928488 27.104267 30.292469 25.974142 30.596306 24.412415C 30.900143 22.850687 30.059355 21.291616 28.587502 20.6875C 26.99448 20.082619 25.272686 19.897526 23.5875 20.15ZM 30.275 35.224998C 29.810543 33.883022 28.545074 32.984138 27.125 32.987503C 26.75049 32.988762 26.37878 33.052124 26.025 33.174999C 25.699268 33.286633 25.356808 33.341595 25.012501 33.337502C 24.798586 33.335262 24.585276 33.31435 24.375 33.275002C 23.779381 33.172321 23.22481 32.903702 22.775 32.5C 21.8349 34.052105 20.152113 35.000156 18.337502 35C 17.550753 34.998123 16.774057 34.823151 16.0625 34.487499C 17.772877 37.855011 21.22307 39.983032 25.000002 40.000004C 26.089085 39.999428 27.170496 39.817783 28.199999 39.462502C 29.942682 38.864815 30.871452 36.968105 30.275002 35.224998ZM 15.2375 31.0375C 15.841617 32.509354 17.400686 33.350143 18.962414 33.046307C 20.524141 32.742466 21.654266 31.378489 21.6625 29.7875L 21.6625 16.6625C 21.6625 12.982903 18.679596 10 15 10L 15 28.85C 15.002151 29.585482 15.081757 30.318695 15.2375 31.0375Z"></path></g></g></g><g id="g-root-netw_v2zx29ehacjt-fill" data-item-order="3999999100" transform="translate(425.9705810546875, 144)"><g id="netw_v2zx29ehacjt-fill" stroke="none" fill="#f4f4f4"><g><path d="M 30.75 25.800001C 30.776356 25.689123 30.73761 25.572887 30.649998 25.5C 30.040562 24.972137 29.689533 24.206255 29.6875 23.4C 29.688385 23.154959 29.722015 22.911133 29.7875 22.675001C 29.827944 22.550003 29.782354 22.413231 29.674999 22.337498C 27.944118 21.085514 25.884169 20.368443 23.749998 20.275L 23.65 20.275C 23.498758 20.261976 23.358648 20.355383 23.3125 20.5C 22.937473 21.848198 21.71188 22.782713 20.3125 22.7875C 20.293163 22.776335 20.269339 22.776335 20.25 22.7875C 19.963438 24.380362 19.925486 26.008013 20.137499 27.612499C 20.160139 27.749418 20.264284 27.858521 20.400002 27.887501C 23.173727 28.343794 25.857241 29.238298 28.349998 30.537498C 28.490118 30.603832 28.657581 30.561966 28.749998 30.437498C 29.721006 29.041479 30.401173 27.464344 30.75 25.800001ZM 27.025 32.5C 27.095495 32.427017 27.127861 32.325298 27.112499 32.224998C 27.097557 32.121548 27.031881 32.032417 26.9375 31.987499C 25.094212 31.086693 23.145872 30.419048 21.137501 30C 21.026623 29.973642 20.910387 30.012388 20.8375 30.1C 20.763311 30.181015 20.739336 30.296097 20.775 30.4C 20.966524 30.968994 21.196211 31.524422 21.4625 32.0625C 22.005701 33.099586 22.686895 34.058304 23.487499 34.912498C 23.589989 35.023975 23.755888 35.0499 23.887499 34.974998C 24.974512 34.203583 26.021692 33.377525 27.025 32.5ZM 17.875 27.625C 17.973839 27.627069 18.067352 27.580313 18.125 27.499998C 18.184658 27.430687 18.215912 27.341387 18.2125 27.25C 18.037062 25.580427 18.121395 23.893749 18.462502 22.25C 18.47813 22.222927 18.47813 22.189573 18.4625 22.162498C 18.038933 21.833071 17.703888 21.403526 17.487499 20.912498C 17.435505 20.776295 17.293114 20.697189 17.15 20.725C 14.513991 21.198776 12.070533 22.422676 10.1125 24.25C 10.059252 24.30331 10.028015 24.37471 10.025 24.449999L 10.025 24.9625C 10.027385 25.962233 10.132097 26.959095 10.3375 27.937502C 10.351567 28.021194 10.401894 28.094395 10.475 28.137501C 10.54964 28.175362 10.63786 28.175362 10.7125 28.137499C 13.06349 27.626993 15.475276 27.454422 17.875 27.625ZM 21.537498 36.137501C 21.632994 36.10453 21.704176 36.023857 21.725 35.924999C 21.749065 35.828609 21.725863 35.726521 21.6625 35.650002C 20.929287 34.802917 20.299831 33.871326 19.7875 32.875C 19.294567 31.89575 18.913015 30.864304 18.65 29.799999C 18.618507 29.670198 18.508001 29.574762 18.375 29.5625C 15.991522 29.348541 13.589396 29.49604 11.25 30C 11.159807 30.022583 11.082926 30.081375 11.0375 30.162502C 10.999372 30.241472 10.999372 30.333529 11.0375 30.4125C 12.097765 33.091995 13.907405 35.409378 16.25 37.087502C 16.311491 37.103378 16.376009 37.103378 16.4375 37.087502C 18.18115 37.083862 19.909485 36.761917 21.5375 36.137501ZM 33.662498 26.25C 33.587601 26.149309 33.456047 26.108829 33.337502 26.15C 33.169506 26.196518 32.998158 26.229952 32.825001 26.25C 32.691998 26.262262 32.58149 26.3577 32.550003 26.487499C 31.824999 29.8125 29.887501 33.175003 25.362499 36.287502C 25.289228 36.347244 25.240328 36.431709 25.225 36.525002C 25.225504 36.621712 25.261028 36.714966 25.324999 36.787498C 26.383795 37.736439 27.498276 38.621346 28.6625 39.4375C 28.744352 39.481956 28.843147 39.481956 28.924999 39.4375C 32.14698 38.560764 34.984306 36.634022 36.987499 33.962502C 37.039871 33.89518 37.06245 33.80938 37.049999 33.724998C 36.560677 30.990196 35.396301 28.420834 33.662498 26.25ZM 17.125 18.825001C 17.241808 18.807131 17.338547 18.724903 17.375 18.612499C 17.776123 17.474215 18.799129 16.670424 20 16.550001C 20.045433 16.547523 20.0849 16.517921 20.1 16.475C 21.058678 14.330001 22.321676 12.334463 23.85 10.55C 23.922979 10.449336 23.922979 10.313165 23.85 10.2125C 23.817804 10.106894 23.732273 10.026114 23.625 10C 17.499741 10.574566 12.346347 14.831072 10.625 20.737499C 10.584555 20.862497 10.630145 20.999268 10.7375 21.074999C 10.842079 21.150106 10.982922 21.150106 11.0875 21.074999C 12.927988 19.926163 14.98154 19.160864 17.125 18.825001ZM 23.462502 37.5625C 23.357922 37.487392 23.217079 37.487392 23.112499 37.5625C 22.164061 38.00053 21.176334 38.347908 20.1625 38.600002C 20.029167 38.638889 19.9375 38.761108 19.9375 38.900002C 19.9375 39.038891 20.029167 39.16111 20.1625 39.200001C 21.719872 39.731525 23.354424 40.001839 25 40L 25.375 40C 25.504683 39.992973 25.617733 39.909412 25.662498 39.787498C 25.702946 39.662502 25.657352 39.525726 25.549999 39.450001C 24.9 38.862499 24.1875 38.25 23.462502 37.5625ZM 33.4375 20.549999C 33.441921 20.670094 33.51482 20.777012 33.625 20.825001C 34.646877 21.274506 35.308201 22.283634 35.3125 23.4C 35.315136 23.833349 35.216698 24.261345 35.025002 24.65C 34.94989 24.754578 34.94989 24.89542 35.024998 24.999998C 36.400043 26.719797 37.465889 28.665386 38.174999 30.75C 38.213551 30.876434 38.330315 30.962738 38.462498 30.962498C 38.590363 30.974817 38.709721 30.896976 38.75 30.774998C 39.553242 28.954445 39.978497 26.989763 40 25C 40.012199 19.742611 37.271027 14.862573 32.775002 12.1375C 32.668297 12.069315 32.531704 12.069315 32.424999 12.1375C 32.32296 12.211452 32.278015 12.34129 32.3125 12.4625C 32.991943 15.107153 33.369354 17.820313 33.4375 20.549999ZM 22.012499 16.725C 21.952925 16.861807 21.994164 17.021605 22.112499 17.112499C 22.54141 17.411568 22.885857 17.816292 23.112499 18.2875C 23.180082 18.426756 23.34252 18.49173 23.487499 18.4375L 23.75 18.4375C 26.317902 18.538671 28.79604 19.409721 30.862499 20.9375C 30.964333 21.006781 31.098166 21.006781 31.199999 20.937498L 31.375 20.862499C 31.489246 20.812641 31.562935 20.699652 31.5625 20.575001C 31.457451 17.312851 30.932289 14.077856 30 10.95C 29.964928 10.838809 29.866179 10.759808 29.75 10.75C 28.852503 10.443987 27.927284 10.226288 26.987499 10.1C 26.888834 10.087779 26.790524 10.12523 26.724998 10.2C 24.846367 12.135224 23.258944 14.333194 22.012499 16.725Z"></path></g></g></g><g id="g-root-glob_140ickhehtzwl-fill" data-item-order="3999999100" transform="translate(435, 824)"><g id="glob_140ickhehtzwl-fill" stroke="none" fill="#f4f4f4"><g><path d="M 24.924999 12.5875C 24.985983 12.530526 25.066545 12.499196 25.149998 12.5L 25.599998 12.5C 26.290356 12.5 26.849998 11.940356 26.849998 11.25C 26.849998 10.559644 26.290356 10 25.599998 10C 11.15 10 10 23.1625 10 25C 10 26.8375 11.1375 40 25.599998 40C 26.290356 40 26.849998 39.440353 26.849998 38.75C 26.849998 38.059647 26.290356 37.5 25.599998 37.5L 25.15 37.5C 25.065083 37.496189 24.984732 37.46048 24.925001 37.400002C 23.660631 36.176064 22.559837 34.79377 21.650002 33.287502C 21.596951 33.190544 21.599058 33.072781 21.65554 32.977787C 21.712025 32.882793 21.814482 32.824699 21.924999 32.825001L 23.85 32.825001C 24.540356 32.825001 25.1 32.265354 25.1 31.575001C 25.1 30.884645 24.540356 30.325001 23.85 30.325001L 20.612499 30.325001C 20.473612 30.325001 20.351389 30.233334 20.3125 30.1C 19.996181 28.952532 19.799303 27.775446 19.725 26.5875C 19.715876 26.499063 19.74818 26.411379 19.8125 26.35C 19.859936 26.293943 19.927023 26.258165 20 26.25L 22.5625 26.25C 23.252855 26.25 23.8125 25.690357 23.8125 25C 23.8125 24.309643 23.252855 23.75 22.5625 23.75L 20 23.75C 19.913799 23.752094 19.831209 23.715387 19.775 23.65C 19.712711 23.592495 19.680428 23.509478 19.6875 23.424999C 19.761833 22.23295 19.958704 21.051723 20.275 19.9C 20.313889 19.766666 20.436111 19.674999 20.575001 19.674999L 23.8125 19.674999C 24.502855 19.674999 25.0625 19.115356 25.0625 18.424999C 25.0625 17.734644 24.502855 17.174999 23.8125 17.174999L 21.924999 17.174999C 21.813372 17.176392 21.711029 17.113037 21.6625 17.012501C 21.599728 16.92235 21.599728 16.802649 21.6625 16.7125C 22.587521 15.216451 23.682278 13.832274 24.925001 12.587501ZM 20.475 36.025002C 20.558334 36.136112 20.558334 36.288887 20.475 36.400002C 20.389984 36.510437 20.242113 36.551231 20.112499 36.5C 18.437342 35.77692 16.936886 34.702728 15.712501 33.349998C 15.652211 33.245579 15.652211 33.11692 15.712501 33.012501C 15.76236 32.898254 15.875348 32.824566 16 32.825001L 18.5 32.825001C 18.624653 32.824566 18.73764 32.898254 18.7875 33.012501C 19.242678 34.073124 19.808296 35.082863 20.474998 36.024998ZM 17.7125 30C 17.754778 30.082394 17.754778 30.180107 17.7125 30.262499C 17.653715 30.333082 17.566853 30.374229 17.475 30.375L 13.9 30.375C 13.781874 30.375896 13.674217 30.307388 13.625 30.200001C 13.105442 29.075434 12.759829 27.878431 12.6 26.65C 12.587336 26.559717 12.61473 26.468403 12.675 26.4C 12.72861 26.317865 12.815298 26.263115 12.9125 26.25L 16.9125 26.25C 17.075779 26.249477 17.211939 26.374743 17.225 26.537498C 17.289791 27.703327 17.452871 28.861607 17.7125 30ZM 17.225 23.512501C 17.211939 23.675257 17.075779 23.800524 16.9125 23.799999L 12.9125 23.799999C 12.823223 23.799393 12.737824 23.763435 12.675 23.700001C 12.61473 23.631596 12.587336 23.540283 12.6 23.450001C 12.754843 22.204498 13.10056 20.990269 13.625 19.85C 13.674217 19.742611 13.781874 19.674103 13.9 19.674999L 17.4125 19.674999C 17.505251 19.676832 17.592396 19.71978 17.650349 19.792221C 17.708302 19.864662 17.731071 19.959108 17.7125 20.049999C 17.455633 21.17201 17.29257 22.313448 17.225 23.462502ZM 15.975 17.262501C 15.850348 17.262934 15.73736 17.189247 15.6875 17.075001C 15.627212 16.970577 15.627212 16.841923 15.6875 16.737501C 16.906654 15.351664 18.412165 14.247054 20.1 13.5C 20.229614 13.448769 20.377485 13.489561 20.4625 13.6C 20.545834 13.711111 20.545834 13.863889 20.4625 13.975C 19.791639 14.918912 19.21789 15.928206 18.75 16.987499C 18.70014 17.101746 18.587152 17.175434 18.4625 17.174999ZM 38.75 26.25L 36.762501 26.25C 35.744137 25.35943 34.63369 24.580023 33.450001 23.924999L 33.162502 23.75L 38.75 23.75C 39.440353 23.75 40 23.190357 40 22.5C 40 21.809643 39.440353 21.25 38.75 21.25L 30 21.25C 29.604019 20.705559 29.393661 20.048185 29.400002 19.375C 29.400002 18.625 29.5875 16.875 31.275002 16.875L 36.900002 16.875C 37.590355 16.875 38.150002 16.315355 38.150002 15.625C 38.150002 14.934644 37.590355 14.375 36.900002 14.375L 31.25 14.375C 28.637501 14.375 26.875 16.387501 26.875 19.375C 26.87311 20.012096 26.974422 20.645296 27.174999 21.25L 26.875 21.25C 26.184643 21.25 25.625 21.809643 25.625 22.5C 25.625 23.190357 26.184643 23.75 26.875 23.75L 28.862499 23.75C 29.880863 24.640568 30.991308 25.419977 32.174999 26.074999L 32.5 26.25L 26.875 26.25C 26.184643 26.25 25.625 26.809643 25.625 27.5C 25.625 28.190357 26.184643 28.75 26.875 28.75L 35.625 28.75C 36.029888 29.291348 36.249104 29.94899 36.25 30.625C 36.25 31.375 36.0625 33.125 34.375 33.125L 28.125 33.125C 27.434643 33.125 26.875 33.684647 26.875 34.375C 26.875 35.065353 27.434643 35.625 28.125 35.625L 34.375 35.625C 36.987499 35.625 38.75 33.612499 38.75 30.625C 38.751892 29.987902 38.650578 29.354702 38.450001 28.75L 38.75 28.75C 39.440353 28.75 40 28.190357 40 27.5C 40 26.809643 39.440353 26.25 38.75 26.25Z"></path></g></g></g><g id="g-root-euro_1q9hag1ehprlw-fill" data-item-order="3999999100" transform="translate(27, 824)"><g id="euro_1q9hag1ehprlw-fill" stroke="none" fill="#f4f4f4"><g><path d="M 10 12.1875C 10 10.98 10.98 10 12.1875 10L 37.8125 10C 39.02 10 40 10.98 40 12.1875L 40 37.8125C 40.000004 39.020622 39.020622 40.000004 37.812504 40.000004L 12.1875 40C 10.979377 40.000004 10 39.020622 10 37.812504L 10 12.1875ZM 18.75 32.8125C 18.232233 32.8125 17.8125 33.232235 17.8125 33.75C 17.8125 34.267765 18.232233 34.6875 18.75 34.6875L 31.25 34.6875C 31.767767 34.6875 32.1875 34.267765 32.1875 33.75C 32.1875 33.232235 31.767767 32.8125 31.25 32.8125L 18.75 32.8125ZM 26.151249 28.651249C 26.150759 29.657608 26.670044 30.592852 27.524506 31.124504C 28.378963 31.656155 29.447407 31.708811 30.35 31.26375C 30.612204 31.546574 31.020855 31.639965 31.379883 31.499117C 31.738911 31.358265 31.97505 31.011917 31.975 30.626251L 31.975 28.651249L 31.975 24.375C 31.975 23.857233 31.555269 23.4375 31.0375 23.4375C 30.519733 23.4375 30.1 23.857233 30.1 24.375L 30.1 28.651249C 30.1 29.223902 29.635777 29.688126 29.063126 29.688126C 28.490475 29.688126 28.026251 29.223902 28.026251 28.651251L 28.026249 24.375C 28.026251 23.857233 27.606518 23.4375 27.088751 23.4375C 26.570984 23.4375 26.151251 23.857233 26.151251 24.375L 26.151249 28.651249ZM 17.852501 18.713751C 18.028147 18.537884 18.266443 18.438969 18.514999 18.438751L 24.139999 18.438749C 24.657766 18.438751 25.077499 18.858484 25.077499 19.376251C 25.077499 19.894016 24.657766 20.313751 24.139999 20.313751L 19.452499 20.313751L 19.452499 23.595001L 23.202499 23.595001C 23.720266 23.595001 24.139999 24.014734 24.139999 24.532501C 24.139999 25.050266 23.720266 25.470001 23.202499 25.470001L 19.452499 25.470001L 19.452499 29.688751L 24.139999 29.688751C 24.657766 29.688751 25.077499 30.108482 25.077499 30.626251C 25.077499 31.144018 24.657766 31.563751 24.139999 31.563751L 18.514999 31.563749C 17.997232 31.563751 17.577499 31.144018 17.577499 30.626251L 17.577499 19.375C 17.577719 19.126444 17.676636 18.888147 17.852501 18.7125Z"></path></g></g></g><g id="g-root-tx_ccncangp_qp1u75ehu1hj-fill" data-item-order="4000000000" transform="translate(647, 639)"><g id="tx_ccncangp_qp1u75ehu1hj-fill" stroke="none" fill="#2c2c2c"><g><text style="font: 20px Roboto, sans-serif; white-space: pre;" font-size="20px" font-family="Roboto, sans-serif"><tspan x="19.19" y="34" dominant-baseline="ideographic">Các nước </tspan><tspan x="16.64" y="58" dominant-baseline="ideographic">đang phát </tspan><tspan x="36.86" y="82" dominant-baseline="ideographic">triển?</tspan></text></g></g></g><g id="g-root-tx_khuvchak_znt7vlehitj5-fill" data-item-order="4000000000" transform="translate(213, 627.8525390625)"><g id="tx_khuvchak_znt7vlehitj5-fill" stroke="none" fill="#2c2c2c"><g><text style="font: 20px Roboto, sans-serif; white-space: pre;" font-size="20px" font-family="Roboto, sans-serif"><tspan x="13.41" y="34" dominant-baseline="ideographic">Khu vực hóa </tspan><tspan x="34.27" y="58" dominant-baseline="ideographic">kinh tế?</tspan></text></g></g></g><g id="g-root-tx_linminhk_1d3n1upehu22x-fill" data-item-order="4000000000" transform="translate(671, 815)"><g id="tx_linminhk_1d3n1upehu22x-fill" stroke="none" fill="#2c2c2c"><g><text style="font: 20px Roboto, sans-serif; white-space: pre;" font-size="20px" font-family="Roboto, sans-serif"><tspan x="12" y="34" dominant-baseline="ideographic">Liên minh </tspan><tspan x="12" y="58" dominant-baseline="ideographic">kinh tế</tspan></text></g></g></g><g id="g-root-tx_chnghatb_1lua9epehitji-fill" data-item-order="4000000000" transform="translate(443.9705810546875, 439)"><g id="tx_chnghatb_1lua9epehitji-fill" stroke="none" fill="#2c2c2c"><g><text style="font: 20px Roboto, sans-serif; white-space: pre;" font-size="20px" font-family="Roboto, sans-serif"><tspan x="12" y="34" dominant-baseline="ideographic">Chủ nghĩa tư </tspan><tspan x="12" y="58" dominant-baseline="ideographic">bản độc </tspan><tspan x="12" y="82" dominant-baseline="ideographic">quyền quốc </tspan><tspan x="12" y="106" dominant-baseline="ideographic">tế</tspan></text></g></g></g><g id="g-root-tx_doanhngh_zqxlb5ehaccj-fill" data-item-order="4000000000" transform="translate(449.9705810546875, 263)"><g id="tx_doanhngh_zqxlb5ehaccj-fill" stroke="none" fill="#2c2c2c"><g><text style="font: 20px Roboto, sans-serif; white-space: pre;" font-size="20px" font-family="Roboto, sans-serif"><tspan x="12" y="34" dominant-baseline="ideographic">Doanh </tspan><tspan x="12" y="58" dominant-baseline="ideographic">nghiệp đa </tspan><tspan x="12" y="82" dominant-baseline="ideographic">quốc gia </tspan><tspan x="12" y="106" dominant-baseline="ideographic">bành trướng</tspan></text></g></g></g><g id="g-root-tx_toncuha_13ymxb5ehabr4-fill" data-item-order="4000000000" transform="translate(461.9705810546875, 135)"><g id="tx_toncuha_13ymxb5ehabr4-fill" stroke="none" fill="#2c2c2c"><g><text style="font: 20px Roboto, sans-serif; white-space: pre;" font-size="20px" font-family="Roboto, sans-serif"><tspan x="12" y="34" dominant-baseline="ideographic">Toàn cầu </tspan><tspan x="12" y="58" dominant-baseline="ideographic">hóa</tspan></text></g></g></g><g id="g-root-tx_eu_4j79r5ehptdv-fill" data-item-order="4000000000" transform="translate(63, 827)"><g id="tx_eu_4j79r5ehptdv-fill" stroke="none" fill="#2c2c2c"><g><text style="font: 20px Roboto, sans-serif; white-space: pre;" font-size="20px" font-family="Roboto, sans-serif"><tspan x="12" y="34" dominant-baseline="ideographic">EU</tspan></text></g></g></g><g id="g-root-tx_nafta_909q1tehr85i-fill" data-item-order="4000000000" transform="translate(179, 827)"><g id="tx_nafta_909q1tehr85i-fill" stroke="none" fill="#2c2c2c"><g><text style="font: 20px Roboto, sans-serif; white-space: pre;" font-size="20px" font-family="Roboto, sans-serif"><tspan x="12" y="34" dominant-baseline="ideographic">NAFTA</tspan></text></g></g></g><g id="g-root-tx_opec_1cxeazlehsn49-fill" data-item-order="4000000000" transform="translate(331, 827)"><g id="tx_opec_1cxeazlehsn49-fill" stroke="none" fill="#2c2c2c"><g><text style="font: 20px Roboto, sans-serif; white-space: pre;" font-size="20px" font-family="Roboto, sans-serif"><tspan x="12" y="34" dominant-baseline="ideographic">OPEC</tspan></text></g></g></g><g id="g-root-tx_mercosur_18gbuoxehtz4c-fill" data-item-order="4000000000" transform="translate(471, 827)"><g id="tx_mercosur_18gbuoxehtz4c-fill" stroke="none" fill="#2c2c2c"><g><text style="font: 20px Roboto, sans-serif; white-space: pre;" font-size="20px" font-family="Roboto, sans-serif"><tspan x="12" y="34" dominant-baseline="ideographic">MERCOSUR</tspan></text></g></g></g><g id="g-root-di_m9ut5tehtz40-stroke" data-item-order="-31105" transform="translate(592.9982299804688, 602.99951171875)"><g id="di_m9ut5tehtz40-stroke" fill="none" stroke-linecap="round" stroke-linejoin="round" stroke-miterlimit="4" stroke="#2c2c2c" stroke-width="2"><g><path d="M 10.000122 82.000488L 118.000122 154.000488L 226.000122 82.000488L 118.000122 10.000488Z"></path></g></g></g><g id="g-root-di_mcz6ldehirya-stroke" data-item-order="-23051" transform="translate(155.04949951171875, 602.99755859375)"><g id="di_mcz6ldehirya-stroke" fill="none" stroke-linecap="round" stroke-linejoin="round" stroke-miterlimit="4" stroke="#2c2c2c" stroke-width="2"><g><path d="M 10.000031 58.860488L 127.950031 107.710488L 245.900031 58.860488L 127.950031 10.000488Z"></path></g></g></g><g id="g-root-ro_143mq01ehisqw-stroke" data-item-order="-23040" transform="translate(395.9705810546875, 427)"><g id="ro_143mq01ehisqw-stroke" fill="none" stroke-linecap="round" stroke-linejoin="round" stroke-miterlimit="4" stroke="#2c2c2c" stroke-width="2"><g><path d="M 22 10L 190 10C 190 10 202 10 202 22L 202 118C 202 118 202 130 190 130L 22 130C 22 130 10 130 10 118L 10 22C 10 22 10 10 22 10"></path></g></g></g><g id="g-root-ro_mfh2xtehadxh-stroke" data-item-order="-21600" transform="translate(401.9705810546875, 251)"><g id="ro_mfh2xtehadxh-stroke" fill="none" stroke-linecap="round" stroke-linejoin="round" stroke-miterlimit="4" stroke="#2c2c2c" stroke-width="2"><g><path d="M 22 10L 178 10C 178 10 190 10 190 22L 190 118C 190 118 190 130 178 130L 22 130C 22 130 10 130 10 118L 10 22C 10 22 10 10 22 10"></path></g></g></g><g id="g-root-ro_v4vcblehu0pa-stroke" data-item-order="-12960" transform="translate(423, 803)"><g id="ro_v4vcblehu0pa-stroke" fill="none" stroke-linecap="round" stroke-linejoin="round" stroke-miterlimit="4" stroke="#2c2c2c" stroke-width="2"><g><path d="M 22 10L 178 10C 178 10 190 10 190 22L 190 70C 190 70 190 82 178 82L 22 82C 22 82 10 82 10 70L 10 22C 10 22 10 10 22 10"></path></g></g></g><g id="g-root-ro_qn6extehadc2-stroke" data-item-order="-11232" transform="translate(413.9705810546875, 123)"><g id="ro_qn6extehadc2-stroke" fill="none" stroke-linecap="round" stroke-linejoin="round" stroke-miterlimit="4" stroke="#2c2c2c" stroke-width="2"><g><path d="M 22 10L 154 10C 154 10 166 10 166 22L 166 70C 166 70 166 82 154 82L 22 82C 22 82 10 82 10 70L 10 22C 10 22 10 10 22 10"></path></g></g></g><g id="g-root-ro_zitf6pehvf2j-stroke" data-item-order="-11232" transform="translate(623, 803)"><g id="ro_zitf6pehvf2j-stroke" fill="none" stroke-linecap="round" stroke-linejoin="round" stroke-miterlimit="4" stroke="#2c2c2c" stroke-width="2"><g><path d="M 22 10L 154 10C 154 10 166 10 166 22L 166 70C 166 70 166 82 154 82L 22 82C 22 82 10 82 10 70L 10 22C 10 22 10 10 22 10"></path></g></g></g><g id="g-root-ro_1uqjqqpehr6dk-stroke" data-item-order="-9504" transform="translate(131, 803)"><g id="ro_1uqjqqpehr6dk-stroke" fill="none" stroke-linecap="round" stroke-linejoin="round" stroke-miterlimit="4" stroke="#2c2c2c" stroke-width="2"><g><path d="M 22 10L 130 10C 130 10 142 10 142 22L 142 70C 142 70 142 82 130 82L 22 82C 22 82 10 82 10 70L 10 22C 10 22 10 10 22 10"></path></g></g></g><g id="g-root-ro_zmk9pdehsljf-stroke" data-item-order="-8640" transform="translate(283, 803)"><g id="ro_zmk9pdehsljf-stroke" fill="none" stroke-linecap="round" stroke-linejoin="round" stroke-miterlimit="4" stroke="#2c2c2c" stroke-width="2"><g><path d="M 22 10L 118 10C 118 10 130 10 130 22L 130 70C 130 70 130 82 118 82L 22 82C 22 82 10 82 10 70L 10 22C 10 22 10 10 22 10"></path></g></g></g><g id="g-root-ro_1hdua75ehpsel-stroke" data-item-order="-6912" transform="translate(15, 803)"><g id="ro_1hdua75ehpsel-stroke" fill="none" stroke-linecap="round" stroke-linejoin="round" stroke-miterlimit="4" stroke="#2c2c2c" stroke-width="2"><g><path d="M 22 10L 94 10C 94 10 106 10 106 22L 106 70C 106 70 106 82 94 82L 22 82C 22 82 10 82 10 70L 10 22C 10 22 10 10 22 10"></path></g></g></g><g id="g-root-tx_biuhinca_1hd7t41ehveo3-stroke" data-item-order="0" transform="translate(130.00003051757812, 39)"></g><g id="g-root-cu_ddlbttehvggf-stroke" data-item-order="2" transform="translate(491.9705810546875, 371)"><g id="cu_ddlbttehvggf-stroke" fill="none" stroke-linecap="round" stroke-linejoin="round" stroke-miterlimit="4" stroke="#f4f4f4" stroke-width="2"><g><path d="M 10 10L 10 38L 10 64"></path><path d="M 3.5 58L 10 64.5L 16.5 58" stroke-dasharray="none"></path></g></g></g><g id="g-root-cu_htety9ehvgg2-stroke" data-item-order="2" transform="translate(273, 547)"><g id="cu_htety9ehvgg2-stroke" fill="none" stroke-linecap="round" stroke-linejoin="round" stroke-miterlimit="4" stroke="#f4f4f4" stroke-width="2"><g><path d="M 229 10L 229 24L 229 38L 119.5 38L 10 38L 10 52L 10 64"></path><path d="M 3.5 58L 10 64.5L 16.5 58" stroke-dasharray="none"></path></g></g></g><g id="g-root-cu_1q88c9tehvg9a-stroke" data-item-order="2" transform="translate(491.9705810546875, 547)"><g id="cu_1q88c9tehvg9a-stroke" fill="none" stroke-linecap="round" stroke-linejoin="round" stroke-miterlimit="4" stroke="#f4f4f4" stroke-width="2"><g><path d="M 10 10L 10 24L 10 38L 114.5 38L 219 38L 219 52L 219 64"></path><path d="M 212.5 58L 219 64.5L 225.5 58" stroke-dasharray="none"></path></g></g></g><g id="g-root-cu_m98c2pehvfno-stroke" data-item-order="2" transform="translate(491.9705810546875, 195)"><g id="cu_m98c2pehvfno-stroke" fill="none" stroke-linecap="round" stroke-linejoin="round" stroke-miterlimit="4" stroke="#f4f4f4" stroke-width="2"><g><path d="M 10 10L 10 38L 10 64"></path><path d="M 3.5 58L 10 64.5L 16.5 58" stroke-dasharray="none"></path></g></g></g><g id="g-root-cu_8yeashehve31-stroke" data-item-order="2" transform="translate(63, 700.71142578125)"><g id="cu_8yeashehve31-stroke" fill="none" stroke-linecap="round" stroke-linejoin="round" stroke-miterlimit="4" stroke="#f4f4f4" stroke-width="2"><g><path d="M 220 9.999023L 220 35.599023L 220 61.099023L 115 61.099023L 10 61.099023L 10 86.699023L 10 110.299023"></path><path d="M 3.5 104.299023L 10 110.799023L 16.5 104.299023" stroke-dasharray="none"></path></g></g></g><g id="g-root-cu_4ikso1ehvevc-stroke" data-item-order="2" transform="translate(197, 700.71142578125)"><g id="cu_4ikso1ehvevc-stroke" fill="none" stroke-linecap="round" stroke-linejoin="round" stroke-miterlimit="4" stroke="#f4f4f4" stroke-width="2"><g><path d="M 86 9.999023L 86 35.599023L 86 61.099023L 48 61.099023L 10 61.099023L 10 86.699023L 10 110.299023"></path><path d="M 3.5 104.299023L 10 110.799023L 16.5 104.299023" stroke-dasharray="none"></path></g></g></g><g id="g-root-cu_2rajlehvfnm-stroke" data-item-order="2" transform="translate(273, 700.71142578125)"><g id="cu_2rajlehvfnm-stroke" fill="none" stroke-linecap="round" stroke-linejoin="round" stroke-miterlimit="4" stroke="#f4f4f4" stroke-width="2"><g><path d="M 10 9.999023L 10 35.599023L 10 61.099023L 45 61.099023L 80 61.099023L 80 86.699023L 80 110.299023"></path><path d="M 73.5 104.299023L 80 110.799023L 86.5 104.299023" stroke-dasharray="none"></path></g></g></g><g id="g-root-cu_2rajlehvfno-stroke" data-item-order="2" transform="translate(273, 700.71142578125)"><g id="cu_2rajlehvfno-stroke" fill="none" stroke-linecap="round" stroke-linejoin="round" stroke-miterlimit="4" stroke="#f4f4f4" stroke-width="2"><g><path d="M 10 9.999023L 10 35.599023L 10 61.099023L 130 61.099023L 250 61.099023L 250 86.699023L 250 110.299023"></path><path d="M 243.5 104.299023L 250 110.799023L 256.5 104.299023" stroke-dasharray="none"></path></g></g></g><g id="g-root-cu_1lt1b8hehvdvs-stroke" data-item-order="2" transform="translate(701, 747.0009765625)"><g id="cu_1lt1b8hehvdvs-stroke" fill="none" stroke-linecap="round" stroke-linejoin="round" stroke-miterlimit="4" stroke="#f4f4f4" stroke-width="2"><g><path d="M 10 9.999023L 10 23.999023L 10 37.999023L 10 37.999023L 10 37.999023L 10 51.999023L 10 63.999023"></path><path d="M 3.5 57.999023L 10 64.499023L 16.5 57.999023" stroke-dasharray="none"></path></g></g></g><g id="g-root-glob_18jg84hehiryn-stroke" data-item-order="3999999100" transform="translate(407.9705810546875, 472)"></g><g id="g-root-ftp_4mpsxehr8y7-stroke" data-item-order="3999999100" transform="translate(143, 824)"></g><g id="g-root-hand_18egfflehve9u-stroke" data-item-order="3999999100" transform="translate(635, 824)"></g><g id="g-root-2_18i79y9ehskqq-stroke" data-item-order="3999999100" transform="translate(295, 824)"></g><g id="g-root-ente_qval29ehad58-stroke" data-item-order="3999999100" transform="translate(413.9705810546875, 296)"></g><g id="g-root-netw_v2zx29ehacjt-stroke" data-item-order="3999999100" transform="translate(425.9705810546875, 144)"></g><g id="g-root-glob_140ickhehtzwl-stroke" data-item-order="3999999100" transform="translate(435, 824)"></g><g id="g-root-euro_1q9hag1ehprlw-stroke" data-item-order="3999999100" transform="translate(27, 824)"></g><g id="g-root-tx_ccncangp_qp1u75ehu1hj-stroke" data-item-order="4000000000" transform="translate(647, 639)"></g><g id="g-root-tx_khuvchak_znt7vlehitj5-stroke" data-item-order="4000000000" transform="translate(213, 627.8525390625)"></g><g id="g-root-tx_linminhk_1d3n1upehu22x-stroke" data-item-order="4000000000" transform="translate(671, 815)"></g><g id="g-root-tx_chnghatb_1lua9epehitji-stroke" data-item-order="4000000000" transform="translate(443.9705810546875, 439)"></g><g id="g-root-tx_doanhngh_zqxlb5ehaccj-stroke" data-item-order="4000000000" transform="translate(449.9705810546875, 263)"></g><g id="g-root-tx_toncuha_13ymxb5ehabr4-stroke" data-item-order="4000000000" transform="translate(461.9705810546875, 135)"></g><g id="g-root-tx_eu_4j79r5ehptdv-stroke" data-item-order="4000000000" transform="translate(63, 827)"></g><g id="g-root-tx_nafta_909q1tehr85i-stroke" data-item-order="4000000000" transform="translate(179, 827)"></g><g id="g-root-tx_opec_1cxeazlehsn49-stroke" data-item-order="4000000000" transform="translate(331, 827)"></g><g id="g-root-tx_mercosur_18gbuoxehtz4c-stroke" data-item-order="4000000000" transform="translate(471, 827)"></g></g></g></svg>